M48
; DRILL file {KiCad 7.0.9} date Thu 11 Jan 2024 10:20:37 PM CET
; FORMAT={-:-/ absolute / metric / decimal}
; #@! TF.CreationDate,2024-01-11T22:20:37+01:00
; #@! TF.GenerationSoftware,Kicad,Pcbnew,7.0.9
; #@! TF.FileFunction,NonPlated,1,4,NPTH
FMAT,2
METRIC
; #@! TA.AperFunction,NonPlated,NPTH,ComponentDrill
T1C0.900
; #@! TA.AperFunction,NonPlated,NPTH,ComponentDrill
T2C0.991
; #@! TA.AperFunction,NonPlated,NPTH,ComponentDrill
T3C1.702
; #@! TA.AperFunction,NonPlated,NPTH,ComponentDrill
T4C2.200
; #@! TA.AperFunction,NonPlated,NPTH,ComponentDrill
T5C3.000
; #@! TA.AperFunction,NonPlated,NPTH,ComponentDrill
T6C3.429
%
G90
G05
T1
X277.23Y-114.4
X277.23Y-117.4
T2
X243.834Y-90.46
X244.85Y-95.54
X245.866Y-90.46
T3
X138.62Y-98.84
X138.62Y-115.84
X138.62Y-132.84
X138.62Y-149.84
X149.62Y-98.84
X149.62Y-115.84
X149.62Y-132.84
X149.62Y-149.84
X156.62Y-98.84
X156.62Y-115.84
X156.62Y-132.84
X156.62Y-149.84
X167.62Y-98.84
X167.62Y-115.84
X167.62Y-132.84
X167.62Y-149.84
X174.62Y-86.84
X174.62Y-103.84
X174.62Y-120.84
X174.62Y-137.84
X185.62Y-86.84
X185.62Y-103.84
X185.62Y-120.84
X185.62Y-137.84
X192.62Y-82.84
X192.62Y-99.84
X192.62Y-116.84
X192.62Y-133.84
X203.62Y-82.84
X203.62Y-99.84
X203.62Y-116.84
X203.62Y-133.84
X203.62Y-160.84
X210.62Y-87.84
X210.62Y-104.84
X210.62Y-121.84
X210.62Y-138.84
X214.62Y-160.84
X221.62Y-87.84
X221.62Y-104.84
X221.62Y-121.84
X221.62Y-138.84
X221.62Y-160.84
X228.62Y-90.84
X228.62Y-107.84
X228.62Y-124.84
X228.62Y-141.84
X232.62Y-160.84
X239.62Y-90.84
X239.62Y-107.84
X239.62Y-124.84
X239.62Y-141.84
X239.62Y-160.84
X248.62Y-143.84
X250.62Y-160.84
X257.62Y-160.84
X259.62Y-143.84
X268.62Y-160.84
T4
X168.5Y-87.2
X186.1Y-153.9
X267.6Y-146.6
T5
X144.12Y-92.89
X144.12Y-109.89
X144.12Y-126.89
X144.12Y-143.89
X149.12Y-95.09
X149.12Y-112.09
X149.12Y-129.09
X149.12Y-146.09
X162.12Y-92.89
X162.12Y-109.89
X162.12Y-126.89
X162.12Y-143.89
X167.12Y-95.09
X167.12Y-112.09
X167.12Y-129.09
X167.12Y-146.09
X180.12Y-80.89
X180.12Y-97.89
X180.12Y-114.89
X180.12Y-131.89
X185.12Y-83.09
X185.12Y-100.09
X185.12Y-117.09
X185.12Y-134.09
X198.12Y-76.89
X198.12Y-93.89
X198.12Y-110.89
X198.12Y-127.89
X203.12Y-79.09
X203.12Y-96.09
X203.12Y-113.09
X203.12Y-130.09
X209.12Y-154.89
X214.12Y-157.09
X216.12Y-81.89
X216.12Y-98.89
X216.12Y-115.89
X216.12Y-132.89
X221.12Y-84.09
X221.12Y-101.09
X221.12Y-118.09
X221.12Y-135.09
X227.12Y-154.89
X232.12Y-157.09
X234.12Y-84.89
X234.12Y-101.89
X234.12Y-118.89
X234.12Y-135.89
X239.12Y-87.09
X239.12Y-104.09
X239.12Y-121.09
X239.12Y-138.09
X245.12Y-154.89
X250.12Y-157.09
X254.12Y-137.89
X259.12Y-140.09
X263.12Y-154.89
X268.12Y-157.09
T6
X144.12Y-98.84
X144.12Y-115.84
X144.12Y-132.84
X144.12Y-149.84
X162.12Y-98.84
X162.12Y-115.84
X162.12Y-132.84
X162.12Y-149.84
X180.12Y-86.84
X180.12Y-103.84
X180.12Y-120.84
X180.12Y-137.84
X198.12Y-82.84
X198.12Y-99.84
X198.12Y-116.84
X198.12Y-133.84
X209.12Y-160.84
X216.12Y-87.84
X216.12Y-104.84
X216.12Y-121.84
X216.12Y-138.84
X227.12Y-160.84
X234.12Y-90.84
X234.12Y-107.84
X234.12Y-124.84
X234.12Y-141.84
X245.12Y-160.84
X254.12Y-143.84
X263.12Y-160.84
T0
M30
