G04 #@! TF.GenerationSoftware,KiCad,Pcbnew,7.0.9*
G04 #@! TF.CreationDate,2024-01-11T22:18:43+01:00*
G04 #@! TF.ProjectId,keyboard,6b657962-6f61-4726-942e-6b696361645f,v1.0.0*
G04 #@! TF.SameCoordinates,Original*
G04 #@! TF.FileFunction,Copper,L2,Inr*
G04 #@! TF.FilePolarity,Positive*
%FSLAX46Y46*%
G04 Gerber Fmt 4.6, Leading zero omitted, Abs format (unit mm)*
G04 Created by KiCad (PCBNEW 7.0.9) date 2024-01-11 22:18:43*
%MOMM*%
%LPD*%
G01*
G04 APERTURE LIST*
G04 Aperture macros list*
%AMRoundRect*
0 Rectangle with rounded corners*
0 $1 Rounding radius*
0 $2 $3 $4 $5 $6 $7 $8 $9 X,Y pos of 4 corners*
0 Add a 4 corners polygon primitive as box body*
4,1,4,$2,$3,$4,$5,$6,$7,$8,$9,$2,$3,0*
0 Add four circle primitives for the rounded corners*
1,1,$1+$1,$2,$3*
1,1,$1+$1,$4,$5*
1,1,$1+$1,$6,$7*
1,1,$1+$1,$8,$9*
0 Add four rect primitives between the rounded corners*
20,1,$1+$1,$2,$3,$4,$5,0*
20,1,$1+$1,$4,$5,$6,$7,0*
20,1,$1+$1,$6,$7,$8,$9,0*
20,1,$1+$1,$8,$9,$2,$3,0*%
G04 Aperture macros list end*
G04 #@! TA.AperFunction,ComponentPad*
%ADD10O,1.800000X1.000000*%
G04 #@! TD*
G04 #@! TA.AperFunction,ComponentPad*
%ADD11O,2.200000X1.000000*%
G04 #@! TD*
G04 #@! TA.AperFunction,ComponentPad*
%ADD12C,2.032000*%
G04 #@! TD*
G04 #@! TA.AperFunction,ComponentPad*
%ADD13RoundRect,0.250000X0.350000X0.625000X-0.350000X0.625000X-0.350000X-0.625000X0.350000X-0.625000X0*%
G04 #@! TD*
G04 #@! TA.AperFunction,ComponentPad*
%ADD14O,1.200000X1.750000*%
G04 #@! TD*
G04 #@! TA.AperFunction,ViaPad*
%ADD15C,0.700000*%
G04 #@! TD*
G04 #@! TA.AperFunction,ViaPad*
%ADD16C,0.800000*%
G04 #@! TD*
G04 #@! TA.AperFunction,Conductor*
%ADD17C,0.500000*%
G04 #@! TD*
G04 #@! TA.AperFunction,Conductor*
%ADD18C,0.300000*%
G04 #@! TD*
G04 #@! TA.AperFunction,Conductor*
%ADD19C,0.250000*%
G04 #@! TD*
G04 #@! TA.AperFunction,Conductor*
%ADD20C,0.400000*%
G04 #@! TD*
G04 #@! TA.AperFunction,Conductor*
%ADD21C,0.200000*%
G04 #@! TD*
G04 APERTURE END LIST*
D10*
X273585000Y-96375000D03*
D11*
X277610000Y-96380000D03*
X277610000Y-107620000D03*
D10*
X273585000Y-107625000D03*
D12*
X234120000Y-147740000D03*
X229120000Y-145640000D03*
X180120000Y-109740000D03*
X175120000Y-107640000D03*
X162120000Y-104740000D03*
X157120000Y-102640000D03*
X263120000Y-166740000D03*
X258120000Y-164640000D03*
X144120000Y-121740000D03*
X139120000Y-119640000D03*
X144120000Y-138740000D03*
X139120000Y-136640000D03*
X198120000Y-122740000D03*
X193120000Y-120640000D03*
X198120000Y-139740000D03*
X193120000Y-137640000D03*
X162120000Y-121740000D03*
X157120000Y-119640000D03*
X216120000Y-144740000D03*
X211120000Y-142640000D03*
X209120000Y-166740000D03*
X204120000Y-164640000D03*
X216120000Y-127740000D03*
X211120000Y-125640000D03*
X227120000Y-166740000D03*
X222120000Y-164640000D03*
X245120000Y-166740000D03*
X240120000Y-164640000D03*
X216120000Y-93740000D03*
X211120000Y-91640000D03*
X216120000Y-110740000D03*
X211120000Y-108640000D03*
X198120000Y-105740000D03*
X193120000Y-103640000D03*
X254120000Y-149740000D03*
X249120000Y-147640000D03*
X162120000Y-138740000D03*
X157120000Y-136640000D03*
D13*
X253500000Y-98000000D03*
D14*
X251500000Y-98000000D03*
D12*
X198120000Y-88740000D03*
X193120000Y-86640000D03*
X234120000Y-130740000D03*
X229120000Y-128640000D03*
X234120000Y-96740000D03*
X229120000Y-94640000D03*
X234120000Y-113740000D03*
X229120000Y-111640000D03*
X180120000Y-92740000D03*
X175120000Y-90640000D03*
X180120000Y-126740000D03*
X175120000Y-124640000D03*
X162120000Y-155740000D03*
X157120000Y-153640000D03*
X180120000Y-143740000D03*
X175120000Y-141640000D03*
X144120000Y-155740000D03*
X139120000Y-153640000D03*
X144120000Y-104740000D03*
X139120000Y-102640000D03*
D15*
X270750000Y-107550000D03*
X270500000Y-95000000D03*
X269087500Y-106075000D03*
X254463496Y-110036504D03*
X268350201Y-99825862D03*
X259400000Y-104680000D03*
X170440000Y-146130000D03*
X206380000Y-79250000D03*
X271390000Y-157090000D03*
X242410000Y-138090000D03*
X257250000Y-108750000D03*
X188410000Y-100090000D03*
X188430000Y-83060000D03*
D16*
X250100000Y-103100000D03*
D15*
X224500000Y-84250000D03*
D16*
X248250000Y-110590000D03*
D15*
X246430000Y-91730000D03*
X265970000Y-90310002D03*
X152440000Y-146170000D03*
X242400000Y-121160000D03*
X206370000Y-130080000D03*
X152180000Y-95290000D03*
X260880000Y-84030000D03*
X224400000Y-118140000D03*
D16*
X248500000Y-103100000D03*
D15*
X188440000Y-117060000D03*
X268349842Y-100788006D03*
X276800000Y-121700000D03*
X266050000Y-85070000D03*
X273950000Y-90700000D03*
X224640000Y-101060000D03*
X242045995Y-87365995D03*
X152400000Y-129080000D03*
X242390000Y-104130000D03*
X206550000Y-113090000D03*
D16*
X262862500Y-109725000D03*
D15*
X260990000Y-82970000D03*
X235410000Y-157040000D03*
X251139886Y-82768839D03*
X217340000Y-157180000D03*
D16*
X253500000Y-103700000D03*
D15*
X206700000Y-95830000D03*
X170380000Y-95150000D03*
X262390000Y-140110000D03*
X170250000Y-111950000D03*
X152410000Y-112110000D03*
X188410000Y-134110000D03*
X253410000Y-157070000D03*
D16*
X272690000Y-112565000D03*
X267900000Y-119000000D03*
D15*
X224630000Y-134990000D03*
X170470000Y-129120000D03*
X271540000Y-121820000D03*
X256870000Y-104360000D03*
X277620000Y-85020000D03*
X267030000Y-97610000D03*
X269087500Y-104575000D03*
X271154779Y-101715900D03*
X270450000Y-103175000D03*
X269487482Y-101256956D03*
X246399994Y-94270000D03*
X243280000Y-94300000D03*
X246410000Y-93000000D03*
X269900000Y-123600000D03*
X243200000Y-93000000D03*
X276560000Y-85200000D03*
X277040000Y-92600000D03*
D16*
X273005423Y-113894577D03*
X254500000Y-104600000D03*
X273705423Y-85705423D03*
X273800000Y-118300000D03*
D15*
X260820000Y-85450000D03*
X261590000Y-86450000D03*
X264710000Y-91530000D03*
X259210000Y-84950000D03*
X218200000Y-85360000D03*
X259050000Y-86040000D03*
X212845000Y-81890000D03*
X259070000Y-89859500D03*
X212845000Y-98890000D03*
X260330000Y-93740000D03*
X259050000Y-87400000D03*
X194845000Y-76890000D03*
X176845000Y-80890000D03*
X257570000Y-87599500D03*
X212845000Y-115890000D03*
X260890000Y-91210000D03*
X258770000Y-93750000D03*
X257570000Y-86000000D03*
X260870000Y-88590000D03*
X194845000Y-93890000D03*
X230845000Y-118890000D03*
X257539998Y-92210000D03*
X257220000Y-93760000D03*
X194845000Y-127890000D03*
X254530000Y-86060000D03*
X259080002Y-88579996D03*
X176845000Y-97890000D03*
X256040000Y-90990000D03*
X255730000Y-93750000D03*
X253090000Y-86060000D03*
X230845000Y-84890000D03*
X254570000Y-91040000D03*
X254290000Y-93750000D03*
X158845000Y-92890000D03*
X256050000Y-86040000D03*
X253050000Y-91000000D03*
X194845000Y-110890000D03*
X140845000Y-92890000D03*
X260890000Y-89870000D03*
X230845000Y-101890000D03*
D17*
X273590000Y-96380000D02*
X273585000Y-96375000D01*
X268180615Y-99825862D02*
X267549842Y-100456635D01*
X258425000Y-106075000D02*
X259460000Y-106075000D01*
X254463496Y-110036504D02*
X258425000Y-106075000D01*
X270680000Y-104750000D02*
X270680000Y-105490000D01*
X267549842Y-100456635D02*
X267549842Y-101619842D01*
X267549842Y-101619842D02*
X270680000Y-104750000D01*
X268350201Y-99825862D02*
X268180615Y-99825862D01*
X270680000Y-105490000D02*
X270095000Y-106075000D01*
X259460000Y-106075000D02*
X269087500Y-106075000D01*
D18*
X259400000Y-104680000D02*
X259460000Y-104740000D01*
X259460000Y-104740000D02*
X259460000Y-106075000D01*
D17*
X270095000Y-106075000D02*
X269087500Y-106075000D01*
D18*
X264720000Y-121820000D02*
X251500000Y-108600000D01*
X251500000Y-108600000D02*
X251500000Y-98000000D01*
X271540000Y-121820000D02*
X264720000Y-121820000D01*
D19*
X277005000Y-84405000D02*
X277620000Y-85020000D01*
X276226558Y-84405000D02*
X277005000Y-84405000D01*
X256870000Y-103761558D02*
X276226558Y-84405000D01*
X256870000Y-104360000D02*
X256870000Y-103761558D01*
D20*
X266610000Y-98030000D02*
X267030000Y-97610000D01*
X269087500Y-104575000D02*
X266610000Y-102097500D01*
X266610000Y-102097500D02*
X266610000Y-98030000D01*
D18*
X246000000Y-111100000D02*
X247800000Y-112900000D01*
X247800000Y-112900000D02*
X253500000Y-112900000D01*
X246410000Y-93000000D02*
X247800000Y-94390000D01*
X247800000Y-94390000D02*
X247800000Y-98000000D01*
X253500000Y-112900000D02*
X264200000Y-123600000D01*
X247800000Y-98000000D02*
X246000000Y-99800000D01*
X246000000Y-99800000D02*
X246000000Y-111100000D01*
X264200000Y-123600000D02*
X269900000Y-123600000D01*
D19*
X256420000Y-103383604D02*
X273705423Y-86098181D01*
X273705423Y-86098181D02*
X273705423Y-85705423D01*
X254500000Y-104600000D02*
X255716396Y-103383604D01*
X255716396Y-103383604D02*
X256420000Y-103383604D01*
D21*
X212875000Y-84570000D02*
X212845000Y-84540000D01*
X218200000Y-85360000D02*
X218200000Y-85130000D01*
D18*
X212845000Y-90465000D02*
X212845000Y-84540000D01*
D21*
X218200000Y-85130000D02*
X217640000Y-84570000D01*
X217640000Y-84570000D02*
X212875000Y-84570000D01*
D18*
X212845000Y-84540000D02*
X212845000Y-81890000D01*
X216120000Y-93740000D02*
X212845000Y-90465000D01*
D20*
X194845000Y-85465000D02*
X194845000Y-76890000D01*
X198120000Y-88740000D02*
X194845000Y-85465000D01*
X180120000Y-92740000D02*
X176845000Y-89465000D01*
X176845000Y-89465000D02*
X176845000Y-80890000D01*
X158845000Y-101465000D02*
X158845000Y-92890000D01*
X162120000Y-104740000D02*
X158845000Y-101465000D01*
X140845000Y-101465000D02*
X140845000Y-92890000D01*
X144120000Y-104740000D02*
X140845000Y-101465000D01*
M02*
