M48
; DRILL file {KiCad 7.0.9} date Thu 11 Jan 2024 10:20:37 PM CET
; FORMAT={-:-/ absolute / metric / decimal}
; #@! TF.CreationDate,2024-01-11T22:20:37+01:00
; #@! TF.GenerationSoftware,Kicad,Pcbnew,7.0.9
; #@! TF.FileFunction,Plated,1,4,PTH
FMAT,2
METRIC
; #@! TA.AperFunction,Plated,PTH,ViaDrill
T1C0.300
; #@! TA.AperFunction,Plated,PTH,ViaDrill
T2C0.400
; #@! TA.AperFunction,Plated,PTH,ComponentDrill
T3C0.600
; #@! TA.AperFunction,Plated,PTH,ComponentDrill
T4C0.750
; #@! TA.AperFunction,Plated,PTH,ComponentDrill
T5C1.270
%
G90
G05
T1
X140.845Y-92.89
X152.18Y-95.29
X152.4Y-129.08
X152.41Y-112.11
X152.44Y-146.17
X158.845Y-92.89
X170.25Y-111.95
X170.38Y-95.15
X170.44Y-146.13
X170.47Y-129.12
X176.845Y-80.89
X176.845Y-97.89
X188.41Y-100.09
X188.41Y-134.11
X188.43Y-83.06
X188.44Y-117.06
X194.845Y-76.89
X194.845Y-93.89
X194.845Y-110.89
X194.845Y-127.89
X206.37Y-130.08
X206.38Y-79.25
X206.55Y-113.09
X206.7Y-95.83
X212.845Y-81.89
X212.845Y-98.89
X212.845Y-115.89
X217.34Y-157.18
X218.2Y-85.36
X224.4Y-118.14
X224.5Y-84.25
X224.63Y-134.99
X224.64Y-101.06
X230.845Y-84.89
X230.845Y-101.89
X230.845Y-118.89
X235.41Y-157.04
X242.046Y-87.366
X242.39Y-104.13
X242.4Y-121.16
X242.41Y-138.09
X243.2Y-93.0
X243.28Y-94.3
X246.4Y-94.27
X246.41Y-93.0
X246.43Y-91.73
X251.14Y-82.769
X253.05Y-91.0
X253.09Y-86.06
X253.41Y-157.07
X254.29Y-93.75
X254.463Y-110.037
X254.53Y-86.06
X254.57Y-91.04
X255.73Y-93.75
X256.04Y-90.99
X256.05Y-86.04
X256.87Y-104.36
X257.22Y-93.76
X257.25Y-108.75
X257.54Y-92.21
X257.57Y-86.0
X257.57Y-87.599
X258.77Y-93.75
X259.05Y-86.04
X259.05Y-87.4
X259.07Y-89.859
X259.08Y-88.58
X259.21Y-84.95
X259.4Y-104.68
X260.33Y-93.74
X260.82Y-85.45
X260.87Y-88.59
X260.88Y-84.03
X260.89Y-89.87
X260.89Y-91.21
X260.99Y-82.97
X261.59Y-86.45
X262.39Y-140.11
X264.71Y-91.53
X265.97Y-90.31
X266.05Y-85.07
X267.03Y-97.61
X268.35Y-100.788
X268.35Y-99.826
X269.087Y-104.575
X269.087Y-106.075
X269.487Y-101.257
X269.9Y-123.6
X270.45Y-103.175
X270.5Y-95.0
X270.75Y-107.55
X271.155Y-101.716
X271.39Y-157.09
X271.54Y-121.82
X273.95Y-90.7
X276.56Y-85.2
X276.8Y-121.7
X277.04Y-92.6
X277.62Y-85.02
T2
X248.25Y-110.59
X248.5Y-103.1
X250.1Y-103.1
X253.5Y-103.7
X254.5Y-104.6
X262.863Y-109.725
X267.9Y-119.0
X272.69Y-112.565
X273.005Y-113.895
X273.705Y-85.705
X273.8Y-118.3
T4
X251.5Y-98.0
X253.5Y-98.0
T5
X139.12Y-102.64
X139.12Y-119.64
X139.12Y-136.64
X139.12Y-153.64
X144.12Y-104.74
X144.12Y-121.74
X144.12Y-138.74
X144.12Y-155.74
X157.12Y-102.64
X157.12Y-119.64
X157.12Y-136.64
X157.12Y-153.64
X162.12Y-104.74
X162.12Y-121.74
X162.12Y-138.74
X162.12Y-155.74
X175.12Y-90.64
X175.12Y-107.64
X175.12Y-124.64
X175.12Y-141.64
X180.12Y-92.74
X180.12Y-109.74
X180.12Y-126.74
X180.12Y-143.74
X193.12Y-86.64
X193.12Y-103.64
X193.12Y-120.64
X193.12Y-137.64
X198.12Y-88.74
X198.12Y-105.74
X198.12Y-122.74
X198.12Y-139.74
X204.12Y-164.64
X209.12Y-166.74
X211.12Y-91.64
X211.12Y-108.64
X211.12Y-125.64
X211.12Y-142.64
X216.12Y-93.74
X216.12Y-110.74
X216.12Y-127.74
X216.12Y-144.74
X222.12Y-164.64
X227.12Y-166.74
X229.12Y-94.64
X229.12Y-111.64
X229.12Y-128.64
X229.12Y-145.64
X234.12Y-96.74
X234.12Y-113.74
X234.12Y-130.74
X234.12Y-147.74
X240.12Y-164.64
X245.12Y-166.74
X249.12Y-147.64
X254.12Y-149.74
X258.12Y-164.64
X263.12Y-166.74
T3
X273.985Y-96.375G85X273.185Y-96.375
G05
X273.985Y-107.625G85X273.185Y-107.625
G05
X278.21Y-96.38G85X277.01Y-96.38
G05
X278.21Y-107.62G85X277.01Y-107.62
G05
T0
M30
