%TF.GenerationSoftware,KiCad,Pcbnew,7.0.9*%
%TF.CreationDate,2024-01-11T22:21:47+01:00*%
%TF.ProjectId,keyboard,6b657962-6f61-4726-942e-6b696361645f,v1.0.0*%
%TF.SameCoordinates,Original*%
%TF.FileFunction,Drillmap*%
%TF.FilePolarity,Positive*%
%FSLAX45Y45*%
G04 Gerber Fmt 4.5, Leading zero omitted, Abs format (unit mm)*
G04 Created by KiCad (PCBNEW 7.0.9) date 2024-01-11 22:21:47*
%MOMM*%
%LPD*%
G01*
G04 APERTURE LIST*
%ADD10C,0.200000*%
%ADD11C,0.100000*%
%ADD12C,0.170180*%
%ADD13C,0.220000*%
%ADD14C,0.300000*%
%ADD15C,0.342900*%
G04 APERTURE END LIST*
D10*
X18542485Y-7443815D02*
X18458666Y-7526756D01*
X27413210Y-16598243D02*
X27413210Y-14321173D01*
X27413210Y-14321173D02*
X27414108Y-14284952D01*
X27416785Y-14248977D01*
X27421216Y-14213308D01*
X27427376Y-14178004D01*
X27435240Y-14143126D01*
X27444784Y-14108733D01*
X27455983Y-14074886D01*
X27468813Y-14041643D01*
X27483247Y-14009065D01*
X27499261Y-13977212D01*
X27516832Y-13946144D01*
X27535933Y-13915920D01*
X27556540Y-13886601D01*
X27578628Y-13858245D01*
X27602173Y-13830914D01*
X27627150Y-13804667D01*
X26305000Y-8200000D02*
X26305000Y-7757078D01*
X26305000Y-8200000D02*
X24905000Y-8200000D01*
X13315000Y-15496037D02*
X13315705Y-15523906D01*
X13317798Y-15551409D01*
X13321242Y-15578512D01*
X13326006Y-15605181D01*
X13332054Y-15631382D01*
X13339352Y-15657081D01*
X13347867Y-15682244D01*
X13357564Y-15706837D01*
X13368410Y-15730826D01*
X13380370Y-15754177D01*
X13393410Y-15776856D01*
X13407497Y-15798829D01*
X13422596Y-15820062D01*
X13438673Y-15840520D01*
X13455695Y-15860171D01*
X13473627Y-15878979D01*
X13492435Y-15896911D01*
X13512086Y-15913933D01*
X13532544Y-15930010D01*
X13553777Y-15945109D01*
X13575750Y-15959196D01*
X13598429Y-15972236D01*
X13621780Y-15984196D01*
X13645769Y-15995042D01*
X13670362Y-16004739D01*
X13695525Y-16013254D01*
X13721224Y-16020552D01*
X13747426Y-16026600D01*
X13774095Y-16031363D01*
X13801198Y-16034808D01*
X13828700Y-16036900D01*
X13856569Y-16037606D01*
X27627150Y-13804667D02*
X27703579Y-13728290D01*
X13863029Y-8861920D02*
X13834826Y-8862634D01*
X13806993Y-8864752D01*
X13779566Y-8868239D01*
X13752577Y-8873060D01*
X13726062Y-8879181D01*
X13700055Y-8886567D01*
X13674591Y-8895185D01*
X13649703Y-8904999D01*
X13625427Y-8915976D01*
X13601797Y-8928080D01*
X13578847Y-8941277D01*
X13556611Y-8955534D01*
X13535124Y-8970815D01*
X13514421Y-8987086D01*
X13494536Y-9004312D01*
X13475504Y-9022460D01*
X13457358Y-9041494D01*
X13440133Y-9061381D01*
X13423864Y-9082086D01*
X13408585Y-9103574D01*
X13394331Y-9125811D01*
X13381135Y-9148762D01*
X13369033Y-9172394D01*
X13358059Y-9196671D01*
X13348247Y-9221559D01*
X13339632Y-9247024D01*
X13332248Y-9273032D01*
X13326130Y-9299548D01*
X13321311Y-9326537D01*
X13317827Y-9353965D01*
X13315712Y-9381797D01*
X13315000Y-9410000D01*
X13856569Y-16037606D02*
X16364736Y-16037554D01*
X17225769Y-7663750D02*
X17189527Y-7664642D01*
X17153527Y-7667302D01*
X17117830Y-7671707D01*
X17082493Y-7677831D01*
X17047577Y-7685651D01*
X17013141Y-7695142D01*
X16979243Y-7706280D01*
X16945944Y-7719040D01*
X16913301Y-7733398D01*
X16881375Y-7749330D01*
X16850224Y-7766811D01*
X16819909Y-7785817D01*
X16790487Y-7806324D01*
X16762018Y-7828307D01*
X16734562Y-7851742D01*
X16708178Y-7876605D01*
X19484959Y-16913522D02*
X19524779Y-16927350D01*
X19564726Y-16940749D01*
X19604798Y-16953718D01*
X19644991Y-16966255D01*
X19685300Y-16978361D01*
X19725724Y-16990034D01*
X19766258Y-17001275D01*
X19806898Y-17012082D01*
X19847642Y-17022455D01*
X19888485Y-17032394D01*
X19929425Y-17041897D01*
X19970457Y-17050965D01*
X20011579Y-17059596D01*
X20052786Y-17067790D01*
X20094076Y-17075546D01*
X20135444Y-17082864D01*
X20176888Y-17089744D01*
X20218403Y-17096184D01*
X20259987Y-17102183D01*
X20301635Y-17107743D01*
X20343344Y-17112860D01*
X20385112Y-17117537D01*
X20426933Y-17121770D01*
X20468805Y-17125561D01*
X20510725Y-17128908D01*
X20552688Y-17131811D01*
X20594691Y-17134268D01*
X20636731Y-17136281D01*
X20678805Y-17137847D01*
X20720908Y-17138967D01*
X20763037Y-17139640D01*
X20805189Y-17139864D01*
X15927915Y-8649065D02*
X15901531Y-8673927D01*
X15874075Y-8697362D01*
X15845606Y-8719346D01*
X15816185Y-8739852D01*
X15785869Y-8758859D01*
X15754718Y-8776340D01*
X15722792Y-8792272D01*
X15690150Y-8806630D01*
X15656850Y-8819390D01*
X15622952Y-8830528D01*
X15588516Y-8840018D01*
X15553600Y-8847838D01*
X15518264Y-8853963D01*
X15482566Y-8858367D01*
X15446567Y-8861028D01*
X15410324Y-8861920D01*
X20614658Y-7264343D02*
X18978788Y-7264343D01*
X26871640Y-17139813D02*
X26899508Y-17139107D01*
X26927011Y-17137014D01*
X26954113Y-17133569D01*
X26980782Y-17128805D01*
X27006983Y-17122757D01*
X27032682Y-17115458D01*
X27057845Y-17106943D01*
X27082438Y-17097246D01*
X27106427Y-17086400D01*
X27129778Y-17074440D01*
X27152456Y-17061399D01*
X27174429Y-17047312D01*
X27195662Y-17032213D01*
X27216120Y-17016136D01*
X27235770Y-16999114D01*
X27254579Y-16981182D01*
X27272511Y-16962374D01*
X27289532Y-16942723D01*
X27305610Y-16922265D01*
X27320709Y-16901032D01*
X27334796Y-16879060D01*
X27347836Y-16856381D01*
X27359796Y-16833030D01*
X27370642Y-16809041D01*
X27380340Y-16784448D01*
X27388855Y-16759285D01*
X27396154Y-16733586D01*
X27402202Y-16707385D01*
X27406965Y-16680717D01*
X27410411Y-16653614D01*
X27412503Y-16626111D01*
X27413210Y-16598243D01*
X27758889Y-7915708D02*
X27739427Y-7897187D01*
X27719161Y-7879728D01*
X27698136Y-7863349D01*
X27676395Y-7848069D01*
X27653984Y-7833906D01*
X27630947Y-7820877D01*
X27607328Y-7809002D01*
X27583171Y-7798300D01*
X27558522Y-7788788D01*
X27533423Y-7780484D01*
X27507921Y-7773408D01*
X27482058Y-7767577D01*
X27455881Y-7763010D01*
X27429432Y-7759726D01*
X27402756Y-7757742D01*
X27375898Y-7757078D01*
X27917520Y-9740000D02*
X27917520Y-8298698D01*
X18125662Y-7663750D02*
X17225769Y-7663750D01*
X15410324Y-8861920D02*
X13863029Y-8861920D01*
X22903149Y-7757078D02*
X22879568Y-7757077D01*
X22855988Y-7757077D01*
X22832407Y-7757077D01*
X22808827Y-7757076D01*
X22785246Y-7757076D01*
X22761665Y-7757076D01*
X22738085Y-7757076D01*
X22714504Y-7757076D01*
X22690924Y-7757076D01*
X22667343Y-7757076D01*
X22643762Y-7757076D01*
X22620182Y-7757076D01*
X22596601Y-7757077D01*
X22573021Y-7757077D01*
X22549440Y-7757077D01*
X22525859Y-7757078D01*
X27318000Y-10669000D02*
X27318000Y-9740000D01*
X27703579Y-13728290D02*
X27728558Y-13702040D01*
X27752105Y-13674706D01*
X27774195Y-13646348D01*
X27794804Y-13617025D01*
X27813906Y-13586798D01*
X27831477Y-13555727D01*
X27847492Y-13523870D01*
X27861927Y-13491289D01*
X27874756Y-13458043D01*
X27885954Y-13424192D01*
X27895498Y-13389795D01*
X27903361Y-13354914D01*
X27909520Y-13319607D01*
X27913949Y-13283934D01*
X27916624Y-13247956D01*
X27917520Y-13211731D01*
X18978788Y-7264343D02*
X18948237Y-7265097D01*
X18917890Y-7267341D01*
X18887798Y-7271056D01*
X18858010Y-7276221D01*
X18828577Y-7282816D01*
X18799548Y-7290819D01*
X18770974Y-7300210D01*
X18742904Y-7310969D01*
X18715388Y-7323075D01*
X18688476Y-7336508D01*
X18662218Y-7351247D01*
X18636664Y-7367272D01*
X18611864Y-7384561D01*
X18587867Y-7403095D01*
X18564724Y-7422853D01*
X18542485Y-7443815D01*
X27375898Y-7757078D02*
X26305000Y-7757078D01*
X24905000Y-7757000D02*
X22903149Y-7757078D01*
X27318000Y-10669000D02*
X27917520Y-10669000D01*
X27917520Y-13211731D02*
X27917520Y-10669000D01*
X22525859Y-7757078D02*
X21724048Y-7757129D01*
X21133592Y-7475803D02*
X21107035Y-7451089D01*
X21079421Y-7427797D01*
X21050811Y-7405951D01*
X21021261Y-7385575D01*
X20990830Y-7366692D01*
X20959578Y-7349326D01*
X20927561Y-7333501D01*
X20894838Y-7319241D01*
X20861469Y-7306569D01*
X20827510Y-7295510D01*
X20793021Y-7286087D01*
X20758059Y-7278323D01*
X20722684Y-7272243D01*
X20686953Y-7267871D01*
X20650925Y-7265229D01*
X20614658Y-7264343D01*
X20805189Y-17139864D02*
X26871640Y-17139813D01*
X24905000Y-8200000D02*
X24905000Y-7757000D01*
X13315000Y-9410000D02*
X13315000Y-15496037D01*
X27318000Y-9740000D02*
X27917520Y-9740000D01*
X21205113Y-7545669D02*
X21133592Y-7475803D01*
X17608743Y-16250771D02*
X19484959Y-16913522D01*
X27917520Y-8298698D02*
X27916855Y-8271840D01*
X27914871Y-8245165D01*
X27911587Y-8218716D01*
X27907020Y-8192538D01*
X27901189Y-8166676D01*
X27894113Y-8141173D01*
X27885810Y-8116075D01*
X27876297Y-8091425D01*
X27865594Y-8067269D01*
X27853720Y-8043650D01*
X27840691Y-8020612D01*
X27826528Y-7998201D01*
X27811247Y-7976461D01*
X27794869Y-7955436D01*
X27777410Y-7935170D01*
X27758889Y-7915708D01*
X16364736Y-16037554D02*
X16404454Y-16037763D01*
X16444151Y-16038395D01*
X16483823Y-16039448D01*
X16523467Y-16040922D01*
X16563080Y-16042816D01*
X16602658Y-16045130D01*
X16642198Y-16047863D01*
X16681698Y-16051015D01*
X16721152Y-16054585D01*
X16760559Y-16058572D01*
X16799915Y-16062976D01*
X16839216Y-16067797D01*
X16878460Y-16073033D01*
X16917643Y-16078685D01*
X16956761Y-16084751D01*
X16995812Y-16091231D01*
X17034792Y-16098125D01*
X17073698Y-16105432D01*
X17112526Y-16113151D01*
X17151274Y-16121282D01*
X17189937Y-16129824D01*
X17228513Y-16138777D01*
X17266999Y-16148140D01*
X17305390Y-16157913D01*
X17343684Y-16168095D01*
X17381878Y-16178685D01*
X17419968Y-16189683D01*
X17457950Y-16201088D01*
X17495822Y-16212900D01*
X17533581Y-16225118D01*
X17571222Y-16237742D01*
X17608743Y-16250771D01*
X21724048Y-7757129D02*
X21687780Y-7756243D01*
X21651752Y-7753603D01*
X21616021Y-7749230D01*
X21580646Y-7743151D01*
X21545684Y-7735388D01*
X21511195Y-7725964D01*
X21477236Y-7714905D01*
X21443866Y-7702233D01*
X21411143Y-7687973D01*
X21379127Y-7672148D01*
X21347874Y-7654782D01*
X21317444Y-7635899D01*
X21287894Y-7615522D01*
X21259283Y-7593676D01*
X21231670Y-7570384D01*
X21205113Y-7545669D01*
X18458666Y-7526756D02*
X18441693Y-7542756D01*
X18424030Y-7557838D01*
X18405716Y-7571986D01*
X18386788Y-7585184D01*
X18367285Y-7597416D01*
X18347244Y-7608666D01*
X18326704Y-7618920D01*
X18305702Y-7628161D01*
X18284278Y-7636374D01*
X18262468Y-7643542D01*
X18240312Y-7649651D01*
X18217847Y-7654684D01*
X18195112Y-7658626D01*
X18172144Y-7661462D01*
X18148981Y-7663175D01*
X18125662Y-7663750D01*
X16708178Y-7876605D02*
X15927915Y-8649065D01*
D11*
X27678000Y-11395000D02*
X27768000Y-11485000D01*
X27768000Y-11395000D02*
X27678000Y-11485000D01*
X27678000Y-11695000D02*
X27768000Y-11785000D01*
X27768000Y-11695000D02*
X27678000Y-11785000D01*
X24432930Y-9046000D02*
G75*
G03*
X24432930Y-9046000I-49530J0D01*
G01*
X24534530Y-9554000D02*
G75*
G03*
X24534530Y-9554000I-49530J0D01*
G01*
X24636130Y-9046000D02*
G75*
G03*
X24636130Y-9046000I-49530J0D01*
G01*
D12*
X13862000Y-9798910D02*
X13862000Y-9969090D01*
X13776910Y-9884000D02*
X13947090Y-9884000D01*
X13862000Y-11498910D02*
X13862000Y-11669090D01*
X13776910Y-11584000D02*
X13947090Y-11584000D01*
X13862000Y-13198910D02*
X13862000Y-13369090D01*
X13776910Y-13284000D02*
X13947090Y-13284000D01*
X13862000Y-14898910D02*
X13862000Y-15069090D01*
X13776910Y-14984000D02*
X13947090Y-14984000D01*
X14962000Y-9798910D02*
X14962000Y-9969090D01*
X14876910Y-9884000D02*
X15047090Y-9884000D01*
X14962000Y-11498910D02*
X14962000Y-11669090D01*
X14876910Y-11584000D02*
X15047090Y-11584000D01*
X14962000Y-13198910D02*
X14962000Y-13369090D01*
X14876910Y-13284000D02*
X15047090Y-13284000D01*
X14962000Y-14898910D02*
X14962000Y-15069090D01*
X14876910Y-14984000D02*
X15047090Y-14984000D01*
X15662000Y-9798910D02*
X15662000Y-9969090D01*
X15576910Y-9884000D02*
X15747090Y-9884000D01*
X15662000Y-11498910D02*
X15662000Y-11669090D01*
X15576910Y-11584000D02*
X15747090Y-11584000D01*
X15662000Y-13198910D02*
X15662000Y-13369090D01*
X15576910Y-13284000D02*
X15747090Y-13284000D01*
X15662000Y-14898910D02*
X15662000Y-15069090D01*
X15576910Y-14984000D02*
X15747090Y-14984000D01*
X16762000Y-9798910D02*
X16762000Y-9969090D01*
X16676910Y-9884000D02*
X16847090Y-9884000D01*
X16762000Y-11498910D02*
X16762000Y-11669090D01*
X16676910Y-11584000D02*
X16847090Y-11584000D01*
X16762000Y-13198910D02*
X16762000Y-13369090D01*
X16676910Y-13284000D02*
X16847090Y-13284000D01*
X16762000Y-14898910D02*
X16762000Y-15069090D01*
X16676910Y-14984000D02*
X16847090Y-14984000D01*
X17462000Y-8598910D02*
X17462000Y-8769090D01*
X17376910Y-8684000D02*
X17547090Y-8684000D01*
X17462000Y-10298910D02*
X17462000Y-10469090D01*
X17376910Y-10384000D02*
X17547090Y-10384000D01*
X17462000Y-11998910D02*
X17462000Y-12169090D01*
X17376910Y-12084000D02*
X17547090Y-12084000D01*
X17462000Y-13698910D02*
X17462000Y-13869090D01*
X17376910Y-13784000D02*
X17547090Y-13784000D01*
X18562000Y-8598910D02*
X18562000Y-8769090D01*
X18476910Y-8684000D02*
X18647090Y-8684000D01*
X18562000Y-10298910D02*
X18562000Y-10469090D01*
X18476910Y-10384000D02*
X18647090Y-10384000D01*
X18562000Y-11998910D02*
X18562000Y-12169090D01*
X18476910Y-12084000D02*
X18647090Y-12084000D01*
X18562000Y-13698910D02*
X18562000Y-13869090D01*
X18476910Y-13784000D02*
X18647090Y-13784000D01*
X19262000Y-8198910D02*
X19262000Y-8369090D01*
X19176910Y-8284000D02*
X19347090Y-8284000D01*
X19262000Y-9898910D02*
X19262000Y-10069090D01*
X19176910Y-9984000D02*
X19347090Y-9984000D01*
X19262000Y-11598910D02*
X19262000Y-11769090D01*
X19176910Y-11684000D02*
X19347090Y-11684000D01*
X19262000Y-13298910D02*
X19262000Y-13469090D01*
X19176910Y-13384000D02*
X19347090Y-13384000D01*
X20362000Y-8198910D02*
X20362000Y-8369090D01*
X20276910Y-8284000D02*
X20447090Y-8284000D01*
X20362000Y-9898910D02*
X20362000Y-10069090D01*
X20276910Y-9984000D02*
X20447090Y-9984000D01*
X20362000Y-11598910D02*
X20362000Y-11769090D01*
X20276910Y-11684000D02*
X20447090Y-11684000D01*
X20362000Y-13298910D02*
X20362000Y-13469090D01*
X20276910Y-13384000D02*
X20447090Y-13384000D01*
X20362000Y-15998910D02*
X20362000Y-16169090D01*
X20276910Y-16084000D02*
X20447090Y-16084000D01*
X21062000Y-8698910D02*
X21062000Y-8869090D01*
X20976910Y-8784000D02*
X21147090Y-8784000D01*
X21062000Y-10398910D02*
X21062000Y-10569090D01*
X20976910Y-10484000D02*
X21147090Y-10484000D01*
X21062000Y-12098910D02*
X21062000Y-12269090D01*
X20976910Y-12184000D02*
X21147090Y-12184000D01*
X21062000Y-13798910D02*
X21062000Y-13969090D01*
X20976910Y-13884000D02*
X21147090Y-13884000D01*
X21462000Y-15998910D02*
X21462000Y-16169090D01*
X21376910Y-16084000D02*
X21547090Y-16084000D01*
X22162000Y-8698910D02*
X22162000Y-8869090D01*
X22076910Y-8784000D02*
X22247090Y-8784000D01*
X22162000Y-10398910D02*
X22162000Y-10569090D01*
X22076910Y-10484000D02*
X22247090Y-10484000D01*
X22162000Y-12098910D02*
X22162000Y-12269090D01*
X22076910Y-12184000D02*
X22247090Y-12184000D01*
X22162000Y-13798910D02*
X22162000Y-13969090D01*
X22076910Y-13884000D02*
X22247090Y-13884000D01*
X22162000Y-15998910D02*
X22162000Y-16169090D01*
X22076910Y-16084000D02*
X22247090Y-16084000D01*
X22862000Y-8998910D02*
X22862000Y-9169090D01*
X22776910Y-9084000D02*
X22947090Y-9084000D01*
X22862000Y-10698910D02*
X22862000Y-10869090D01*
X22776910Y-10784000D02*
X22947090Y-10784000D01*
X22862000Y-12398910D02*
X22862000Y-12569090D01*
X22776910Y-12484000D02*
X22947090Y-12484000D01*
X22862000Y-14098910D02*
X22862000Y-14269090D01*
X22776910Y-14184000D02*
X22947090Y-14184000D01*
X23262000Y-15998910D02*
X23262000Y-16169090D01*
X23176910Y-16084000D02*
X23347090Y-16084000D01*
X23962000Y-8998910D02*
X23962000Y-9169090D01*
X23876910Y-9084000D02*
X24047090Y-9084000D01*
X23962000Y-10698910D02*
X23962000Y-10869090D01*
X23876910Y-10784000D02*
X24047090Y-10784000D01*
X23962000Y-12398910D02*
X23962000Y-12569090D01*
X23876910Y-12484000D02*
X24047090Y-12484000D01*
X23962000Y-14098910D02*
X23962000Y-14269090D01*
X23876910Y-14184000D02*
X24047090Y-14184000D01*
X23962000Y-15998910D02*
X23962000Y-16169090D01*
X23876910Y-16084000D02*
X24047090Y-16084000D01*
X24862000Y-14298910D02*
X24862000Y-14469090D01*
X24776910Y-14384000D02*
X24947090Y-14384000D01*
X25062000Y-15998910D02*
X25062000Y-16169090D01*
X24976910Y-16084000D02*
X25147090Y-16084000D01*
X25762000Y-15998910D02*
X25762000Y-16169090D01*
X25676910Y-16084000D02*
X25847090Y-16084000D01*
X25962000Y-14298910D02*
X25962000Y-14469090D01*
X25876910Y-14384000D02*
X26047090Y-14384000D01*
X26862000Y-15998910D02*
X26862000Y-16169090D01*
X26776910Y-16084000D02*
X26947090Y-16084000D01*
D13*
X16927783Y-8797783D02*
X16927783Y-8642218D01*
X16772217Y-8642218D01*
X16772217Y-8797783D01*
X16927783Y-8797783D01*
X18687783Y-15467782D02*
X18687783Y-15312217D01*
X18532218Y-15312217D01*
X18532218Y-15467782D01*
X18687783Y-15467782D01*
X26837782Y-14737782D02*
X26837782Y-14582217D01*
X26682217Y-14582217D01*
X26682217Y-14737782D01*
X26837782Y-14737782D01*
D14*
X14412000Y-9439000D02*
X14562000Y-9289000D01*
X14412000Y-9139000D01*
X14262000Y-9289000D01*
X14412000Y-9439000D01*
X14412000Y-11139000D02*
X14562000Y-10989000D01*
X14412000Y-10839000D01*
X14262000Y-10989000D01*
X14412000Y-11139000D01*
X14412000Y-12839000D02*
X14562000Y-12689000D01*
X14412000Y-12539000D01*
X14262000Y-12689000D01*
X14412000Y-12839000D01*
X14412000Y-14539000D02*
X14562000Y-14389000D01*
X14412000Y-14239000D01*
X14262000Y-14389000D01*
X14412000Y-14539000D01*
X14912000Y-9659000D02*
X15062000Y-9509000D01*
X14912000Y-9359000D01*
X14762000Y-9509000D01*
X14912000Y-9659000D01*
X14912000Y-11359000D02*
X15062000Y-11209000D01*
X14912000Y-11059000D01*
X14762000Y-11209000D01*
X14912000Y-11359000D01*
X14912000Y-13059000D02*
X15062000Y-12909000D01*
X14912000Y-12759000D01*
X14762000Y-12909000D01*
X14912000Y-13059000D01*
X14912000Y-14759000D02*
X15062000Y-14609000D01*
X14912000Y-14459000D01*
X14762000Y-14609000D01*
X14912000Y-14759000D01*
X16212000Y-9439000D02*
X16362000Y-9289000D01*
X16212000Y-9139000D01*
X16062000Y-9289000D01*
X16212000Y-9439000D01*
X16212000Y-11139000D02*
X16362000Y-10989000D01*
X16212000Y-10839000D01*
X16062000Y-10989000D01*
X16212000Y-11139000D01*
X16212000Y-12839000D02*
X16362000Y-12689000D01*
X16212000Y-12539000D01*
X16062000Y-12689000D01*
X16212000Y-12839000D01*
X16212000Y-14539000D02*
X16362000Y-14389000D01*
X16212000Y-14239000D01*
X16062000Y-14389000D01*
X16212000Y-14539000D01*
X16712000Y-9659000D02*
X16862000Y-9509000D01*
X16712000Y-9359000D01*
X16562000Y-9509000D01*
X16712000Y-9659000D01*
X16712000Y-11359000D02*
X16862000Y-11209000D01*
X16712000Y-11059000D01*
X16562000Y-11209000D01*
X16712000Y-11359000D01*
X16712000Y-13059000D02*
X16862000Y-12909000D01*
X16712000Y-12759000D01*
X16562000Y-12909000D01*
X16712000Y-13059000D01*
X16712000Y-14759000D02*
X16862000Y-14609000D01*
X16712000Y-14459000D01*
X16562000Y-14609000D01*
X16712000Y-14759000D01*
X18012000Y-8239000D02*
X18162000Y-8089000D01*
X18012000Y-7939000D01*
X17862000Y-8089000D01*
X18012000Y-8239000D01*
X18012000Y-9939000D02*
X18162000Y-9789000D01*
X18012000Y-9639000D01*
X17862000Y-9789000D01*
X18012000Y-9939000D01*
X18012000Y-11639000D02*
X18162000Y-11489000D01*
X18012000Y-11339000D01*
X17862000Y-11489000D01*
X18012000Y-11639000D01*
X18012000Y-13339000D02*
X18162000Y-13189000D01*
X18012000Y-13039000D01*
X17862000Y-13189000D01*
X18012000Y-13339000D01*
X18512000Y-8459000D02*
X18662000Y-8309000D01*
X18512000Y-8159000D01*
X18362000Y-8309000D01*
X18512000Y-8459000D01*
X18512000Y-10159000D02*
X18662000Y-10009000D01*
X18512000Y-9859000D01*
X18362000Y-10009000D01*
X18512000Y-10159000D01*
X18512000Y-11859000D02*
X18662000Y-11709000D01*
X18512000Y-11559000D01*
X18362000Y-11709000D01*
X18512000Y-11859000D01*
X18512000Y-13559000D02*
X18662000Y-13409000D01*
X18512000Y-13259000D01*
X18362000Y-13409000D01*
X18512000Y-13559000D01*
X19812000Y-7839000D02*
X19962000Y-7689000D01*
X19812000Y-7539000D01*
X19662000Y-7689000D01*
X19812000Y-7839000D01*
X19812000Y-9539000D02*
X19962000Y-9389000D01*
X19812000Y-9239000D01*
X19662000Y-9389000D01*
X19812000Y-9539000D01*
X19812000Y-11239000D02*
X19962000Y-11089000D01*
X19812000Y-10939000D01*
X19662000Y-11089000D01*
X19812000Y-11239000D01*
X19812000Y-12939000D02*
X19962000Y-12789000D01*
X19812000Y-12639000D01*
X19662000Y-12789000D01*
X19812000Y-12939000D01*
X20312000Y-8059000D02*
X20462000Y-7909000D01*
X20312000Y-7759000D01*
X20162000Y-7909000D01*
X20312000Y-8059000D01*
X20312000Y-9759000D02*
X20462000Y-9609000D01*
X20312000Y-9459000D01*
X20162000Y-9609000D01*
X20312000Y-9759000D01*
X20312000Y-11459000D02*
X20462000Y-11309000D01*
X20312000Y-11159000D01*
X20162000Y-11309000D01*
X20312000Y-11459000D01*
X20312000Y-13159000D02*
X20462000Y-13009000D01*
X20312000Y-12859000D01*
X20162000Y-13009000D01*
X20312000Y-13159000D01*
X20912000Y-15639000D02*
X21062000Y-15489000D01*
X20912000Y-15339000D01*
X20762000Y-15489000D01*
X20912000Y-15639000D01*
X21412000Y-15859000D02*
X21562000Y-15709000D01*
X21412000Y-15559000D01*
X21262000Y-15709000D01*
X21412000Y-15859000D01*
X21612000Y-8339000D02*
X21762000Y-8189000D01*
X21612000Y-8039000D01*
X21462000Y-8189000D01*
X21612000Y-8339000D01*
X21612000Y-10039000D02*
X21762000Y-9889000D01*
X21612000Y-9739000D01*
X21462000Y-9889000D01*
X21612000Y-10039000D01*
X21612000Y-11739000D02*
X21762000Y-11589000D01*
X21612000Y-11439000D01*
X21462000Y-11589000D01*
X21612000Y-11739000D01*
X21612000Y-13439000D02*
X21762000Y-13289000D01*
X21612000Y-13139000D01*
X21462000Y-13289000D01*
X21612000Y-13439000D01*
X22112000Y-8559000D02*
X22262000Y-8409000D01*
X22112000Y-8259000D01*
X21962000Y-8409000D01*
X22112000Y-8559000D01*
X22112000Y-10259000D02*
X22262000Y-10109000D01*
X22112000Y-9959000D01*
X21962000Y-10109000D01*
X22112000Y-10259000D01*
X22112000Y-11959000D02*
X22262000Y-11809000D01*
X22112000Y-11659000D01*
X21962000Y-11809000D01*
X22112000Y-11959000D01*
X22112000Y-13659000D02*
X22262000Y-13509000D01*
X22112000Y-13359000D01*
X21962000Y-13509000D01*
X22112000Y-13659000D01*
X22712000Y-15639000D02*
X22862000Y-15489000D01*
X22712000Y-15339000D01*
X22562000Y-15489000D01*
X22712000Y-15639000D01*
X23212000Y-15859000D02*
X23362000Y-15709000D01*
X23212000Y-15559000D01*
X23062000Y-15709000D01*
X23212000Y-15859000D01*
X23412000Y-8639000D02*
X23562000Y-8489000D01*
X23412000Y-8339000D01*
X23262000Y-8489000D01*
X23412000Y-8639000D01*
X23412000Y-10339000D02*
X23562000Y-10189000D01*
X23412000Y-10039000D01*
X23262000Y-10189000D01*
X23412000Y-10339000D01*
X23412000Y-12039000D02*
X23562000Y-11889000D01*
X23412000Y-11739000D01*
X23262000Y-11889000D01*
X23412000Y-12039000D01*
X23412000Y-13739000D02*
X23562000Y-13589000D01*
X23412000Y-13439000D01*
X23262000Y-13589000D01*
X23412000Y-13739000D01*
X23912000Y-8859000D02*
X24062000Y-8709000D01*
X23912000Y-8559000D01*
X23762000Y-8709000D01*
X23912000Y-8859000D01*
X23912000Y-10559000D02*
X24062000Y-10409000D01*
X23912000Y-10259000D01*
X23762000Y-10409000D01*
X23912000Y-10559000D01*
X23912000Y-12259000D02*
X24062000Y-12109000D01*
X23912000Y-11959000D01*
X23762000Y-12109000D01*
X23912000Y-12259000D01*
X23912000Y-13959000D02*
X24062000Y-13809000D01*
X23912000Y-13659000D01*
X23762000Y-13809000D01*
X23912000Y-13959000D01*
X24512000Y-15639000D02*
X24662000Y-15489000D01*
X24512000Y-15339000D01*
X24362000Y-15489000D01*
X24512000Y-15639000D01*
X25012000Y-15859000D02*
X25162000Y-15709000D01*
X25012000Y-15559000D01*
X24862000Y-15709000D01*
X25012000Y-15859000D01*
X25412000Y-13939000D02*
X25562000Y-13789000D01*
X25412000Y-13639000D01*
X25262000Y-13789000D01*
X25412000Y-13939000D01*
X25912000Y-14159000D02*
X26062000Y-14009000D01*
X25912000Y-13859000D01*
X25762000Y-14009000D01*
X25912000Y-14159000D01*
X26312000Y-15639000D02*
X26462000Y-15489000D01*
X26312000Y-15339000D01*
X26162000Y-15489000D01*
X26312000Y-15639000D01*
X26812000Y-15859000D02*
X26962000Y-15709000D01*
X26812000Y-15559000D01*
X26662000Y-15709000D01*
X26812000Y-15859000D01*
D15*
X14240550Y-9712550D02*
X14583450Y-10055450D01*
X14583450Y-9712550D02*
X14240550Y-10055450D01*
X14583450Y-9884000D02*
G75*
G03*
X14583450Y-9884000I-171450J0D01*
G01*
X14240550Y-11412550D02*
X14583450Y-11755450D01*
X14583450Y-11412550D02*
X14240550Y-11755450D01*
X14583450Y-11584000D02*
G75*
G03*
X14583450Y-11584000I-171450J0D01*
G01*
X14240550Y-13112550D02*
X14583450Y-13455450D01*
X14583450Y-13112550D02*
X14240550Y-13455450D01*
X14583450Y-13284000D02*
G75*
G03*
X14583450Y-13284000I-171450J0D01*
G01*
X14240550Y-14812550D02*
X14583450Y-15155450D01*
X14583450Y-14812550D02*
X14240550Y-15155450D01*
X14583450Y-14984000D02*
G75*
G03*
X14583450Y-14984000I-171450J0D01*
G01*
X16040550Y-9712550D02*
X16383450Y-10055450D01*
X16383450Y-9712550D02*
X16040550Y-10055450D01*
X16383450Y-9884000D02*
G75*
G03*
X16383450Y-9884000I-171450J0D01*
G01*
X16040550Y-11412550D02*
X16383450Y-11755450D01*
X16383450Y-11412550D02*
X16040550Y-11755450D01*
X16383450Y-11584000D02*
G75*
G03*
X16383450Y-11584000I-171450J0D01*
G01*
X16040550Y-13112550D02*
X16383450Y-13455450D01*
X16383450Y-13112550D02*
X16040550Y-13455450D01*
X16383450Y-13284000D02*
G75*
G03*
X16383450Y-13284000I-171450J0D01*
G01*
X16040550Y-14812550D02*
X16383450Y-15155450D01*
X16383450Y-14812550D02*
X16040550Y-15155450D01*
X16383450Y-14984000D02*
G75*
G03*
X16383450Y-14984000I-171450J0D01*
G01*
X17840550Y-8512550D02*
X18183450Y-8855450D01*
X18183450Y-8512550D02*
X17840550Y-8855450D01*
X18183450Y-8684000D02*
G75*
G03*
X18183450Y-8684000I-171450J0D01*
G01*
X17840550Y-10212550D02*
X18183450Y-10555450D01*
X18183450Y-10212550D02*
X17840550Y-10555450D01*
X18183450Y-10384000D02*
G75*
G03*
X18183450Y-10384000I-171450J0D01*
G01*
X17840550Y-11912550D02*
X18183450Y-12255450D01*
X18183450Y-11912550D02*
X17840550Y-12255450D01*
X18183450Y-12084000D02*
G75*
G03*
X18183450Y-12084000I-171450J0D01*
G01*
X17840550Y-13612550D02*
X18183450Y-13955450D01*
X18183450Y-13612550D02*
X17840550Y-13955450D01*
X18183450Y-13784000D02*
G75*
G03*
X18183450Y-13784000I-171450J0D01*
G01*
X19640550Y-8112550D02*
X19983450Y-8455450D01*
X19983450Y-8112550D02*
X19640550Y-8455450D01*
X19983450Y-8284000D02*
G75*
G03*
X19983450Y-8284000I-171450J0D01*
G01*
X19640550Y-9812550D02*
X19983450Y-10155450D01*
X19983450Y-9812550D02*
X19640550Y-10155450D01*
X19983450Y-9984000D02*
G75*
G03*
X19983450Y-9984000I-171450J0D01*
G01*
X19640550Y-11512550D02*
X19983450Y-11855450D01*
X19983450Y-11512550D02*
X19640550Y-11855450D01*
X19983450Y-11684000D02*
G75*
G03*
X19983450Y-11684000I-171450J0D01*
G01*
X19640550Y-13212550D02*
X19983450Y-13555450D01*
X19983450Y-13212550D02*
X19640550Y-13555450D01*
X19983450Y-13384000D02*
G75*
G03*
X19983450Y-13384000I-171450J0D01*
G01*
X20740550Y-15912550D02*
X21083450Y-16255450D01*
X21083450Y-15912550D02*
X20740550Y-16255450D01*
X21083450Y-16084000D02*
G75*
G03*
X21083450Y-16084000I-171450J0D01*
G01*
X21440550Y-8612550D02*
X21783450Y-8955450D01*
X21783450Y-8612550D02*
X21440550Y-8955450D01*
X21783450Y-8784000D02*
G75*
G03*
X21783450Y-8784000I-171450J0D01*
G01*
X21440550Y-10312550D02*
X21783450Y-10655450D01*
X21783450Y-10312550D02*
X21440550Y-10655450D01*
X21783450Y-10484000D02*
G75*
G03*
X21783450Y-10484000I-171450J0D01*
G01*
X21440550Y-12012550D02*
X21783450Y-12355450D01*
X21783450Y-12012550D02*
X21440550Y-12355450D01*
X21783450Y-12184000D02*
G75*
G03*
X21783450Y-12184000I-171450J0D01*
G01*
X21440550Y-13712550D02*
X21783450Y-14055450D01*
X21783450Y-13712550D02*
X21440550Y-14055450D01*
X21783450Y-13884000D02*
G75*
G03*
X21783450Y-13884000I-171450J0D01*
G01*
X22540550Y-15912550D02*
X22883450Y-16255450D01*
X22883450Y-15912550D02*
X22540550Y-16255450D01*
X22883450Y-16084000D02*
G75*
G03*
X22883450Y-16084000I-171450J0D01*
G01*
X23240550Y-8912550D02*
X23583450Y-9255450D01*
X23583450Y-8912550D02*
X23240550Y-9255450D01*
X23583450Y-9084000D02*
G75*
G03*
X23583450Y-9084000I-171450J0D01*
G01*
X23240550Y-10612550D02*
X23583450Y-10955450D01*
X23583450Y-10612550D02*
X23240550Y-10955450D01*
X23583450Y-10784000D02*
G75*
G03*
X23583450Y-10784000I-171450J0D01*
G01*
X23240550Y-12312550D02*
X23583450Y-12655450D01*
X23583450Y-12312550D02*
X23240550Y-12655450D01*
X23583450Y-12484000D02*
G75*
G03*
X23583450Y-12484000I-171450J0D01*
G01*
X23240550Y-14012550D02*
X23583450Y-14355450D01*
X23583450Y-14012550D02*
X23240550Y-14355450D01*
X23583450Y-14184000D02*
G75*
G03*
X23583450Y-14184000I-171450J0D01*
G01*
X24340550Y-15912550D02*
X24683450Y-16255450D01*
X24683450Y-15912550D02*
X24340550Y-16255450D01*
X24683450Y-16084000D02*
G75*
G03*
X24683450Y-16084000I-171450J0D01*
G01*
X25240550Y-14212550D02*
X25583450Y-14555450D01*
X25583450Y-14212550D02*
X25240550Y-14555450D01*
X25583450Y-14384000D02*
G75*
G03*
X25583450Y-14384000I-171450J0D01*
G01*
X26140550Y-15912550D02*
X26483450Y-16255450D01*
X26483450Y-15912550D02*
X26140550Y-16255450D01*
X26483450Y-16084000D02*
G75*
G03*
X26483450Y-16084000I-171450J0D01*
G01*
D10*
X13565764Y-17461348D02*
X13565764Y-17261348D01*
X13565764Y-17261348D02*
X13613383Y-17261348D01*
X13613383Y-17261348D02*
X13641954Y-17270872D01*
X13641954Y-17270872D02*
X13661002Y-17289920D01*
X13661002Y-17289920D02*
X13670525Y-17308967D01*
X13670525Y-17308967D02*
X13680049Y-17347062D01*
X13680049Y-17347062D02*
X13680049Y-17375634D01*
X13680049Y-17375634D02*
X13670525Y-17413729D01*
X13670525Y-17413729D02*
X13661002Y-17432777D01*
X13661002Y-17432777D02*
X13641954Y-17451824D01*
X13641954Y-17451824D02*
X13613383Y-17461348D01*
X13613383Y-17461348D02*
X13565764Y-17461348D01*
X13765764Y-17461348D02*
X13765764Y-17328015D01*
X13765764Y-17366110D02*
X13775287Y-17347062D01*
X13775287Y-17347062D02*
X13784811Y-17337539D01*
X13784811Y-17337539D02*
X13803859Y-17328015D01*
X13803859Y-17328015D02*
X13822906Y-17328015D01*
X13889573Y-17461348D02*
X13889573Y-17328015D01*
X13889573Y-17261348D02*
X13880049Y-17270872D01*
X13880049Y-17270872D02*
X13889573Y-17280396D01*
X13889573Y-17280396D02*
X13899097Y-17270872D01*
X13899097Y-17270872D02*
X13889573Y-17261348D01*
X13889573Y-17261348D02*
X13889573Y-17280396D01*
X14013383Y-17461348D02*
X13994335Y-17451824D01*
X13994335Y-17451824D02*
X13984811Y-17432777D01*
X13984811Y-17432777D02*
X13984811Y-17261348D01*
X14118144Y-17461348D02*
X14099097Y-17451824D01*
X14099097Y-17451824D02*
X14089573Y-17432777D01*
X14089573Y-17432777D02*
X14089573Y-17261348D01*
X14346716Y-17461348D02*
X14346716Y-17261348D01*
X14346716Y-17261348D02*
X14413383Y-17404205D01*
X14413383Y-17404205D02*
X14480049Y-17261348D01*
X14480049Y-17261348D02*
X14480049Y-17461348D01*
X14661002Y-17461348D02*
X14661002Y-17356586D01*
X14661002Y-17356586D02*
X14651478Y-17337539D01*
X14651478Y-17337539D02*
X14632430Y-17328015D01*
X14632430Y-17328015D02*
X14594335Y-17328015D01*
X14594335Y-17328015D02*
X14575287Y-17337539D01*
X14661002Y-17451824D02*
X14641954Y-17461348D01*
X14641954Y-17461348D02*
X14594335Y-17461348D01*
X14594335Y-17461348D02*
X14575287Y-17451824D01*
X14575287Y-17451824D02*
X14565764Y-17432777D01*
X14565764Y-17432777D02*
X14565764Y-17413729D01*
X14565764Y-17413729D02*
X14575287Y-17394681D01*
X14575287Y-17394681D02*
X14594335Y-17385158D01*
X14594335Y-17385158D02*
X14641954Y-17385158D01*
X14641954Y-17385158D02*
X14661002Y-17375634D01*
X14756240Y-17328015D02*
X14756240Y-17528015D01*
X14756240Y-17337539D02*
X14775287Y-17328015D01*
X14775287Y-17328015D02*
X14813383Y-17328015D01*
X14813383Y-17328015D02*
X14832430Y-17337539D01*
X14832430Y-17337539D02*
X14841954Y-17347062D01*
X14841954Y-17347062D02*
X14851478Y-17366110D01*
X14851478Y-17366110D02*
X14851478Y-17423253D01*
X14851478Y-17423253D02*
X14841954Y-17442300D01*
X14841954Y-17442300D02*
X14832430Y-17451824D01*
X14832430Y-17451824D02*
X14813383Y-17461348D01*
X14813383Y-17461348D02*
X14775287Y-17461348D01*
X14775287Y-17461348D02*
X14756240Y-17451824D01*
X14937192Y-17442300D02*
X14946716Y-17451824D01*
X14946716Y-17451824D02*
X14937192Y-17461348D01*
X14937192Y-17461348D02*
X14927668Y-17451824D01*
X14927668Y-17451824D02*
X14937192Y-17442300D01*
X14937192Y-17442300D02*
X14937192Y-17461348D01*
X14937192Y-17337539D02*
X14946716Y-17347062D01*
X14946716Y-17347062D02*
X14937192Y-17356586D01*
X14937192Y-17356586D02*
X14927668Y-17347062D01*
X14927668Y-17347062D02*
X14937192Y-17337539D01*
X14937192Y-17337539D02*
X14937192Y-17356586D01*
D11*
X13214987Y-17744864D02*
X13304987Y-17834864D01*
X13304987Y-17744864D02*
X13214987Y-17834864D01*
D10*
X13603859Y-17681348D02*
X13622906Y-17681348D01*
X13622906Y-17681348D02*
X13641954Y-17690872D01*
X13641954Y-17690872D02*
X13651478Y-17700396D01*
X13651478Y-17700396D02*
X13661002Y-17719443D01*
X13661002Y-17719443D02*
X13670525Y-17757539D01*
X13670525Y-17757539D02*
X13670525Y-17805158D01*
X13670525Y-17805158D02*
X13661002Y-17843253D01*
X13661002Y-17843253D02*
X13651478Y-17862300D01*
X13651478Y-17862300D02*
X13641954Y-17871824D01*
X13641954Y-17871824D02*
X13622906Y-17881348D01*
X13622906Y-17881348D02*
X13603859Y-17881348D01*
X13603859Y-17881348D02*
X13584811Y-17871824D01*
X13584811Y-17871824D02*
X13575287Y-17862300D01*
X13575287Y-17862300D02*
X13565764Y-17843253D01*
X13565764Y-17843253D02*
X13556240Y-17805158D01*
X13556240Y-17805158D02*
X13556240Y-17757539D01*
X13556240Y-17757539D02*
X13565764Y-17719443D01*
X13565764Y-17719443D02*
X13575287Y-17700396D01*
X13575287Y-17700396D02*
X13584811Y-17690872D01*
X13584811Y-17690872D02*
X13603859Y-17681348D01*
X13756240Y-17862300D02*
X13765764Y-17871824D01*
X13765764Y-17871824D02*
X13756240Y-17881348D01*
X13756240Y-17881348D02*
X13746716Y-17871824D01*
X13746716Y-17871824D02*
X13756240Y-17862300D01*
X13756240Y-17862300D02*
X13756240Y-17881348D01*
X13861002Y-17881348D02*
X13899097Y-17881348D01*
X13899097Y-17881348D02*
X13918145Y-17871824D01*
X13918145Y-17871824D02*
X13927668Y-17862300D01*
X13927668Y-17862300D02*
X13946716Y-17833729D01*
X13946716Y-17833729D02*
X13956240Y-17795634D01*
X13956240Y-17795634D02*
X13956240Y-17719443D01*
X13956240Y-17719443D02*
X13946716Y-17700396D01*
X13946716Y-17700396D02*
X13937192Y-17690872D01*
X13937192Y-17690872D02*
X13918145Y-17681348D01*
X13918145Y-17681348D02*
X13880049Y-17681348D01*
X13880049Y-17681348D02*
X13861002Y-17690872D01*
X13861002Y-17690872D02*
X13851478Y-17700396D01*
X13851478Y-17700396D02*
X13841954Y-17719443D01*
X13841954Y-17719443D02*
X13841954Y-17767062D01*
X13841954Y-17767062D02*
X13851478Y-17786110D01*
X13851478Y-17786110D02*
X13861002Y-17795634D01*
X13861002Y-17795634D02*
X13880049Y-17805158D01*
X13880049Y-17805158D02*
X13918145Y-17805158D01*
X13918145Y-17805158D02*
X13937192Y-17795634D01*
X13937192Y-17795634D02*
X13946716Y-17786110D01*
X13946716Y-17786110D02*
X13956240Y-17767062D01*
X14080049Y-17681348D02*
X14099097Y-17681348D01*
X14099097Y-17681348D02*
X14118145Y-17690872D01*
X14118145Y-17690872D02*
X14127668Y-17700396D01*
X14127668Y-17700396D02*
X14137192Y-17719443D01*
X14137192Y-17719443D02*
X14146716Y-17757539D01*
X14146716Y-17757539D02*
X14146716Y-17805158D01*
X14146716Y-17805158D02*
X14137192Y-17843253D01*
X14137192Y-17843253D02*
X14127668Y-17862300D01*
X14127668Y-17862300D02*
X14118145Y-17871824D01*
X14118145Y-17871824D02*
X14099097Y-17881348D01*
X14099097Y-17881348D02*
X14080049Y-17881348D01*
X14080049Y-17881348D02*
X14061002Y-17871824D01*
X14061002Y-17871824D02*
X14051478Y-17862300D01*
X14051478Y-17862300D02*
X14041954Y-17843253D01*
X14041954Y-17843253D02*
X14032430Y-17805158D01*
X14032430Y-17805158D02*
X14032430Y-17757539D01*
X14032430Y-17757539D02*
X14041954Y-17719443D01*
X14041954Y-17719443D02*
X14051478Y-17700396D01*
X14051478Y-17700396D02*
X14061002Y-17690872D01*
X14061002Y-17690872D02*
X14080049Y-17681348D01*
X14270525Y-17681348D02*
X14289573Y-17681348D01*
X14289573Y-17681348D02*
X14308621Y-17690872D01*
X14308621Y-17690872D02*
X14318145Y-17700396D01*
X14318145Y-17700396D02*
X14327668Y-17719443D01*
X14327668Y-17719443D02*
X14337192Y-17757539D01*
X14337192Y-17757539D02*
X14337192Y-17805158D01*
X14337192Y-17805158D02*
X14327668Y-17843253D01*
X14327668Y-17843253D02*
X14318145Y-17862300D01*
X14318145Y-17862300D02*
X14308621Y-17871824D01*
X14308621Y-17871824D02*
X14289573Y-17881348D01*
X14289573Y-17881348D02*
X14270525Y-17881348D01*
X14270525Y-17881348D02*
X14251478Y-17871824D01*
X14251478Y-17871824D02*
X14241954Y-17862300D01*
X14241954Y-17862300D02*
X14232430Y-17843253D01*
X14232430Y-17843253D02*
X14222906Y-17805158D01*
X14222906Y-17805158D02*
X14222906Y-17757539D01*
X14222906Y-17757539D02*
X14232430Y-17719443D01*
X14232430Y-17719443D02*
X14241954Y-17700396D01*
X14241954Y-17700396D02*
X14251478Y-17690872D01*
X14251478Y-17690872D02*
X14270525Y-17681348D01*
X14422906Y-17881348D02*
X14422906Y-17748015D01*
X14422906Y-17767062D02*
X14432430Y-17757539D01*
X14432430Y-17757539D02*
X14451478Y-17748015D01*
X14451478Y-17748015D02*
X14480049Y-17748015D01*
X14480049Y-17748015D02*
X14499097Y-17757539D01*
X14499097Y-17757539D02*
X14508621Y-17776586D01*
X14508621Y-17776586D02*
X14508621Y-17881348D01*
X14508621Y-17776586D02*
X14518145Y-17757539D01*
X14518145Y-17757539D02*
X14537192Y-17748015D01*
X14537192Y-17748015D02*
X14565764Y-17748015D01*
X14565764Y-17748015D02*
X14584811Y-17757539D01*
X14584811Y-17757539D02*
X14594335Y-17776586D01*
X14594335Y-17776586D02*
X14594335Y-17881348D01*
X14689573Y-17881348D02*
X14689573Y-17748015D01*
X14689573Y-17767062D02*
X14699097Y-17757539D01*
X14699097Y-17757539D02*
X14718145Y-17748015D01*
X14718145Y-17748015D02*
X14746716Y-17748015D01*
X14746716Y-17748015D02*
X14765764Y-17757539D01*
X14765764Y-17757539D02*
X14775287Y-17776586D01*
X14775287Y-17776586D02*
X14775287Y-17881348D01*
X14775287Y-17776586D02*
X14784811Y-17757539D01*
X14784811Y-17757539D02*
X14803859Y-17748015D01*
X14803859Y-17748015D02*
X14832430Y-17748015D01*
X14832430Y-17748015D02*
X14851478Y-17757539D01*
X14851478Y-17757539D02*
X14861002Y-17776586D01*
X14861002Y-17776586D02*
X14861002Y-17881348D01*
X15251478Y-17671824D02*
X15080049Y-17928967D01*
X15508621Y-17681348D02*
X15527669Y-17681348D01*
X15527669Y-17681348D02*
X15546716Y-17690872D01*
X15546716Y-17690872D02*
X15556240Y-17700396D01*
X15556240Y-17700396D02*
X15565764Y-17719443D01*
X15565764Y-17719443D02*
X15575288Y-17757539D01*
X15575288Y-17757539D02*
X15575288Y-17805158D01*
X15575288Y-17805158D02*
X15565764Y-17843253D01*
X15565764Y-17843253D02*
X15556240Y-17862300D01*
X15556240Y-17862300D02*
X15546716Y-17871824D01*
X15546716Y-17871824D02*
X15527669Y-17881348D01*
X15527669Y-17881348D02*
X15508621Y-17881348D01*
X15508621Y-17881348D02*
X15489573Y-17871824D01*
X15489573Y-17871824D02*
X15480049Y-17862300D01*
X15480049Y-17862300D02*
X15470526Y-17843253D01*
X15470526Y-17843253D02*
X15461002Y-17805158D01*
X15461002Y-17805158D02*
X15461002Y-17757539D01*
X15461002Y-17757539D02*
X15470526Y-17719443D01*
X15470526Y-17719443D02*
X15480049Y-17700396D01*
X15480049Y-17700396D02*
X15489573Y-17690872D01*
X15489573Y-17690872D02*
X15508621Y-17681348D01*
X15661002Y-17862300D02*
X15670526Y-17871824D01*
X15670526Y-17871824D02*
X15661002Y-17881348D01*
X15661002Y-17881348D02*
X15651478Y-17871824D01*
X15651478Y-17871824D02*
X15661002Y-17862300D01*
X15661002Y-17862300D02*
X15661002Y-17881348D01*
X15794335Y-17681348D02*
X15813383Y-17681348D01*
X15813383Y-17681348D02*
X15832430Y-17690872D01*
X15832430Y-17690872D02*
X15841954Y-17700396D01*
X15841954Y-17700396D02*
X15851478Y-17719443D01*
X15851478Y-17719443D02*
X15861002Y-17757539D01*
X15861002Y-17757539D02*
X15861002Y-17805158D01*
X15861002Y-17805158D02*
X15851478Y-17843253D01*
X15851478Y-17843253D02*
X15841954Y-17862300D01*
X15841954Y-17862300D02*
X15832430Y-17871824D01*
X15832430Y-17871824D02*
X15813383Y-17881348D01*
X15813383Y-17881348D02*
X15794335Y-17881348D01*
X15794335Y-17881348D02*
X15775288Y-17871824D01*
X15775288Y-17871824D02*
X15765764Y-17862300D01*
X15765764Y-17862300D02*
X15756240Y-17843253D01*
X15756240Y-17843253D02*
X15746716Y-17805158D01*
X15746716Y-17805158D02*
X15746716Y-17757539D01*
X15746716Y-17757539D02*
X15756240Y-17719443D01*
X15756240Y-17719443D02*
X15765764Y-17700396D01*
X15765764Y-17700396D02*
X15775288Y-17690872D01*
X15775288Y-17690872D02*
X15794335Y-17681348D01*
X15927669Y-17681348D02*
X16051478Y-17681348D01*
X16051478Y-17681348D02*
X15984811Y-17757539D01*
X15984811Y-17757539D02*
X16013383Y-17757539D01*
X16013383Y-17757539D02*
X16032430Y-17767062D01*
X16032430Y-17767062D02*
X16041954Y-17776586D01*
X16041954Y-17776586D02*
X16051478Y-17795634D01*
X16051478Y-17795634D02*
X16051478Y-17843253D01*
X16051478Y-17843253D02*
X16041954Y-17862300D01*
X16041954Y-17862300D02*
X16032430Y-17871824D01*
X16032430Y-17871824D02*
X16013383Y-17881348D01*
X16013383Y-17881348D02*
X15956240Y-17881348D01*
X15956240Y-17881348D02*
X15937192Y-17871824D01*
X15937192Y-17871824D02*
X15927669Y-17862300D01*
X16232430Y-17681348D02*
X16137192Y-17681348D01*
X16137192Y-17681348D02*
X16127669Y-17776586D01*
X16127669Y-17776586D02*
X16137192Y-17767062D01*
X16137192Y-17767062D02*
X16156240Y-17757539D01*
X16156240Y-17757539D02*
X16203859Y-17757539D01*
X16203859Y-17757539D02*
X16222907Y-17767062D01*
X16222907Y-17767062D02*
X16232430Y-17776586D01*
X16232430Y-17776586D02*
X16241954Y-17795634D01*
X16241954Y-17795634D02*
X16241954Y-17843253D01*
X16241954Y-17843253D02*
X16232430Y-17862300D01*
X16232430Y-17862300D02*
X16222907Y-17871824D01*
X16222907Y-17871824D02*
X16203859Y-17881348D01*
X16203859Y-17881348D02*
X16156240Y-17881348D01*
X16156240Y-17881348D02*
X16137192Y-17871824D01*
X16137192Y-17871824D02*
X16127669Y-17862300D01*
X16413383Y-17748015D02*
X16413383Y-17881348D01*
X16365764Y-17671824D02*
X16318145Y-17814681D01*
X16318145Y-17814681D02*
X16441954Y-17814681D01*
X16508621Y-17681348D02*
X16508621Y-17719443D01*
X16584811Y-17681348D02*
X16584811Y-17719443D01*
X16880050Y-17957539D02*
X16870526Y-17948015D01*
X16870526Y-17948015D02*
X16851478Y-17919443D01*
X16851478Y-17919443D02*
X16841954Y-17900396D01*
X16841954Y-17900396D02*
X16832431Y-17871824D01*
X16832431Y-17871824D02*
X16822907Y-17824205D01*
X16822907Y-17824205D02*
X16822907Y-17786110D01*
X16822907Y-17786110D02*
X16832431Y-17738491D01*
X16832431Y-17738491D02*
X16841954Y-17709920D01*
X16841954Y-17709920D02*
X16851478Y-17690872D01*
X16851478Y-17690872D02*
X16870526Y-17662300D01*
X16870526Y-17662300D02*
X16880050Y-17652777D01*
X16946716Y-17700396D02*
X16956240Y-17690872D01*
X16956240Y-17690872D02*
X16975288Y-17681348D01*
X16975288Y-17681348D02*
X17022907Y-17681348D01*
X17022907Y-17681348D02*
X17041954Y-17690872D01*
X17041954Y-17690872D02*
X17051478Y-17700396D01*
X17051478Y-17700396D02*
X17061002Y-17719443D01*
X17061002Y-17719443D02*
X17061002Y-17738491D01*
X17061002Y-17738491D02*
X17051478Y-17767062D01*
X17051478Y-17767062D02*
X16937193Y-17881348D01*
X16937193Y-17881348D02*
X17061002Y-17881348D01*
X17299097Y-17881348D02*
X17299097Y-17681348D01*
X17384812Y-17881348D02*
X17384812Y-17776586D01*
X17384812Y-17776586D02*
X17375288Y-17757539D01*
X17375288Y-17757539D02*
X17356240Y-17748015D01*
X17356240Y-17748015D02*
X17327669Y-17748015D01*
X17327669Y-17748015D02*
X17308621Y-17757539D01*
X17308621Y-17757539D02*
X17299097Y-17767062D01*
X17508621Y-17881348D02*
X17489574Y-17871824D01*
X17489574Y-17871824D02*
X17480050Y-17862300D01*
X17480050Y-17862300D02*
X17470526Y-17843253D01*
X17470526Y-17843253D02*
X17470526Y-17786110D01*
X17470526Y-17786110D02*
X17480050Y-17767062D01*
X17480050Y-17767062D02*
X17489574Y-17757539D01*
X17489574Y-17757539D02*
X17508621Y-17748015D01*
X17508621Y-17748015D02*
X17537193Y-17748015D01*
X17537193Y-17748015D02*
X17556240Y-17757539D01*
X17556240Y-17757539D02*
X17565764Y-17767062D01*
X17565764Y-17767062D02*
X17575288Y-17786110D01*
X17575288Y-17786110D02*
X17575288Y-17843253D01*
X17575288Y-17843253D02*
X17565764Y-17862300D01*
X17565764Y-17862300D02*
X17556240Y-17871824D01*
X17556240Y-17871824D02*
X17537193Y-17881348D01*
X17537193Y-17881348D02*
X17508621Y-17881348D01*
X17689574Y-17881348D02*
X17670526Y-17871824D01*
X17670526Y-17871824D02*
X17661002Y-17852777D01*
X17661002Y-17852777D02*
X17661002Y-17681348D01*
X17841955Y-17871824D02*
X17822907Y-17881348D01*
X17822907Y-17881348D02*
X17784812Y-17881348D01*
X17784812Y-17881348D02*
X17765764Y-17871824D01*
X17765764Y-17871824D02*
X17756240Y-17852777D01*
X17756240Y-17852777D02*
X17756240Y-17776586D01*
X17756240Y-17776586D02*
X17765764Y-17757539D01*
X17765764Y-17757539D02*
X17784812Y-17748015D01*
X17784812Y-17748015D02*
X17822907Y-17748015D01*
X17822907Y-17748015D02*
X17841955Y-17757539D01*
X17841955Y-17757539D02*
X17851478Y-17776586D01*
X17851478Y-17776586D02*
X17851478Y-17795634D01*
X17851478Y-17795634D02*
X17756240Y-17814681D01*
X17927669Y-17871824D02*
X17946716Y-17881348D01*
X17946716Y-17881348D02*
X17984812Y-17881348D01*
X17984812Y-17881348D02*
X18003859Y-17871824D01*
X18003859Y-17871824D02*
X18013383Y-17852777D01*
X18013383Y-17852777D02*
X18013383Y-17843253D01*
X18013383Y-17843253D02*
X18003859Y-17824205D01*
X18003859Y-17824205D02*
X17984812Y-17814681D01*
X17984812Y-17814681D02*
X17956240Y-17814681D01*
X17956240Y-17814681D02*
X17937193Y-17805158D01*
X17937193Y-17805158D02*
X17927669Y-17786110D01*
X17927669Y-17786110D02*
X17927669Y-17776586D01*
X17927669Y-17776586D02*
X17937193Y-17757539D01*
X17937193Y-17757539D02*
X17956240Y-17748015D01*
X17956240Y-17748015D02*
X17984812Y-17748015D01*
X17984812Y-17748015D02*
X18003859Y-17757539D01*
X18080050Y-17957539D02*
X18089574Y-17948015D01*
X18089574Y-17948015D02*
X18108621Y-17919443D01*
X18108621Y-17919443D02*
X18118145Y-17900396D01*
X18118145Y-17900396D02*
X18127669Y-17871824D01*
X18127669Y-17871824D02*
X18137193Y-17824205D01*
X18137193Y-17824205D02*
X18137193Y-17786110D01*
X18137193Y-17786110D02*
X18127669Y-17738491D01*
X18127669Y-17738491D02*
X18118145Y-17709920D01*
X18118145Y-17709920D02*
X18108621Y-17690872D01*
X18108621Y-17690872D02*
X18089574Y-17662300D01*
X18089574Y-17662300D02*
X18080050Y-17652777D01*
X18441955Y-17957539D02*
X18432431Y-17948015D01*
X18432431Y-17948015D02*
X18413383Y-17919443D01*
X18413383Y-17919443D02*
X18403859Y-17900396D01*
X18403859Y-17900396D02*
X18394336Y-17871824D01*
X18394336Y-17871824D02*
X18384812Y-17824205D01*
X18384812Y-17824205D02*
X18384812Y-17786110D01*
X18384812Y-17786110D02*
X18394336Y-17738491D01*
X18394336Y-17738491D02*
X18403859Y-17709920D01*
X18403859Y-17709920D02*
X18413383Y-17690872D01*
X18413383Y-17690872D02*
X18432431Y-17662300D01*
X18432431Y-17662300D02*
X18441955Y-17652777D01*
X18518145Y-17748015D02*
X18518145Y-17881348D01*
X18518145Y-17767062D02*
X18527669Y-17757539D01*
X18527669Y-17757539D02*
X18546716Y-17748015D01*
X18546716Y-17748015D02*
X18575288Y-17748015D01*
X18575288Y-17748015D02*
X18594336Y-17757539D01*
X18594336Y-17757539D02*
X18603859Y-17776586D01*
X18603859Y-17776586D02*
X18603859Y-17881348D01*
X18727669Y-17881348D02*
X18708621Y-17871824D01*
X18708621Y-17871824D02*
X18699097Y-17862300D01*
X18699097Y-17862300D02*
X18689574Y-17843253D01*
X18689574Y-17843253D02*
X18689574Y-17786110D01*
X18689574Y-17786110D02*
X18699097Y-17767062D01*
X18699097Y-17767062D02*
X18708621Y-17757539D01*
X18708621Y-17757539D02*
X18727669Y-17748015D01*
X18727669Y-17748015D02*
X18756240Y-17748015D01*
X18756240Y-17748015D02*
X18775288Y-17757539D01*
X18775288Y-17757539D02*
X18784812Y-17767062D01*
X18784812Y-17767062D02*
X18794336Y-17786110D01*
X18794336Y-17786110D02*
X18794336Y-17843253D01*
X18794336Y-17843253D02*
X18784812Y-17862300D01*
X18784812Y-17862300D02*
X18775288Y-17871824D01*
X18775288Y-17871824D02*
X18756240Y-17881348D01*
X18756240Y-17881348D02*
X18727669Y-17881348D01*
X18851478Y-17748015D02*
X18927669Y-17748015D01*
X18880050Y-17681348D02*
X18880050Y-17852777D01*
X18880050Y-17852777D02*
X18889574Y-17871824D01*
X18889574Y-17871824D02*
X18908621Y-17881348D01*
X18908621Y-17881348D02*
X18927669Y-17881348D01*
X19146717Y-17748015D02*
X19146717Y-17948015D01*
X19146717Y-17757539D02*
X19165764Y-17748015D01*
X19165764Y-17748015D02*
X19203859Y-17748015D01*
X19203859Y-17748015D02*
X19222907Y-17757539D01*
X19222907Y-17757539D02*
X19232431Y-17767062D01*
X19232431Y-17767062D02*
X19241955Y-17786110D01*
X19241955Y-17786110D02*
X19241955Y-17843253D01*
X19241955Y-17843253D02*
X19232431Y-17862300D01*
X19232431Y-17862300D02*
X19222907Y-17871824D01*
X19222907Y-17871824D02*
X19203859Y-17881348D01*
X19203859Y-17881348D02*
X19165764Y-17881348D01*
X19165764Y-17881348D02*
X19146717Y-17871824D01*
X19356240Y-17881348D02*
X19337193Y-17871824D01*
X19337193Y-17871824D02*
X19327669Y-17852777D01*
X19327669Y-17852777D02*
X19327669Y-17681348D01*
X19518145Y-17881348D02*
X19518145Y-17776586D01*
X19518145Y-17776586D02*
X19508621Y-17757539D01*
X19508621Y-17757539D02*
X19489574Y-17748015D01*
X19489574Y-17748015D02*
X19451478Y-17748015D01*
X19451478Y-17748015D02*
X19432431Y-17757539D01*
X19518145Y-17871824D02*
X19499098Y-17881348D01*
X19499098Y-17881348D02*
X19451478Y-17881348D01*
X19451478Y-17881348D02*
X19432431Y-17871824D01*
X19432431Y-17871824D02*
X19422907Y-17852777D01*
X19422907Y-17852777D02*
X19422907Y-17833729D01*
X19422907Y-17833729D02*
X19432431Y-17814681D01*
X19432431Y-17814681D02*
X19451478Y-17805158D01*
X19451478Y-17805158D02*
X19499098Y-17805158D01*
X19499098Y-17805158D02*
X19518145Y-17795634D01*
X19584812Y-17748015D02*
X19661002Y-17748015D01*
X19613383Y-17681348D02*
X19613383Y-17852777D01*
X19613383Y-17852777D02*
X19622907Y-17871824D01*
X19622907Y-17871824D02*
X19641955Y-17881348D01*
X19641955Y-17881348D02*
X19661002Y-17881348D01*
X19803859Y-17871824D02*
X19784812Y-17881348D01*
X19784812Y-17881348D02*
X19746717Y-17881348D01*
X19746717Y-17881348D02*
X19727669Y-17871824D01*
X19727669Y-17871824D02*
X19718145Y-17852777D01*
X19718145Y-17852777D02*
X19718145Y-17776586D01*
X19718145Y-17776586D02*
X19727669Y-17757539D01*
X19727669Y-17757539D02*
X19746717Y-17748015D01*
X19746717Y-17748015D02*
X19784812Y-17748015D01*
X19784812Y-17748015D02*
X19803859Y-17757539D01*
X19803859Y-17757539D02*
X19813383Y-17776586D01*
X19813383Y-17776586D02*
X19813383Y-17795634D01*
X19813383Y-17795634D02*
X19718145Y-17814681D01*
X19984812Y-17881348D02*
X19984812Y-17681348D01*
X19984812Y-17871824D02*
X19965764Y-17881348D01*
X19965764Y-17881348D02*
X19927669Y-17881348D01*
X19927669Y-17881348D02*
X19908621Y-17871824D01*
X19908621Y-17871824D02*
X19899098Y-17862300D01*
X19899098Y-17862300D02*
X19889574Y-17843253D01*
X19889574Y-17843253D02*
X19889574Y-17786110D01*
X19889574Y-17786110D02*
X19899098Y-17767062D01*
X19899098Y-17767062D02*
X19908621Y-17757539D01*
X19908621Y-17757539D02*
X19927669Y-17748015D01*
X19927669Y-17748015D02*
X19965764Y-17748015D01*
X19965764Y-17748015D02*
X19984812Y-17757539D01*
X20061002Y-17957539D02*
X20070526Y-17948015D01*
X20070526Y-17948015D02*
X20089574Y-17919443D01*
X20089574Y-17919443D02*
X20099098Y-17900396D01*
X20099098Y-17900396D02*
X20108621Y-17871824D01*
X20108621Y-17871824D02*
X20118145Y-17824205D01*
X20118145Y-17824205D02*
X20118145Y-17786110D01*
X20118145Y-17786110D02*
X20108621Y-17738491D01*
X20108621Y-17738491D02*
X20099098Y-17709920D01*
X20099098Y-17709920D02*
X20089574Y-17690872D01*
X20089574Y-17690872D02*
X20070526Y-17662300D01*
X20070526Y-17662300D02*
X20061002Y-17652777D01*
D11*
X13304987Y-18053864D02*
G75*
G03*
X13304987Y-18053864I-49530J0D01*
G01*
D10*
X13603859Y-17945348D02*
X13622906Y-17945348D01*
X13622906Y-17945348D02*
X13641954Y-17954872D01*
X13641954Y-17954872D02*
X13651478Y-17964396D01*
X13651478Y-17964396D02*
X13661002Y-17983443D01*
X13661002Y-17983443D02*
X13670525Y-18021539D01*
X13670525Y-18021539D02*
X13670525Y-18069158D01*
X13670525Y-18069158D02*
X13661002Y-18107253D01*
X13661002Y-18107253D02*
X13651478Y-18126300D01*
X13651478Y-18126300D02*
X13641954Y-18135824D01*
X13641954Y-18135824D02*
X13622906Y-18145348D01*
X13622906Y-18145348D02*
X13603859Y-18145348D01*
X13603859Y-18145348D02*
X13584811Y-18135824D01*
X13584811Y-18135824D02*
X13575287Y-18126300D01*
X13575287Y-18126300D02*
X13565764Y-18107253D01*
X13565764Y-18107253D02*
X13556240Y-18069158D01*
X13556240Y-18069158D02*
X13556240Y-18021539D01*
X13556240Y-18021539D02*
X13565764Y-17983443D01*
X13565764Y-17983443D02*
X13575287Y-17964396D01*
X13575287Y-17964396D02*
X13584811Y-17954872D01*
X13584811Y-17954872D02*
X13603859Y-17945348D01*
X13756240Y-18126300D02*
X13765764Y-18135824D01*
X13765764Y-18135824D02*
X13756240Y-18145348D01*
X13756240Y-18145348D02*
X13746716Y-18135824D01*
X13746716Y-18135824D02*
X13756240Y-18126300D01*
X13756240Y-18126300D02*
X13756240Y-18145348D01*
X13861002Y-18145348D02*
X13899097Y-18145348D01*
X13899097Y-18145348D02*
X13918145Y-18135824D01*
X13918145Y-18135824D02*
X13927668Y-18126300D01*
X13927668Y-18126300D02*
X13946716Y-18097729D01*
X13946716Y-18097729D02*
X13956240Y-18059634D01*
X13956240Y-18059634D02*
X13956240Y-17983443D01*
X13956240Y-17983443D02*
X13946716Y-17964396D01*
X13946716Y-17964396D02*
X13937192Y-17954872D01*
X13937192Y-17954872D02*
X13918145Y-17945348D01*
X13918145Y-17945348D02*
X13880049Y-17945348D01*
X13880049Y-17945348D02*
X13861002Y-17954872D01*
X13861002Y-17954872D02*
X13851478Y-17964396D01*
X13851478Y-17964396D02*
X13841954Y-17983443D01*
X13841954Y-17983443D02*
X13841954Y-18031062D01*
X13841954Y-18031062D02*
X13851478Y-18050110D01*
X13851478Y-18050110D02*
X13861002Y-18059634D01*
X13861002Y-18059634D02*
X13880049Y-18069158D01*
X13880049Y-18069158D02*
X13918145Y-18069158D01*
X13918145Y-18069158D02*
X13937192Y-18059634D01*
X13937192Y-18059634D02*
X13946716Y-18050110D01*
X13946716Y-18050110D02*
X13956240Y-18031062D01*
X14051478Y-18145348D02*
X14089573Y-18145348D01*
X14089573Y-18145348D02*
X14108621Y-18135824D01*
X14108621Y-18135824D02*
X14118145Y-18126300D01*
X14118145Y-18126300D02*
X14137192Y-18097729D01*
X14137192Y-18097729D02*
X14146716Y-18059634D01*
X14146716Y-18059634D02*
X14146716Y-17983443D01*
X14146716Y-17983443D02*
X14137192Y-17964396D01*
X14137192Y-17964396D02*
X14127668Y-17954872D01*
X14127668Y-17954872D02*
X14108621Y-17945348D01*
X14108621Y-17945348D02*
X14070525Y-17945348D01*
X14070525Y-17945348D02*
X14051478Y-17954872D01*
X14051478Y-17954872D02*
X14041954Y-17964396D01*
X14041954Y-17964396D02*
X14032430Y-17983443D01*
X14032430Y-17983443D02*
X14032430Y-18031062D01*
X14032430Y-18031062D02*
X14041954Y-18050110D01*
X14041954Y-18050110D02*
X14051478Y-18059634D01*
X14051478Y-18059634D02*
X14070525Y-18069158D01*
X14070525Y-18069158D02*
X14108621Y-18069158D01*
X14108621Y-18069158D02*
X14127668Y-18059634D01*
X14127668Y-18059634D02*
X14137192Y-18050110D01*
X14137192Y-18050110D02*
X14146716Y-18031062D01*
X14337192Y-18145348D02*
X14222906Y-18145348D01*
X14280049Y-18145348D02*
X14280049Y-17945348D01*
X14280049Y-17945348D02*
X14261002Y-17973920D01*
X14261002Y-17973920D02*
X14241954Y-17992967D01*
X14241954Y-17992967D02*
X14222906Y-18002491D01*
X14422906Y-18145348D02*
X14422906Y-18012015D01*
X14422906Y-18031062D02*
X14432430Y-18021539D01*
X14432430Y-18021539D02*
X14451478Y-18012015D01*
X14451478Y-18012015D02*
X14480049Y-18012015D01*
X14480049Y-18012015D02*
X14499097Y-18021539D01*
X14499097Y-18021539D02*
X14508621Y-18040586D01*
X14508621Y-18040586D02*
X14508621Y-18145348D01*
X14508621Y-18040586D02*
X14518145Y-18021539D01*
X14518145Y-18021539D02*
X14537192Y-18012015D01*
X14537192Y-18012015D02*
X14565764Y-18012015D01*
X14565764Y-18012015D02*
X14584811Y-18021539D01*
X14584811Y-18021539D02*
X14594335Y-18040586D01*
X14594335Y-18040586D02*
X14594335Y-18145348D01*
X14689573Y-18145348D02*
X14689573Y-18012015D01*
X14689573Y-18031062D02*
X14699097Y-18021539D01*
X14699097Y-18021539D02*
X14718145Y-18012015D01*
X14718145Y-18012015D02*
X14746716Y-18012015D01*
X14746716Y-18012015D02*
X14765764Y-18021539D01*
X14765764Y-18021539D02*
X14775287Y-18040586D01*
X14775287Y-18040586D02*
X14775287Y-18145348D01*
X14775287Y-18040586D02*
X14784811Y-18021539D01*
X14784811Y-18021539D02*
X14803859Y-18012015D01*
X14803859Y-18012015D02*
X14832430Y-18012015D01*
X14832430Y-18012015D02*
X14851478Y-18021539D01*
X14851478Y-18021539D02*
X14861002Y-18040586D01*
X14861002Y-18040586D02*
X14861002Y-18145348D01*
X15251478Y-17935824D02*
X15080049Y-18192967D01*
X15508621Y-17945348D02*
X15527669Y-17945348D01*
X15527669Y-17945348D02*
X15546716Y-17954872D01*
X15546716Y-17954872D02*
X15556240Y-17964396D01*
X15556240Y-17964396D02*
X15565764Y-17983443D01*
X15565764Y-17983443D02*
X15575288Y-18021539D01*
X15575288Y-18021539D02*
X15575288Y-18069158D01*
X15575288Y-18069158D02*
X15565764Y-18107253D01*
X15565764Y-18107253D02*
X15556240Y-18126300D01*
X15556240Y-18126300D02*
X15546716Y-18135824D01*
X15546716Y-18135824D02*
X15527669Y-18145348D01*
X15527669Y-18145348D02*
X15508621Y-18145348D01*
X15508621Y-18145348D02*
X15489573Y-18135824D01*
X15489573Y-18135824D02*
X15480049Y-18126300D01*
X15480049Y-18126300D02*
X15470526Y-18107253D01*
X15470526Y-18107253D02*
X15461002Y-18069158D01*
X15461002Y-18069158D02*
X15461002Y-18021539D01*
X15461002Y-18021539D02*
X15470526Y-17983443D01*
X15470526Y-17983443D02*
X15480049Y-17964396D01*
X15480049Y-17964396D02*
X15489573Y-17954872D01*
X15489573Y-17954872D02*
X15508621Y-17945348D01*
X15661002Y-18126300D02*
X15670526Y-18135824D01*
X15670526Y-18135824D02*
X15661002Y-18145348D01*
X15661002Y-18145348D02*
X15651478Y-18135824D01*
X15651478Y-18135824D02*
X15661002Y-18126300D01*
X15661002Y-18126300D02*
X15661002Y-18145348D01*
X15794335Y-17945348D02*
X15813383Y-17945348D01*
X15813383Y-17945348D02*
X15832430Y-17954872D01*
X15832430Y-17954872D02*
X15841954Y-17964396D01*
X15841954Y-17964396D02*
X15851478Y-17983443D01*
X15851478Y-17983443D02*
X15861002Y-18021539D01*
X15861002Y-18021539D02*
X15861002Y-18069158D01*
X15861002Y-18069158D02*
X15851478Y-18107253D01*
X15851478Y-18107253D02*
X15841954Y-18126300D01*
X15841954Y-18126300D02*
X15832430Y-18135824D01*
X15832430Y-18135824D02*
X15813383Y-18145348D01*
X15813383Y-18145348D02*
X15794335Y-18145348D01*
X15794335Y-18145348D02*
X15775288Y-18135824D01*
X15775288Y-18135824D02*
X15765764Y-18126300D01*
X15765764Y-18126300D02*
X15756240Y-18107253D01*
X15756240Y-18107253D02*
X15746716Y-18069158D01*
X15746716Y-18069158D02*
X15746716Y-18021539D01*
X15746716Y-18021539D02*
X15756240Y-17983443D01*
X15756240Y-17983443D02*
X15765764Y-17964396D01*
X15765764Y-17964396D02*
X15775288Y-17954872D01*
X15775288Y-17954872D02*
X15794335Y-17945348D01*
X15927669Y-17945348D02*
X16051478Y-17945348D01*
X16051478Y-17945348D02*
X15984811Y-18021539D01*
X15984811Y-18021539D02*
X16013383Y-18021539D01*
X16013383Y-18021539D02*
X16032430Y-18031062D01*
X16032430Y-18031062D02*
X16041954Y-18040586D01*
X16041954Y-18040586D02*
X16051478Y-18059634D01*
X16051478Y-18059634D02*
X16051478Y-18107253D01*
X16051478Y-18107253D02*
X16041954Y-18126300D01*
X16041954Y-18126300D02*
X16032430Y-18135824D01*
X16032430Y-18135824D02*
X16013383Y-18145348D01*
X16013383Y-18145348D02*
X15956240Y-18145348D01*
X15956240Y-18145348D02*
X15937192Y-18135824D01*
X15937192Y-18135824D02*
X15927669Y-18126300D01*
X16146716Y-18145348D02*
X16184811Y-18145348D01*
X16184811Y-18145348D02*
X16203859Y-18135824D01*
X16203859Y-18135824D02*
X16213383Y-18126300D01*
X16213383Y-18126300D02*
X16232430Y-18097729D01*
X16232430Y-18097729D02*
X16241954Y-18059634D01*
X16241954Y-18059634D02*
X16241954Y-17983443D01*
X16241954Y-17983443D02*
X16232430Y-17964396D01*
X16232430Y-17964396D02*
X16222907Y-17954872D01*
X16222907Y-17954872D02*
X16203859Y-17945348D01*
X16203859Y-17945348D02*
X16165764Y-17945348D01*
X16165764Y-17945348D02*
X16146716Y-17954872D01*
X16146716Y-17954872D02*
X16137192Y-17964396D01*
X16137192Y-17964396D02*
X16127669Y-17983443D01*
X16127669Y-17983443D02*
X16127669Y-18031062D01*
X16127669Y-18031062D02*
X16137192Y-18050110D01*
X16137192Y-18050110D02*
X16146716Y-18059634D01*
X16146716Y-18059634D02*
X16165764Y-18069158D01*
X16165764Y-18069158D02*
X16203859Y-18069158D01*
X16203859Y-18069158D02*
X16222907Y-18059634D01*
X16222907Y-18059634D02*
X16232430Y-18050110D01*
X16232430Y-18050110D02*
X16241954Y-18031062D01*
X16365764Y-17945348D02*
X16384811Y-17945348D01*
X16384811Y-17945348D02*
X16403859Y-17954872D01*
X16403859Y-17954872D02*
X16413383Y-17964396D01*
X16413383Y-17964396D02*
X16422907Y-17983443D01*
X16422907Y-17983443D02*
X16432430Y-18021539D01*
X16432430Y-18021539D02*
X16432430Y-18069158D01*
X16432430Y-18069158D02*
X16422907Y-18107253D01*
X16422907Y-18107253D02*
X16413383Y-18126300D01*
X16413383Y-18126300D02*
X16403859Y-18135824D01*
X16403859Y-18135824D02*
X16384811Y-18145348D01*
X16384811Y-18145348D02*
X16365764Y-18145348D01*
X16365764Y-18145348D02*
X16346716Y-18135824D01*
X16346716Y-18135824D02*
X16337192Y-18126300D01*
X16337192Y-18126300D02*
X16327669Y-18107253D01*
X16327669Y-18107253D02*
X16318145Y-18069158D01*
X16318145Y-18069158D02*
X16318145Y-18021539D01*
X16318145Y-18021539D02*
X16327669Y-17983443D01*
X16327669Y-17983443D02*
X16337192Y-17964396D01*
X16337192Y-17964396D02*
X16346716Y-17954872D01*
X16346716Y-17954872D02*
X16365764Y-17945348D01*
X16508621Y-17945348D02*
X16508621Y-17983443D01*
X16584811Y-17945348D02*
X16584811Y-17983443D01*
X16880050Y-18221539D02*
X16870526Y-18212015D01*
X16870526Y-18212015D02*
X16851478Y-18183443D01*
X16851478Y-18183443D02*
X16841954Y-18164396D01*
X16841954Y-18164396D02*
X16832431Y-18135824D01*
X16832431Y-18135824D02*
X16822907Y-18088205D01*
X16822907Y-18088205D02*
X16822907Y-18050110D01*
X16822907Y-18050110D02*
X16832431Y-18002491D01*
X16832431Y-18002491D02*
X16841954Y-17973920D01*
X16841954Y-17973920D02*
X16851478Y-17954872D01*
X16851478Y-17954872D02*
X16870526Y-17926300D01*
X16870526Y-17926300D02*
X16880050Y-17916777D01*
X16937193Y-17945348D02*
X17061002Y-17945348D01*
X17061002Y-17945348D02*
X16994335Y-18021539D01*
X16994335Y-18021539D02*
X17022907Y-18021539D01*
X17022907Y-18021539D02*
X17041954Y-18031062D01*
X17041954Y-18031062D02*
X17051478Y-18040586D01*
X17051478Y-18040586D02*
X17061002Y-18059634D01*
X17061002Y-18059634D02*
X17061002Y-18107253D01*
X17061002Y-18107253D02*
X17051478Y-18126300D01*
X17051478Y-18126300D02*
X17041954Y-18135824D01*
X17041954Y-18135824D02*
X17022907Y-18145348D01*
X17022907Y-18145348D02*
X16965764Y-18145348D01*
X16965764Y-18145348D02*
X16946716Y-18135824D01*
X16946716Y-18135824D02*
X16937193Y-18126300D01*
X17299097Y-18145348D02*
X17299097Y-17945348D01*
X17384812Y-18145348D02*
X17384812Y-18040586D01*
X17384812Y-18040586D02*
X17375288Y-18021539D01*
X17375288Y-18021539D02*
X17356240Y-18012015D01*
X17356240Y-18012015D02*
X17327669Y-18012015D01*
X17327669Y-18012015D02*
X17308621Y-18021539D01*
X17308621Y-18021539D02*
X17299097Y-18031062D01*
X17508621Y-18145348D02*
X17489574Y-18135824D01*
X17489574Y-18135824D02*
X17480050Y-18126300D01*
X17480050Y-18126300D02*
X17470526Y-18107253D01*
X17470526Y-18107253D02*
X17470526Y-18050110D01*
X17470526Y-18050110D02*
X17480050Y-18031062D01*
X17480050Y-18031062D02*
X17489574Y-18021539D01*
X17489574Y-18021539D02*
X17508621Y-18012015D01*
X17508621Y-18012015D02*
X17537193Y-18012015D01*
X17537193Y-18012015D02*
X17556240Y-18021539D01*
X17556240Y-18021539D02*
X17565764Y-18031062D01*
X17565764Y-18031062D02*
X17575288Y-18050110D01*
X17575288Y-18050110D02*
X17575288Y-18107253D01*
X17575288Y-18107253D02*
X17565764Y-18126300D01*
X17565764Y-18126300D02*
X17556240Y-18135824D01*
X17556240Y-18135824D02*
X17537193Y-18145348D01*
X17537193Y-18145348D02*
X17508621Y-18145348D01*
X17689574Y-18145348D02*
X17670526Y-18135824D01*
X17670526Y-18135824D02*
X17661002Y-18116777D01*
X17661002Y-18116777D02*
X17661002Y-17945348D01*
X17841955Y-18135824D02*
X17822907Y-18145348D01*
X17822907Y-18145348D02*
X17784812Y-18145348D01*
X17784812Y-18145348D02*
X17765764Y-18135824D01*
X17765764Y-18135824D02*
X17756240Y-18116777D01*
X17756240Y-18116777D02*
X17756240Y-18040586D01*
X17756240Y-18040586D02*
X17765764Y-18021539D01*
X17765764Y-18021539D02*
X17784812Y-18012015D01*
X17784812Y-18012015D02*
X17822907Y-18012015D01*
X17822907Y-18012015D02*
X17841955Y-18021539D01*
X17841955Y-18021539D02*
X17851478Y-18040586D01*
X17851478Y-18040586D02*
X17851478Y-18059634D01*
X17851478Y-18059634D02*
X17756240Y-18078681D01*
X17927669Y-18135824D02*
X17946716Y-18145348D01*
X17946716Y-18145348D02*
X17984812Y-18145348D01*
X17984812Y-18145348D02*
X18003859Y-18135824D01*
X18003859Y-18135824D02*
X18013383Y-18116777D01*
X18013383Y-18116777D02*
X18013383Y-18107253D01*
X18013383Y-18107253D02*
X18003859Y-18088205D01*
X18003859Y-18088205D02*
X17984812Y-18078681D01*
X17984812Y-18078681D02*
X17956240Y-18078681D01*
X17956240Y-18078681D02*
X17937193Y-18069158D01*
X17937193Y-18069158D02*
X17927669Y-18050110D01*
X17927669Y-18050110D02*
X17927669Y-18040586D01*
X17927669Y-18040586D02*
X17937193Y-18021539D01*
X17937193Y-18021539D02*
X17956240Y-18012015D01*
X17956240Y-18012015D02*
X17984812Y-18012015D01*
X17984812Y-18012015D02*
X18003859Y-18021539D01*
X18080050Y-18221539D02*
X18089574Y-18212015D01*
X18089574Y-18212015D02*
X18108621Y-18183443D01*
X18108621Y-18183443D02*
X18118145Y-18164396D01*
X18118145Y-18164396D02*
X18127669Y-18135824D01*
X18127669Y-18135824D02*
X18137193Y-18088205D01*
X18137193Y-18088205D02*
X18137193Y-18050110D01*
X18137193Y-18050110D02*
X18127669Y-18002491D01*
X18127669Y-18002491D02*
X18118145Y-17973920D01*
X18118145Y-17973920D02*
X18108621Y-17954872D01*
X18108621Y-17954872D02*
X18089574Y-17926300D01*
X18089574Y-17926300D02*
X18080050Y-17916777D01*
X18441955Y-18221539D02*
X18432431Y-18212015D01*
X18432431Y-18212015D02*
X18413383Y-18183443D01*
X18413383Y-18183443D02*
X18403859Y-18164396D01*
X18403859Y-18164396D02*
X18394336Y-18135824D01*
X18394336Y-18135824D02*
X18384812Y-18088205D01*
X18384812Y-18088205D02*
X18384812Y-18050110D01*
X18384812Y-18050110D02*
X18394336Y-18002491D01*
X18394336Y-18002491D02*
X18403859Y-17973920D01*
X18403859Y-17973920D02*
X18413383Y-17954872D01*
X18413383Y-17954872D02*
X18432431Y-17926300D01*
X18432431Y-17926300D02*
X18441955Y-17916777D01*
X18518145Y-18012015D02*
X18518145Y-18145348D01*
X18518145Y-18031062D02*
X18527669Y-18021539D01*
X18527669Y-18021539D02*
X18546716Y-18012015D01*
X18546716Y-18012015D02*
X18575288Y-18012015D01*
X18575288Y-18012015D02*
X18594336Y-18021539D01*
X18594336Y-18021539D02*
X18603859Y-18040586D01*
X18603859Y-18040586D02*
X18603859Y-18145348D01*
X18727669Y-18145348D02*
X18708621Y-18135824D01*
X18708621Y-18135824D02*
X18699097Y-18126300D01*
X18699097Y-18126300D02*
X18689574Y-18107253D01*
X18689574Y-18107253D02*
X18689574Y-18050110D01*
X18689574Y-18050110D02*
X18699097Y-18031062D01*
X18699097Y-18031062D02*
X18708621Y-18021539D01*
X18708621Y-18021539D02*
X18727669Y-18012015D01*
X18727669Y-18012015D02*
X18756240Y-18012015D01*
X18756240Y-18012015D02*
X18775288Y-18021539D01*
X18775288Y-18021539D02*
X18784812Y-18031062D01*
X18784812Y-18031062D02*
X18794336Y-18050110D01*
X18794336Y-18050110D02*
X18794336Y-18107253D01*
X18794336Y-18107253D02*
X18784812Y-18126300D01*
X18784812Y-18126300D02*
X18775288Y-18135824D01*
X18775288Y-18135824D02*
X18756240Y-18145348D01*
X18756240Y-18145348D02*
X18727669Y-18145348D01*
X18851478Y-18012015D02*
X18927669Y-18012015D01*
X18880050Y-17945348D02*
X18880050Y-18116777D01*
X18880050Y-18116777D02*
X18889574Y-18135824D01*
X18889574Y-18135824D02*
X18908621Y-18145348D01*
X18908621Y-18145348D02*
X18927669Y-18145348D01*
X19146717Y-18012015D02*
X19146717Y-18212015D01*
X19146717Y-18021539D02*
X19165764Y-18012015D01*
X19165764Y-18012015D02*
X19203859Y-18012015D01*
X19203859Y-18012015D02*
X19222907Y-18021539D01*
X19222907Y-18021539D02*
X19232431Y-18031062D01*
X19232431Y-18031062D02*
X19241955Y-18050110D01*
X19241955Y-18050110D02*
X19241955Y-18107253D01*
X19241955Y-18107253D02*
X19232431Y-18126300D01*
X19232431Y-18126300D02*
X19222907Y-18135824D01*
X19222907Y-18135824D02*
X19203859Y-18145348D01*
X19203859Y-18145348D02*
X19165764Y-18145348D01*
X19165764Y-18145348D02*
X19146717Y-18135824D01*
X19356240Y-18145348D02*
X19337193Y-18135824D01*
X19337193Y-18135824D02*
X19327669Y-18116777D01*
X19327669Y-18116777D02*
X19327669Y-17945348D01*
X19518145Y-18145348D02*
X19518145Y-18040586D01*
X19518145Y-18040586D02*
X19508621Y-18021539D01*
X19508621Y-18021539D02*
X19489574Y-18012015D01*
X19489574Y-18012015D02*
X19451478Y-18012015D01*
X19451478Y-18012015D02*
X19432431Y-18021539D01*
X19518145Y-18135824D02*
X19499098Y-18145348D01*
X19499098Y-18145348D02*
X19451478Y-18145348D01*
X19451478Y-18145348D02*
X19432431Y-18135824D01*
X19432431Y-18135824D02*
X19422907Y-18116777D01*
X19422907Y-18116777D02*
X19422907Y-18097729D01*
X19422907Y-18097729D02*
X19432431Y-18078681D01*
X19432431Y-18078681D02*
X19451478Y-18069158D01*
X19451478Y-18069158D02*
X19499098Y-18069158D01*
X19499098Y-18069158D02*
X19518145Y-18059634D01*
X19584812Y-18012015D02*
X19661002Y-18012015D01*
X19613383Y-17945348D02*
X19613383Y-18116777D01*
X19613383Y-18116777D02*
X19622907Y-18135824D01*
X19622907Y-18135824D02*
X19641955Y-18145348D01*
X19641955Y-18145348D02*
X19661002Y-18145348D01*
X19803859Y-18135824D02*
X19784812Y-18145348D01*
X19784812Y-18145348D02*
X19746717Y-18145348D01*
X19746717Y-18145348D02*
X19727669Y-18135824D01*
X19727669Y-18135824D02*
X19718145Y-18116777D01*
X19718145Y-18116777D02*
X19718145Y-18040586D01*
X19718145Y-18040586D02*
X19727669Y-18021539D01*
X19727669Y-18021539D02*
X19746717Y-18012015D01*
X19746717Y-18012015D02*
X19784812Y-18012015D01*
X19784812Y-18012015D02*
X19803859Y-18021539D01*
X19803859Y-18021539D02*
X19813383Y-18040586D01*
X19813383Y-18040586D02*
X19813383Y-18059634D01*
X19813383Y-18059634D02*
X19718145Y-18078681D01*
X19984812Y-18145348D02*
X19984812Y-17945348D01*
X19984812Y-18135824D02*
X19965764Y-18145348D01*
X19965764Y-18145348D02*
X19927669Y-18145348D01*
X19927669Y-18145348D02*
X19908621Y-18135824D01*
X19908621Y-18135824D02*
X19899098Y-18126300D01*
X19899098Y-18126300D02*
X19889574Y-18107253D01*
X19889574Y-18107253D02*
X19889574Y-18050110D01*
X19889574Y-18050110D02*
X19899098Y-18031062D01*
X19899098Y-18031062D02*
X19908621Y-18021539D01*
X19908621Y-18021539D02*
X19927669Y-18012015D01*
X19927669Y-18012015D02*
X19965764Y-18012015D01*
X19965764Y-18012015D02*
X19984812Y-18021539D01*
X20061002Y-18221539D02*
X20070526Y-18212015D01*
X20070526Y-18212015D02*
X20089574Y-18183443D01*
X20089574Y-18183443D02*
X20099098Y-18164396D01*
X20099098Y-18164396D02*
X20108621Y-18135824D01*
X20108621Y-18135824D02*
X20118145Y-18088205D01*
X20118145Y-18088205D02*
X20118145Y-18050110D01*
X20118145Y-18050110D02*
X20108621Y-18002491D01*
X20108621Y-18002491D02*
X20099098Y-17973920D01*
X20099098Y-17973920D02*
X20089574Y-17954872D01*
X20089574Y-17954872D02*
X20070526Y-17926300D01*
X20070526Y-17926300D02*
X20061002Y-17916777D01*
D12*
X13219897Y-18232774D02*
X13219897Y-18402954D01*
X13134807Y-18317864D02*
X13304987Y-18317864D01*
D10*
X13670525Y-18409348D02*
X13556240Y-18409348D01*
X13613383Y-18409348D02*
X13613383Y-18209348D01*
X13613383Y-18209348D02*
X13594335Y-18237920D01*
X13594335Y-18237920D02*
X13575287Y-18256967D01*
X13575287Y-18256967D02*
X13556240Y-18266491D01*
X13756240Y-18390300D02*
X13765764Y-18399824D01*
X13765764Y-18399824D02*
X13756240Y-18409348D01*
X13756240Y-18409348D02*
X13746716Y-18399824D01*
X13746716Y-18399824D02*
X13756240Y-18390300D01*
X13756240Y-18390300D02*
X13756240Y-18409348D01*
X13832430Y-18209348D02*
X13965764Y-18209348D01*
X13965764Y-18209348D02*
X13880049Y-18409348D01*
X14080049Y-18209348D02*
X14099097Y-18209348D01*
X14099097Y-18209348D02*
X14118145Y-18218872D01*
X14118145Y-18218872D02*
X14127668Y-18228396D01*
X14127668Y-18228396D02*
X14137192Y-18247443D01*
X14137192Y-18247443D02*
X14146716Y-18285539D01*
X14146716Y-18285539D02*
X14146716Y-18333158D01*
X14146716Y-18333158D02*
X14137192Y-18371253D01*
X14137192Y-18371253D02*
X14127668Y-18390300D01*
X14127668Y-18390300D02*
X14118145Y-18399824D01*
X14118145Y-18399824D02*
X14099097Y-18409348D01*
X14099097Y-18409348D02*
X14080049Y-18409348D01*
X14080049Y-18409348D02*
X14061002Y-18399824D01*
X14061002Y-18399824D02*
X14051478Y-18390300D01*
X14051478Y-18390300D02*
X14041954Y-18371253D01*
X14041954Y-18371253D02*
X14032430Y-18333158D01*
X14032430Y-18333158D02*
X14032430Y-18285539D01*
X14032430Y-18285539D02*
X14041954Y-18247443D01*
X14041954Y-18247443D02*
X14051478Y-18228396D01*
X14051478Y-18228396D02*
X14061002Y-18218872D01*
X14061002Y-18218872D02*
X14080049Y-18209348D01*
X14222906Y-18228396D02*
X14232430Y-18218872D01*
X14232430Y-18218872D02*
X14251478Y-18209348D01*
X14251478Y-18209348D02*
X14299097Y-18209348D01*
X14299097Y-18209348D02*
X14318145Y-18218872D01*
X14318145Y-18218872D02*
X14327668Y-18228396D01*
X14327668Y-18228396D02*
X14337192Y-18247443D01*
X14337192Y-18247443D02*
X14337192Y-18266491D01*
X14337192Y-18266491D02*
X14327668Y-18295062D01*
X14327668Y-18295062D02*
X14213383Y-18409348D01*
X14213383Y-18409348D02*
X14337192Y-18409348D01*
X14422906Y-18409348D02*
X14422906Y-18276015D01*
X14422906Y-18295062D02*
X14432430Y-18285539D01*
X14432430Y-18285539D02*
X14451478Y-18276015D01*
X14451478Y-18276015D02*
X14480049Y-18276015D01*
X14480049Y-18276015D02*
X14499097Y-18285539D01*
X14499097Y-18285539D02*
X14508621Y-18304586D01*
X14508621Y-18304586D02*
X14508621Y-18409348D01*
X14508621Y-18304586D02*
X14518145Y-18285539D01*
X14518145Y-18285539D02*
X14537192Y-18276015D01*
X14537192Y-18276015D02*
X14565764Y-18276015D01*
X14565764Y-18276015D02*
X14584811Y-18285539D01*
X14584811Y-18285539D02*
X14594335Y-18304586D01*
X14594335Y-18304586D02*
X14594335Y-18409348D01*
X14689573Y-18409348D02*
X14689573Y-18276015D01*
X14689573Y-18295062D02*
X14699097Y-18285539D01*
X14699097Y-18285539D02*
X14718145Y-18276015D01*
X14718145Y-18276015D02*
X14746716Y-18276015D01*
X14746716Y-18276015D02*
X14765764Y-18285539D01*
X14765764Y-18285539D02*
X14775287Y-18304586D01*
X14775287Y-18304586D02*
X14775287Y-18409348D01*
X14775287Y-18304586D02*
X14784811Y-18285539D01*
X14784811Y-18285539D02*
X14803859Y-18276015D01*
X14803859Y-18276015D02*
X14832430Y-18276015D01*
X14832430Y-18276015D02*
X14851478Y-18285539D01*
X14851478Y-18285539D02*
X14861002Y-18304586D01*
X14861002Y-18304586D02*
X14861002Y-18409348D01*
X15251478Y-18199824D02*
X15080049Y-18456967D01*
X15508621Y-18209348D02*
X15527669Y-18209348D01*
X15527669Y-18209348D02*
X15546716Y-18218872D01*
X15546716Y-18218872D02*
X15556240Y-18228396D01*
X15556240Y-18228396D02*
X15565764Y-18247443D01*
X15565764Y-18247443D02*
X15575288Y-18285539D01*
X15575288Y-18285539D02*
X15575288Y-18333158D01*
X15575288Y-18333158D02*
X15565764Y-18371253D01*
X15565764Y-18371253D02*
X15556240Y-18390300D01*
X15556240Y-18390300D02*
X15546716Y-18399824D01*
X15546716Y-18399824D02*
X15527669Y-18409348D01*
X15527669Y-18409348D02*
X15508621Y-18409348D01*
X15508621Y-18409348D02*
X15489573Y-18399824D01*
X15489573Y-18399824D02*
X15480049Y-18390300D01*
X15480049Y-18390300D02*
X15470526Y-18371253D01*
X15470526Y-18371253D02*
X15461002Y-18333158D01*
X15461002Y-18333158D02*
X15461002Y-18285539D01*
X15461002Y-18285539D02*
X15470526Y-18247443D01*
X15470526Y-18247443D02*
X15480049Y-18228396D01*
X15480049Y-18228396D02*
X15489573Y-18218872D01*
X15489573Y-18218872D02*
X15508621Y-18209348D01*
X15661002Y-18390300D02*
X15670526Y-18399824D01*
X15670526Y-18399824D02*
X15661002Y-18409348D01*
X15661002Y-18409348D02*
X15651478Y-18399824D01*
X15651478Y-18399824D02*
X15661002Y-18390300D01*
X15661002Y-18390300D02*
X15661002Y-18409348D01*
X15794335Y-18209348D02*
X15813383Y-18209348D01*
X15813383Y-18209348D02*
X15832430Y-18218872D01*
X15832430Y-18218872D02*
X15841954Y-18228396D01*
X15841954Y-18228396D02*
X15851478Y-18247443D01*
X15851478Y-18247443D02*
X15861002Y-18285539D01*
X15861002Y-18285539D02*
X15861002Y-18333158D01*
X15861002Y-18333158D02*
X15851478Y-18371253D01*
X15851478Y-18371253D02*
X15841954Y-18390300D01*
X15841954Y-18390300D02*
X15832430Y-18399824D01*
X15832430Y-18399824D02*
X15813383Y-18409348D01*
X15813383Y-18409348D02*
X15794335Y-18409348D01*
X15794335Y-18409348D02*
X15775288Y-18399824D01*
X15775288Y-18399824D02*
X15765764Y-18390300D01*
X15765764Y-18390300D02*
X15756240Y-18371253D01*
X15756240Y-18371253D02*
X15746716Y-18333158D01*
X15746716Y-18333158D02*
X15746716Y-18285539D01*
X15746716Y-18285539D02*
X15756240Y-18247443D01*
X15756240Y-18247443D02*
X15765764Y-18228396D01*
X15765764Y-18228396D02*
X15775288Y-18218872D01*
X15775288Y-18218872D02*
X15794335Y-18209348D01*
X16032430Y-18209348D02*
X15994335Y-18209348D01*
X15994335Y-18209348D02*
X15975288Y-18218872D01*
X15975288Y-18218872D02*
X15965764Y-18228396D01*
X15965764Y-18228396D02*
X15946716Y-18256967D01*
X15946716Y-18256967D02*
X15937192Y-18295062D01*
X15937192Y-18295062D02*
X15937192Y-18371253D01*
X15937192Y-18371253D02*
X15946716Y-18390300D01*
X15946716Y-18390300D02*
X15956240Y-18399824D01*
X15956240Y-18399824D02*
X15975288Y-18409348D01*
X15975288Y-18409348D02*
X16013383Y-18409348D01*
X16013383Y-18409348D02*
X16032430Y-18399824D01*
X16032430Y-18399824D02*
X16041954Y-18390300D01*
X16041954Y-18390300D02*
X16051478Y-18371253D01*
X16051478Y-18371253D02*
X16051478Y-18323634D01*
X16051478Y-18323634D02*
X16041954Y-18304586D01*
X16041954Y-18304586D02*
X16032430Y-18295062D01*
X16032430Y-18295062D02*
X16013383Y-18285539D01*
X16013383Y-18285539D02*
X15975288Y-18285539D01*
X15975288Y-18285539D02*
X15956240Y-18295062D01*
X15956240Y-18295062D02*
X15946716Y-18304586D01*
X15946716Y-18304586D02*
X15937192Y-18323634D01*
X16118145Y-18209348D02*
X16251478Y-18209348D01*
X16251478Y-18209348D02*
X16165764Y-18409348D01*
X16365764Y-18209348D02*
X16384811Y-18209348D01*
X16384811Y-18209348D02*
X16403859Y-18218872D01*
X16403859Y-18218872D02*
X16413383Y-18228396D01*
X16413383Y-18228396D02*
X16422907Y-18247443D01*
X16422907Y-18247443D02*
X16432430Y-18285539D01*
X16432430Y-18285539D02*
X16432430Y-18333158D01*
X16432430Y-18333158D02*
X16422907Y-18371253D01*
X16422907Y-18371253D02*
X16413383Y-18390300D01*
X16413383Y-18390300D02*
X16403859Y-18399824D01*
X16403859Y-18399824D02*
X16384811Y-18409348D01*
X16384811Y-18409348D02*
X16365764Y-18409348D01*
X16365764Y-18409348D02*
X16346716Y-18399824D01*
X16346716Y-18399824D02*
X16337192Y-18390300D01*
X16337192Y-18390300D02*
X16327669Y-18371253D01*
X16327669Y-18371253D02*
X16318145Y-18333158D01*
X16318145Y-18333158D02*
X16318145Y-18285539D01*
X16318145Y-18285539D02*
X16327669Y-18247443D01*
X16327669Y-18247443D02*
X16337192Y-18228396D01*
X16337192Y-18228396D02*
X16346716Y-18218872D01*
X16346716Y-18218872D02*
X16365764Y-18209348D01*
X16508621Y-18209348D02*
X16508621Y-18247443D01*
X16584811Y-18209348D02*
X16584811Y-18247443D01*
X16880050Y-18485539D02*
X16870526Y-18476015D01*
X16870526Y-18476015D02*
X16851478Y-18447443D01*
X16851478Y-18447443D02*
X16841954Y-18428396D01*
X16841954Y-18428396D02*
X16832431Y-18399824D01*
X16832431Y-18399824D02*
X16822907Y-18352205D01*
X16822907Y-18352205D02*
X16822907Y-18314110D01*
X16822907Y-18314110D02*
X16832431Y-18266491D01*
X16832431Y-18266491D02*
X16841954Y-18237920D01*
X16841954Y-18237920D02*
X16851478Y-18218872D01*
X16851478Y-18218872D02*
X16870526Y-18190300D01*
X16870526Y-18190300D02*
X16880050Y-18180777D01*
X17051478Y-18209348D02*
X16956240Y-18209348D01*
X16956240Y-18209348D02*
X16946716Y-18304586D01*
X16946716Y-18304586D02*
X16956240Y-18295062D01*
X16956240Y-18295062D02*
X16975288Y-18285539D01*
X16975288Y-18285539D02*
X17022907Y-18285539D01*
X17022907Y-18285539D02*
X17041954Y-18295062D01*
X17041954Y-18295062D02*
X17051478Y-18304586D01*
X17051478Y-18304586D02*
X17061002Y-18323634D01*
X17061002Y-18323634D02*
X17061002Y-18371253D01*
X17061002Y-18371253D02*
X17051478Y-18390300D01*
X17051478Y-18390300D02*
X17041954Y-18399824D01*
X17041954Y-18399824D02*
X17022907Y-18409348D01*
X17022907Y-18409348D02*
X16975288Y-18409348D01*
X16975288Y-18409348D02*
X16956240Y-18399824D01*
X16956240Y-18399824D02*
X16946716Y-18390300D01*
X17175288Y-18295062D02*
X17156240Y-18285539D01*
X17156240Y-18285539D02*
X17146716Y-18276015D01*
X17146716Y-18276015D02*
X17137193Y-18256967D01*
X17137193Y-18256967D02*
X17137193Y-18247443D01*
X17137193Y-18247443D02*
X17146716Y-18228396D01*
X17146716Y-18228396D02*
X17156240Y-18218872D01*
X17156240Y-18218872D02*
X17175288Y-18209348D01*
X17175288Y-18209348D02*
X17213383Y-18209348D01*
X17213383Y-18209348D02*
X17232431Y-18218872D01*
X17232431Y-18218872D02*
X17241954Y-18228396D01*
X17241954Y-18228396D02*
X17251478Y-18247443D01*
X17251478Y-18247443D02*
X17251478Y-18256967D01*
X17251478Y-18256967D02*
X17241954Y-18276015D01*
X17241954Y-18276015D02*
X17232431Y-18285539D01*
X17232431Y-18285539D02*
X17213383Y-18295062D01*
X17213383Y-18295062D02*
X17175288Y-18295062D01*
X17175288Y-18295062D02*
X17156240Y-18304586D01*
X17156240Y-18304586D02*
X17146716Y-18314110D01*
X17146716Y-18314110D02*
X17137193Y-18333158D01*
X17137193Y-18333158D02*
X17137193Y-18371253D01*
X17137193Y-18371253D02*
X17146716Y-18390300D01*
X17146716Y-18390300D02*
X17156240Y-18399824D01*
X17156240Y-18399824D02*
X17175288Y-18409348D01*
X17175288Y-18409348D02*
X17213383Y-18409348D01*
X17213383Y-18409348D02*
X17232431Y-18399824D01*
X17232431Y-18399824D02*
X17241954Y-18390300D01*
X17241954Y-18390300D02*
X17251478Y-18371253D01*
X17251478Y-18371253D02*
X17251478Y-18333158D01*
X17251478Y-18333158D02*
X17241954Y-18314110D01*
X17241954Y-18314110D02*
X17232431Y-18304586D01*
X17232431Y-18304586D02*
X17213383Y-18295062D01*
X17489574Y-18409348D02*
X17489574Y-18209348D01*
X17575288Y-18409348D02*
X17575288Y-18304586D01*
X17575288Y-18304586D02*
X17565764Y-18285539D01*
X17565764Y-18285539D02*
X17546716Y-18276015D01*
X17546716Y-18276015D02*
X17518145Y-18276015D01*
X17518145Y-18276015D02*
X17499097Y-18285539D01*
X17499097Y-18285539D02*
X17489574Y-18295062D01*
X17699097Y-18409348D02*
X17680050Y-18399824D01*
X17680050Y-18399824D02*
X17670526Y-18390300D01*
X17670526Y-18390300D02*
X17661002Y-18371253D01*
X17661002Y-18371253D02*
X17661002Y-18314110D01*
X17661002Y-18314110D02*
X17670526Y-18295062D01*
X17670526Y-18295062D02*
X17680050Y-18285539D01*
X17680050Y-18285539D02*
X17699097Y-18276015D01*
X17699097Y-18276015D02*
X17727669Y-18276015D01*
X17727669Y-18276015D02*
X17746716Y-18285539D01*
X17746716Y-18285539D02*
X17756240Y-18295062D01*
X17756240Y-18295062D02*
X17765764Y-18314110D01*
X17765764Y-18314110D02*
X17765764Y-18371253D01*
X17765764Y-18371253D02*
X17756240Y-18390300D01*
X17756240Y-18390300D02*
X17746716Y-18399824D01*
X17746716Y-18399824D02*
X17727669Y-18409348D01*
X17727669Y-18409348D02*
X17699097Y-18409348D01*
X17880050Y-18409348D02*
X17861002Y-18399824D01*
X17861002Y-18399824D02*
X17851478Y-18380777D01*
X17851478Y-18380777D02*
X17851478Y-18209348D01*
X18032431Y-18399824D02*
X18013383Y-18409348D01*
X18013383Y-18409348D02*
X17975288Y-18409348D01*
X17975288Y-18409348D02*
X17956240Y-18399824D01*
X17956240Y-18399824D02*
X17946716Y-18380777D01*
X17946716Y-18380777D02*
X17946716Y-18304586D01*
X17946716Y-18304586D02*
X17956240Y-18285539D01*
X17956240Y-18285539D02*
X17975288Y-18276015D01*
X17975288Y-18276015D02*
X18013383Y-18276015D01*
X18013383Y-18276015D02*
X18032431Y-18285539D01*
X18032431Y-18285539D02*
X18041955Y-18304586D01*
X18041955Y-18304586D02*
X18041955Y-18323634D01*
X18041955Y-18323634D02*
X17946716Y-18342681D01*
X18118145Y-18399824D02*
X18137193Y-18409348D01*
X18137193Y-18409348D02*
X18175288Y-18409348D01*
X18175288Y-18409348D02*
X18194336Y-18399824D01*
X18194336Y-18399824D02*
X18203859Y-18380777D01*
X18203859Y-18380777D02*
X18203859Y-18371253D01*
X18203859Y-18371253D02*
X18194336Y-18352205D01*
X18194336Y-18352205D02*
X18175288Y-18342681D01*
X18175288Y-18342681D02*
X18146716Y-18342681D01*
X18146716Y-18342681D02*
X18127669Y-18333158D01*
X18127669Y-18333158D02*
X18118145Y-18314110D01*
X18118145Y-18314110D02*
X18118145Y-18304586D01*
X18118145Y-18304586D02*
X18127669Y-18285539D01*
X18127669Y-18285539D02*
X18146716Y-18276015D01*
X18146716Y-18276015D02*
X18175288Y-18276015D01*
X18175288Y-18276015D02*
X18194336Y-18285539D01*
X18270526Y-18485539D02*
X18280050Y-18476015D01*
X18280050Y-18476015D02*
X18299097Y-18447443D01*
X18299097Y-18447443D02*
X18308621Y-18428396D01*
X18308621Y-18428396D02*
X18318145Y-18399824D01*
X18318145Y-18399824D02*
X18327669Y-18352205D01*
X18327669Y-18352205D02*
X18327669Y-18314110D01*
X18327669Y-18314110D02*
X18318145Y-18266491D01*
X18318145Y-18266491D02*
X18308621Y-18237920D01*
X18308621Y-18237920D02*
X18299097Y-18218872D01*
X18299097Y-18218872D02*
X18280050Y-18190300D01*
X18280050Y-18190300D02*
X18270526Y-18180777D01*
X18632431Y-18485539D02*
X18622907Y-18476015D01*
X18622907Y-18476015D02*
X18603859Y-18447443D01*
X18603859Y-18447443D02*
X18594336Y-18428396D01*
X18594336Y-18428396D02*
X18584812Y-18399824D01*
X18584812Y-18399824D02*
X18575288Y-18352205D01*
X18575288Y-18352205D02*
X18575288Y-18314110D01*
X18575288Y-18314110D02*
X18584812Y-18266491D01*
X18584812Y-18266491D02*
X18594336Y-18237920D01*
X18594336Y-18237920D02*
X18603859Y-18218872D01*
X18603859Y-18218872D02*
X18622907Y-18190300D01*
X18622907Y-18190300D02*
X18632431Y-18180777D01*
X18708621Y-18276015D02*
X18708621Y-18409348D01*
X18708621Y-18295062D02*
X18718145Y-18285539D01*
X18718145Y-18285539D02*
X18737193Y-18276015D01*
X18737193Y-18276015D02*
X18765764Y-18276015D01*
X18765764Y-18276015D02*
X18784812Y-18285539D01*
X18784812Y-18285539D02*
X18794336Y-18304586D01*
X18794336Y-18304586D02*
X18794336Y-18409348D01*
X18918145Y-18409348D02*
X18899097Y-18399824D01*
X18899097Y-18399824D02*
X18889574Y-18390300D01*
X18889574Y-18390300D02*
X18880050Y-18371253D01*
X18880050Y-18371253D02*
X18880050Y-18314110D01*
X18880050Y-18314110D02*
X18889574Y-18295062D01*
X18889574Y-18295062D02*
X18899097Y-18285539D01*
X18899097Y-18285539D02*
X18918145Y-18276015D01*
X18918145Y-18276015D02*
X18946717Y-18276015D01*
X18946717Y-18276015D02*
X18965764Y-18285539D01*
X18965764Y-18285539D02*
X18975288Y-18295062D01*
X18975288Y-18295062D02*
X18984812Y-18314110D01*
X18984812Y-18314110D02*
X18984812Y-18371253D01*
X18984812Y-18371253D02*
X18975288Y-18390300D01*
X18975288Y-18390300D02*
X18965764Y-18399824D01*
X18965764Y-18399824D02*
X18946717Y-18409348D01*
X18946717Y-18409348D02*
X18918145Y-18409348D01*
X19041955Y-18276015D02*
X19118145Y-18276015D01*
X19070526Y-18209348D02*
X19070526Y-18380777D01*
X19070526Y-18380777D02*
X19080050Y-18399824D01*
X19080050Y-18399824D02*
X19099097Y-18409348D01*
X19099097Y-18409348D02*
X19118145Y-18409348D01*
X19337193Y-18276015D02*
X19337193Y-18476015D01*
X19337193Y-18285539D02*
X19356240Y-18276015D01*
X19356240Y-18276015D02*
X19394336Y-18276015D01*
X19394336Y-18276015D02*
X19413383Y-18285539D01*
X19413383Y-18285539D02*
X19422907Y-18295062D01*
X19422907Y-18295062D02*
X19432431Y-18314110D01*
X19432431Y-18314110D02*
X19432431Y-18371253D01*
X19432431Y-18371253D02*
X19422907Y-18390300D01*
X19422907Y-18390300D02*
X19413383Y-18399824D01*
X19413383Y-18399824D02*
X19394336Y-18409348D01*
X19394336Y-18409348D02*
X19356240Y-18409348D01*
X19356240Y-18409348D02*
X19337193Y-18399824D01*
X19546717Y-18409348D02*
X19527669Y-18399824D01*
X19527669Y-18399824D02*
X19518145Y-18380777D01*
X19518145Y-18380777D02*
X19518145Y-18209348D01*
X19708621Y-18409348D02*
X19708621Y-18304586D01*
X19708621Y-18304586D02*
X19699098Y-18285539D01*
X19699098Y-18285539D02*
X19680050Y-18276015D01*
X19680050Y-18276015D02*
X19641955Y-18276015D01*
X19641955Y-18276015D02*
X19622907Y-18285539D01*
X19708621Y-18399824D02*
X19689574Y-18409348D01*
X19689574Y-18409348D02*
X19641955Y-18409348D01*
X19641955Y-18409348D02*
X19622907Y-18399824D01*
X19622907Y-18399824D02*
X19613383Y-18380777D01*
X19613383Y-18380777D02*
X19613383Y-18361729D01*
X19613383Y-18361729D02*
X19622907Y-18342681D01*
X19622907Y-18342681D02*
X19641955Y-18333158D01*
X19641955Y-18333158D02*
X19689574Y-18333158D01*
X19689574Y-18333158D02*
X19708621Y-18323634D01*
X19775288Y-18276015D02*
X19851478Y-18276015D01*
X19803859Y-18209348D02*
X19803859Y-18380777D01*
X19803859Y-18380777D02*
X19813383Y-18399824D01*
X19813383Y-18399824D02*
X19832431Y-18409348D01*
X19832431Y-18409348D02*
X19851478Y-18409348D01*
X19994336Y-18399824D02*
X19975288Y-18409348D01*
X19975288Y-18409348D02*
X19937193Y-18409348D01*
X19937193Y-18409348D02*
X19918145Y-18399824D01*
X19918145Y-18399824D02*
X19908621Y-18380777D01*
X19908621Y-18380777D02*
X19908621Y-18304586D01*
X19908621Y-18304586D02*
X19918145Y-18285539D01*
X19918145Y-18285539D02*
X19937193Y-18276015D01*
X19937193Y-18276015D02*
X19975288Y-18276015D01*
X19975288Y-18276015D02*
X19994336Y-18285539D01*
X19994336Y-18285539D02*
X20003859Y-18304586D01*
X20003859Y-18304586D02*
X20003859Y-18323634D01*
X20003859Y-18323634D02*
X19908621Y-18342681D01*
X20175288Y-18409348D02*
X20175288Y-18209348D01*
X20175288Y-18399824D02*
X20156240Y-18409348D01*
X20156240Y-18409348D02*
X20118145Y-18409348D01*
X20118145Y-18409348D02*
X20099098Y-18399824D01*
X20099098Y-18399824D02*
X20089574Y-18390300D01*
X20089574Y-18390300D02*
X20080050Y-18371253D01*
X20080050Y-18371253D02*
X20080050Y-18314110D01*
X20080050Y-18314110D02*
X20089574Y-18295062D01*
X20089574Y-18295062D02*
X20099098Y-18285539D01*
X20099098Y-18285539D02*
X20118145Y-18276015D01*
X20118145Y-18276015D02*
X20156240Y-18276015D01*
X20156240Y-18276015D02*
X20175288Y-18285539D01*
X20251479Y-18485539D02*
X20261002Y-18476015D01*
X20261002Y-18476015D02*
X20280050Y-18447443D01*
X20280050Y-18447443D02*
X20289574Y-18428396D01*
X20289574Y-18428396D02*
X20299098Y-18399824D01*
X20299098Y-18399824D02*
X20308621Y-18352205D01*
X20308621Y-18352205D02*
X20308621Y-18314110D01*
X20308621Y-18314110D02*
X20299098Y-18266491D01*
X20299098Y-18266491D02*
X20289574Y-18237920D01*
X20289574Y-18237920D02*
X20280050Y-18218872D01*
X20280050Y-18218872D02*
X20261002Y-18190300D01*
X20261002Y-18190300D02*
X20251479Y-18180777D01*
X13275698Y-18678756D02*
X13275698Y-18537333D01*
X13134275Y-18537333D01*
X13134275Y-18678756D01*
X13275698Y-18678756D01*
X13556240Y-18518576D02*
X13565764Y-18509052D01*
X13565764Y-18509052D02*
X13584811Y-18499528D01*
X13584811Y-18499528D02*
X13632430Y-18499528D01*
X13632430Y-18499528D02*
X13651478Y-18509052D01*
X13651478Y-18509052D02*
X13661002Y-18518576D01*
X13661002Y-18518576D02*
X13670525Y-18537623D01*
X13670525Y-18537623D02*
X13670525Y-18556671D01*
X13670525Y-18556671D02*
X13661002Y-18585242D01*
X13661002Y-18585242D02*
X13546716Y-18699528D01*
X13546716Y-18699528D02*
X13670525Y-18699528D01*
X13756240Y-18680480D02*
X13765764Y-18690004D01*
X13765764Y-18690004D02*
X13756240Y-18699528D01*
X13756240Y-18699528D02*
X13746716Y-18690004D01*
X13746716Y-18690004D02*
X13756240Y-18680480D01*
X13756240Y-18680480D02*
X13756240Y-18699528D01*
X13841954Y-18518576D02*
X13851478Y-18509052D01*
X13851478Y-18509052D02*
X13870525Y-18499528D01*
X13870525Y-18499528D02*
X13918145Y-18499528D01*
X13918145Y-18499528D02*
X13937192Y-18509052D01*
X13937192Y-18509052D02*
X13946716Y-18518576D01*
X13946716Y-18518576D02*
X13956240Y-18537623D01*
X13956240Y-18537623D02*
X13956240Y-18556671D01*
X13956240Y-18556671D02*
X13946716Y-18585242D01*
X13946716Y-18585242D02*
X13832430Y-18699528D01*
X13832430Y-18699528D02*
X13956240Y-18699528D01*
X14080049Y-18499528D02*
X14099097Y-18499528D01*
X14099097Y-18499528D02*
X14118145Y-18509052D01*
X14118145Y-18509052D02*
X14127668Y-18518576D01*
X14127668Y-18518576D02*
X14137192Y-18537623D01*
X14137192Y-18537623D02*
X14146716Y-18575719D01*
X14146716Y-18575719D02*
X14146716Y-18623338D01*
X14146716Y-18623338D02*
X14137192Y-18661433D01*
X14137192Y-18661433D02*
X14127668Y-18680480D01*
X14127668Y-18680480D02*
X14118145Y-18690004D01*
X14118145Y-18690004D02*
X14099097Y-18699528D01*
X14099097Y-18699528D02*
X14080049Y-18699528D01*
X14080049Y-18699528D02*
X14061002Y-18690004D01*
X14061002Y-18690004D02*
X14051478Y-18680480D01*
X14051478Y-18680480D02*
X14041954Y-18661433D01*
X14041954Y-18661433D02*
X14032430Y-18623338D01*
X14032430Y-18623338D02*
X14032430Y-18575719D01*
X14032430Y-18575719D02*
X14041954Y-18537623D01*
X14041954Y-18537623D02*
X14051478Y-18518576D01*
X14051478Y-18518576D02*
X14061002Y-18509052D01*
X14061002Y-18509052D02*
X14080049Y-18499528D01*
X14270525Y-18499528D02*
X14289573Y-18499528D01*
X14289573Y-18499528D02*
X14308621Y-18509052D01*
X14308621Y-18509052D02*
X14318145Y-18518576D01*
X14318145Y-18518576D02*
X14327668Y-18537623D01*
X14327668Y-18537623D02*
X14337192Y-18575719D01*
X14337192Y-18575719D02*
X14337192Y-18623338D01*
X14337192Y-18623338D02*
X14327668Y-18661433D01*
X14327668Y-18661433D02*
X14318145Y-18680480D01*
X14318145Y-18680480D02*
X14308621Y-18690004D01*
X14308621Y-18690004D02*
X14289573Y-18699528D01*
X14289573Y-18699528D02*
X14270525Y-18699528D01*
X14270525Y-18699528D02*
X14251478Y-18690004D01*
X14251478Y-18690004D02*
X14241954Y-18680480D01*
X14241954Y-18680480D02*
X14232430Y-18661433D01*
X14232430Y-18661433D02*
X14222906Y-18623338D01*
X14222906Y-18623338D02*
X14222906Y-18575719D01*
X14222906Y-18575719D02*
X14232430Y-18537623D01*
X14232430Y-18537623D02*
X14241954Y-18518576D01*
X14241954Y-18518576D02*
X14251478Y-18509052D01*
X14251478Y-18509052D02*
X14270525Y-18499528D01*
X14422906Y-18699528D02*
X14422906Y-18566195D01*
X14422906Y-18585242D02*
X14432430Y-18575719D01*
X14432430Y-18575719D02*
X14451478Y-18566195D01*
X14451478Y-18566195D02*
X14480049Y-18566195D01*
X14480049Y-18566195D02*
X14499097Y-18575719D01*
X14499097Y-18575719D02*
X14508621Y-18594766D01*
X14508621Y-18594766D02*
X14508621Y-18699528D01*
X14508621Y-18594766D02*
X14518145Y-18575719D01*
X14518145Y-18575719D02*
X14537192Y-18566195D01*
X14537192Y-18566195D02*
X14565764Y-18566195D01*
X14565764Y-18566195D02*
X14584811Y-18575719D01*
X14584811Y-18575719D02*
X14594335Y-18594766D01*
X14594335Y-18594766D02*
X14594335Y-18699528D01*
X14689573Y-18699528D02*
X14689573Y-18566195D01*
X14689573Y-18585242D02*
X14699097Y-18575719D01*
X14699097Y-18575719D02*
X14718145Y-18566195D01*
X14718145Y-18566195D02*
X14746716Y-18566195D01*
X14746716Y-18566195D02*
X14765764Y-18575719D01*
X14765764Y-18575719D02*
X14775287Y-18594766D01*
X14775287Y-18594766D02*
X14775287Y-18699528D01*
X14775287Y-18594766D02*
X14784811Y-18575719D01*
X14784811Y-18575719D02*
X14803859Y-18566195D01*
X14803859Y-18566195D02*
X14832430Y-18566195D01*
X14832430Y-18566195D02*
X14851478Y-18575719D01*
X14851478Y-18575719D02*
X14861002Y-18594766D01*
X14861002Y-18594766D02*
X14861002Y-18699528D01*
X15251478Y-18490004D02*
X15080049Y-18747147D01*
X15508621Y-18499528D02*
X15527669Y-18499528D01*
X15527669Y-18499528D02*
X15546716Y-18509052D01*
X15546716Y-18509052D02*
X15556240Y-18518576D01*
X15556240Y-18518576D02*
X15565764Y-18537623D01*
X15565764Y-18537623D02*
X15575288Y-18575719D01*
X15575288Y-18575719D02*
X15575288Y-18623338D01*
X15575288Y-18623338D02*
X15565764Y-18661433D01*
X15565764Y-18661433D02*
X15556240Y-18680480D01*
X15556240Y-18680480D02*
X15546716Y-18690004D01*
X15546716Y-18690004D02*
X15527669Y-18699528D01*
X15527669Y-18699528D02*
X15508621Y-18699528D01*
X15508621Y-18699528D02*
X15489573Y-18690004D01*
X15489573Y-18690004D02*
X15480049Y-18680480D01*
X15480049Y-18680480D02*
X15470526Y-18661433D01*
X15470526Y-18661433D02*
X15461002Y-18623338D01*
X15461002Y-18623338D02*
X15461002Y-18575719D01*
X15461002Y-18575719D02*
X15470526Y-18537623D01*
X15470526Y-18537623D02*
X15480049Y-18518576D01*
X15480049Y-18518576D02*
X15489573Y-18509052D01*
X15489573Y-18509052D02*
X15508621Y-18499528D01*
X15661002Y-18680480D02*
X15670526Y-18690004D01*
X15670526Y-18690004D02*
X15661002Y-18699528D01*
X15661002Y-18699528D02*
X15651478Y-18690004D01*
X15651478Y-18690004D02*
X15661002Y-18680480D01*
X15661002Y-18680480D02*
X15661002Y-18699528D01*
X15794335Y-18499528D02*
X15813383Y-18499528D01*
X15813383Y-18499528D02*
X15832430Y-18509052D01*
X15832430Y-18509052D02*
X15841954Y-18518576D01*
X15841954Y-18518576D02*
X15851478Y-18537623D01*
X15851478Y-18537623D02*
X15861002Y-18575719D01*
X15861002Y-18575719D02*
X15861002Y-18623338D01*
X15861002Y-18623338D02*
X15851478Y-18661433D01*
X15851478Y-18661433D02*
X15841954Y-18680480D01*
X15841954Y-18680480D02*
X15832430Y-18690004D01*
X15832430Y-18690004D02*
X15813383Y-18699528D01*
X15813383Y-18699528D02*
X15794335Y-18699528D01*
X15794335Y-18699528D02*
X15775288Y-18690004D01*
X15775288Y-18690004D02*
X15765764Y-18680480D01*
X15765764Y-18680480D02*
X15756240Y-18661433D01*
X15756240Y-18661433D02*
X15746716Y-18623338D01*
X15746716Y-18623338D02*
X15746716Y-18575719D01*
X15746716Y-18575719D02*
X15756240Y-18537623D01*
X15756240Y-18537623D02*
X15765764Y-18518576D01*
X15765764Y-18518576D02*
X15775288Y-18509052D01*
X15775288Y-18509052D02*
X15794335Y-18499528D01*
X15975288Y-18585242D02*
X15956240Y-18575719D01*
X15956240Y-18575719D02*
X15946716Y-18566195D01*
X15946716Y-18566195D02*
X15937192Y-18547147D01*
X15937192Y-18547147D02*
X15937192Y-18537623D01*
X15937192Y-18537623D02*
X15946716Y-18518576D01*
X15946716Y-18518576D02*
X15956240Y-18509052D01*
X15956240Y-18509052D02*
X15975288Y-18499528D01*
X15975288Y-18499528D02*
X16013383Y-18499528D01*
X16013383Y-18499528D02*
X16032430Y-18509052D01*
X16032430Y-18509052D02*
X16041954Y-18518576D01*
X16041954Y-18518576D02*
X16051478Y-18537623D01*
X16051478Y-18537623D02*
X16051478Y-18547147D01*
X16051478Y-18547147D02*
X16041954Y-18566195D01*
X16041954Y-18566195D02*
X16032430Y-18575719D01*
X16032430Y-18575719D02*
X16013383Y-18585242D01*
X16013383Y-18585242D02*
X15975288Y-18585242D01*
X15975288Y-18585242D02*
X15956240Y-18594766D01*
X15956240Y-18594766D02*
X15946716Y-18604290D01*
X15946716Y-18604290D02*
X15937192Y-18623338D01*
X15937192Y-18623338D02*
X15937192Y-18661433D01*
X15937192Y-18661433D02*
X15946716Y-18680480D01*
X15946716Y-18680480D02*
X15956240Y-18690004D01*
X15956240Y-18690004D02*
X15975288Y-18699528D01*
X15975288Y-18699528D02*
X16013383Y-18699528D01*
X16013383Y-18699528D02*
X16032430Y-18690004D01*
X16032430Y-18690004D02*
X16041954Y-18680480D01*
X16041954Y-18680480D02*
X16051478Y-18661433D01*
X16051478Y-18661433D02*
X16051478Y-18623338D01*
X16051478Y-18623338D02*
X16041954Y-18604290D01*
X16041954Y-18604290D02*
X16032430Y-18594766D01*
X16032430Y-18594766D02*
X16013383Y-18585242D01*
X16222907Y-18499528D02*
X16184811Y-18499528D01*
X16184811Y-18499528D02*
X16165764Y-18509052D01*
X16165764Y-18509052D02*
X16156240Y-18518576D01*
X16156240Y-18518576D02*
X16137192Y-18547147D01*
X16137192Y-18547147D02*
X16127669Y-18585242D01*
X16127669Y-18585242D02*
X16127669Y-18661433D01*
X16127669Y-18661433D02*
X16137192Y-18680480D01*
X16137192Y-18680480D02*
X16146716Y-18690004D01*
X16146716Y-18690004D02*
X16165764Y-18699528D01*
X16165764Y-18699528D02*
X16203859Y-18699528D01*
X16203859Y-18699528D02*
X16222907Y-18690004D01*
X16222907Y-18690004D02*
X16232430Y-18680480D01*
X16232430Y-18680480D02*
X16241954Y-18661433D01*
X16241954Y-18661433D02*
X16241954Y-18613814D01*
X16241954Y-18613814D02*
X16232430Y-18594766D01*
X16232430Y-18594766D02*
X16222907Y-18585242D01*
X16222907Y-18585242D02*
X16203859Y-18575719D01*
X16203859Y-18575719D02*
X16165764Y-18575719D01*
X16165764Y-18575719D02*
X16146716Y-18585242D01*
X16146716Y-18585242D02*
X16137192Y-18594766D01*
X16137192Y-18594766D02*
X16127669Y-18613814D01*
X16413383Y-18499528D02*
X16375288Y-18499528D01*
X16375288Y-18499528D02*
X16356240Y-18509052D01*
X16356240Y-18509052D02*
X16346716Y-18518576D01*
X16346716Y-18518576D02*
X16327669Y-18547147D01*
X16327669Y-18547147D02*
X16318145Y-18585242D01*
X16318145Y-18585242D02*
X16318145Y-18661433D01*
X16318145Y-18661433D02*
X16327669Y-18680480D01*
X16327669Y-18680480D02*
X16337192Y-18690004D01*
X16337192Y-18690004D02*
X16356240Y-18699528D01*
X16356240Y-18699528D02*
X16394335Y-18699528D01*
X16394335Y-18699528D02*
X16413383Y-18690004D01*
X16413383Y-18690004D02*
X16422907Y-18680480D01*
X16422907Y-18680480D02*
X16432430Y-18661433D01*
X16432430Y-18661433D02*
X16432430Y-18613814D01*
X16432430Y-18613814D02*
X16422907Y-18594766D01*
X16422907Y-18594766D02*
X16413383Y-18585242D01*
X16413383Y-18585242D02*
X16394335Y-18575719D01*
X16394335Y-18575719D02*
X16356240Y-18575719D01*
X16356240Y-18575719D02*
X16337192Y-18585242D01*
X16337192Y-18585242D02*
X16327669Y-18594766D01*
X16327669Y-18594766D02*
X16318145Y-18613814D01*
X16508621Y-18499528D02*
X16508621Y-18537623D01*
X16584811Y-18499528D02*
X16584811Y-18537623D01*
X16880050Y-18775719D02*
X16870526Y-18766195D01*
X16870526Y-18766195D02*
X16851478Y-18737623D01*
X16851478Y-18737623D02*
X16841954Y-18718576D01*
X16841954Y-18718576D02*
X16832431Y-18690004D01*
X16832431Y-18690004D02*
X16822907Y-18642385D01*
X16822907Y-18642385D02*
X16822907Y-18604290D01*
X16822907Y-18604290D02*
X16832431Y-18556671D01*
X16832431Y-18556671D02*
X16841954Y-18528100D01*
X16841954Y-18528100D02*
X16851478Y-18509052D01*
X16851478Y-18509052D02*
X16870526Y-18480480D01*
X16870526Y-18480480D02*
X16880050Y-18470957D01*
X16937193Y-18499528D02*
X17061002Y-18499528D01*
X17061002Y-18499528D02*
X16994335Y-18575719D01*
X16994335Y-18575719D02*
X17022907Y-18575719D01*
X17022907Y-18575719D02*
X17041954Y-18585242D01*
X17041954Y-18585242D02*
X17051478Y-18594766D01*
X17051478Y-18594766D02*
X17061002Y-18613814D01*
X17061002Y-18613814D02*
X17061002Y-18661433D01*
X17061002Y-18661433D02*
X17051478Y-18680480D01*
X17051478Y-18680480D02*
X17041954Y-18690004D01*
X17041954Y-18690004D02*
X17022907Y-18699528D01*
X17022907Y-18699528D02*
X16965764Y-18699528D01*
X16965764Y-18699528D02*
X16946716Y-18690004D01*
X16946716Y-18690004D02*
X16937193Y-18680480D01*
X17299097Y-18699528D02*
X17299097Y-18499528D01*
X17384812Y-18699528D02*
X17384812Y-18594766D01*
X17384812Y-18594766D02*
X17375288Y-18575719D01*
X17375288Y-18575719D02*
X17356240Y-18566195D01*
X17356240Y-18566195D02*
X17327669Y-18566195D01*
X17327669Y-18566195D02*
X17308621Y-18575719D01*
X17308621Y-18575719D02*
X17299097Y-18585242D01*
X17508621Y-18699528D02*
X17489574Y-18690004D01*
X17489574Y-18690004D02*
X17480050Y-18680480D01*
X17480050Y-18680480D02*
X17470526Y-18661433D01*
X17470526Y-18661433D02*
X17470526Y-18604290D01*
X17470526Y-18604290D02*
X17480050Y-18585242D01*
X17480050Y-18585242D02*
X17489574Y-18575719D01*
X17489574Y-18575719D02*
X17508621Y-18566195D01*
X17508621Y-18566195D02*
X17537193Y-18566195D01*
X17537193Y-18566195D02*
X17556240Y-18575719D01*
X17556240Y-18575719D02*
X17565764Y-18585242D01*
X17565764Y-18585242D02*
X17575288Y-18604290D01*
X17575288Y-18604290D02*
X17575288Y-18661433D01*
X17575288Y-18661433D02*
X17565764Y-18680480D01*
X17565764Y-18680480D02*
X17556240Y-18690004D01*
X17556240Y-18690004D02*
X17537193Y-18699528D01*
X17537193Y-18699528D02*
X17508621Y-18699528D01*
X17689574Y-18699528D02*
X17670526Y-18690004D01*
X17670526Y-18690004D02*
X17661002Y-18670957D01*
X17661002Y-18670957D02*
X17661002Y-18499528D01*
X17841955Y-18690004D02*
X17822907Y-18699528D01*
X17822907Y-18699528D02*
X17784812Y-18699528D01*
X17784812Y-18699528D02*
X17765764Y-18690004D01*
X17765764Y-18690004D02*
X17756240Y-18670957D01*
X17756240Y-18670957D02*
X17756240Y-18594766D01*
X17756240Y-18594766D02*
X17765764Y-18575719D01*
X17765764Y-18575719D02*
X17784812Y-18566195D01*
X17784812Y-18566195D02*
X17822907Y-18566195D01*
X17822907Y-18566195D02*
X17841955Y-18575719D01*
X17841955Y-18575719D02*
X17851478Y-18594766D01*
X17851478Y-18594766D02*
X17851478Y-18613814D01*
X17851478Y-18613814D02*
X17756240Y-18632861D01*
X17927669Y-18690004D02*
X17946716Y-18699528D01*
X17946716Y-18699528D02*
X17984812Y-18699528D01*
X17984812Y-18699528D02*
X18003859Y-18690004D01*
X18003859Y-18690004D02*
X18013383Y-18670957D01*
X18013383Y-18670957D02*
X18013383Y-18661433D01*
X18013383Y-18661433D02*
X18003859Y-18642385D01*
X18003859Y-18642385D02*
X17984812Y-18632861D01*
X17984812Y-18632861D02*
X17956240Y-18632861D01*
X17956240Y-18632861D02*
X17937193Y-18623338D01*
X17937193Y-18623338D02*
X17927669Y-18604290D01*
X17927669Y-18604290D02*
X17927669Y-18594766D01*
X17927669Y-18594766D02*
X17937193Y-18575719D01*
X17937193Y-18575719D02*
X17956240Y-18566195D01*
X17956240Y-18566195D02*
X17984812Y-18566195D01*
X17984812Y-18566195D02*
X18003859Y-18575719D01*
X18080050Y-18775719D02*
X18089574Y-18766195D01*
X18089574Y-18766195D02*
X18108621Y-18737623D01*
X18108621Y-18737623D02*
X18118145Y-18718576D01*
X18118145Y-18718576D02*
X18127669Y-18690004D01*
X18127669Y-18690004D02*
X18137193Y-18642385D01*
X18137193Y-18642385D02*
X18137193Y-18604290D01*
X18137193Y-18604290D02*
X18127669Y-18556671D01*
X18127669Y-18556671D02*
X18118145Y-18528100D01*
X18118145Y-18528100D02*
X18108621Y-18509052D01*
X18108621Y-18509052D02*
X18089574Y-18480480D01*
X18089574Y-18480480D02*
X18080050Y-18470957D01*
X18441955Y-18775719D02*
X18432431Y-18766195D01*
X18432431Y-18766195D02*
X18413383Y-18737623D01*
X18413383Y-18737623D02*
X18403859Y-18718576D01*
X18403859Y-18718576D02*
X18394336Y-18690004D01*
X18394336Y-18690004D02*
X18384812Y-18642385D01*
X18384812Y-18642385D02*
X18384812Y-18604290D01*
X18384812Y-18604290D02*
X18394336Y-18556671D01*
X18394336Y-18556671D02*
X18403859Y-18528100D01*
X18403859Y-18528100D02*
X18413383Y-18509052D01*
X18413383Y-18509052D02*
X18432431Y-18480480D01*
X18432431Y-18480480D02*
X18441955Y-18470957D01*
X18518145Y-18566195D02*
X18518145Y-18699528D01*
X18518145Y-18585242D02*
X18527669Y-18575719D01*
X18527669Y-18575719D02*
X18546716Y-18566195D01*
X18546716Y-18566195D02*
X18575288Y-18566195D01*
X18575288Y-18566195D02*
X18594336Y-18575719D01*
X18594336Y-18575719D02*
X18603859Y-18594766D01*
X18603859Y-18594766D02*
X18603859Y-18699528D01*
X18727669Y-18699528D02*
X18708621Y-18690004D01*
X18708621Y-18690004D02*
X18699097Y-18680480D01*
X18699097Y-18680480D02*
X18689574Y-18661433D01*
X18689574Y-18661433D02*
X18689574Y-18604290D01*
X18689574Y-18604290D02*
X18699097Y-18585242D01*
X18699097Y-18585242D02*
X18708621Y-18575719D01*
X18708621Y-18575719D02*
X18727669Y-18566195D01*
X18727669Y-18566195D02*
X18756240Y-18566195D01*
X18756240Y-18566195D02*
X18775288Y-18575719D01*
X18775288Y-18575719D02*
X18784812Y-18585242D01*
X18784812Y-18585242D02*
X18794336Y-18604290D01*
X18794336Y-18604290D02*
X18794336Y-18661433D01*
X18794336Y-18661433D02*
X18784812Y-18680480D01*
X18784812Y-18680480D02*
X18775288Y-18690004D01*
X18775288Y-18690004D02*
X18756240Y-18699528D01*
X18756240Y-18699528D02*
X18727669Y-18699528D01*
X18851478Y-18566195D02*
X18927669Y-18566195D01*
X18880050Y-18499528D02*
X18880050Y-18670957D01*
X18880050Y-18670957D02*
X18889574Y-18690004D01*
X18889574Y-18690004D02*
X18908621Y-18699528D01*
X18908621Y-18699528D02*
X18927669Y-18699528D01*
X19146717Y-18566195D02*
X19146717Y-18766195D01*
X19146717Y-18575719D02*
X19165764Y-18566195D01*
X19165764Y-18566195D02*
X19203859Y-18566195D01*
X19203859Y-18566195D02*
X19222907Y-18575719D01*
X19222907Y-18575719D02*
X19232431Y-18585242D01*
X19232431Y-18585242D02*
X19241955Y-18604290D01*
X19241955Y-18604290D02*
X19241955Y-18661433D01*
X19241955Y-18661433D02*
X19232431Y-18680480D01*
X19232431Y-18680480D02*
X19222907Y-18690004D01*
X19222907Y-18690004D02*
X19203859Y-18699528D01*
X19203859Y-18699528D02*
X19165764Y-18699528D01*
X19165764Y-18699528D02*
X19146717Y-18690004D01*
X19356240Y-18699528D02*
X19337193Y-18690004D01*
X19337193Y-18690004D02*
X19327669Y-18670957D01*
X19327669Y-18670957D02*
X19327669Y-18499528D01*
X19518145Y-18699528D02*
X19518145Y-18594766D01*
X19518145Y-18594766D02*
X19508621Y-18575719D01*
X19508621Y-18575719D02*
X19489574Y-18566195D01*
X19489574Y-18566195D02*
X19451478Y-18566195D01*
X19451478Y-18566195D02*
X19432431Y-18575719D01*
X19518145Y-18690004D02*
X19499098Y-18699528D01*
X19499098Y-18699528D02*
X19451478Y-18699528D01*
X19451478Y-18699528D02*
X19432431Y-18690004D01*
X19432431Y-18690004D02*
X19422907Y-18670957D01*
X19422907Y-18670957D02*
X19422907Y-18651909D01*
X19422907Y-18651909D02*
X19432431Y-18632861D01*
X19432431Y-18632861D02*
X19451478Y-18623338D01*
X19451478Y-18623338D02*
X19499098Y-18623338D01*
X19499098Y-18623338D02*
X19518145Y-18613814D01*
X19584812Y-18566195D02*
X19661002Y-18566195D01*
X19613383Y-18499528D02*
X19613383Y-18670957D01*
X19613383Y-18670957D02*
X19622907Y-18690004D01*
X19622907Y-18690004D02*
X19641955Y-18699528D01*
X19641955Y-18699528D02*
X19661002Y-18699528D01*
X19803859Y-18690004D02*
X19784812Y-18699528D01*
X19784812Y-18699528D02*
X19746717Y-18699528D01*
X19746717Y-18699528D02*
X19727669Y-18690004D01*
X19727669Y-18690004D02*
X19718145Y-18670957D01*
X19718145Y-18670957D02*
X19718145Y-18594766D01*
X19718145Y-18594766D02*
X19727669Y-18575719D01*
X19727669Y-18575719D02*
X19746717Y-18566195D01*
X19746717Y-18566195D02*
X19784812Y-18566195D01*
X19784812Y-18566195D02*
X19803859Y-18575719D01*
X19803859Y-18575719D02*
X19813383Y-18594766D01*
X19813383Y-18594766D02*
X19813383Y-18613814D01*
X19813383Y-18613814D02*
X19718145Y-18632861D01*
X19984812Y-18699528D02*
X19984812Y-18499528D01*
X19984812Y-18690004D02*
X19965764Y-18699528D01*
X19965764Y-18699528D02*
X19927669Y-18699528D01*
X19927669Y-18699528D02*
X19908621Y-18690004D01*
X19908621Y-18690004D02*
X19899098Y-18680480D01*
X19899098Y-18680480D02*
X19889574Y-18661433D01*
X19889574Y-18661433D02*
X19889574Y-18604290D01*
X19889574Y-18604290D02*
X19899098Y-18585242D01*
X19899098Y-18585242D02*
X19908621Y-18575719D01*
X19908621Y-18575719D02*
X19927669Y-18566195D01*
X19927669Y-18566195D02*
X19965764Y-18566195D01*
X19965764Y-18566195D02*
X19984812Y-18575719D01*
X20061002Y-18775719D02*
X20070526Y-18766195D01*
X20070526Y-18766195D02*
X20089574Y-18737623D01*
X20089574Y-18737623D02*
X20099098Y-18718576D01*
X20099098Y-18718576D02*
X20108621Y-18690004D01*
X20108621Y-18690004D02*
X20118145Y-18642385D01*
X20118145Y-18642385D02*
X20118145Y-18604290D01*
X20118145Y-18604290D02*
X20108621Y-18556671D01*
X20108621Y-18556671D02*
X20099098Y-18528100D01*
X20099098Y-18528100D02*
X20089574Y-18509052D01*
X20089574Y-18509052D02*
X20070526Y-18480480D01*
X20070526Y-18480480D02*
X20061002Y-18470957D01*
X13204987Y-19028044D02*
X13304987Y-18928044D01*
X13204987Y-18828044D01*
X13104987Y-18928044D01*
X13204987Y-19028044D01*
X13546716Y-18819528D02*
X13670525Y-18819528D01*
X13670525Y-18819528D02*
X13603859Y-18895719D01*
X13603859Y-18895719D02*
X13632430Y-18895719D01*
X13632430Y-18895719D02*
X13651478Y-18905242D01*
X13651478Y-18905242D02*
X13661002Y-18914766D01*
X13661002Y-18914766D02*
X13670525Y-18933814D01*
X13670525Y-18933814D02*
X13670525Y-18981433D01*
X13670525Y-18981433D02*
X13661002Y-19000480D01*
X13661002Y-19000480D02*
X13651478Y-19010004D01*
X13651478Y-19010004D02*
X13632430Y-19019528D01*
X13632430Y-19019528D02*
X13575287Y-19019528D01*
X13575287Y-19019528D02*
X13556240Y-19010004D01*
X13556240Y-19010004D02*
X13546716Y-19000480D01*
X13756240Y-19000480D02*
X13765764Y-19010004D01*
X13765764Y-19010004D02*
X13756240Y-19019528D01*
X13756240Y-19019528D02*
X13746716Y-19010004D01*
X13746716Y-19010004D02*
X13756240Y-19000480D01*
X13756240Y-19000480D02*
X13756240Y-19019528D01*
X13889573Y-18819528D02*
X13908621Y-18819528D01*
X13908621Y-18819528D02*
X13927668Y-18829052D01*
X13927668Y-18829052D02*
X13937192Y-18838576D01*
X13937192Y-18838576D02*
X13946716Y-18857623D01*
X13946716Y-18857623D02*
X13956240Y-18895719D01*
X13956240Y-18895719D02*
X13956240Y-18943338D01*
X13956240Y-18943338D02*
X13946716Y-18981433D01*
X13946716Y-18981433D02*
X13937192Y-19000480D01*
X13937192Y-19000480D02*
X13927668Y-19010004D01*
X13927668Y-19010004D02*
X13908621Y-19019528D01*
X13908621Y-19019528D02*
X13889573Y-19019528D01*
X13889573Y-19019528D02*
X13870525Y-19010004D01*
X13870525Y-19010004D02*
X13861002Y-19000480D01*
X13861002Y-19000480D02*
X13851478Y-18981433D01*
X13851478Y-18981433D02*
X13841954Y-18943338D01*
X13841954Y-18943338D02*
X13841954Y-18895719D01*
X13841954Y-18895719D02*
X13851478Y-18857623D01*
X13851478Y-18857623D02*
X13861002Y-18838576D01*
X13861002Y-18838576D02*
X13870525Y-18829052D01*
X13870525Y-18829052D02*
X13889573Y-18819528D01*
X14080049Y-18819528D02*
X14099097Y-18819528D01*
X14099097Y-18819528D02*
X14118145Y-18829052D01*
X14118145Y-18829052D02*
X14127668Y-18838576D01*
X14127668Y-18838576D02*
X14137192Y-18857623D01*
X14137192Y-18857623D02*
X14146716Y-18895719D01*
X14146716Y-18895719D02*
X14146716Y-18943338D01*
X14146716Y-18943338D02*
X14137192Y-18981433D01*
X14137192Y-18981433D02*
X14127668Y-19000480D01*
X14127668Y-19000480D02*
X14118145Y-19010004D01*
X14118145Y-19010004D02*
X14099097Y-19019528D01*
X14099097Y-19019528D02*
X14080049Y-19019528D01*
X14080049Y-19019528D02*
X14061002Y-19010004D01*
X14061002Y-19010004D02*
X14051478Y-19000480D01*
X14051478Y-19000480D02*
X14041954Y-18981433D01*
X14041954Y-18981433D02*
X14032430Y-18943338D01*
X14032430Y-18943338D02*
X14032430Y-18895719D01*
X14032430Y-18895719D02*
X14041954Y-18857623D01*
X14041954Y-18857623D02*
X14051478Y-18838576D01*
X14051478Y-18838576D02*
X14061002Y-18829052D01*
X14061002Y-18829052D02*
X14080049Y-18819528D01*
X14270525Y-18819528D02*
X14289573Y-18819528D01*
X14289573Y-18819528D02*
X14308621Y-18829052D01*
X14308621Y-18829052D02*
X14318145Y-18838576D01*
X14318145Y-18838576D02*
X14327668Y-18857623D01*
X14327668Y-18857623D02*
X14337192Y-18895719D01*
X14337192Y-18895719D02*
X14337192Y-18943338D01*
X14337192Y-18943338D02*
X14327668Y-18981433D01*
X14327668Y-18981433D02*
X14318145Y-19000480D01*
X14318145Y-19000480D02*
X14308621Y-19010004D01*
X14308621Y-19010004D02*
X14289573Y-19019528D01*
X14289573Y-19019528D02*
X14270525Y-19019528D01*
X14270525Y-19019528D02*
X14251478Y-19010004D01*
X14251478Y-19010004D02*
X14241954Y-19000480D01*
X14241954Y-19000480D02*
X14232430Y-18981433D01*
X14232430Y-18981433D02*
X14222906Y-18943338D01*
X14222906Y-18943338D02*
X14222906Y-18895719D01*
X14222906Y-18895719D02*
X14232430Y-18857623D01*
X14232430Y-18857623D02*
X14241954Y-18838576D01*
X14241954Y-18838576D02*
X14251478Y-18829052D01*
X14251478Y-18829052D02*
X14270525Y-18819528D01*
X14422906Y-19019528D02*
X14422906Y-18886195D01*
X14422906Y-18905242D02*
X14432430Y-18895719D01*
X14432430Y-18895719D02*
X14451478Y-18886195D01*
X14451478Y-18886195D02*
X14480049Y-18886195D01*
X14480049Y-18886195D02*
X14499097Y-18895719D01*
X14499097Y-18895719D02*
X14508621Y-18914766D01*
X14508621Y-18914766D02*
X14508621Y-19019528D01*
X14508621Y-18914766D02*
X14518145Y-18895719D01*
X14518145Y-18895719D02*
X14537192Y-18886195D01*
X14537192Y-18886195D02*
X14565764Y-18886195D01*
X14565764Y-18886195D02*
X14584811Y-18895719D01*
X14584811Y-18895719D02*
X14594335Y-18914766D01*
X14594335Y-18914766D02*
X14594335Y-19019528D01*
X14689573Y-19019528D02*
X14689573Y-18886195D01*
X14689573Y-18905242D02*
X14699097Y-18895719D01*
X14699097Y-18895719D02*
X14718145Y-18886195D01*
X14718145Y-18886195D02*
X14746716Y-18886195D01*
X14746716Y-18886195D02*
X14765764Y-18895719D01*
X14765764Y-18895719D02*
X14775287Y-18914766D01*
X14775287Y-18914766D02*
X14775287Y-19019528D01*
X14775287Y-18914766D02*
X14784811Y-18895719D01*
X14784811Y-18895719D02*
X14803859Y-18886195D01*
X14803859Y-18886195D02*
X14832430Y-18886195D01*
X14832430Y-18886195D02*
X14851478Y-18895719D01*
X14851478Y-18895719D02*
X14861002Y-18914766D01*
X14861002Y-18914766D02*
X14861002Y-19019528D01*
X15251478Y-18810004D02*
X15080049Y-19067147D01*
X15508621Y-18819528D02*
X15527669Y-18819528D01*
X15527669Y-18819528D02*
X15546716Y-18829052D01*
X15546716Y-18829052D02*
X15556240Y-18838576D01*
X15556240Y-18838576D02*
X15565764Y-18857623D01*
X15565764Y-18857623D02*
X15575288Y-18895719D01*
X15575288Y-18895719D02*
X15575288Y-18943338D01*
X15575288Y-18943338D02*
X15565764Y-18981433D01*
X15565764Y-18981433D02*
X15556240Y-19000480D01*
X15556240Y-19000480D02*
X15546716Y-19010004D01*
X15546716Y-19010004D02*
X15527669Y-19019528D01*
X15527669Y-19019528D02*
X15508621Y-19019528D01*
X15508621Y-19019528D02*
X15489573Y-19010004D01*
X15489573Y-19010004D02*
X15480049Y-19000480D01*
X15480049Y-19000480D02*
X15470526Y-18981433D01*
X15470526Y-18981433D02*
X15461002Y-18943338D01*
X15461002Y-18943338D02*
X15461002Y-18895719D01*
X15461002Y-18895719D02*
X15470526Y-18857623D01*
X15470526Y-18857623D02*
X15480049Y-18838576D01*
X15480049Y-18838576D02*
X15489573Y-18829052D01*
X15489573Y-18829052D02*
X15508621Y-18819528D01*
X15661002Y-19000480D02*
X15670526Y-19010004D01*
X15670526Y-19010004D02*
X15661002Y-19019528D01*
X15661002Y-19019528D02*
X15651478Y-19010004D01*
X15651478Y-19010004D02*
X15661002Y-19000480D01*
X15661002Y-19000480D02*
X15661002Y-19019528D01*
X15861002Y-19019528D02*
X15746716Y-19019528D01*
X15803859Y-19019528D02*
X15803859Y-18819528D01*
X15803859Y-18819528D02*
X15784811Y-18848100D01*
X15784811Y-18848100D02*
X15765764Y-18867147D01*
X15765764Y-18867147D02*
X15746716Y-18876671D01*
X16051478Y-19019528D02*
X15937192Y-19019528D01*
X15994335Y-19019528D02*
X15994335Y-18819528D01*
X15994335Y-18819528D02*
X15975288Y-18848100D01*
X15975288Y-18848100D02*
X15956240Y-18867147D01*
X15956240Y-18867147D02*
X15937192Y-18876671D01*
X16165764Y-18905242D02*
X16146716Y-18895719D01*
X16146716Y-18895719D02*
X16137192Y-18886195D01*
X16137192Y-18886195D02*
X16127669Y-18867147D01*
X16127669Y-18867147D02*
X16127669Y-18857623D01*
X16127669Y-18857623D02*
X16137192Y-18838576D01*
X16137192Y-18838576D02*
X16146716Y-18829052D01*
X16146716Y-18829052D02*
X16165764Y-18819528D01*
X16165764Y-18819528D02*
X16203859Y-18819528D01*
X16203859Y-18819528D02*
X16222907Y-18829052D01*
X16222907Y-18829052D02*
X16232430Y-18838576D01*
X16232430Y-18838576D02*
X16241954Y-18857623D01*
X16241954Y-18857623D02*
X16241954Y-18867147D01*
X16241954Y-18867147D02*
X16232430Y-18886195D01*
X16232430Y-18886195D02*
X16222907Y-18895719D01*
X16222907Y-18895719D02*
X16203859Y-18905242D01*
X16203859Y-18905242D02*
X16165764Y-18905242D01*
X16165764Y-18905242D02*
X16146716Y-18914766D01*
X16146716Y-18914766D02*
X16137192Y-18924290D01*
X16137192Y-18924290D02*
X16127669Y-18943338D01*
X16127669Y-18943338D02*
X16127669Y-18981433D01*
X16127669Y-18981433D02*
X16137192Y-19000480D01*
X16137192Y-19000480D02*
X16146716Y-19010004D01*
X16146716Y-19010004D02*
X16165764Y-19019528D01*
X16165764Y-19019528D02*
X16203859Y-19019528D01*
X16203859Y-19019528D02*
X16222907Y-19010004D01*
X16222907Y-19010004D02*
X16232430Y-19000480D01*
X16232430Y-19000480D02*
X16241954Y-18981433D01*
X16241954Y-18981433D02*
X16241954Y-18943338D01*
X16241954Y-18943338D02*
X16232430Y-18924290D01*
X16232430Y-18924290D02*
X16222907Y-18914766D01*
X16222907Y-18914766D02*
X16203859Y-18905242D01*
X16432430Y-19019528D02*
X16318145Y-19019528D01*
X16375288Y-19019528D02*
X16375288Y-18819528D01*
X16375288Y-18819528D02*
X16356240Y-18848100D01*
X16356240Y-18848100D02*
X16337192Y-18867147D01*
X16337192Y-18867147D02*
X16318145Y-18876671D01*
X16508621Y-18819528D02*
X16508621Y-18857623D01*
X16584811Y-18819528D02*
X16584811Y-18857623D01*
X16880050Y-19095719D02*
X16870526Y-19086195D01*
X16870526Y-19086195D02*
X16851478Y-19057623D01*
X16851478Y-19057623D02*
X16841954Y-19038576D01*
X16841954Y-19038576D02*
X16832431Y-19010004D01*
X16832431Y-19010004D02*
X16822907Y-18962385D01*
X16822907Y-18962385D02*
X16822907Y-18924290D01*
X16822907Y-18924290D02*
X16832431Y-18876671D01*
X16832431Y-18876671D02*
X16841954Y-18848100D01*
X16841954Y-18848100D02*
X16851478Y-18829052D01*
X16851478Y-18829052D02*
X16870526Y-18800480D01*
X16870526Y-18800480D02*
X16880050Y-18790957D01*
X17051478Y-18819528D02*
X16956240Y-18819528D01*
X16956240Y-18819528D02*
X16946716Y-18914766D01*
X16946716Y-18914766D02*
X16956240Y-18905242D01*
X16956240Y-18905242D02*
X16975288Y-18895719D01*
X16975288Y-18895719D02*
X17022907Y-18895719D01*
X17022907Y-18895719D02*
X17041954Y-18905242D01*
X17041954Y-18905242D02*
X17051478Y-18914766D01*
X17051478Y-18914766D02*
X17061002Y-18933814D01*
X17061002Y-18933814D02*
X17061002Y-18981433D01*
X17061002Y-18981433D02*
X17051478Y-19000480D01*
X17051478Y-19000480D02*
X17041954Y-19010004D01*
X17041954Y-19010004D02*
X17022907Y-19019528D01*
X17022907Y-19019528D02*
X16975288Y-19019528D01*
X16975288Y-19019528D02*
X16956240Y-19010004D01*
X16956240Y-19010004D02*
X16946716Y-19000480D01*
X17175288Y-18905242D02*
X17156240Y-18895719D01*
X17156240Y-18895719D02*
X17146716Y-18886195D01*
X17146716Y-18886195D02*
X17137193Y-18867147D01*
X17137193Y-18867147D02*
X17137193Y-18857623D01*
X17137193Y-18857623D02*
X17146716Y-18838576D01*
X17146716Y-18838576D02*
X17156240Y-18829052D01*
X17156240Y-18829052D02*
X17175288Y-18819528D01*
X17175288Y-18819528D02*
X17213383Y-18819528D01*
X17213383Y-18819528D02*
X17232431Y-18829052D01*
X17232431Y-18829052D02*
X17241954Y-18838576D01*
X17241954Y-18838576D02*
X17251478Y-18857623D01*
X17251478Y-18857623D02*
X17251478Y-18867147D01*
X17251478Y-18867147D02*
X17241954Y-18886195D01*
X17241954Y-18886195D02*
X17232431Y-18895719D01*
X17232431Y-18895719D02*
X17213383Y-18905242D01*
X17213383Y-18905242D02*
X17175288Y-18905242D01*
X17175288Y-18905242D02*
X17156240Y-18914766D01*
X17156240Y-18914766D02*
X17146716Y-18924290D01*
X17146716Y-18924290D02*
X17137193Y-18943338D01*
X17137193Y-18943338D02*
X17137193Y-18981433D01*
X17137193Y-18981433D02*
X17146716Y-19000480D01*
X17146716Y-19000480D02*
X17156240Y-19010004D01*
X17156240Y-19010004D02*
X17175288Y-19019528D01*
X17175288Y-19019528D02*
X17213383Y-19019528D01*
X17213383Y-19019528D02*
X17232431Y-19010004D01*
X17232431Y-19010004D02*
X17241954Y-19000480D01*
X17241954Y-19000480D02*
X17251478Y-18981433D01*
X17251478Y-18981433D02*
X17251478Y-18943338D01*
X17251478Y-18943338D02*
X17241954Y-18924290D01*
X17241954Y-18924290D02*
X17232431Y-18914766D01*
X17232431Y-18914766D02*
X17213383Y-18905242D01*
X17489574Y-19019528D02*
X17489574Y-18819528D01*
X17575288Y-19019528D02*
X17575288Y-18914766D01*
X17575288Y-18914766D02*
X17565764Y-18895719D01*
X17565764Y-18895719D02*
X17546716Y-18886195D01*
X17546716Y-18886195D02*
X17518145Y-18886195D01*
X17518145Y-18886195D02*
X17499097Y-18895719D01*
X17499097Y-18895719D02*
X17489574Y-18905242D01*
X17699097Y-19019528D02*
X17680050Y-19010004D01*
X17680050Y-19010004D02*
X17670526Y-19000480D01*
X17670526Y-19000480D02*
X17661002Y-18981433D01*
X17661002Y-18981433D02*
X17661002Y-18924290D01*
X17661002Y-18924290D02*
X17670526Y-18905242D01*
X17670526Y-18905242D02*
X17680050Y-18895719D01*
X17680050Y-18895719D02*
X17699097Y-18886195D01*
X17699097Y-18886195D02*
X17727669Y-18886195D01*
X17727669Y-18886195D02*
X17746716Y-18895719D01*
X17746716Y-18895719D02*
X17756240Y-18905242D01*
X17756240Y-18905242D02*
X17765764Y-18924290D01*
X17765764Y-18924290D02*
X17765764Y-18981433D01*
X17765764Y-18981433D02*
X17756240Y-19000480D01*
X17756240Y-19000480D02*
X17746716Y-19010004D01*
X17746716Y-19010004D02*
X17727669Y-19019528D01*
X17727669Y-19019528D02*
X17699097Y-19019528D01*
X17880050Y-19019528D02*
X17861002Y-19010004D01*
X17861002Y-19010004D02*
X17851478Y-18990957D01*
X17851478Y-18990957D02*
X17851478Y-18819528D01*
X18032431Y-19010004D02*
X18013383Y-19019528D01*
X18013383Y-19019528D02*
X17975288Y-19019528D01*
X17975288Y-19019528D02*
X17956240Y-19010004D01*
X17956240Y-19010004D02*
X17946716Y-18990957D01*
X17946716Y-18990957D02*
X17946716Y-18914766D01*
X17946716Y-18914766D02*
X17956240Y-18895719D01*
X17956240Y-18895719D02*
X17975288Y-18886195D01*
X17975288Y-18886195D02*
X18013383Y-18886195D01*
X18013383Y-18886195D02*
X18032431Y-18895719D01*
X18032431Y-18895719D02*
X18041955Y-18914766D01*
X18041955Y-18914766D02*
X18041955Y-18933814D01*
X18041955Y-18933814D02*
X17946716Y-18952861D01*
X18118145Y-19010004D02*
X18137193Y-19019528D01*
X18137193Y-19019528D02*
X18175288Y-19019528D01*
X18175288Y-19019528D02*
X18194336Y-19010004D01*
X18194336Y-19010004D02*
X18203859Y-18990957D01*
X18203859Y-18990957D02*
X18203859Y-18981433D01*
X18203859Y-18981433D02*
X18194336Y-18962385D01*
X18194336Y-18962385D02*
X18175288Y-18952861D01*
X18175288Y-18952861D02*
X18146716Y-18952861D01*
X18146716Y-18952861D02*
X18127669Y-18943338D01*
X18127669Y-18943338D02*
X18118145Y-18924290D01*
X18118145Y-18924290D02*
X18118145Y-18914766D01*
X18118145Y-18914766D02*
X18127669Y-18895719D01*
X18127669Y-18895719D02*
X18146716Y-18886195D01*
X18146716Y-18886195D02*
X18175288Y-18886195D01*
X18175288Y-18886195D02*
X18194336Y-18895719D01*
X18270526Y-19095719D02*
X18280050Y-19086195D01*
X18280050Y-19086195D02*
X18299097Y-19057623D01*
X18299097Y-19057623D02*
X18308621Y-19038576D01*
X18308621Y-19038576D02*
X18318145Y-19010004D01*
X18318145Y-19010004D02*
X18327669Y-18962385D01*
X18327669Y-18962385D02*
X18327669Y-18924290D01*
X18327669Y-18924290D02*
X18318145Y-18876671D01*
X18318145Y-18876671D02*
X18308621Y-18848100D01*
X18308621Y-18848100D02*
X18299097Y-18829052D01*
X18299097Y-18829052D02*
X18280050Y-18800480D01*
X18280050Y-18800480D02*
X18270526Y-18790957D01*
X18632431Y-19095719D02*
X18622907Y-19086195D01*
X18622907Y-19086195D02*
X18603859Y-19057623D01*
X18603859Y-19057623D02*
X18594336Y-19038576D01*
X18594336Y-19038576D02*
X18584812Y-19010004D01*
X18584812Y-19010004D02*
X18575288Y-18962385D01*
X18575288Y-18962385D02*
X18575288Y-18924290D01*
X18575288Y-18924290D02*
X18584812Y-18876671D01*
X18584812Y-18876671D02*
X18594336Y-18848100D01*
X18594336Y-18848100D02*
X18603859Y-18829052D01*
X18603859Y-18829052D02*
X18622907Y-18800480D01*
X18622907Y-18800480D02*
X18632431Y-18790957D01*
X18708621Y-18886195D02*
X18708621Y-19019528D01*
X18708621Y-18905242D02*
X18718145Y-18895719D01*
X18718145Y-18895719D02*
X18737193Y-18886195D01*
X18737193Y-18886195D02*
X18765764Y-18886195D01*
X18765764Y-18886195D02*
X18784812Y-18895719D01*
X18784812Y-18895719D02*
X18794336Y-18914766D01*
X18794336Y-18914766D02*
X18794336Y-19019528D01*
X18918145Y-19019528D02*
X18899097Y-19010004D01*
X18899097Y-19010004D02*
X18889574Y-19000480D01*
X18889574Y-19000480D02*
X18880050Y-18981433D01*
X18880050Y-18981433D02*
X18880050Y-18924290D01*
X18880050Y-18924290D02*
X18889574Y-18905242D01*
X18889574Y-18905242D02*
X18899097Y-18895719D01*
X18899097Y-18895719D02*
X18918145Y-18886195D01*
X18918145Y-18886195D02*
X18946717Y-18886195D01*
X18946717Y-18886195D02*
X18965764Y-18895719D01*
X18965764Y-18895719D02*
X18975288Y-18905242D01*
X18975288Y-18905242D02*
X18984812Y-18924290D01*
X18984812Y-18924290D02*
X18984812Y-18981433D01*
X18984812Y-18981433D02*
X18975288Y-19000480D01*
X18975288Y-19000480D02*
X18965764Y-19010004D01*
X18965764Y-19010004D02*
X18946717Y-19019528D01*
X18946717Y-19019528D02*
X18918145Y-19019528D01*
X19041955Y-18886195D02*
X19118145Y-18886195D01*
X19070526Y-18819528D02*
X19070526Y-18990957D01*
X19070526Y-18990957D02*
X19080050Y-19010004D01*
X19080050Y-19010004D02*
X19099097Y-19019528D01*
X19099097Y-19019528D02*
X19118145Y-19019528D01*
X19337193Y-18886195D02*
X19337193Y-19086195D01*
X19337193Y-18895719D02*
X19356240Y-18886195D01*
X19356240Y-18886195D02*
X19394336Y-18886195D01*
X19394336Y-18886195D02*
X19413383Y-18895719D01*
X19413383Y-18895719D02*
X19422907Y-18905242D01*
X19422907Y-18905242D02*
X19432431Y-18924290D01*
X19432431Y-18924290D02*
X19432431Y-18981433D01*
X19432431Y-18981433D02*
X19422907Y-19000480D01*
X19422907Y-19000480D02*
X19413383Y-19010004D01*
X19413383Y-19010004D02*
X19394336Y-19019528D01*
X19394336Y-19019528D02*
X19356240Y-19019528D01*
X19356240Y-19019528D02*
X19337193Y-19010004D01*
X19546717Y-19019528D02*
X19527669Y-19010004D01*
X19527669Y-19010004D02*
X19518145Y-18990957D01*
X19518145Y-18990957D02*
X19518145Y-18819528D01*
X19708621Y-19019528D02*
X19708621Y-18914766D01*
X19708621Y-18914766D02*
X19699098Y-18895719D01*
X19699098Y-18895719D02*
X19680050Y-18886195D01*
X19680050Y-18886195D02*
X19641955Y-18886195D01*
X19641955Y-18886195D02*
X19622907Y-18895719D01*
X19708621Y-19010004D02*
X19689574Y-19019528D01*
X19689574Y-19019528D02*
X19641955Y-19019528D01*
X19641955Y-19019528D02*
X19622907Y-19010004D01*
X19622907Y-19010004D02*
X19613383Y-18990957D01*
X19613383Y-18990957D02*
X19613383Y-18971909D01*
X19613383Y-18971909D02*
X19622907Y-18952861D01*
X19622907Y-18952861D02*
X19641955Y-18943338D01*
X19641955Y-18943338D02*
X19689574Y-18943338D01*
X19689574Y-18943338D02*
X19708621Y-18933814D01*
X19775288Y-18886195D02*
X19851478Y-18886195D01*
X19803859Y-18819528D02*
X19803859Y-18990957D01*
X19803859Y-18990957D02*
X19813383Y-19010004D01*
X19813383Y-19010004D02*
X19832431Y-19019528D01*
X19832431Y-19019528D02*
X19851478Y-19019528D01*
X19994336Y-19010004D02*
X19975288Y-19019528D01*
X19975288Y-19019528D02*
X19937193Y-19019528D01*
X19937193Y-19019528D02*
X19918145Y-19010004D01*
X19918145Y-19010004D02*
X19908621Y-18990957D01*
X19908621Y-18990957D02*
X19908621Y-18914766D01*
X19908621Y-18914766D02*
X19918145Y-18895719D01*
X19918145Y-18895719D02*
X19937193Y-18886195D01*
X19937193Y-18886195D02*
X19975288Y-18886195D01*
X19975288Y-18886195D02*
X19994336Y-18895719D01*
X19994336Y-18895719D02*
X20003859Y-18914766D01*
X20003859Y-18914766D02*
X20003859Y-18933814D01*
X20003859Y-18933814D02*
X19908621Y-18952861D01*
X20175288Y-19019528D02*
X20175288Y-18819528D01*
X20175288Y-19010004D02*
X20156240Y-19019528D01*
X20156240Y-19019528D02*
X20118145Y-19019528D01*
X20118145Y-19019528D02*
X20099098Y-19010004D01*
X20099098Y-19010004D02*
X20089574Y-19000480D01*
X20089574Y-19000480D02*
X20080050Y-18981433D01*
X20080050Y-18981433D02*
X20080050Y-18924290D01*
X20080050Y-18924290D02*
X20089574Y-18905242D01*
X20089574Y-18905242D02*
X20099098Y-18895719D01*
X20099098Y-18895719D02*
X20118145Y-18886195D01*
X20118145Y-18886195D02*
X20156240Y-18886195D01*
X20156240Y-18886195D02*
X20175288Y-18895719D01*
X20251479Y-19095719D02*
X20261002Y-19086195D01*
X20261002Y-19086195D02*
X20280050Y-19057623D01*
X20280050Y-19057623D02*
X20289574Y-19038576D01*
X20289574Y-19038576D02*
X20299098Y-19010004D01*
X20299098Y-19010004D02*
X20308621Y-18962385D01*
X20308621Y-18962385D02*
X20308621Y-18924290D01*
X20308621Y-18924290D02*
X20299098Y-18876671D01*
X20299098Y-18876671D02*
X20289574Y-18848100D01*
X20289574Y-18848100D02*
X20280050Y-18829052D01*
X20280050Y-18829052D02*
X20261002Y-18800480D01*
X20261002Y-18800480D02*
X20251479Y-18790957D01*
X13104987Y-19148044D02*
X13304987Y-19348044D01*
X13304987Y-19148044D02*
X13104987Y-19348044D01*
X13304987Y-19248044D02*
G75*
G03*
X13304987Y-19248044I-100000J0D01*
G01*
X13546716Y-19139528D02*
X13670525Y-19139528D01*
X13670525Y-19139528D02*
X13603859Y-19215719D01*
X13603859Y-19215719D02*
X13632430Y-19215719D01*
X13632430Y-19215719D02*
X13651478Y-19225242D01*
X13651478Y-19225242D02*
X13661002Y-19234766D01*
X13661002Y-19234766D02*
X13670525Y-19253814D01*
X13670525Y-19253814D02*
X13670525Y-19301433D01*
X13670525Y-19301433D02*
X13661002Y-19320480D01*
X13661002Y-19320480D02*
X13651478Y-19330004D01*
X13651478Y-19330004D02*
X13632430Y-19339528D01*
X13632430Y-19339528D02*
X13575287Y-19339528D01*
X13575287Y-19339528D02*
X13556240Y-19330004D01*
X13556240Y-19330004D02*
X13546716Y-19320480D01*
X13756240Y-19320480D02*
X13765764Y-19330004D01*
X13765764Y-19330004D02*
X13756240Y-19339528D01*
X13756240Y-19339528D02*
X13746716Y-19330004D01*
X13746716Y-19330004D02*
X13756240Y-19320480D01*
X13756240Y-19320480D02*
X13756240Y-19339528D01*
X13937192Y-19206195D02*
X13937192Y-19339528D01*
X13889573Y-19130004D02*
X13841954Y-19272861D01*
X13841954Y-19272861D02*
X13965764Y-19272861D01*
X14032430Y-19158576D02*
X14041954Y-19149052D01*
X14041954Y-19149052D02*
X14061002Y-19139528D01*
X14061002Y-19139528D02*
X14108621Y-19139528D01*
X14108621Y-19139528D02*
X14127668Y-19149052D01*
X14127668Y-19149052D02*
X14137192Y-19158576D01*
X14137192Y-19158576D02*
X14146716Y-19177623D01*
X14146716Y-19177623D02*
X14146716Y-19196671D01*
X14146716Y-19196671D02*
X14137192Y-19225242D01*
X14137192Y-19225242D02*
X14022906Y-19339528D01*
X14022906Y-19339528D02*
X14146716Y-19339528D01*
X14241954Y-19339528D02*
X14280049Y-19339528D01*
X14280049Y-19339528D02*
X14299097Y-19330004D01*
X14299097Y-19330004D02*
X14308621Y-19320480D01*
X14308621Y-19320480D02*
X14327668Y-19291909D01*
X14327668Y-19291909D02*
X14337192Y-19253814D01*
X14337192Y-19253814D02*
X14337192Y-19177623D01*
X14337192Y-19177623D02*
X14327668Y-19158576D01*
X14327668Y-19158576D02*
X14318145Y-19149052D01*
X14318145Y-19149052D02*
X14299097Y-19139528D01*
X14299097Y-19139528D02*
X14261002Y-19139528D01*
X14261002Y-19139528D02*
X14241954Y-19149052D01*
X14241954Y-19149052D02*
X14232430Y-19158576D01*
X14232430Y-19158576D02*
X14222906Y-19177623D01*
X14222906Y-19177623D02*
X14222906Y-19225242D01*
X14222906Y-19225242D02*
X14232430Y-19244290D01*
X14232430Y-19244290D02*
X14241954Y-19253814D01*
X14241954Y-19253814D02*
X14261002Y-19263338D01*
X14261002Y-19263338D02*
X14299097Y-19263338D01*
X14299097Y-19263338D02*
X14318145Y-19253814D01*
X14318145Y-19253814D02*
X14327668Y-19244290D01*
X14327668Y-19244290D02*
X14337192Y-19225242D01*
X14422906Y-19339528D02*
X14422906Y-19206195D01*
X14422906Y-19225242D02*
X14432430Y-19215719D01*
X14432430Y-19215719D02*
X14451478Y-19206195D01*
X14451478Y-19206195D02*
X14480049Y-19206195D01*
X14480049Y-19206195D02*
X14499097Y-19215719D01*
X14499097Y-19215719D02*
X14508621Y-19234766D01*
X14508621Y-19234766D02*
X14508621Y-19339528D01*
X14508621Y-19234766D02*
X14518145Y-19215719D01*
X14518145Y-19215719D02*
X14537192Y-19206195D01*
X14537192Y-19206195D02*
X14565764Y-19206195D01*
X14565764Y-19206195D02*
X14584811Y-19215719D01*
X14584811Y-19215719D02*
X14594335Y-19234766D01*
X14594335Y-19234766D02*
X14594335Y-19339528D01*
X14689573Y-19339528D02*
X14689573Y-19206195D01*
X14689573Y-19225242D02*
X14699097Y-19215719D01*
X14699097Y-19215719D02*
X14718145Y-19206195D01*
X14718145Y-19206195D02*
X14746716Y-19206195D01*
X14746716Y-19206195D02*
X14765764Y-19215719D01*
X14765764Y-19215719D02*
X14775287Y-19234766D01*
X14775287Y-19234766D02*
X14775287Y-19339528D01*
X14775287Y-19234766D02*
X14784811Y-19215719D01*
X14784811Y-19215719D02*
X14803859Y-19206195D01*
X14803859Y-19206195D02*
X14832430Y-19206195D01*
X14832430Y-19206195D02*
X14851478Y-19215719D01*
X14851478Y-19215719D02*
X14861002Y-19234766D01*
X14861002Y-19234766D02*
X14861002Y-19339528D01*
X15251478Y-19130004D02*
X15080049Y-19387147D01*
X15508621Y-19139528D02*
X15527669Y-19139528D01*
X15527669Y-19139528D02*
X15546716Y-19149052D01*
X15546716Y-19149052D02*
X15556240Y-19158576D01*
X15556240Y-19158576D02*
X15565764Y-19177623D01*
X15565764Y-19177623D02*
X15575288Y-19215719D01*
X15575288Y-19215719D02*
X15575288Y-19263338D01*
X15575288Y-19263338D02*
X15565764Y-19301433D01*
X15565764Y-19301433D02*
X15556240Y-19320480D01*
X15556240Y-19320480D02*
X15546716Y-19330004D01*
X15546716Y-19330004D02*
X15527669Y-19339528D01*
X15527669Y-19339528D02*
X15508621Y-19339528D01*
X15508621Y-19339528D02*
X15489573Y-19330004D01*
X15489573Y-19330004D02*
X15480049Y-19320480D01*
X15480049Y-19320480D02*
X15470526Y-19301433D01*
X15470526Y-19301433D02*
X15461002Y-19263338D01*
X15461002Y-19263338D02*
X15461002Y-19215719D01*
X15461002Y-19215719D02*
X15470526Y-19177623D01*
X15470526Y-19177623D02*
X15480049Y-19158576D01*
X15480049Y-19158576D02*
X15489573Y-19149052D01*
X15489573Y-19149052D02*
X15508621Y-19139528D01*
X15661002Y-19320480D02*
X15670526Y-19330004D01*
X15670526Y-19330004D02*
X15661002Y-19339528D01*
X15661002Y-19339528D02*
X15651478Y-19330004D01*
X15651478Y-19330004D02*
X15661002Y-19320480D01*
X15661002Y-19320480D02*
X15661002Y-19339528D01*
X15861002Y-19339528D02*
X15746716Y-19339528D01*
X15803859Y-19339528D02*
X15803859Y-19139528D01*
X15803859Y-19139528D02*
X15784811Y-19168100D01*
X15784811Y-19168100D02*
X15765764Y-19187147D01*
X15765764Y-19187147D02*
X15746716Y-19196671D01*
X15927669Y-19139528D02*
X16051478Y-19139528D01*
X16051478Y-19139528D02*
X15984811Y-19215719D01*
X15984811Y-19215719D02*
X16013383Y-19215719D01*
X16013383Y-19215719D02*
X16032430Y-19225242D01*
X16032430Y-19225242D02*
X16041954Y-19234766D01*
X16041954Y-19234766D02*
X16051478Y-19253814D01*
X16051478Y-19253814D02*
X16051478Y-19301433D01*
X16051478Y-19301433D02*
X16041954Y-19320480D01*
X16041954Y-19320480D02*
X16032430Y-19330004D01*
X16032430Y-19330004D02*
X16013383Y-19339528D01*
X16013383Y-19339528D02*
X15956240Y-19339528D01*
X15956240Y-19339528D02*
X15937192Y-19330004D01*
X15937192Y-19330004D02*
X15927669Y-19320480D01*
X16232430Y-19139528D02*
X16137192Y-19139528D01*
X16137192Y-19139528D02*
X16127669Y-19234766D01*
X16127669Y-19234766D02*
X16137192Y-19225242D01*
X16137192Y-19225242D02*
X16156240Y-19215719D01*
X16156240Y-19215719D02*
X16203859Y-19215719D01*
X16203859Y-19215719D02*
X16222907Y-19225242D01*
X16222907Y-19225242D02*
X16232430Y-19234766D01*
X16232430Y-19234766D02*
X16241954Y-19253814D01*
X16241954Y-19253814D02*
X16241954Y-19301433D01*
X16241954Y-19301433D02*
X16232430Y-19320480D01*
X16232430Y-19320480D02*
X16222907Y-19330004D01*
X16222907Y-19330004D02*
X16203859Y-19339528D01*
X16203859Y-19339528D02*
X16156240Y-19339528D01*
X16156240Y-19339528D02*
X16137192Y-19330004D01*
X16137192Y-19330004D02*
X16127669Y-19320480D01*
X16365764Y-19139528D02*
X16384811Y-19139528D01*
X16384811Y-19139528D02*
X16403859Y-19149052D01*
X16403859Y-19149052D02*
X16413383Y-19158576D01*
X16413383Y-19158576D02*
X16422907Y-19177623D01*
X16422907Y-19177623D02*
X16432430Y-19215719D01*
X16432430Y-19215719D02*
X16432430Y-19263338D01*
X16432430Y-19263338D02*
X16422907Y-19301433D01*
X16422907Y-19301433D02*
X16413383Y-19320480D01*
X16413383Y-19320480D02*
X16403859Y-19330004D01*
X16403859Y-19330004D02*
X16384811Y-19339528D01*
X16384811Y-19339528D02*
X16365764Y-19339528D01*
X16365764Y-19339528D02*
X16346716Y-19330004D01*
X16346716Y-19330004D02*
X16337192Y-19320480D01*
X16337192Y-19320480D02*
X16327669Y-19301433D01*
X16327669Y-19301433D02*
X16318145Y-19263338D01*
X16318145Y-19263338D02*
X16318145Y-19215719D01*
X16318145Y-19215719D02*
X16327669Y-19177623D01*
X16327669Y-19177623D02*
X16337192Y-19158576D01*
X16337192Y-19158576D02*
X16346716Y-19149052D01*
X16346716Y-19149052D02*
X16365764Y-19139528D01*
X16508621Y-19139528D02*
X16508621Y-19177623D01*
X16584811Y-19139528D02*
X16584811Y-19177623D01*
X16880050Y-19415719D02*
X16870526Y-19406195D01*
X16870526Y-19406195D02*
X16851478Y-19377623D01*
X16851478Y-19377623D02*
X16841954Y-19358576D01*
X16841954Y-19358576D02*
X16832431Y-19330004D01*
X16832431Y-19330004D02*
X16822907Y-19282385D01*
X16822907Y-19282385D02*
X16822907Y-19244290D01*
X16822907Y-19244290D02*
X16832431Y-19196671D01*
X16832431Y-19196671D02*
X16841954Y-19168100D01*
X16841954Y-19168100D02*
X16851478Y-19149052D01*
X16851478Y-19149052D02*
X16870526Y-19120480D01*
X16870526Y-19120480D02*
X16880050Y-19110957D01*
X16946716Y-19158576D02*
X16956240Y-19149052D01*
X16956240Y-19149052D02*
X16975288Y-19139528D01*
X16975288Y-19139528D02*
X17022907Y-19139528D01*
X17022907Y-19139528D02*
X17041954Y-19149052D01*
X17041954Y-19149052D02*
X17051478Y-19158576D01*
X17051478Y-19158576D02*
X17061002Y-19177623D01*
X17061002Y-19177623D02*
X17061002Y-19196671D01*
X17061002Y-19196671D02*
X17051478Y-19225242D01*
X17051478Y-19225242D02*
X16937193Y-19339528D01*
X16937193Y-19339528D02*
X17061002Y-19339528D01*
X17156240Y-19339528D02*
X17194335Y-19339528D01*
X17194335Y-19339528D02*
X17213383Y-19330004D01*
X17213383Y-19330004D02*
X17222907Y-19320480D01*
X17222907Y-19320480D02*
X17241954Y-19291909D01*
X17241954Y-19291909D02*
X17251478Y-19253814D01*
X17251478Y-19253814D02*
X17251478Y-19177623D01*
X17251478Y-19177623D02*
X17241954Y-19158576D01*
X17241954Y-19158576D02*
X17232431Y-19149052D01*
X17232431Y-19149052D02*
X17213383Y-19139528D01*
X17213383Y-19139528D02*
X17175288Y-19139528D01*
X17175288Y-19139528D02*
X17156240Y-19149052D01*
X17156240Y-19149052D02*
X17146716Y-19158576D01*
X17146716Y-19158576D02*
X17137193Y-19177623D01*
X17137193Y-19177623D02*
X17137193Y-19225242D01*
X17137193Y-19225242D02*
X17146716Y-19244290D01*
X17146716Y-19244290D02*
X17156240Y-19253814D01*
X17156240Y-19253814D02*
X17175288Y-19263338D01*
X17175288Y-19263338D02*
X17213383Y-19263338D01*
X17213383Y-19263338D02*
X17232431Y-19253814D01*
X17232431Y-19253814D02*
X17241954Y-19244290D01*
X17241954Y-19244290D02*
X17251478Y-19225242D01*
X17489574Y-19339528D02*
X17489574Y-19139528D01*
X17575288Y-19339528D02*
X17575288Y-19234766D01*
X17575288Y-19234766D02*
X17565764Y-19215719D01*
X17565764Y-19215719D02*
X17546716Y-19206195D01*
X17546716Y-19206195D02*
X17518145Y-19206195D01*
X17518145Y-19206195D02*
X17499097Y-19215719D01*
X17499097Y-19215719D02*
X17489574Y-19225242D01*
X17699097Y-19339528D02*
X17680050Y-19330004D01*
X17680050Y-19330004D02*
X17670526Y-19320480D01*
X17670526Y-19320480D02*
X17661002Y-19301433D01*
X17661002Y-19301433D02*
X17661002Y-19244290D01*
X17661002Y-19244290D02*
X17670526Y-19225242D01*
X17670526Y-19225242D02*
X17680050Y-19215719D01*
X17680050Y-19215719D02*
X17699097Y-19206195D01*
X17699097Y-19206195D02*
X17727669Y-19206195D01*
X17727669Y-19206195D02*
X17746716Y-19215719D01*
X17746716Y-19215719D02*
X17756240Y-19225242D01*
X17756240Y-19225242D02*
X17765764Y-19244290D01*
X17765764Y-19244290D02*
X17765764Y-19301433D01*
X17765764Y-19301433D02*
X17756240Y-19320480D01*
X17756240Y-19320480D02*
X17746716Y-19330004D01*
X17746716Y-19330004D02*
X17727669Y-19339528D01*
X17727669Y-19339528D02*
X17699097Y-19339528D01*
X17880050Y-19339528D02*
X17861002Y-19330004D01*
X17861002Y-19330004D02*
X17851478Y-19310957D01*
X17851478Y-19310957D02*
X17851478Y-19139528D01*
X18032431Y-19330004D02*
X18013383Y-19339528D01*
X18013383Y-19339528D02*
X17975288Y-19339528D01*
X17975288Y-19339528D02*
X17956240Y-19330004D01*
X17956240Y-19330004D02*
X17946716Y-19310957D01*
X17946716Y-19310957D02*
X17946716Y-19234766D01*
X17946716Y-19234766D02*
X17956240Y-19215719D01*
X17956240Y-19215719D02*
X17975288Y-19206195D01*
X17975288Y-19206195D02*
X18013383Y-19206195D01*
X18013383Y-19206195D02*
X18032431Y-19215719D01*
X18032431Y-19215719D02*
X18041955Y-19234766D01*
X18041955Y-19234766D02*
X18041955Y-19253814D01*
X18041955Y-19253814D02*
X17946716Y-19272861D01*
X18118145Y-19330004D02*
X18137193Y-19339528D01*
X18137193Y-19339528D02*
X18175288Y-19339528D01*
X18175288Y-19339528D02*
X18194336Y-19330004D01*
X18194336Y-19330004D02*
X18203859Y-19310957D01*
X18203859Y-19310957D02*
X18203859Y-19301433D01*
X18203859Y-19301433D02*
X18194336Y-19282385D01*
X18194336Y-19282385D02*
X18175288Y-19272861D01*
X18175288Y-19272861D02*
X18146716Y-19272861D01*
X18146716Y-19272861D02*
X18127669Y-19263338D01*
X18127669Y-19263338D02*
X18118145Y-19244290D01*
X18118145Y-19244290D02*
X18118145Y-19234766D01*
X18118145Y-19234766D02*
X18127669Y-19215719D01*
X18127669Y-19215719D02*
X18146716Y-19206195D01*
X18146716Y-19206195D02*
X18175288Y-19206195D01*
X18175288Y-19206195D02*
X18194336Y-19215719D01*
X18270526Y-19415719D02*
X18280050Y-19406195D01*
X18280050Y-19406195D02*
X18299097Y-19377623D01*
X18299097Y-19377623D02*
X18308621Y-19358576D01*
X18308621Y-19358576D02*
X18318145Y-19330004D01*
X18318145Y-19330004D02*
X18327669Y-19282385D01*
X18327669Y-19282385D02*
X18327669Y-19244290D01*
X18327669Y-19244290D02*
X18318145Y-19196671D01*
X18318145Y-19196671D02*
X18308621Y-19168100D01*
X18308621Y-19168100D02*
X18299097Y-19149052D01*
X18299097Y-19149052D02*
X18280050Y-19120480D01*
X18280050Y-19120480D02*
X18270526Y-19110957D01*
X18632431Y-19415719D02*
X18622907Y-19406195D01*
X18622907Y-19406195D02*
X18603859Y-19377623D01*
X18603859Y-19377623D02*
X18594336Y-19358576D01*
X18594336Y-19358576D02*
X18584812Y-19330004D01*
X18584812Y-19330004D02*
X18575288Y-19282385D01*
X18575288Y-19282385D02*
X18575288Y-19244290D01*
X18575288Y-19244290D02*
X18584812Y-19196671D01*
X18584812Y-19196671D02*
X18594336Y-19168100D01*
X18594336Y-19168100D02*
X18603859Y-19149052D01*
X18603859Y-19149052D02*
X18622907Y-19120480D01*
X18622907Y-19120480D02*
X18632431Y-19110957D01*
X18708621Y-19206195D02*
X18708621Y-19339528D01*
X18708621Y-19225242D02*
X18718145Y-19215719D01*
X18718145Y-19215719D02*
X18737193Y-19206195D01*
X18737193Y-19206195D02*
X18765764Y-19206195D01*
X18765764Y-19206195D02*
X18784812Y-19215719D01*
X18784812Y-19215719D02*
X18794336Y-19234766D01*
X18794336Y-19234766D02*
X18794336Y-19339528D01*
X18918145Y-19339528D02*
X18899097Y-19330004D01*
X18899097Y-19330004D02*
X18889574Y-19320480D01*
X18889574Y-19320480D02*
X18880050Y-19301433D01*
X18880050Y-19301433D02*
X18880050Y-19244290D01*
X18880050Y-19244290D02*
X18889574Y-19225242D01*
X18889574Y-19225242D02*
X18899097Y-19215719D01*
X18899097Y-19215719D02*
X18918145Y-19206195D01*
X18918145Y-19206195D02*
X18946717Y-19206195D01*
X18946717Y-19206195D02*
X18965764Y-19215719D01*
X18965764Y-19215719D02*
X18975288Y-19225242D01*
X18975288Y-19225242D02*
X18984812Y-19244290D01*
X18984812Y-19244290D02*
X18984812Y-19301433D01*
X18984812Y-19301433D02*
X18975288Y-19320480D01*
X18975288Y-19320480D02*
X18965764Y-19330004D01*
X18965764Y-19330004D02*
X18946717Y-19339528D01*
X18946717Y-19339528D02*
X18918145Y-19339528D01*
X19041955Y-19206195D02*
X19118145Y-19206195D01*
X19070526Y-19139528D02*
X19070526Y-19310957D01*
X19070526Y-19310957D02*
X19080050Y-19330004D01*
X19080050Y-19330004D02*
X19099097Y-19339528D01*
X19099097Y-19339528D02*
X19118145Y-19339528D01*
X19337193Y-19206195D02*
X19337193Y-19406195D01*
X19337193Y-19215719D02*
X19356240Y-19206195D01*
X19356240Y-19206195D02*
X19394336Y-19206195D01*
X19394336Y-19206195D02*
X19413383Y-19215719D01*
X19413383Y-19215719D02*
X19422907Y-19225242D01*
X19422907Y-19225242D02*
X19432431Y-19244290D01*
X19432431Y-19244290D02*
X19432431Y-19301433D01*
X19432431Y-19301433D02*
X19422907Y-19320480D01*
X19422907Y-19320480D02*
X19413383Y-19330004D01*
X19413383Y-19330004D02*
X19394336Y-19339528D01*
X19394336Y-19339528D02*
X19356240Y-19339528D01*
X19356240Y-19339528D02*
X19337193Y-19330004D01*
X19546717Y-19339528D02*
X19527669Y-19330004D01*
X19527669Y-19330004D02*
X19518145Y-19310957D01*
X19518145Y-19310957D02*
X19518145Y-19139528D01*
X19708621Y-19339528D02*
X19708621Y-19234766D01*
X19708621Y-19234766D02*
X19699098Y-19215719D01*
X19699098Y-19215719D02*
X19680050Y-19206195D01*
X19680050Y-19206195D02*
X19641955Y-19206195D01*
X19641955Y-19206195D02*
X19622907Y-19215719D01*
X19708621Y-19330004D02*
X19689574Y-19339528D01*
X19689574Y-19339528D02*
X19641955Y-19339528D01*
X19641955Y-19339528D02*
X19622907Y-19330004D01*
X19622907Y-19330004D02*
X19613383Y-19310957D01*
X19613383Y-19310957D02*
X19613383Y-19291909D01*
X19613383Y-19291909D02*
X19622907Y-19272861D01*
X19622907Y-19272861D02*
X19641955Y-19263338D01*
X19641955Y-19263338D02*
X19689574Y-19263338D01*
X19689574Y-19263338D02*
X19708621Y-19253814D01*
X19775288Y-19206195D02*
X19851478Y-19206195D01*
X19803859Y-19139528D02*
X19803859Y-19310957D01*
X19803859Y-19310957D02*
X19813383Y-19330004D01*
X19813383Y-19330004D02*
X19832431Y-19339528D01*
X19832431Y-19339528D02*
X19851478Y-19339528D01*
X19994336Y-19330004D02*
X19975288Y-19339528D01*
X19975288Y-19339528D02*
X19937193Y-19339528D01*
X19937193Y-19339528D02*
X19918145Y-19330004D01*
X19918145Y-19330004D02*
X19908621Y-19310957D01*
X19908621Y-19310957D02*
X19908621Y-19234766D01*
X19908621Y-19234766D02*
X19918145Y-19215719D01*
X19918145Y-19215719D02*
X19937193Y-19206195D01*
X19937193Y-19206195D02*
X19975288Y-19206195D01*
X19975288Y-19206195D02*
X19994336Y-19215719D01*
X19994336Y-19215719D02*
X20003859Y-19234766D01*
X20003859Y-19234766D02*
X20003859Y-19253814D01*
X20003859Y-19253814D02*
X19908621Y-19272861D01*
X20175288Y-19339528D02*
X20175288Y-19139528D01*
X20175288Y-19330004D02*
X20156240Y-19339528D01*
X20156240Y-19339528D02*
X20118145Y-19339528D01*
X20118145Y-19339528D02*
X20099098Y-19330004D01*
X20099098Y-19330004D02*
X20089574Y-19320480D01*
X20089574Y-19320480D02*
X20080050Y-19301433D01*
X20080050Y-19301433D02*
X20080050Y-19244290D01*
X20080050Y-19244290D02*
X20089574Y-19225242D01*
X20089574Y-19225242D02*
X20099098Y-19215719D01*
X20099098Y-19215719D02*
X20118145Y-19206195D01*
X20118145Y-19206195D02*
X20156240Y-19206195D01*
X20156240Y-19206195D02*
X20175288Y-19215719D01*
X20251479Y-19415719D02*
X20261002Y-19406195D01*
X20261002Y-19406195D02*
X20280050Y-19377623D01*
X20280050Y-19377623D02*
X20289574Y-19358576D01*
X20289574Y-19358576D02*
X20299098Y-19330004D01*
X20299098Y-19330004D02*
X20308621Y-19282385D01*
X20308621Y-19282385D02*
X20308621Y-19244290D01*
X20308621Y-19244290D02*
X20299098Y-19196671D01*
X20299098Y-19196671D02*
X20289574Y-19168100D01*
X20289574Y-19168100D02*
X20280050Y-19149052D01*
X20280050Y-19149052D02*
X20261002Y-19120480D01*
X20261002Y-19120480D02*
X20251479Y-19110957D01*
M02*
