G04 #@! TF.GenerationSoftware,KiCad,Pcbnew,7.0.9*
G04 #@! TF.CreationDate,2024-01-11T22:18:43+01:00*
G04 #@! TF.ProjectId,keyboard,6b657962-6f61-4726-942e-6b696361645f,v1.0.0*
G04 #@! TF.SameCoordinates,Original*
G04 #@! TF.FileFunction,Copper,L4,Bot*
G04 #@! TF.FilePolarity,Positive*
%FSLAX46Y46*%
G04 Gerber Fmt 4.6, Leading zero omitted, Abs format (unit mm)*
G04 Created by KiCad (PCBNEW 7.0.9) date 2024-01-11 22:18:43*
%MOMM*%
%LPD*%
G01*
G04 APERTURE LIST*
G04 Aperture macros list*
%AMRoundRect*
0 Rectangle with rounded corners*
0 $1 Rounding radius*
0 $2 $3 $4 $5 $6 $7 $8 $9 X,Y pos of 4 corners*
0 Add a 4 corners polygon primitive as box body*
4,1,4,$2,$3,$4,$5,$6,$7,$8,$9,$2,$3,0*
0 Add four circle primitives for the rounded corners*
1,1,$1+$1,$2,$3*
1,1,$1+$1,$4,$5*
1,1,$1+$1,$6,$7*
1,1,$1+$1,$8,$9*
0 Add four rect primitives between the rounded corners*
20,1,$1+$1,$2,$3,$4,$5,0*
20,1,$1+$1,$4,$5,$6,$7,0*
20,1,$1+$1,$6,$7,$8,$9,0*
20,1,$1+$1,$8,$9,$2,$3,0*%
G04 Aperture macros list end*
G04 #@! TA.AperFunction,SMDPad,CuDef*
%ADD10R,1.100000X0.600000*%
G04 #@! TD*
G04 #@! TA.AperFunction,SMDPad,CuDef*
%ADD11R,1.100000X0.300000*%
G04 #@! TD*
G04 #@! TA.AperFunction,ComponentPad*
%ADD12O,1.800000X1.000000*%
G04 #@! TD*
G04 #@! TA.AperFunction,ComponentPad*
%ADD13O,2.200000X1.000000*%
G04 #@! TD*
G04 #@! TA.AperFunction,SMDPad,CuDef*
%ADD14R,2.600000X2.600000*%
G04 #@! TD*
G04 #@! TA.AperFunction,ComponentPad*
%ADD15C,2.032000*%
G04 #@! TD*
G04 #@! TA.AperFunction,ComponentPad*
%ADD16RoundRect,0.250000X0.350000X0.625000X-0.350000X0.625000X-0.350000X-0.625000X0.350000X-0.625000X0*%
G04 #@! TD*
G04 #@! TA.AperFunction,ComponentPad*
%ADD17O,1.200000X1.750000*%
G04 #@! TD*
G04 #@! TA.AperFunction,SMDPad,CuDef*
%ADD18RoundRect,0.218750X-0.256250X0.218750X-0.256250X-0.218750X0.256250X-0.218750X0.256250X0.218750X0*%
G04 #@! TD*
G04 #@! TA.AperFunction,SMDPad,CuDef*
%ADD19RoundRect,0.200000X-0.275000X0.200000X-0.275000X-0.200000X0.275000X-0.200000X0.275000X0.200000X0*%
G04 #@! TD*
G04 #@! TA.AperFunction,SMDPad,CuDef*
%ADD20RoundRect,0.225000X-0.250000X0.225000X-0.250000X-0.225000X0.250000X-0.225000X0.250000X0.225000X0*%
G04 #@! TD*
G04 #@! TA.AperFunction,SMDPad,CuDef*
%ADD21RoundRect,0.200000X0.275000X-0.200000X0.275000X0.200000X-0.275000X0.200000X-0.275000X-0.200000X0*%
G04 #@! TD*
G04 #@! TA.AperFunction,SMDPad,CuDef*
%ADD22RoundRect,0.150000X-0.512500X-0.150000X0.512500X-0.150000X0.512500X0.150000X-0.512500X0.150000X0*%
G04 #@! TD*
G04 #@! TA.AperFunction,SMDPad,CuDef*
%ADD23RoundRect,0.200000X0.200000X0.275000X-0.200000X0.275000X-0.200000X-0.275000X0.200000X-0.275000X0*%
G04 #@! TD*
G04 #@! TA.AperFunction,SMDPad,CuDef*
%ADD24RoundRect,0.062500X-0.375000X-0.062500X0.375000X-0.062500X0.375000X0.062500X-0.375000X0.062500X0*%
G04 #@! TD*
G04 #@! TA.AperFunction,SMDPad,CuDef*
%ADD25RoundRect,0.062500X-0.062500X-0.375000X0.062500X-0.375000X0.062500X0.375000X-0.062500X0.375000X0*%
G04 #@! TD*
G04 #@! TA.AperFunction,SMDPad,CuDef*
%ADD26R,1.600000X1.600000*%
G04 #@! TD*
G04 #@! TA.AperFunction,SMDPad,CuDef*
%ADD27R,1.800000X1.000000*%
G04 #@! TD*
G04 #@! TA.AperFunction,SMDPad,CuDef*
%ADD28RoundRect,0.150000X-0.587500X-0.150000X0.587500X-0.150000X0.587500X0.150000X-0.587500X0.150000X0*%
G04 #@! TD*
G04 #@! TA.AperFunction,SMDPad,CuDef*
%ADD29RoundRect,0.218750X-0.218750X-0.256250X0.218750X-0.256250X0.218750X0.256250X-0.218750X0.256250X0*%
G04 #@! TD*
G04 #@! TA.AperFunction,SMDPad,CuDef*
%ADD30R,1.498600X0.698500*%
G04 #@! TD*
G04 #@! TA.AperFunction,SMDPad,CuDef*
%ADD31C,0.599440*%
G04 #@! TD*
G04 #@! TA.AperFunction,SMDPad,CuDef*
%ADD32R,1.498600X1.498600*%
G04 #@! TD*
G04 #@! TA.AperFunction,SMDPad,CuDef*
%ADD33R,0.599440X0.599440*%
G04 #@! TD*
G04 #@! TA.AperFunction,SMDPad,CuDef*
%ADD34RoundRect,0.225000X0.250000X-0.225000X0.250000X0.225000X-0.250000X0.225000X-0.250000X-0.225000X0*%
G04 #@! TD*
G04 #@! TA.AperFunction,SMDPad,CuDef*
%ADD35RoundRect,0.218750X0.218750X0.256250X-0.218750X0.256250X-0.218750X-0.256250X0.218750X-0.256250X0*%
G04 #@! TD*
G04 #@! TA.AperFunction,SMDPad,CuDef*
%ADD36RoundRect,0.200000X-0.200000X-0.275000X0.200000X-0.275000X0.200000X0.275000X-0.200000X0.275000X0*%
G04 #@! TD*
G04 #@! TA.AperFunction,SMDPad,CuDef*
%ADD37RoundRect,0.225000X-0.225000X-0.250000X0.225000X-0.250000X0.225000X0.250000X-0.225000X0.250000X0*%
G04 #@! TD*
G04 #@! TA.AperFunction,SMDPad,CuDef*
%ADD38RoundRect,0.112500X-0.112500X0.187500X-0.112500X-0.187500X0.112500X-0.187500X0.112500X0.187500X0*%
G04 #@! TD*
G04 #@! TA.AperFunction,ViaPad*
%ADD39C,0.700000*%
G04 #@! TD*
G04 #@! TA.AperFunction,ViaPad*
%ADD40C,0.800000*%
G04 #@! TD*
G04 #@! TA.AperFunction,Conductor*
%ADD41C,0.200000*%
G04 #@! TD*
G04 #@! TA.AperFunction,Conductor*
%ADD42C,0.250000*%
G04 #@! TD*
G04 #@! TA.AperFunction,Conductor*
%ADD43C,0.400000*%
G04 #@! TD*
G04 #@! TA.AperFunction,Conductor*
%ADD44C,0.500000*%
G04 #@! TD*
G04 #@! TA.AperFunction,Conductor*
%ADD45C,0.300000*%
G04 #@! TD*
G04 #@! TA.AperFunction,Conductor*
%ADD46C,0.150000*%
G04 #@! TD*
G04 #@! TA.AperFunction,Conductor*
%ADD47C,0.209600*%
G04 #@! TD*
G04 APERTURE END LIST*
D10*
X272260000Y-98800000D03*
X272260000Y-99600000D03*
D11*
X272260000Y-100750000D03*
X272260000Y-101750000D03*
X272260000Y-102250000D03*
X272260000Y-103250000D03*
D10*
X272255000Y-104400000D03*
X272260000Y-105200000D03*
X272260000Y-105200000D03*
X272255000Y-104400000D03*
D11*
X272260000Y-103750000D03*
X272260000Y-102750000D03*
X272260000Y-101250000D03*
X272260000Y-100250000D03*
D10*
X272260000Y-99600000D03*
X272260000Y-98800000D03*
D12*
X273585000Y-96375000D03*
D13*
X277610000Y-96380000D03*
X277610000Y-107620000D03*
D12*
X273585000Y-107625000D03*
D14*
X230845000Y-135890000D03*
D15*
X234120000Y-147740000D03*
X229120000Y-145640000D03*
D14*
X242395000Y-138090000D03*
X176845000Y-97890000D03*
D15*
X180120000Y-109740000D03*
X175120000Y-107640000D03*
D14*
X188395000Y-100090000D03*
X158845000Y-92890000D03*
D15*
X162120000Y-104740000D03*
X157120000Y-102640000D03*
D14*
X170395000Y-95090000D03*
X259845000Y-154890000D03*
D15*
X263120000Y-166740000D03*
X258120000Y-164640000D03*
D14*
X271395000Y-157090000D03*
X140845000Y-109890000D03*
D15*
X144120000Y-121740000D03*
X139120000Y-119640000D03*
D14*
X152395000Y-112090000D03*
X140845000Y-126890000D03*
D15*
X144120000Y-138740000D03*
X139120000Y-136640000D03*
D14*
X152395000Y-129090000D03*
X194845000Y-110890000D03*
D15*
X198120000Y-122740000D03*
X193120000Y-120640000D03*
D14*
X206395000Y-113090000D03*
X194845000Y-127890000D03*
D15*
X198120000Y-139740000D03*
X193120000Y-137640000D03*
D14*
X206395000Y-130090000D03*
X158845000Y-109890000D03*
D15*
X162120000Y-121740000D03*
X157120000Y-119640000D03*
D14*
X170395000Y-112090000D03*
X212845000Y-132890000D03*
D15*
X216120000Y-144740000D03*
X211120000Y-142640000D03*
D14*
X224395000Y-135090000D03*
X205845000Y-154890000D03*
D15*
X209120000Y-166740000D03*
X204120000Y-164640000D03*
D14*
X217395000Y-157090000D03*
X212845000Y-115890000D03*
D15*
X216120000Y-127740000D03*
X211120000Y-125640000D03*
D14*
X224395000Y-118090000D03*
X223845000Y-154890000D03*
D15*
X227120000Y-166740000D03*
X222120000Y-164640000D03*
D14*
X235395000Y-157090000D03*
X241845000Y-154890000D03*
D15*
X245120000Y-166740000D03*
X240120000Y-164640000D03*
D14*
X253395000Y-157090000D03*
X212845000Y-81890000D03*
D15*
X216120000Y-93740000D03*
X211120000Y-91640000D03*
D14*
X224395000Y-84090000D03*
X212845000Y-98890000D03*
D15*
X216120000Y-110740000D03*
X211120000Y-108640000D03*
D14*
X224395000Y-101090000D03*
X194845000Y-93890000D03*
D15*
X198120000Y-105740000D03*
X193120000Y-103640000D03*
D14*
X206395000Y-96090000D03*
X250845000Y-137890000D03*
D15*
X254120000Y-149740000D03*
X249120000Y-147640000D03*
D14*
X262395000Y-140090000D03*
X158845000Y-126890000D03*
D15*
X162120000Y-138740000D03*
X157120000Y-136640000D03*
D14*
X170395000Y-129090000D03*
D16*
X253500000Y-98000000D03*
D17*
X251500000Y-98000000D03*
D14*
X194845000Y-76890000D03*
D15*
X198120000Y-88740000D03*
X193120000Y-86640000D03*
D14*
X206395000Y-79090000D03*
X230845000Y-118890000D03*
D15*
X234120000Y-130740000D03*
X229120000Y-128640000D03*
D14*
X242395000Y-121090000D03*
X230845000Y-84890000D03*
D15*
X234120000Y-96740000D03*
X229120000Y-94640000D03*
D14*
X242395000Y-87090000D03*
X230845000Y-101890000D03*
D15*
X234120000Y-113740000D03*
X229120000Y-111640000D03*
D14*
X242395000Y-104090000D03*
X176845000Y-80890000D03*
D15*
X180120000Y-92740000D03*
X175120000Y-90640000D03*
D14*
X188395000Y-83090000D03*
X176845000Y-114890000D03*
D15*
X180120000Y-126740000D03*
X175120000Y-124640000D03*
D14*
X188395000Y-117090000D03*
X158845000Y-143890000D03*
D15*
X162120000Y-155740000D03*
X157120000Y-153640000D03*
D14*
X170395000Y-146090000D03*
X176845000Y-131890000D03*
D15*
X180120000Y-143740000D03*
X175120000Y-141640000D03*
D14*
X188395000Y-134090000D03*
X140845000Y-143890000D03*
D15*
X144120000Y-155740000D03*
X139120000Y-153640000D03*
D14*
X152395000Y-146090000D03*
X140845000Y-92890000D03*
D15*
X144120000Y-104740000D03*
X139120000Y-102640000D03*
D14*
X152395000Y-95090000D03*
D18*
X266262500Y-107537500D03*
X266262500Y-109112500D03*
D19*
X270275000Y-96100000D03*
X270275000Y-97750000D03*
D20*
X255912500Y-107112500D03*
X255912500Y-108662500D03*
D21*
X269262500Y-109150000D03*
X269262500Y-107500000D03*
D19*
X252250000Y-109200000D03*
X252250000Y-110850000D03*
D22*
X267212500Y-101256974D03*
X267212500Y-100306974D03*
X267212500Y-99356974D03*
X269487500Y-99356974D03*
X269487500Y-100306974D03*
X269487500Y-101256974D03*
D23*
X277175000Y-86300000D03*
X275525000Y-86300000D03*
D21*
X266050000Y-106150000D03*
X266050000Y-104500000D03*
D23*
X274500000Y-119750000D03*
X272850000Y-119750000D03*
D24*
X249962500Y-106587500D03*
X249962500Y-106087500D03*
X249962500Y-105587500D03*
X249962500Y-105087500D03*
D25*
X250650000Y-104400000D03*
X251150000Y-104400000D03*
X251650000Y-104400000D03*
X252150000Y-104400000D03*
D24*
X252837500Y-105087500D03*
X252837500Y-105587500D03*
X252837500Y-106087500D03*
X252837500Y-106587500D03*
D25*
X252150000Y-107275000D03*
X251650000Y-107275000D03*
X251150000Y-107275000D03*
X250650000Y-107275000D03*
D26*
X251400000Y-105837500D03*
D19*
X269175000Y-117325000D03*
X269175000Y-118975000D03*
D27*
X265560000Y-88860000D03*
X265560000Y-86360000D03*
D28*
X269437500Y-115700000D03*
X269437500Y-113800000D03*
X271312500Y-114750000D03*
D29*
X267512500Y-106075000D03*
X269087500Y-106075000D03*
D30*
X263048400Y-84799300D03*
X263048400Y-85899120D03*
X263048400Y-86998940D03*
X263048400Y-88098760D03*
X263048400Y-89198580D03*
X263048400Y-90298400D03*
X263048400Y-91398220D03*
X263048400Y-92498040D03*
X249050460Y-92498040D03*
X249050460Y-91398220D03*
X249050460Y-90298400D03*
X249050460Y-89198580D03*
X249050460Y-88098760D03*
X249050460Y-86998940D03*
X249050460Y-85899120D03*
X249050460Y-84799300D03*
D31*
X258298600Y-85599400D03*
X258298600Y-86798280D03*
X258298600Y-87999700D03*
X258298600Y-89198580D03*
X258298600Y-90400000D03*
X258298600Y-91598880D03*
X258298600Y-92800300D03*
X256800000Y-85599400D03*
X256800000Y-86798280D03*
X256800000Y-87999700D03*
X256800000Y-89198580D03*
X256800000Y-90400000D03*
X256800000Y-91598880D03*
X256800000Y-92800300D03*
X255298860Y-85599400D03*
X255298860Y-86798280D03*
X255298860Y-87999700D03*
X255298860Y-89198580D03*
X255298860Y-90400000D03*
X255298860Y-91598880D03*
X255298860Y-92800300D03*
X253800260Y-85599400D03*
X253800260Y-86798280D03*
X253800260Y-87999700D03*
X253800260Y-89198580D03*
X253800260Y-90400000D03*
X253800260Y-91598880D03*
X253800260Y-92800300D03*
X252299120Y-85599400D03*
X252299120Y-86798280D03*
X252299120Y-87999700D03*
X252299120Y-89198580D03*
X252299120Y-90400000D03*
X252299120Y-91598880D03*
X252299120Y-92800300D03*
D32*
X259418740Y-83597880D03*
X257170840Y-83597880D03*
X254920400Y-83597880D03*
X252669960Y-83597880D03*
D31*
X250800520Y-90400000D03*
X250800520Y-91598880D03*
D33*
X250800520Y-92800300D03*
D31*
X259799740Y-85599400D03*
X259799740Y-86798280D03*
X259799740Y-87999700D03*
X259799740Y-89198580D03*
X259799740Y-90400000D03*
X259799740Y-91598880D03*
X259799740Y-92800300D03*
D19*
X250000000Y-108750000D03*
X250000000Y-110400000D03*
D34*
X267520000Y-89975000D03*
X267520000Y-88425000D03*
D19*
X270825000Y-117300000D03*
X270825000Y-118950000D03*
D20*
X267520000Y-85365000D03*
X267520000Y-86915000D03*
D35*
X269087500Y-104575000D03*
X267512500Y-104575000D03*
D36*
X275425000Y-91500000D03*
X277075000Y-91500000D03*
D37*
X266100000Y-113750000D03*
X267650000Y-113750000D03*
D38*
X264512500Y-107575000D03*
X264512500Y-109675000D03*
D19*
X254362500Y-107062500D03*
X254362500Y-108712500D03*
X248262500Y-107412500D03*
X248262500Y-109062500D03*
D20*
X267762500Y-107550000D03*
X267762500Y-109100000D03*
D34*
X248262500Y-105862500D03*
X248262500Y-104312500D03*
D39*
X270750000Y-107550000D03*
X270500000Y-95000000D03*
X269087500Y-106075000D03*
X254463496Y-110036504D03*
X268350201Y-99825862D03*
X259400000Y-104680000D03*
X170440000Y-146130000D03*
X206380000Y-79250000D03*
X271390000Y-157090000D03*
X242410000Y-138090000D03*
X257250000Y-108750000D03*
X188410000Y-100090000D03*
X188430000Y-83060000D03*
D40*
X250100000Y-103100000D03*
D39*
X224500000Y-84250000D03*
D40*
X248250000Y-110590000D03*
D39*
X246430000Y-91730000D03*
X265970000Y-90310002D03*
X152440000Y-146170000D03*
X242400000Y-121160000D03*
X206370000Y-130080000D03*
X152180000Y-95290000D03*
X260880000Y-84030000D03*
X224400000Y-118140000D03*
D40*
X248500000Y-103100000D03*
D39*
X188440000Y-117060000D03*
X268349842Y-100788006D03*
X276800000Y-121700000D03*
X266050000Y-85070000D03*
X273950000Y-90700000D03*
X224640000Y-101060000D03*
X242045995Y-87365995D03*
X152400000Y-129080000D03*
X242390000Y-104130000D03*
X206550000Y-113090000D03*
D40*
X262862500Y-109725000D03*
D39*
X260990000Y-82970000D03*
X235410000Y-157040000D03*
X251139886Y-82768839D03*
X217340000Y-157180000D03*
D40*
X253500000Y-103700000D03*
D39*
X206700000Y-95830000D03*
X170380000Y-95150000D03*
X262390000Y-140110000D03*
X170250000Y-111950000D03*
X152410000Y-112110000D03*
X188410000Y-134110000D03*
X253410000Y-157070000D03*
D40*
X272690000Y-112565000D03*
X267900000Y-119000000D03*
D39*
X224630000Y-134990000D03*
X170470000Y-129120000D03*
X271540000Y-121820000D03*
X256870000Y-104360000D03*
X277620000Y-85020000D03*
X267030000Y-97610000D03*
X269087500Y-104575000D03*
X271154779Y-101715900D03*
X270450000Y-103175000D03*
X269487482Y-101256956D03*
X246399994Y-94270000D03*
X243280000Y-94300000D03*
X246410000Y-93000000D03*
X269900000Y-123600000D03*
X243200000Y-93000000D03*
X276560000Y-85200000D03*
X277040000Y-92600000D03*
D40*
X273005423Y-113894577D03*
X254500000Y-104600000D03*
X273705423Y-85705423D03*
X273800000Y-118300000D03*
D39*
X260820000Y-85450000D03*
X261590000Y-86450000D03*
X264710000Y-91530000D03*
X259210000Y-84950000D03*
X218200000Y-85360000D03*
X259050000Y-86040000D03*
X212845000Y-81890000D03*
X259070000Y-89859500D03*
X212845000Y-98890000D03*
X260330000Y-93740000D03*
X259050000Y-87400000D03*
X194845000Y-76890000D03*
X176845000Y-80890000D03*
X257570000Y-87599500D03*
X212845000Y-115890000D03*
X260890000Y-91210000D03*
X258770000Y-93750000D03*
X257570000Y-86000000D03*
X260870000Y-88590000D03*
X194845000Y-93890000D03*
X230845000Y-118890000D03*
X257539998Y-92210000D03*
X257220000Y-93760000D03*
X194845000Y-127890000D03*
X254530000Y-86060000D03*
X259080002Y-88579996D03*
X176845000Y-97890000D03*
X256040000Y-90990000D03*
X255730000Y-93750000D03*
X253090000Y-86060000D03*
X230845000Y-84890000D03*
X254570000Y-91040000D03*
X254290000Y-93750000D03*
X158845000Y-92890000D03*
X256050000Y-86040000D03*
X253050000Y-91000000D03*
X194845000Y-110890000D03*
X140845000Y-92890000D03*
X260890000Y-89870000D03*
X230845000Y-101890000D03*
D41*
X270721913Y-101075000D02*
X270450000Y-101346913D01*
D42*
X271475000Y-100750000D02*
X270750000Y-100025000D01*
D41*
X271319670Y-101125000D02*
X271269670Y-101075000D01*
X271419670Y-101125000D02*
X271319670Y-101125000D01*
X271544670Y-101250000D02*
X271419670Y-101125000D01*
X271269670Y-101075000D02*
X270721913Y-101075000D01*
X270450000Y-101346913D02*
X270450000Y-102320200D01*
D42*
X270750000Y-100025000D02*
X270750000Y-97975000D01*
D41*
X272460000Y-101250000D02*
X271544670Y-101250000D01*
D42*
X272460000Y-100750000D02*
X271475000Y-100750000D01*
X270750000Y-97975000D02*
X270525000Y-97750000D01*
D43*
X272460000Y-99600000D02*
X271610000Y-99600000D01*
X271610000Y-99600000D02*
X271275000Y-99265000D01*
X271275000Y-99265000D02*
X271275000Y-97170930D01*
X271275000Y-97170930D02*
X271039070Y-96935000D01*
X271039070Y-96935000D02*
X267705000Y-96935000D01*
X267705000Y-96935000D02*
X267030000Y-97610000D01*
D44*
X272460000Y-98800000D02*
X272460000Y-97040000D01*
X272460000Y-97040000D02*
X271520000Y-96100000D01*
X271520000Y-96100000D02*
X270275000Y-96100000D01*
X270275000Y-96100000D02*
X270275000Y-95225000D01*
X270275000Y-95225000D02*
X270500000Y-95000000D01*
D41*
X156065026Y-95580000D02*
X149615026Y-102030000D01*
X174675026Y-83830000D02*
X172150000Y-86355026D01*
X201430000Y-81535025D02*
X199534974Y-79640000D01*
X252299120Y-87999700D02*
X250399760Y-86100340D01*
X250399760Y-86100340D02*
X250399760Y-84055075D01*
X239450052Y-80060000D02*
X221280000Y-80060000D01*
X165955026Y-92450000D02*
X164450000Y-93955026D01*
X243240102Y-83850050D02*
X239450052Y-80060000D01*
X221280000Y-80060000D02*
X216230000Y-85110000D01*
X164450000Y-93955026D02*
X164450000Y-94550000D01*
X250399760Y-84055075D02*
X250194735Y-83850050D01*
X140845000Y-104735000D02*
X140845000Y-109890000D01*
X164800000Y-94100000D02*
X164800000Y-94794974D01*
X172150000Y-86355026D02*
X172150000Y-87550000D01*
X201430000Y-83690000D02*
X201430000Y-81535025D01*
X180430000Y-83830000D02*
X174675026Y-83830000D01*
X143550000Y-102030000D02*
X140845000Y-104735000D01*
X149615026Y-102030000D02*
X143550000Y-102030000D01*
X252299120Y-89198580D02*
X250049760Y-86949220D01*
X166100000Y-92800000D02*
X164800000Y-94100000D01*
X199534974Y-79640000D02*
X184620000Y-79640000D01*
X156210000Y-95930000D02*
X147400000Y-104740000D01*
X163420000Y-95580000D02*
X156065026Y-95580000D01*
X250049760Y-84200050D02*
X243095128Y-84200050D01*
X250194735Y-83850050D02*
X243240102Y-83850050D01*
X167250000Y-92450000D02*
X165955026Y-92450000D01*
X172150000Y-87550000D02*
X167250000Y-92450000D01*
X250049760Y-86949220D02*
X250049760Y-84200050D01*
X184620000Y-79640000D02*
X180430000Y-83830000D01*
X202850000Y-85110000D02*
X201430000Y-83690000D01*
X164450000Y-94550000D02*
X163420000Y-95580000D01*
X216230000Y-85110000D02*
X202850000Y-85110000D01*
X243095128Y-84200050D02*
X239305078Y-80410000D01*
X239305078Y-80410000D02*
X221440000Y-80410000D01*
X221440000Y-80410000D02*
X216390000Y-85460000D01*
X216390000Y-85460000D02*
X202705026Y-85460000D01*
X202705026Y-85460000D02*
X201080000Y-83834974D01*
X201080000Y-83834974D02*
X201080000Y-81680000D01*
X201080000Y-81680000D02*
X199400000Y-80000000D01*
X199400000Y-80000000D02*
X184754974Y-80000000D01*
X184754974Y-80000000D02*
X180574974Y-84180000D01*
X180574974Y-84180000D02*
X176214974Y-84180000D01*
X176214974Y-84180000D02*
X175294974Y-85100000D01*
X175294974Y-85100000D02*
X173900000Y-85100000D01*
X173900000Y-85100000D02*
X172500000Y-86500000D01*
X172500000Y-86500000D02*
X172500000Y-87894974D01*
X172500000Y-87894974D02*
X167594974Y-92800000D01*
X167594974Y-92800000D02*
X166100000Y-92800000D01*
X164800000Y-94794974D02*
X163664974Y-95930000D01*
X163664974Y-95930000D02*
X156210000Y-95930000D01*
X147400000Y-104740000D02*
X144120000Y-104740000D01*
D44*
X267762500Y-107550000D02*
X266275000Y-107550000D01*
D42*
X266262500Y-106362500D02*
X266050000Y-106150000D01*
D44*
X266275000Y-107550000D02*
X266262500Y-107537500D01*
X271300000Y-107550000D02*
X270750000Y-107550000D01*
X266262500Y-107537500D02*
X264550000Y-107537500D01*
X272550000Y-105200000D02*
X272550000Y-106300000D01*
X264550000Y-107537500D02*
X264512500Y-107575000D01*
D42*
X266262500Y-107537500D02*
X266262500Y-106362500D01*
D44*
X270750000Y-107550000D02*
X267762500Y-107550000D01*
X272550000Y-106300000D02*
X271300000Y-107550000D01*
X272300000Y-109000000D02*
X277000000Y-109000000D01*
X277610000Y-108390000D02*
X277610000Y-107620000D01*
X272200000Y-109100000D02*
X273675000Y-107625000D01*
X267762500Y-109100000D02*
X272200000Y-109100000D01*
X272200000Y-109100000D02*
X272300000Y-109000000D01*
X277000000Y-109000000D02*
X277610000Y-108390000D01*
D45*
X252150000Y-107758358D02*
X254428146Y-110036504D01*
D42*
X274220000Y-112800000D02*
X273130000Y-111710000D01*
X267850000Y-111710000D02*
X266100000Y-113460000D01*
D45*
X258420256Y-104060256D02*
X259040000Y-104680000D01*
D42*
X266100000Y-113460000D02*
X266100000Y-113750000D01*
D45*
X252150000Y-107275000D02*
X252150000Y-107758358D01*
X253019744Y-95760000D02*
X258420256Y-101160512D01*
X258420256Y-101160512D02*
X258420256Y-104060256D01*
D43*
X269487500Y-100306974D02*
X268929471Y-100306974D01*
D45*
X254428146Y-110036504D02*
X254463496Y-110036504D01*
D42*
X274220000Y-115300000D02*
X274220000Y-112800000D01*
D45*
X258176992Y-113750000D02*
X254463496Y-110036504D01*
X250800520Y-94080520D02*
X252480000Y-95760000D01*
D42*
X273130000Y-111710000D02*
X267850000Y-111710000D01*
D45*
X259040000Y-104680000D02*
X259400000Y-104680000D01*
D42*
X272220000Y-117300000D02*
X274220000Y-115300000D01*
D43*
X268448359Y-99825862D02*
X268350201Y-99825862D01*
X268929471Y-100306974D02*
X268448359Y-99825862D01*
D45*
X250800520Y-92800300D02*
X250800520Y-94080520D01*
X266100000Y-113750000D02*
X258176992Y-113750000D01*
D42*
X270825000Y-117300000D02*
X272220000Y-117300000D01*
D45*
X252480000Y-95760000D02*
X253019744Y-95760000D01*
D46*
X188400000Y-83090000D02*
X188430000Y-83060000D01*
D42*
X254362500Y-108712500D02*
X255862500Y-108712500D01*
D43*
X267212500Y-100306974D02*
X267706974Y-100306974D01*
X267706974Y-100306974D02*
X268275000Y-100875000D01*
D42*
X269387500Y-113750000D02*
X269437500Y-113800000D01*
D45*
X248262500Y-103337500D02*
X248500000Y-103100000D01*
D46*
X188395000Y-134090000D02*
X188395000Y-134095000D01*
D43*
X260447880Y-83597880D02*
X260880000Y-84030000D01*
X267520000Y-89975000D02*
X266305002Y-89975000D01*
D46*
X242395000Y-138090000D02*
X242410000Y-138090000D01*
D43*
X253800260Y-85599400D02*
X254099980Y-85299680D01*
D46*
X152395000Y-129090000D02*
X152395000Y-129085000D01*
X170395000Y-146090000D02*
X170400000Y-146090000D01*
X217395000Y-157090000D02*
X217395000Y-157125000D01*
X206380000Y-130090000D02*
X206370000Y-130080000D01*
D43*
X259418740Y-83597880D02*
X260362120Y-83597880D01*
X260362120Y-83597880D02*
X260990000Y-82970000D01*
X251968927Y-83597880D02*
X251139886Y-82768839D01*
D42*
X267925000Y-118975000D02*
X267900000Y-119000000D01*
X250000000Y-110400000D02*
X249600000Y-110400000D01*
D41*
X250650000Y-104400000D02*
X250650000Y-105087500D01*
D46*
X235395000Y-157090000D02*
X235395000Y-157055000D01*
D41*
X250650000Y-105087500D02*
X251400000Y-105837500D01*
D45*
X248262500Y-104312500D02*
X248262500Y-103337500D01*
D46*
X224610000Y-101090000D02*
X224640000Y-101060000D01*
D41*
X252800000Y-104400000D02*
X253500000Y-103700000D01*
X249962500Y-105087500D02*
X250650000Y-105087500D01*
D45*
X249037500Y-105087500D02*
X248262500Y-104312500D01*
D42*
X252250000Y-110850000D02*
X250450000Y-110850000D01*
D43*
X254920400Y-83597880D02*
X252669960Y-83597880D01*
D41*
X252150000Y-104400000D02*
X252800000Y-104400000D01*
X250650000Y-104400000D02*
X250650000Y-103650000D01*
D46*
X152395000Y-129085000D02*
X152400000Y-129080000D01*
X235395000Y-157055000D02*
X235410000Y-157040000D01*
D42*
X271455000Y-113800000D02*
X272690000Y-112565000D01*
D46*
X188395000Y-134095000D02*
X188410000Y-134110000D01*
X152395000Y-95090000D02*
X152380000Y-95090000D01*
X224395000Y-84090000D02*
X224395000Y-84145000D01*
X242395000Y-104090000D02*
X242395000Y-104125000D01*
X152395000Y-112095000D02*
X152410000Y-112110000D01*
D43*
X257929200Y-85230000D02*
X258298600Y-85599400D01*
D46*
X262395000Y-140105000D02*
X262390000Y-140110000D01*
X253395000Y-157090000D02*
X253395000Y-157085000D01*
X224395000Y-118090000D02*
X224395000Y-118135000D01*
X206395000Y-96090000D02*
X206440000Y-96090000D01*
D42*
X255912500Y-108662500D02*
X256750000Y-108662500D01*
X248262500Y-110577500D02*
X248250000Y-110590000D01*
D46*
X206395000Y-79235000D02*
X206380000Y-79250000D01*
D42*
X250450000Y-110850000D02*
X250000000Y-110400000D01*
D46*
X242395000Y-104125000D02*
X242390000Y-104130000D01*
D43*
X254099980Y-85299680D02*
X254999140Y-85299680D01*
D46*
X253395000Y-157085000D02*
X253410000Y-157070000D01*
X170400000Y-146090000D02*
X170440000Y-146130000D01*
X242395000Y-121155000D02*
X242400000Y-121160000D01*
X224395000Y-118135000D02*
X224400000Y-118140000D01*
D43*
X254999140Y-85299680D02*
X255298860Y-85599400D01*
D46*
X206395000Y-79090000D02*
X206395000Y-79235000D01*
D43*
X252669960Y-83597880D02*
X251968927Y-83597880D01*
X257170840Y-85228560D02*
X257170840Y-83597880D01*
D41*
X252100000Y-105137500D02*
X251400000Y-105837500D01*
D43*
X254920400Y-83597880D02*
X257170840Y-83597880D01*
X264512500Y-109675000D02*
X262912500Y-109675000D01*
D46*
X224530000Y-135090000D02*
X224630000Y-134990000D01*
X224395000Y-84145000D02*
X224500000Y-84250000D01*
D45*
X249962500Y-105087500D02*
X249037500Y-105087500D01*
D44*
X265075000Y-109112500D02*
X264512500Y-109675000D01*
D43*
X266305002Y-89975000D02*
X265970000Y-90310002D01*
D46*
X206395000Y-113090000D02*
X206550000Y-113090000D01*
X242119005Y-87365995D02*
X242045995Y-87365995D01*
D43*
X256500280Y-85299680D02*
X256800000Y-85599400D01*
X256800000Y-85599400D02*
X257169400Y-85230000D01*
D42*
X248262500Y-109062500D02*
X248262500Y-110577500D01*
D43*
X259418740Y-83597880D02*
X257170840Y-83597880D01*
D46*
X188395000Y-117090000D02*
X188410000Y-117090000D01*
X188395000Y-83090000D02*
X188400000Y-83090000D01*
X152395000Y-146090000D02*
X152395000Y-146125000D01*
D42*
X269175000Y-118975000D02*
X267925000Y-118975000D01*
D46*
X188395000Y-100090000D02*
X188410000Y-100090000D01*
X224395000Y-135090000D02*
X224530000Y-135090000D01*
X188410000Y-117090000D02*
X188440000Y-117060000D01*
D44*
X266262500Y-109112500D02*
X265075000Y-109112500D01*
D41*
X252150000Y-104400000D02*
X252100000Y-104450000D01*
D43*
X254920400Y-85220940D02*
X254920400Y-83597880D01*
X267520000Y-85365000D02*
X266345000Y-85365000D01*
D46*
X262395000Y-140090000D02*
X262395000Y-140105000D01*
X152380000Y-95090000D02*
X152180000Y-95290000D01*
X242395000Y-121090000D02*
X242395000Y-121155000D01*
X170395000Y-112090000D02*
X170390000Y-112090000D01*
X152395000Y-112090000D02*
X152395000Y-112095000D01*
X152395000Y-146125000D02*
X152440000Y-146170000D01*
X206395000Y-130090000D02*
X206380000Y-130090000D01*
D43*
X255598580Y-85299680D02*
X256500280Y-85299680D01*
X259418740Y-83597880D02*
X260447880Y-83597880D01*
D46*
X170390000Y-112090000D02*
X170250000Y-111950000D01*
D43*
X266345000Y-85365000D02*
X266050000Y-85070000D01*
D41*
X252100000Y-104450000D02*
X252100000Y-105137500D01*
D46*
X224395000Y-101090000D02*
X224610000Y-101090000D01*
X170395000Y-95090000D02*
X170395000Y-95135000D01*
D42*
X249600000Y-110400000D02*
X248262500Y-109062500D01*
D46*
X271395000Y-157090000D02*
X271390000Y-157090000D01*
X170395000Y-129090000D02*
X170440000Y-129090000D01*
D43*
X255298860Y-85599400D02*
X255598580Y-85299680D01*
X254999140Y-85299680D02*
X254920400Y-85220940D01*
X256800000Y-85599400D02*
X257170840Y-85228560D01*
D46*
X217395000Y-157125000D02*
X217340000Y-157180000D01*
X242395000Y-87090000D02*
X242119005Y-87365995D01*
D43*
X257169400Y-85230000D02*
X257929200Y-85230000D01*
D42*
X256750000Y-108662500D02*
X257162500Y-108662500D01*
X267650000Y-113750000D02*
X269387500Y-113750000D01*
D46*
X170395000Y-95135000D02*
X170380000Y-95150000D01*
D43*
X262912500Y-109675000D02*
X262862500Y-109725000D01*
D42*
X269437500Y-113800000D02*
X271455000Y-113800000D01*
D46*
X170440000Y-129090000D02*
X170470000Y-129120000D01*
X206440000Y-96090000D02*
X206700000Y-95830000D01*
D42*
X255862500Y-108712500D02*
X255912500Y-108662500D01*
D41*
X250650000Y-103650000D02*
X250100000Y-103100000D01*
D42*
X257162500Y-108662500D02*
X257250000Y-108750000D01*
D45*
X248487500Y-106087500D02*
X248262500Y-105862500D01*
D44*
X251500000Y-100700000D02*
X250100000Y-102100000D01*
D45*
X249962500Y-106087500D02*
X248487500Y-106087500D01*
D44*
X247400000Y-102100000D02*
X246600000Y-102900000D01*
X250100000Y-102100000D02*
X247400000Y-102100000D01*
D45*
X248537500Y-105587500D02*
X248262500Y-105862500D01*
D44*
X251500000Y-98000000D02*
X251500000Y-100700000D01*
X246600000Y-104900000D02*
X247562500Y-105862500D01*
D45*
X249962500Y-105587500D02*
X248537500Y-105587500D01*
D44*
X247562500Y-105862500D02*
X248262500Y-105862500D01*
X246600000Y-102900000D02*
X246600000Y-104900000D01*
D42*
X272850000Y-120510000D02*
X271540000Y-121820000D01*
X272850000Y-119750000D02*
X272850000Y-120510000D01*
D43*
X255912500Y-106187500D02*
X255912500Y-107112500D01*
D42*
X256290000Y-104360000D02*
X255912500Y-104737500D01*
D45*
X255680000Y-105587500D02*
X255912500Y-105820000D01*
D43*
X255912500Y-104737500D02*
X255912500Y-106187500D01*
D45*
X255912500Y-105820000D02*
X255912500Y-106187500D01*
X252837500Y-105587500D02*
X255680000Y-105587500D01*
X251150000Y-103877404D02*
X252207404Y-102820000D01*
X251150000Y-104400000D02*
X251150000Y-103877404D01*
D43*
X253995000Y-102820000D02*
X255912500Y-104737500D01*
X250800520Y-90400000D02*
X250150800Y-91049720D01*
X252490000Y-96900000D02*
X252490000Y-101315000D01*
D45*
X255812500Y-106087500D02*
X252837500Y-106087500D01*
D43*
X252490000Y-101315000D02*
X253995000Y-102820000D01*
X250150800Y-91049720D02*
X250150800Y-94560800D01*
X250150800Y-94560800D02*
X252490000Y-96900000D01*
D45*
X255912500Y-106187500D02*
X255812500Y-106087500D01*
X252207404Y-102820000D02*
X253995000Y-102820000D01*
D42*
X256870000Y-104360000D02*
X256290000Y-104360000D01*
D43*
X264921060Y-86998940D02*
X265560000Y-86360000D01*
X266965000Y-86360000D02*
X267520000Y-86915000D01*
X265560000Y-86360000D02*
X266965000Y-86360000D01*
X263048400Y-86998940D02*
X264921060Y-86998940D01*
X263048400Y-88098760D02*
X264798760Y-88098760D01*
X264798760Y-88098760D02*
X265560000Y-88860000D01*
X265560000Y-88860000D02*
X267085000Y-88860000D01*
X267085000Y-88860000D02*
X267520000Y-88425000D01*
D44*
X267512500Y-104575000D02*
X267512500Y-106075000D01*
X271460000Y-104575000D02*
X269087500Y-104575000D01*
X272455000Y-104400000D02*
X271635000Y-104400000D01*
X271635000Y-104400000D02*
X271460000Y-104575000D01*
D43*
X269262500Y-104750000D02*
X269087500Y-104575000D01*
D41*
X271154779Y-101715900D02*
X271188879Y-101750000D01*
D47*
X270450000Y-102754800D02*
X270375000Y-102679800D01*
X251744600Y-91369190D02*
X251939520Y-91174270D01*
X251939520Y-90759600D02*
X252299120Y-90400000D01*
X251939520Y-91174270D02*
X251939520Y-90759600D01*
X272460000Y-102750000D02*
X271634999Y-102750000D01*
X251744600Y-91828570D02*
X251744600Y-91369190D01*
D41*
X269587500Y-101356974D02*
X269487482Y-101256956D01*
D47*
X271564799Y-102679800D02*
X270375000Y-102679800D01*
X261323699Y-102679800D02*
X251694600Y-93050701D01*
X270375000Y-102679800D02*
X261323699Y-102679800D01*
D41*
X271188879Y-101750000D02*
X272460000Y-101750000D01*
D47*
X251939520Y-92023490D02*
X251744600Y-91828570D01*
X251694600Y-93050701D02*
X251694600Y-92549899D01*
X270450000Y-103175000D02*
X270450000Y-102754800D01*
X251939520Y-92304979D02*
X251939520Y-92023490D01*
X251694600Y-92549899D02*
X251939520Y-92304979D01*
X271634999Y-102750000D02*
X271564799Y-102679800D01*
X271634999Y-102250000D02*
X271564799Y-102320200D01*
D41*
X267212500Y-102282700D02*
X267212500Y-101256974D01*
D47*
X267250000Y-102320200D02*
X261472651Y-102320200D01*
D41*
X267250000Y-102320200D02*
X267212500Y-102282700D01*
D47*
X272460000Y-102250000D02*
X271634999Y-102250000D01*
X252903640Y-92203400D02*
X252299120Y-91598880D01*
X270429800Y-102320000D02*
X267270200Y-102320000D01*
X267270200Y-102300000D02*
X267250000Y-102320200D01*
X252553396Y-93400945D02*
X252903640Y-93050701D01*
X252903640Y-93050701D02*
X252903640Y-92203400D01*
X261472651Y-102320200D02*
X252553396Y-93400945D01*
X270450000Y-102320200D02*
X270429800Y-102300000D01*
X271564799Y-102320200D02*
X270450000Y-102320200D01*
D42*
X271350000Y-103775000D02*
X271375000Y-103750000D01*
X271375000Y-103750000D02*
X271700000Y-103750000D01*
X269537540Y-103775000D02*
X269762540Y-104000000D01*
X266775000Y-103775000D02*
X269537540Y-103775000D01*
X270800000Y-104000000D02*
X271025000Y-103775000D01*
X271025000Y-103775000D02*
X271350000Y-103775000D01*
X269762540Y-104000000D02*
X270800000Y-104000000D01*
X271700000Y-103750000D02*
X272460000Y-103750000D01*
X266050000Y-104500000D02*
X266775000Y-103775000D01*
D46*
X249050460Y-92498040D02*
X248171954Y-92498040D01*
X248171954Y-92498040D02*
X246399994Y-94270000D01*
X242530000Y-90066520D02*
X242530000Y-93550000D01*
X247797220Y-84799300D02*
X242530000Y-90066520D01*
X242530000Y-93550000D02*
X243280000Y-94300000D01*
X249050460Y-84799300D02*
X247797220Y-84799300D01*
X249050460Y-86998940D02*
X248650410Y-86998940D01*
X247620000Y-91790000D02*
X246410000Y-93000000D01*
X248650410Y-86998940D02*
X247620000Y-88029350D01*
X247620000Y-88029350D02*
X247620000Y-91790000D01*
X249050460Y-85899120D02*
X247121664Y-85899120D01*
X242933700Y-92733700D02*
X243200000Y-93000000D01*
X247121664Y-85899120D02*
X242933700Y-90087084D01*
X242933700Y-90087084D02*
X242933700Y-92733700D01*
D42*
X277175000Y-85815000D02*
X276560000Y-85200000D01*
X277175000Y-86300000D02*
X277175000Y-85815000D01*
X277075000Y-91500000D02*
X277075000Y-92565000D01*
X277075000Y-92565000D02*
X277040000Y-92600000D01*
X269437500Y-117062500D02*
X269175000Y-117325000D01*
X269437500Y-115700000D02*
X269437500Y-117062500D01*
X269175000Y-117325000D02*
X269200000Y-117325000D01*
X269200000Y-117325000D02*
X270825000Y-118950000D01*
X251150000Y-107275000D02*
X251150000Y-109323004D01*
X258038554Y-114750000D02*
X271312500Y-114750000D01*
X271312500Y-114750000D02*
X272150000Y-114750000D01*
X251150000Y-109323004D02*
X251751996Y-109925000D01*
X253213554Y-109925000D02*
X258038554Y-114750000D01*
X251751996Y-109925000D02*
X253213554Y-109925000D01*
X272150000Y-114750000D02*
X273005423Y-113894577D01*
D45*
X251650000Y-108600000D02*
X251650000Y-107275000D01*
X252250000Y-109200000D02*
X251650000Y-108600000D01*
X253812500Y-106587500D02*
X252837500Y-106587500D01*
X254362500Y-107062500D02*
X254287500Y-107062500D01*
X254287500Y-107062500D02*
X253812500Y-106587500D01*
X250662500Y-108087500D02*
X250662500Y-107287500D01*
X250662500Y-107287500D02*
X250650000Y-107275000D01*
X250000000Y-108750000D02*
X250662500Y-108087500D01*
X249087500Y-106587500D02*
X248262500Y-107412500D01*
X249962500Y-106587500D02*
X249087500Y-106587500D01*
D42*
X252837500Y-105087500D02*
X254012500Y-105087500D01*
X275525000Y-86300000D02*
X274300000Y-86300000D01*
X254012500Y-105087500D02*
X254500000Y-104600000D01*
X274300000Y-86300000D02*
X273705423Y-85705423D01*
X274500000Y-119750000D02*
X274500000Y-119000000D01*
X274500000Y-119000000D02*
X273800000Y-118300000D01*
D43*
X245120000Y-166740000D02*
X241845000Y-163465000D01*
D41*
X261470700Y-84799300D02*
X260820000Y-85450000D01*
X263048400Y-84799300D02*
X261470700Y-84799300D01*
D43*
X241845000Y-163465000D02*
X241845000Y-154890000D01*
D41*
X263048400Y-85899120D02*
X262140880Y-85899120D01*
D43*
X254120000Y-149740000D02*
X250845000Y-146465000D01*
D41*
X262140880Y-85899120D02*
X261590000Y-86450000D01*
D43*
X250845000Y-146465000D02*
X250845000Y-137890000D01*
D41*
X263048400Y-90298400D02*
X263448450Y-90298400D01*
X263448450Y-90298400D02*
X264680050Y-91530000D01*
X264680050Y-91530000D02*
X264710000Y-91530000D01*
D43*
X259845000Y-163465000D02*
X259845000Y-154890000D01*
X263120000Y-166740000D02*
X259845000Y-163465000D01*
X162120000Y-155740000D02*
X158845000Y-152465000D01*
X158845000Y-152465000D02*
X158845000Y-143890000D01*
D46*
X259799740Y-85599400D02*
X259799740Y-85539740D01*
X259799740Y-85539740D02*
X259210000Y-84950000D01*
D41*
X259799740Y-86798280D02*
X259050000Y-86048540D01*
X259050000Y-86048540D02*
X259050000Y-86040000D01*
D43*
X216120000Y-110740000D02*
X212845000Y-107465000D01*
D41*
X259070000Y-89859500D02*
X258839100Y-89859500D01*
X258839100Y-89859500D02*
X258298600Y-90400000D01*
D43*
X212845000Y-107465000D02*
X212845000Y-98890000D01*
X230845000Y-144465000D02*
X230845000Y-135890000D01*
D41*
X259799740Y-92800300D02*
X259799740Y-93209740D01*
D43*
X234120000Y-147740000D02*
X230845000Y-144465000D01*
D41*
X259799740Y-93209740D02*
X260330000Y-93740000D01*
X259799740Y-87999700D02*
X259649700Y-87999700D01*
X259649700Y-87999700D02*
X259050000Y-87400000D01*
X257898400Y-87599500D02*
X258298600Y-87999700D01*
X257570000Y-87599500D02*
X257898400Y-87599500D01*
X259799740Y-91598880D02*
X260501120Y-91598880D01*
D43*
X216120000Y-127740000D02*
X212845000Y-124465000D01*
D41*
X260501120Y-91598880D02*
X260890000Y-91210000D01*
D43*
X212845000Y-124465000D02*
X212845000Y-115890000D01*
X227120000Y-166740000D02*
X223845000Y-163465000D01*
D41*
X258298600Y-92800300D02*
X258298600Y-93278600D01*
X258298600Y-93278600D02*
X258770000Y-93750000D01*
D43*
X223845000Y-163465000D02*
X223845000Y-154890000D01*
X162120000Y-138740000D02*
X158845000Y-135465000D01*
X158845000Y-135465000D02*
X158845000Y-126890000D01*
D41*
X258298600Y-86798280D02*
X257570000Y-86069680D01*
X257570000Y-86069680D02*
X257570000Y-86000000D01*
D43*
X198120000Y-105740000D02*
X194845000Y-102465000D01*
D41*
X259799740Y-89198580D02*
X260261420Y-89198580D01*
D43*
X194845000Y-102465000D02*
X194845000Y-93890000D01*
D41*
X260261420Y-89198580D02*
X260870000Y-88590000D01*
D45*
X230845000Y-127465000D02*
X230845000Y-118890000D01*
D41*
X257687480Y-92210000D02*
X257539998Y-92210000D01*
D45*
X234120000Y-130740000D02*
X230845000Y-127465000D01*
D41*
X258298600Y-91598880D02*
X257687480Y-92210000D01*
X256800000Y-92800300D02*
X256800000Y-93340000D01*
X256800000Y-93340000D02*
X257220000Y-93760000D01*
D43*
X194845000Y-136465000D02*
X194845000Y-127890000D01*
X198120000Y-139740000D02*
X194845000Y-136465000D01*
X162120000Y-121740000D02*
X158845000Y-118465000D01*
D46*
X255298860Y-86798280D02*
X254560580Y-86060000D01*
X254560580Y-86060000D02*
X254530000Y-86060000D01*
D43*
X158845000Y-118465000D02*
X158845000Y-109890000D01*
X180120000Y-109740000D02*
X176845000Y-106465000D01*
D41*
X258298600Y-89198580D02*
X258917184Y-88579996D01*
D43*
X176845000Y-106465000D02*
X176845000Y-97890000D01*
D41*
X258917184Y-88579996D02*
X259080002Y-88579996D01*
X256648880Y-91598880D02*
X256040000Y-90990000D01*
X256800000Y-91598880D02*
X256648880Y-91598880D01*
D43*
X180120000Y-143740000D02*
X176845000Y-140465000D01*
X176845000Y-140465000D02*
X176845000Y-131890000D01*
D41*
X255298860Y-93318860D02*
X255730000Y-93750000D01*
X255298860Y-92800300D02*
X255298860Y-93318860D01*
D43*
X209120000Y-166740000D02*
X205845000Y-163465000D01*
X205845000Y-163465000D02*
X205845000Y-154890000D01*
X230845000Y-93465000D02*
X230845000Y-84890000D01*
D46*
X253800260Y-86798280D02*
X253090000Y-86088020D01*
X253090000Y-86088020D02*
X253090000Y-86060000D01*
D43*
X234120000Y-96740000D02*
X230845000Y-93465000D01*
D41*
X185204974Y-78610000D02*
X173604974Y-78610000D01*
X239595026Y-79710000D02*
X211095026Y-79710000D01*
D43*
X140845000Y-135465000D02*
X140845000Y-126890000D01*
D41*
X250339709Y-83500050D02*
X243385076Y-83500050D01*
D43*
X144120000Y-138740000D02*
X140845000Y-135465000D01*
D41*
X250749760Y-85248920D02*
X250749760Y-83910101D01*
X173604974Y-78610000D02*
X161564974Y-90650000D01*
X211095026Y-79710000D02*
X206065027Y-74680000D01*
X136760000Y-93630000D02*
X136760000Y-124305000D01*
X250749760Y-83910101D02*
X250339709Y-83500050D01*
X252299120Y-86798280D02*
X250749760Y-85248920D01*
X139345000Y-126890000D02*
X140845000Y-126890000D01*
X139740000Y-90650000D02*
X136760000Y-93630000D01*
X243385076Y-83500050D02*
X239595026Y-79710000D01*
X189134974Y-74680000D02*
X185204974Y-78610000D01*
X161564974Y-90650000D02*
X139740000Y-90650000D01*
X136760000Y-124305000D02*
X139345000Y-126890000D01*
X206065027Y-74680000D02*
X189134974Y-74680000D01*
D43*
X176845000Y-123465000D02*
X176845000Y-114890000D01*
X180120000Y-126740000D02*
X176845000Y-123465000D01*
D41*
X255298860Y-91598880D02*
X255128880Y-91598880D01*
X255128880Y-91598880D02*
X254570000Y-91040000D01*
D43*
X212845000Y-141465000D02*
X212845000Y-132890000D01*
X216120000Y-144740000D02*
X212845000Y-141465000D01*
D41*
X253800260Y-92800300D02*
X253800260Y-93260260D01*
X253800260Y-93260260D02*
X254290000Y-93750000D01*
X265749870Y-91500000D02*
X275425000Y-91500000D01*
X263448450Y-89198580D02*
X265749870Y-91500000D01*
X263048400Y-89198580D02*
X263448450Y-89198580D01*
D46*
X256800000Y-86798280D02*
X256050000Y-86048280D01*
X256050000Y-86048280D02*
X256050000Y-86040000D01*
D43*
X140845000Y-152465000D02*
X140845000Y-143890000D01*
D41*
X250484683Y-83150050D02*
X243530050Y-83150050D01*
X211240000Y-79360000D02*
X206210000Y-74330000D01*
X185060000Y-78260000D02*
X173460000Y-78260000D01*
D43*
X144120000Y-155740000D02*
X140845000Y-152465000D01*
D41*
X251099760Y-83765125D02*
X250484683Y-83150050D01*
X137600000Y-143890000D02*
X140845000Y-143890000D01*
X161420000Y-90300000D02*
X139595026Y-90300000D01*
X206210000Y-74330000D02*
X188990000Y-74330000D01*
X239740000Y-79360000D02*
X211240000Y-79360000D01*
X139595026Y-90300000D02*
X136410000Y-93485026D01*
X251099760Y-84400040D02*
X251099760Y-83765125D01*
X188990000Y-74330000D02*
X185060000Y-78260000D01*
X252299120Y-85599400D02*
X251099760Y-84400040D01*
X173460000Y-78260000D02*
X161420000Y-90300000D01*
X136410000Y-142700000D02*
X137600000Y-143890000D01*
X136410000Y-93485026D02*
X136410000Y-142700000D01*
X243530050Y-83150050D02*
X239740000Y-79360000D01*
D43*
X144120000Y-121740000D02*
X140845000Y-118465000D01*
X140845000Y-118465000D02*
X140845000Y-109890000D01*
D41*
X253648880Y-91598880D02*
X253050000Y-91000000D01*
D43*
X194845000Y-119465000D02*
X194845000Y-110890000D01*
X198120000Y-122740000D02*
X194845000Y-119465000D01*
D41*
X253800260Y-91598880D02*
X253648880Y-91598880D01*
X259799740Y-90400000D02*
X260360000Y-90400000D01*
D43*
X230845000Y-110465000D02*
X230845000Y-101890000D01*
X234120000Y-113740000D02*
X230845000Y-110465000D01*
D41*
X260360000Y-90400000D02*
X260890000Y-89870000D01*
M02*
