G04 #@! TF.GenerationSoftware,KiCad,Pcbnew,7.0.9*
G04 #@! TF.CreationDate,2024-01-11T22:18:43+01:00*
G04 #@! TF.ProjectId,keyboard,6b657962-6f61-4726-942e-6b696361645f,v1.0.0*
G04 #@! TF.SameCoordinates,Original*
G04 #@! TF.FileFunction,Legend,Top*
G04 #@! TF.FilePolarity,Positive*
%FSLAX46Y46*%
G04 Gerber Fmt 4.6, Leading zero omitted, Abs format (unit mm)*
G04 Created by KiCad (PCBNEW 7.0.9) date 2024-01-11 22:18:43*
%MOMM*%
%LPD*%
G01*
G04 APERTURE LIST*
G04 Aperture macros list*
%AMRoundRect*
0 Rectangle with rounded corners*
0 $1 Rounding radius*
0 $2 $3 $4 $5 $6 $7 $8 $9 X,Y pos of 4 corners*
0 Add a 4 corners polygon primitive as box body*
4,1,4,$2,$3,$4,$5,$6,$7,$8,$9,$2,$3,0*
0 Add four circle primitives for the rounded corners*
1,1,$1+$1,$2,$3*
1,1,$1+$1,$4,$5*
1,1,$1+$1,$6,$7*
1,1,$1+$1,$8,$9*
0 Add four rect primitives between the rounded corners*
20,1,$1+$1,$2,$3,$4,$5,0*
20,1,$1+$1,$4,$5,$6,$7,0*
20,1,$1+$1,$6,$7,$8,$9,0*
20,1,$1+$1,$8,$9,$2,$3,0*%
G04 Aperture macros list end*
%ADD10C,0.150000*%
%ADD11C,0.120000*%
%ADD12O,1.800000X1.000000*%
%ADD13O,2.200000X1.000000*%
%ADD14C,2.200000*%
%ADD15C,1.701800*%
%ADD16C,3.000000*%
%ADD17C,3.429000*%
%ADD18C,2.032000*%
%ADD19R,0.800000X1.000000*%
%ADD20C,0.900000*%
%ADD21R,1.500000X0.700000*%
%ADD22C,0.990600*%
%ADD23C,0.787400*%
%ADD24R,1.300000X1.550000*%
%ADD25RoundRect,0.218750X-0.218750X-0.256250X0.218750X-0.256250X0.218750X0.256250X-0.218750X0.256250X0*%
%ADD26RoundRect,0.250000X0.350000X0.625000X-0.350000X0.625000X-0.350000X-0.625000X0.350000X-0.625000X0*%
%ADD27O,1.200000X1.750000*%
G04 APERTURE END LIST*
D10*
X175377255Y-149072438D02*
X174424874Y-149072438D01*
X174424874Y-149072438D02*
X174424874Y-147072438D01*
X176805827Y-148977200D02*
X176615351Y-149072438D01*
X176615351Y-149072438D02*
X176234398Y-149072438D01*
X176234398Y-149072438D02*
X176043922Y-148977200D01*
X176043922Y-148977200D02*
X175948684Y-148786723D01*
X175948684Y-148786723D02*
X175948684Y-148024819D01*
X175948684Y-148024819D02*
X176043922Y-147834342D01*
X176043922Y-147834342D02*
X176234398Y-147739104D01*
X176234398Y-147739104D02*
X176615351Y-147739104D01*
X176615351Y-147739104D02*
X176805827Y-147834342D01*
X176805827Y-147834342D02*
X176901065Y-148024819D01*
X176901065Y-148024819D02*
X176901065Y-148215295D01*
X176901065Y-148215295D02*
X175948684Y-148405771D01*
X177472494Y-147739104D02*
X178234398Y-147739104D01*
X177758208Y-149072438D02*
X177758208Y-147358152D01*
X177758208Y-147358152D02*
X177853446Y-147167676D01*
X177853446Y-147167676D02*
X178043922Y-147072438D01*
X178043922Y-147072438D02*
X178234398Y-147072438D01*
X178615351Y-147739104D02*
X179377255Y-147739104D01*
X178901065Y-147072438D02*
X178901065Y-148786723D01*
X178901065Y-148786723D02*
X178996303Y-148977200D01*
X178996303Y-148977200D02*
X179186779Y-149072438D01*
X179186779Y-149072438D02*
X179377255Y-149072438D01*
X180043922Y-148310533D02*
X181567732Y-148310533D01*
X182520112Y-149072438D02*
X182520112Y-147072438D01*
X182520112Y-147834342D02*
X182710588Y-147739104D01*
X182710588Y-147739104D02*
X183091541Y-147739104D01*
X183091541Y-147739104D02*
X183282017Y-147834342D01*
X183282017Y-147834342D02*
X183377255Y-147929580D01*
X183377255Y-147929580D02*
X183472493Y-148120057D01*
X183472493Y-148120057D02*
X183472493Y-148691485D01*
X183472493Y-148691485D02*
X183377255Y-148881961D01*
X183377255Y-148881961D02*
X183282017Y-148977200D01*
X183282017Y-148977200D02*
X183091541Y-149072438D01*
X183091541Y-149072438D02*
X182710588Y-149072438D01*
X182710588Y-149072438D02*
X182520112Y-148977200D01*
X184615350Y-149072438D02*
X184424874Y-148977200D01*
X184424874Y-148977200D02*
X184329636Y-148881961D01*
X184329636Y-148881961D02*
X184234398Y-148691485D01*
X184234398Y-148691485D02*
X184234398Y-148120057D01*
X184234398Y-148120057D02*
X184329636Y-147929580D01*
X184329636Y-147929580D02*
X184424874Y-147834342D01*
X184424874Y-147834342D02*
X184615350Y-147739104D01*
X184615350Y-147739104D02*
X184901065Y-147739104D01*
X184901065Y-147739104D02*
X185091541Y-147834342D01*
X185091541Y-147834342D02*
X185186779Y-147929580D01*
X185186779Y-147929580D02*
X185282017Y-148120057D01*
X185282017Y-148120057D02*
X185282017Y-148691485D01*
X185282017Y-148691485D02*
X185186779Y-148881961D01*
X185186779Y-148881961D02*
X185091541Y-148977200D01*
X185091541Y-148977200D02*
X184901065Y-149072438D01*
X184901065Y-149072438D02*
X184615350Y-149072438D01*
X186996303Y-149072438D02*
X186996303Y-148024819D01*
X186996303Y-148024819D02*
X186901065Y-147834342D01*
X186901065Y-147834342D02*
X186710589Y-147739104D01*
X186710589Y-147739104D02*
X186329636Y-147739104D01*
X186329636Y-147739104D02*
X186139160Y-147834342D01*
X186996303Y-148977200D02*
X186805827Y-149072438D01*
X186805827Y-149072438D02*
X186329636Y-149072438D01*
X186329636Y-149072438D02*
X186139160Y-148977200D01*
X186139160Y-148977200D02*
X186043922Y-148786723D01*
X186043922Y-148786723D02*
X186043922Y-148596247D01*
X186043922Y-148596247D02*
X186139160Y-148405771D01*
X186139160Y-148405771D02*
X186329636Y-148310533D01*
X186329636Y-148310533D02*
X186805827Y-148310533D01*
X186805827Y-148310533D02*
X186996303Y-148215295D01*
X187948684Y-149072438D02*
X187948684Y-147739104D01*
X187948684Y-148120057D02*
X188043922Y-147929580D01*
X188043922Y-147929580D02*
X188139160Y-147834342D01*
X188139160Y-147834342D02*
X188329636Y-147739104D01*
X188329636Y-147739104D02*
X188520113Y-147739104D01*
X190043922Y-149072438D02*
X190043922Y-147072438D01*
X190043922Y-148977200D02*
X189853446Y-149072438D01*
X189853446Y-149072438D02*
X189472493Y-149072438D01*
X189472493Y-149072438D02*
X189282017Y-148977200D01*
X189282017Y-148977200D02*
X189186779Y-148881961D01*
X189186779Y-148881961D02*
X189091541Y-148691485D01*
X189091541Y-148691485D02*
X189091541Y-148120057D01*
X189091541Y-148120057D02*
X189186779Y-147929580D01*
X189186779Y-147929580D02*
X189282017Y-147834342D01*
X189282017Y-147834342D02*
X189472493Y-147739104D01*
X189472493Y-147739104D02*
X189853446Y-147739104D01*
X189853446Y-147739104D02*
X190043922Y-147834342D01*
X192329637Y-147739104D02*
X192805827Y-149072438D01*
X192805827Y-149072438D02*
X193282018Y-147739104D01*
X195091542Y-149072438D02*
X193948685Y-149072438D01*
X194520113Y-149072438D02*
X194520113Y-147072438D01*
X194520113Y-147072438D02*
X194329637Y-147358152D01*
X194329637Y-147358152D02*
X194139161Y-147548628D01*
X194139161Y-147548628D02*
X193948685Y-147643866D01*
X195948685Y-148881961D02*
X196043923Y-148977200D01*
X196043923Y-148977200D02*
X195948685Y-149072438D01*
X195948685Y-149072438D02*
X195853447Y-148977200D01*
X195853447Y-148977200D02*
X195948685Y-148881961D01*
X195948685Y-148881961D02*
X195948685Y-149072438D01*
X197282018Y-147072438D02*
X197472495Y-147072438D01*
X197472495Y-147072438D02*
X197662971Y-147167676D01*
X197662971Y-147167676D02*
X197758209Y-147262914D01*
X197758209Y-147262914D02*
X197853447Y-147453390D01*
X197853447Y-147453390D02*
X197948685Y-147834342D01*
X197948685Y-147834342D02*
X197948685Y-148310533D01*
X197948685Y-148310533D02*
X197853447Y-148691485D01*
X197853447Y-148691485D02*
X197758209Y-148881961D01*
X197758209Y-148881961D02*
X197662971Y-148977200D01*
X197662971Y-148977200D02*
X197472495Y-149072438D01*
X197472495Y-149072438D02*
X197282018Y-149072438D01*
X197282018Y-149072438D02*
X197091542Y-148977200D01*
X197091542Y-148977200D02*
X196996304Y-148881961D01*
X196996304Y-148881961D02*
X196901066Y-148691485D01*
X196901066Y-148691485D02*
X196805828Y-148310533D01*
X196805828Y-148310533D02*
X196805828Y-147834342D01*
X196805828Y-147834342D02*
X196901066Y-147453390D01*
X196901066Y-147453390D02*
X196996304Y-147262914D01*
X196996304Y-147262914D02*
X197091542Y-147167676D01*
X197091542Y-147167676D02*
X197282018Y-147072438D01*
X269139160Y-90247200D02*
X269282017Y-90294819D01*
X269282017Y-90294819D02*
X269520112Y-90294819D01*
X269520112Y-90294819D02*
X269615350Y-90247200D01*
X269615350Y-90247200D02*
X269662969Y-90199580D01*
X269662969Y-90199580D02*
X269710588Y-90104342D01*
X269710588Y-90104342D02*
X269710588Y-90009104D01*
X269710588Y-90009104D02*
X269662969Y-89913866D01*
X269662969Y-89913866D02*
X269615350Y-89866247D01*
X269615350Y-89866247D02*
X269520112Y-89818628D01*
X269520112Y-89818628D02*
X269329636Y-89771009D01*
X269329636Y-89771009D02*
X269234398Y-89723390D01*
X269234398Y-89723390D02*
X269186779Y-89675771D01*
X269186779Y-89675771D02*
X269139160Y-89580533D01*
X269139160Y-89580533D02*
X269139160Y-89485295D01*
X269139160Y-89485295D02*
X269186779Y-89390057D01*
X269186779Y-89390057D02*
X269234398Y-89342438D01*
X269234398Y-89342438D02*
X269329636Y-89294819D01*
X269329636Y-89294819D02*
X269567731Y-89294819D01*
X269567731Y-89294819D02*
X269710588Y-89342438D01*
X269996303Y-89294819D02*
X270567731Y-89294819D01*
X270282017Y-90294819D02*
X270282017Y-89294819D01*
X270853446Y-90009104D02*
X271329636Y-90009104D01*
X270758208Y-90294819D02*
X271091541Y-89294819D01*
X271091541Y-89294819D02*
X271424874Y-90294819D01*
X271615351Y-89294819D02*
X272186779Y-89294819D01*
X271901065Y-90294819D02*
X271901065Y-89294819D01*
X272520113Y-89294819D02*
X272520113Y-90104342D01*
X272520113Y-90104342D02*
X272567732Y-90199580D01*
X272567732Y-90199580D02*
X272615351Y-90247200D01*
X272615351Y-90247200D02*
X272710589Y-90294819D01*
X272710589Y-90294819D02*
X272901065Y-90294819D01*
X272901065Y-90294819D02*
X272996303Y-90247200D01*
X272996303Y-90247200D02*
X273043922Y-90199580D01*
X273043922Y-90199580D02*
X273091541Y-90104342D01*
X273091541Y-90104342D02*
X273091541Y-89294819D01*
X273520113Y-90247200D02*
X273662970Y-90294819D01*
X273662970Y-90294819D02*
X273901065Y-90294819D01*
X273901065Y-90294819D02*
X273996303Y-90247200D01*
X273996303Y-90247200D02*
X274043922Y-90199580D01*
X274043922Y-90199580D02*
X274091541Y-90104342D01*
X274091541Y-90104342D02*
X274091541Y-90009104D01*
X274091541Y-90009104D02*
X274043922Y-89913866D01*
X274043922Y-89913866D02*
X273996303Y-89866247D01*
X273996303Y-89866247D02*
X273901065Y-89818628D01*
X273901065Y-89818628D02*
X273710589Y-89771009D01*
X273710589Y-89771009D02*
X273615351Y-89723390D01*
X273615351Y-89723390D02*
X273567732Y-89675771D01*
X273567732Y-89675771D02*
X273520113Y-89580533D01*
X273520113Y-89580533D02*
X273520113Y-89485295D01*
X273520113Y-89485295D02*
X273567732Y-89390057D01*
X273567732Y-89390057D02*
X273615351Y-89342438D01*
X273615351Y-89342438D02*
X273710589Y-89294819D01*
X273710589Y-89294819D02*
X273948684Y-89294819D01*
X273948684Y-89294819D02*
X274091541Y-89342438D01*
X267558207Y-88299580D02*
X267510588Y-88347200D01*
X267510588Y-88347200D02*
X267367731Y-88394819D01*
X267367731Y-88394819D02*
X267272493Y-88394819D01*
X267272493Y-88394819D02*
X267129636Y-88347200D01*
X267129636Y-88347200D02*
X267034398Y-88251961D01*
X267034398Y-88251961D02*
X266986779Y-88156723D01*
X266986779Y-88156723D02*
X266939160Y-87966247D01*
X266939160Y-87966247D02*
X266939160Y-87823390D01*
X266939160Y-87823390D02*
X266986779Y-87632914D01*
X266986779Y-87632914D02*
X267034398Y-87537676D01*
X267034398Y-87537676D02*
X267129636Y-87442438D01*
X267129636Y-87442438D02*
X267272493Y-87394819D01*
X267272493Y-87394819D02*
X267367731Y-87394819D01*
X267367731Y-87394819D02*
X267510588Y-87442438D01*
X267510588Y-87442438D02*
X267558207Y-87490057D01*
X267986779Y-88394819D02*
X267986779Y-87394819D01*
X267986779Y-87871009D02*
X268558207Y-87871009D01*
X268558207Y-88394819D02*
X268558207Y-87394819D01*
X268986779Y-88109104D02*
X269462969Y-88109104D01*
X268891541Y-88394819D02*
X269224874Y-87394819D01*
X269224874Y-87394819D02*
X269558207Y-88394819D01*
X270462969Y-88394819D02*
X270129636Y-87918628D01*
X269891541Y-88394819D02*
X269891541Y-87394819D01*
X269891541Y-87394819D02*
X270272493Y-87394819D01*
X270272493Y-87394819D02*
X270367731Y-87442438D01*
X270367731Y-87442438D02*
X270415350Y-87490057D01*
X270415350Y-87490057D02*
X270462969Y-87585295D01*
X270462969Y-87585295D02*
X270462969Y-87728152D01*
X270462969Y-87728152D02*
X270415350Y-87823390D01*
X270415350Y-87823390D02*
X270367731Y-87871009D01*
X270367731Y-87871009D02*
X270272493Y-87918628D01*
X270272493Y-87918628D02*
X269891541Y-87918628D01*
X271415350Y-87442438D02*
X271320112Y-87394819D01*
X271320112Y-87394819D02*
X271177255Y-87394819D01*
X271177255Y-87394819D02*
X271034398Y-87442438D01*
X271034398Y-87442438D02*
X270939160Y-87537676D01*
X270939160Y-87537676D02*
X270891541Y-87632914D01*
X270891541Y-87632914D02*
X270843922Y-87823390D01*
X270843922Y-87823390D02*
X270843922Y-87966247D01*
X270843922Y-87966247D02*
X270891541Y-88156723D01*
X270891541Y-88156723D02*
X270939160Y-88251961D01*
X270939160Y-88251961D02*
X271034398Y-88347200D01*
X271034398Y-88347200D02*
X271177255Y-88394819D01*
X271177255Y-88394819D02*
X271272493Y-88394819D01*
X271272493Y-88394819D02*
X271415350Y-88347200D01*
X271415350Y-88347200D02*
X271462969Y-88299580D01*
X271462969Y-88299580D02*
X271462969Y-87966247D01*
X271462969Y-87966247D02*
X271272493Y-87966247D01*
X271891541Y-88394819D02*
X271891541Y-87394819D01*
X272367731Y-88394819D02*
X272367731Y-87394819D01*
X272367731Y-87394819D02*
X272939159Y-88394819D01*
X272939159Y-88394819D02*
X272939159Y-87394819D01*
X273939159Y-87442438D02*
X273843921Y-87394819D01*
X273843921Y-87394819D02*
X273701064Y-87394819D01*
X273701064Y-87394819D02*
X273558207Y-87442438D01*
X273558207Y-87442438D02*
X273462969Y-87537676D01*
X273462969Y-87537676D02*
X273415350Y-87632914D01*
X273415350Y-87632914D02*
X273367731Y-87823390D01*
X273367731Y-87823390D02*
X273367731Y-87966247D01*
X273367731Y-87966247D02*
X273415350Y-88156723D01*
X273415350Y-88156723D02*
X273462969Y-88251961D01*
X273462969Y-88251961D02*
X273558207Y-88347200D01*
X273558207Y-88347200D02*
X273701064Y-88394819D01*
X273701064Y-88394819D02*
X273796302Y-88394819D01*
X273796302Y-88394819D02*
X273939159Y-88347200D01*
X273939159Y-88347200D02*
X273986778Y-88299580D01*
X273986778Y-88299580D02*
X273986778Y-87966247D01*
X273986778Y-87966247D02*
X273796302Y-87966247D01*
X273219819Y-118038220D02*
X272219819Y-118038220D01*
X272219819Y-118038220D02*
X272219819Y-117657268D01*
X272219819Y-117657268D02*
X272267438Y-117562030D01*
X272267438Y-117562030D02*
X272315057Y-117514411D01*
X272315057Y-117514411D02*
X272410295Y-117466792D01*
X272410295Y-117466792D02*
X272553152Y-117466792D01*
X272553152Y-117466792D02*
X272648390Y-117514411D01*
X272648390Y-117514411D02*
X272696009Y-117562030D01*
X272696009Y-117562030D02*
X272743628Y-117657268D01*
X272743628Y-117657268D02*
X272743628Y-118038220D01*
X272219819Y-116847744D02*
X272219819Y-116657268D01*
X272219819Y-116657268D02*
X272267438Y-116562030D01*
X272267438Y-116562030D02*
X272362676Y-116466792D01*
X272362676Y-116466792D02*
X272553152Y-116419173D01*
X272553152Y-116419173D02*
X272886485Y-116419173D01*
X272886485Y-116419173D02*
X273076961Y-116466792D01*
X273076961Y-116466792D02*
X273172200Y-116562030D01*
X273172200Y-116562030D02*
X273219819Y-116657268D01*
X273219819Y-116657268D02*
X273219819Y-116847744D01*
X273219819Y-116847744D02*
X273172200Y-116942982D01*
X273172200Y-116942982D02*
X273076961Y-117038220D01*
X273076961Y-117038220D02*
X272886485Y-117085839D01*
X272886485Y-117085839D02*
X272553152Y-117085839D01*
X272553152Y-117085839D02*
X272362676Y-117038220D01*
X272362676Y-117038220D02*
X272267438Y-116942982D01*
X272267438Y-116942982D02*
X272219819Y-116847744D01*
X272219819Y-116085839D02*
X273219819Y-115847744D01*
X273219819Y-115847744D02*
X272505533Y-115657268D01*
X272505533Y-115657268D02*
X273219819Y-115466792D01*
X273219819Y-115466792D02*
X272219819Y-115228697D01*
X272696009Y-114847744D02*
X272696009Y-114514411D01*
X273219819Y-114371554D02*
X273219819Y-114847744D01*
X273219819Y-114847744D02*
X272219819Y-114847744D01*
X272219819Y-114847744D02*
X272219819Y-114371554D01*
X273219819Y-113371554D02*
X272743628Y-113704887D01*
X273219819Y-113942982D02*
X272219819Y-113942982D01*
X272219819Y-113942982D02*
X272219819Y-113562030D01*
X272219819Y-113562030D02*
X272267438Y-113466792D01*
X272267438Y-113466792D02*
X272315057Y-113419173D01*
X272315057Y-113419173D02*
X272410295Y-113371554D01*
X272410295Y-113371554D02*
X272553152Y-113371554D01*
X272553152Y-113371554D02*
X272648390Y-113419173D01*
X272648390Y-113419173D02*
X272696009Y-113466792D01*
X272696009Y-113466792D02*
X272743628Y-113562030D01*
X272743628Y-113562030D02*
X272743628Y-113942982D01*
X270119819Y-128816792D02*
X269643628Y-129150125D01*
X270119819Y-129388220D02*
X269119819Y-129388220D01*
X269119819Y-129388220D02*
X269119819Y-129007268D01*
X269119819Y-129007268D02*
X269167438Y-128912030D01*
X269167438Y-128912030D02*
X269215057Y-128864411D01*
X269215057Y-128864411D02*
X269310295Y-128816792D01*
X269310295Y-128816792D02*
X269453152Y-128816792D01*
X269453152Y-128816792D02*
X269548390Y-128864411D01*
X269548390Y-128864411D02*
X269596009Y-128912030D01*
X269596009Y-128912030D02*
X269643628Y-129007268D01*
X269643628Y-129007268D02*
X269643628Y-129388220D01*
X269596009Y-128388220D02*
X269596009Y-128054887D01*
X270119819Y-127912030D02*
X270119819Y-128388220D01*
X270119819Y-128388220D02*
X269119819Y-128388220D01*
X269119819Y-128388220D02*
X269119819Y-127912030D01*
X270072200Y-127531077D02*
X270119819Y-127388220D01*
X270119819Y-127388220D02*
X270119819Y-127150125D01*
X270119819Y-127150125D02*
X270072200Y-127054887D01*
X270072200Y-127054887D02*
X270024580Y-127007268D01*
X270024580Y-127007268D02*
X269929342Y-126959649D01*
X269929342Y-126959649D02*
X269834104Y-126959649D01*
X269834104Y-126959649D02*
X269738866Y-127007268D01*
X269738866Y-127007268D02*
X269691247Y-127054887D01*
X269691247Y-127054887D02*
X269643628Y-127150125D01*
X269643628Y-127150125D02*
X269596009Y-127340601D01*
X269596009Y-127340601D02*
X269548390Y-127435839D01*
X269548390Y-127435839D02*
X269500771Y-127483458D01*
X269500771Y-127483458D02*
X269405533Y-127531077D01*
X269405533Y-127531077D02*
X269310295Y-127531077D01*
X269310295Y-127531077D02*
X269215057Y-127483458D01*
X269215057Y-127483458D02*
X269167438Y-127435839D01*
X269167438Y-127435839D02*
X269119819Y-127340601D01*
X269119819Y-127340601D02*
X269119819Y-127102506D01*
X269119819Y-127102506D02*
X269167438Y-126959649D01*
X269596009Y-126531077D02*
X269596009Y-126197744D01*
X270119819Y-126054887D02*
X270119819Y-126531077D01*
X270119819Y-126531077D02*
X269119819Y-126531077D01*
X269119819Y-126531077D02*
X269119819Y-126054887D01*
X269119819Y-125769172D02*
X269119819Y-125197744D01*
X270119819Y-125483458D02*
X269119819Y-125483458D01*
X266838095Y-143854819D02*
X266838095Y-142854819D01*
X266838095Y-143331009D02*
X267409523Y-143331009D01*
X267409523Y-143854819D02*
X267409523Y-142854819D01*
X267790476Y-142854819D02*
X268409523Y-142854819D01*
X268409523Y-142854819D02*
X268076190Y-143235771D01*
X268076190Y-143235771D02*
X268219047Y-143235771D01*
X268219047Y-143235771D02*
X268314285Y-143283390D01*
X268314285Y-143283390D02*
X268361904Y-143331009D01*
X268361904Y-143331009D02*
X268409523Y-143426247D01*
X268409523Y-143426247D02*
X268409523Y-143664342D01*
X268409523Y-143664342D02*
X268361904Y-143759580D01*
X268361904Y-143759580D02*
X268314285Y-143807200D01*
X268314285Y-143807200D02*
X268219047Y-143854819D01*
X268219047Y-143854819D02*
X267933333Y-143854819D01*
X267933333Y-143854819D02*
X267838095Y-143807200D01*
X267838095Y-143807200D02*
X267790476Y-143759580D01*
X167738095Y-84454819D02*
X167738095Y-83454819D01*
X167738095Y-83931009D02*
X168309523Y-83931009D01*
X168309523Y-84454819D02*
X168309523Y-83454819D01*
X168738095Y-83550057D02*
X168785714Y-83502438D01*
X168785714Y-83502438D02*
X168880952Y-83454819D01*
X168880952Y-83454819D02*
X169119047Y-83454819D01*
X169119047Y-83454819D02*
X169214285Y-83502438D01*
X169214285Y-83502438D02*
X169261904Y-83550057D01*
X169261904Y-83550057D02*
X169309523Y-83645295D01*
X169309523Y-83645295D02*
X169309523Y-83740533D01*
X169309523Y-83740533D02*
X169261904Y-83883390D01*
X169261904Y-83883390D02*
X168690476Y-84454819D01*
X168690476Y-84454819D02*
X169309523Y-84454819D01*
X185338095Y-151154819D02*
X185338095Y-150154819D01*
X185338095Y-150631009D02*
X185909523Y-150631009D01*
X185909523Y-151154819D02*
X185909523Y-150154819D01*
X186909523Y-151154819D02*
X186338095Y-151154819D01*
X186623809Y-151154819D02*
X186623809Y-150154819D01*
X186623809Y-150154819D02*
X186528571Y-150297676D01*
X186528571Y-150297676D02*
X186433333Y-150392914D01*
X186433333Y-150392914D02*
X186338095Y-150440533D01*
X232881905Y-133992200D02*
X233024762Y-134039819D01*
X233024762Y-134039819D02*
X233262857Y-134039819D01*
X233262857Y-134039819D02*
X233358095Y-133992200D01*
X233358095Y-133992200D02*
X233405714Y-133944580D01*
X233405714Y-133944580D02*
X233453333Y-133849342D01*
X233453333Y-133849342D02*
X233453333Y-133754104D01*
X233453333Y-133754104D02*
X233405714Y-133658866D01*
X233405714Y-133658866D02*
X233358095Y-133611247D01*
X233358095Y-133611247D02*
X233262857Y-133563628D01*
X233262857Y-133563628D02*
X233072381Y-133516009D01*
X233072381Y-133516009D02*
X232977143Y-133468390D01*
X232977143Y-133468390D02*
X232929524Y-133420771D01*
X232929524Y-133420771D02*
X232881905Y-133325533D01*
X232881905Y-133325533D02*
X232881905Y-133230295D01*
X232881905Y-133230295D02*
X232929524Y-133135057D01*
X232929524Y-133135057D02*
X232977143Y-133087438D01*
X232977143Y-133087438D02*
X233072381Y-133039819D01*
X233072381Y-133039819D02*
X233310476Y-133039819D01*
X233310476Y-133039819D02*
X233453333Y-133087438D01*
X233834286Y-133135057D02*
X233881905Y-133087438D01*
X233881905Y-133087438D02*
X233977143Y-133039819D01*
X233977143Y-133039819D02*
X234215238Y-133039819D01*
X234215238Y-133039819D02*
X234310476Y-133087438D01*
X234310476Y-133087438D02*
X234358095Y-133135057D01*
X234358095Y-133135057D02*
X234405714Y-133230295D01*
X234405714Y-133230295D02*
X234405714Y-133325533D01*
X234405714Y-133325533D02*
X234358095Y-133468390D01*
X234358095Y-133468390D02*
X233786667Y-134039819D01*
X233786667Y-134039819D02*
X234405714Y-134039819D01*
X235262857Y-133373152D02*
X235262857Y-134039819D01*
X235024762Y-132992200D02*
X234786667Y-133706485D01*
X234786667Y-133706485D02*
X235405714Y-133706485D01*
X178881905Y-95992200D02*
X179024762Y-96039819D01*
X179024762Y-96039819D02*
X179262857Y-96039819D01*
X179262857Y-96039819D02*
X179358095Y-95992200D01*
X179358095Y-95992200D02*
X179405714Y-95944580D01*
X179405714Y-95944580D02*
X179453333Y-95849342D01*
X179453333Y-95849342D02*
X179453333Y-95754104D01*
X179453333Y-95754104D02*
X179405714Y-95658866D01*
X179405714Y-95658866D02*
X179358095Y-95611247D01*
X179358095Y-95611247D02*
X179262857Y-95563628D01*
X179262857Y-95563628D02*
X179072381Y-95516009D01*
X179072381Y-95516009D02*
X178977143Y-95468390D01*
X178977143Y-95468390D02*
X178929524Y-95420771D01*
X178929524Y-95420771D02*
X178881905Y-95325533D01*
X178881905Y-95325533D02*
X178881905Y-95230295D01*
X178881905Y-95230295D02*
X178929524Y-95135057D01*
X178929524Y-95135057D02*
X178977143Y-95087438D01*
X178977143Y-95087438D02*
X179072381Y-95039819D01*
X179072381Y-95039819D02*
X179310476Y-95039819D01*
X179310476Y-95039819D02*
X179453333Y-95087438D01*
X180405714Y-96039819D02*
X179834286Y-96039819D01*
X180120000Y-96039819D02*
X180120000Y-95039819D01*
X180120000Y-95039819D02*
X180024762Y-95182676D01*
X180024762Y-95182676D02*
X179929524Y-95277914D01*
X179929524Y-95277914D02*
X179834286Y-95325533D01*
X181024762Y-95039819D02*
X181120000Y-95039819D01*
X181120000Y-95039819D02*
X181215238Y-95087438D01*
X181215238Y-95087438D02*
X181262857Y-95135057D01*
X181262857Y-95135057D02*
X181310476Y-95230295D01*
X181310476Y-95230295D02*
X181358095Y-95420771D01*
X181358095Y-95420771D02*
X181358095Y-95658866D01*
X181358095Y-95658866D02*
X181310476Y-95849342D01*
X181310476Y-95849342D02*
X181262857Y-95944580D01*
X181262857Y-95944580D02*
X181215238Y-95992200D01*
X181215238Y-95992200D02*
X181120000Y-96039819D01*
X181120000Y-96039819D02*
X181024762Y-96039819D01*
X181024762Y-96039819D02*
X180929524Y-95992200D01*
X180929524Y-95992200D02*
X180881905Y-95944580D01*
X180881905Y-95944580D02*
X180834286Y-95849342D01*
X180834286Y-95849342D02*
X180786667Y-95658866D01*
X180786667Y-95658866D02*
X180786667Y-95420771D01*
X180786667Y-95420771D02*
X180834286Y-95230295D01*
X180834286Y-95230295D02*
X180881905Y-95135057D01*
X180881905Y-95135057D02*
X180929524Y-95087438D01*
X180929524Y-95087438D02*
X181024762Y-95039819D01*
X161358095Y-90992200D02*
X161500952Y-91039819D01*
X161500952Y-91039819D02*
X161739047Y-91039819D01*
X161739047Y-91039819D02*
X161834285Y-90992200D01*
X161834285Y-90992200D02*
X161881904Y-90944580D01*
X161881904Y-90944580D02*
X161929523Y-90849342D01*
X161929523Y-90849342D02*
X161929523Y-90754104D01*
X161929523Y-90754104D02*
X161881904Y-90658866D01*
X161881904Y-90658866D02*
X161834285Y-90611247D01*
X161834285Y-90611247D02*
X161739047Y-90563628D01*
X161739047Y-90563628D02*
X161548571Y-90516009D01*
X161548571Y-90516009D02*
X161453333Y-90468390D01*
X161453333Y-90468390D02*
X161405714Y-90420771D01*
X161405714Y-90420771D02*
X161358095Y-90325533D01*
X161358095Y-90325533D02*
X161358095Y-90230295D01*
X161358095Y-90230295D02*
X161405714Y-90135057D01*
X161405714Y-90135057D02*
X161453333Y-90087438D01*
X161453333Y-90087438D02*
X161548571Y-90039819D01*
X161548571Y-90039819D02*
X161786666Y-90039819D01*
X161786666Y-90039819D02*
X161929523Y-90087438D01*
X162834285Y-90039819D02*
X162358095Y-90039819D01*
X162358095Y-90039819D02*
X162310476Y-90516009D01*
X162310476Y-90516009D02*
X162358095Y-90468390D01*
X162358095Y-90468390D02*
X162453333Y-90420771D01*
X162453333Y-90420771D02*
X162691428Y-90420771D01*
X162691428Y-90420771D02*
X162786666Y-90468390D01*
X162786666Y-90468390D02*
X162834285Y-90516009D01*
X162834285Y-90516009D02*
X162881904Y-90611247D01*
X162881904Y-90611247D02*
X162881904Y-90849342D01*
X162881904Y-90849342D02*
X162834285Y-90944580D01*
X162834285Y-90944580D02*
X162786666Y-90992200D01*
X162786666Y-90992200D02*
X162691428Y-91039819D01*
X162691428Y-91039819D02*
X162453333Y-91039819D01*
X162453333Y-91039819D02*
X162358095Y-90992200D01*
X162358095Y-90992200D02*
X162310476Y-90944580D01*
X261881905Y-152992200D02*
X262024762Y-153039819D01*
X262024762Y-153039819D02*
X262262857Y-153039819D01*
X262262857Y-153039819D02*
X262358095Y-152992200D01*
X262358095Y-152992200D02*
X262405714Y-152944580D01*
X262405714Y-152944580D02*
X262453333Y-152849342D01*
X262453333Y-152849342D02*
X262453333Y-152754104D01*
X262453333Y-152754104D02*
X262405714Y-152658866D01*
X262405714Y-152658866D02*
X262358095Y-152611247D01*
X262358095Y-152611247D02*
X262262857Y-152563628D01*
X262262857Y-152563628D02*
X262072381Y-152516009D01*
X262072381Y-152516009D02*
X261977143Y-152468390D01*
X261977143Y-152468390D02*
X261929524Y-152420771D01*
X261929524Y-152420771D02*
X261881905Y-152325533D01*
X261881905Y-152325533D02*
X261881905Y-152230295D01*
X261881905Y-152230295D02*
X261929524Y-152135057D01*
X261929524Y-152135057D02*
X261977143Y-152087438D01*
X261977143Y-152087438D02*
X262072381Y-152039819D01*
X262072381Y-152039819D02*
X262310476Y-152039819D01*
X262310476Y-152039819D02*
X262453333Y-152087438D01*
X262834286Y-152135057D02*
X262881905Y-152087438D01*
X262881905Y-152087438D02*
X262977143Y-152039819D01*
X262977143Y-152039819D02*
X263215238Y-152039819D01*
X263215238Y-152039819D02*
X263310476Y-152087438D01*
X263310476Y-152087438D02*
X263358095Y-152135057D01*
X263358095Y-152135057D02*
X263405714Y-152230295D01*
X263405714Y-152230295D02*
X263405714Y-152325533D01*
X263405714Y-152325533D02*
X263358095Y-152468390D01*
X263358095Y-152468390D02*
X262786667Y-153039819D01*
X262786667Y-153039819D02*
X263405714Y-153039819D01*
X263881905Y-153039819D02*
X264072381Y-153039819D01*
X264072381Y-153039819D02*
X264167619Y-152992200D01*
X264167619Y-152992200D02*
X264215238Y-152944580D01*
X264215238Y-152944580D02*
X264310476Y-152801723D01*
X264310476Y-152801723D02*
X264358095Y-152611247D01*
X264358095Y-152611247D02*
X264358095Y-152230295D01*
X264358095Y-152230295D02*
X264310476Y-152135057D01*
X264310476Y-152135057D02*
X264262857Y-152087438D01*
X264262857Y-152087438D02*
X264167619Y-152039819D01*
X264167619Y-152039819D02*
X263977143Y-152039819D01*
X263977143Y-152039819D02*
X263881905Y-152087438D01*
X263881905Y-152087438D02*
X263834286Y-152135057D01*
X263834286Y-152135057D02*
X263786667Y-152230295D01*
X263786667Y-152230295D02*
X263786667Y-152468390D01*
X263786667Y-152468390D02*
X263834286Y-152563628D01*
X263834286Y-152563628D02*
X263881905Y-152611247D01*
X263881905Y-152611247D02*
X263977143Y-152658866D01*
X263977143Y-152658866D02*
X264167619Y-152658866D01*
X264167619Y-152658866D02*
X264262857Y-152611247D01*
X264262857Y-152611247D02*
X264310476Y-152563628D01*
X264310476Y-152563628D02*
X264358095Y-152468390D01*
X143358095Y-107992200D02*
X143500952Y-108039819D01*
X143500952Y-108039819D02*
X143739047Y-108039819D01*
X143739047Y-108039819D02*
X143834285Y-107992200D01*
X143834285Y-107992200D02*
X143881904Y-107944580D01*
X143881904Y-107944580D02*
X143929523Y-107849342D01*
X143929523Y-107849342D02*
X143929523Y-107754104D01*
X143929523Y-107754104D02*
X143881904Y-107658866D01*
X143881904Y-107658866D02*
X143834285Y-107611247D01*
X143834285Y-107611247D02*
X143739047Y-107563628D01*
X143739047Y-107563628D02*
X143548571Y-107516009D01*
X143548571Y-107516009D02*
X143453333Y-107468390D01*
X143453333Y-107468390D02*
X143405714Y-107420771D01*
X143405714Y-107420771D02*
X143358095Y-107325533D01*
X143358095Y-107325533D02*
X143358095Y-107230295D01*
X143358095Y-107230295D02*
X143405714Y-107135057D01*
X143405714Y-107135057D02*
X143453333Y-107087438D01*
X143453333Y-107087438D02*
X143548571Y-107039819D01*
X143548571Y-107039819D02*
X143786666Y-107039819D01*
X143786666Y-107039819D02*
X143929523Y-107087438D01*
X144310476Y-107135057D02*
X144358095Y-107087438D01*
X144358095Y-107087438D02*
X144453333Y-107039819D01*
X144453333Y-107039819D02*
X144691428Y-107039819D01*
X144691428Y-107039819D02*
X144786666Y-107087438D01*
X144786666Y-107087438D02*
X144834285Y-107135057D01*
X144834285Y-107135057D02*
X144881904Y-107230295D01*
X144881904Y-107230295D02*
X144881904Y-107325533D01*
X144881904Y-107325533D02*
X144834285Y-107468390D01*
X144834285Y-107468390D02*
X144262857Y-108039819D01*
X144262857Y-108039819D02*
X144881904Y-108039819D01*
X143358095Y-124992200D02*
X143500952Y-125039819D01*
X143500952Y-125039819D02*
X143739047Y-125039819D01*
X143739047Y-125039819D02*
X143834285Y-124992200D01*
X143834285Y-124992200D02*
X143881904Y-124944580D01*
X143881904Y-124944580D02*
X143929523Y-124849342D01*
X143929523Y-124849342D02*
X143929523Y-124754104D01*
X143929523Y-124754104D02*
X143881904Y-124658866D01*
X143881904Y-124658866D02*
X143834285Y-124611247D01*
X143834285Y-124611247D02*
X143739047Y-124563628D01*
X143739047Y-124563628D02*
X143548571Y-124516009D01*
X143548571Y-124516009D02*
X143453333Y-124468390D01*
X143453333Y-124468390D02*
X143405714Y-124420771D01*
X143405714Y-124420771D02*
X143358095Y-124325533D01*
X143358095Y-124325533D02*
X143358095Y-124230295D01*
X143358095Y-124230295D02*
X143405714Y-124135057D01*
X143405714Y-124135057D02*
X143453333Y-124087438D01*
X143453333Y-124087438D02*
X143548571Y-124039819D01*
X143548571Y-124039819D02*
X143786666Y-124039819D01*
X143786666Y-124039819D02*
X143929523Y-124087438D01*
X144262857Y-124039819D02*
X144881904Y-124039819D01*
X144881904Y-124039819D02*
X144548571Y-124420771D01*
X144548571Y-124420771D02*
X144691428Y-124420771D01*
X144691428Y-124420771D02*
X144786666Y-124468390D01*
X144786666Y-124468390D02*
X144834285Y-124516009D01*
X144834285Y-124516009D02*
X144881904Y-124611247D01*
X144881904Y-124611247D02*
X144881904Y-124849342D01*
X144881904Y-124849342D02*
X144834285Y-124944580D01*
X144834285Y-124944580D02*
X144786666Y-124992200D01*
X144786666Y-124992200D02*
X144691428Y-125039819D01*
X144691428Y-125039819D02*
X144405714Y-125039819D01*
X144405714Y-125039819D02*
X144310476Y-124992200D01*
X144310476Y-124992200D02*
X144262857Y-124944580D01*
X196881905Y-108992200D02*
X197024762Y-109039819D01*
X197024762Y-109039819D02*
X197262857Y-109039819D01*
X197262857Y-109039819D02*
X197358095Y-108992200D01*
X197358095Y-108992200D02*
X197405714Y-108944580D01*
X197405714Y-108944580D02*
X197453333Y-108849342D01*
X197453333Y-108849342D02*
X197453333Y-108754104D01*
X197453333Y-108754104D02*
X197405714Y-108658866D01*
X197405714Y-108658866D02*
X197358095Y-108611247D01*
X197358095Y-108611247D02*
X197262857Y-108563628D01*
X197262857Y-108563628D02*
X197072381Y-108516009D01*
X197072381Y-108516009D02*
X196977143Y-108468390D01*
X196977143Y-108468390D02*
X196929524Y-108420771D01*
X196929524Y-108420771D02*
X196881905Y-108325533D01*
X196881905Y-108325533D02*
X196881905Y-108230295D01*
X196881905Y-108230295D02*
X196929524Y-108135057D01*
X196929524Y-108135057D02*
X196977143Y-108087438D01*
X196977143Y-108087438D02*
X197072381Y-108039819D01*
X197072381Y-108039819D02*
X197310476Y-108039819D01*
X197310476Y-108039819D02*
X197453333Y-108087438D01*
X198405714Y-109039819D02*
X197834286Y-109039819D01*
X198120000Y-109039819D02*
X198120000Y-108039819D01*
X198120000Y-108039819D02*
X198024762Y-108182676D01*
X198024762Y-108182676D02*
X197929524Y-108277914D01*
X197929524Y-108277914D02*
X197834286Y-108325533D01*
X199310476Y-108039819D02*
X198834286Y-108039819D01*
X198834286Y-108039819D02*
X198786667Y-108516009D01*
X198786667Y-108516009D02*
X198834286Y-108468390D01*
X198834286Y-108468390D02*
X198929524Y-108420771D01*
X198929524Y-108420771D02*
X199167619Y-108420771D01*
X199167619Y-108420771D02*
X199262857Y-108468390D01*
X199262857Y-108468390D02*
X199310476Y-108516009D01*
X199310476Y-108516009D02*
X199358095Y-108611247D01*
X199358095Y-108611247D02*
X199358095Y-108849342D01*
X199358095Y-108849342D02*
X199310476Y-108944580D01*
X199310476Y-108944580D02*
X199262857Y-108992200D01*
X199262857Y-108992200D02*
X199167619Y-109039819D01*
X199167619Y-109039819D02*
X198929524Y-109039819D01*
X198929524Y-109039819D02*
X198834286Y-108992200D01*
X198834286Y-108992200D02*
X198786667Y-108944580D01*
X242426666Y-94754819D02*
X242426666Y-95469104D01*
X242426666Y-95469104D02*
X242379047Y-95611961D01*
X242379047Y-95611961D02*
X242283809Y-95707200D01*
X242283809Y-95707200D02*
X242140952Y-95754819D01*
X242140952Y-95754819D02*
X242045714Y-95754819D01*
X242807619Y-94754819D02*
X243426666Y-94754819D01*
X243426666Y-94754819D02*
X243093333Y-95135771D01*
X243093333Y-95135771D02*
X243236190Y-95135771D01*
X243236190Y-95135771D02*
X243331428Y-95183390D01*
X243331428Y-95183390D02*
X243379047Y-95231009D01*
X243379047Y-95231009D02*
X243426666Y-95326247D01*
X243426666Y-95326247D02*
X243426666Y-95564342D01*
X243426666Y-95564342D02*
X243379047Y-95659580D01*
X243379047Y-95659580D02*
X243331428Y-95707200D01*
X243331428Y-95707200D02*
X243236190Y-95754819D01*
X243236190Y-95754819D02*
X242950476Y-95754819D01*
X242950476Y-95754819D02*
X242855238Y-95707200D01*
X242855238Y-95707200D02*
X242807619Y-95659580D01*
X196881905Y-125992200D02*
X197024762Y-126039819D01*
X197024762Y-126039819D02*
X197262857Y-126039819D01*
X197262857Y-126039819D02*
X197358095Y-125992200D01*
X197358095Y-125992200D02*
X197405714Y-125944580D01*
X197405714Y-125944580D02*
X197453333Y-125849342D01*
X197453333Y-125849342D02*
X197453333Y-125754104D01*
X197453333Y-125754104D02*
X197405714Y-125658866D01*
X197405714Y-125658866D02*
X197358095Y-125611247D01*
X197358095Y-125611247D02*
X197262857Y-125563628D01*
X197262857Y-125563628D02*
X197072381Y-125516009D01*
X197072381Y-125516009D02*
X196977143Y-125468390D01*
X196977143Y-125468390D02*
X196929524Y-125420771D01*
X196929524Y-125420771D02*
X196881905Y-125325533D01*
X196881905Y-125325533D02*
X196881905Y-125230295D01*
X196881905Y-125230295D02*
X196929524Y-125135057D01*
X196929524Y-125135057D02*
X196977143Y-125087438D01*
X196977143Y-125087438D02*
X197072381Y-125039819D01*
X197072381Y-125039819D02*
X197310476Y-125039819D01*
X197310476Y-125039819D02*
X197453333Y-125087438D01*
X198405714Y-126039819D02*
X197834286Y-126039819D01*
X198120000Y-126039819D02*
X198120000Y-125039819D01*
X198120000Y-125039819D02*
X198024762Y-125182676D01*
X198024762Y-125182676D02*
X197929524Y-125277914D01*
X197929524Y-125277914D02*
X197834286Y-125325533D01*
X199262857Y-125039819D02*
X199072381Y-125039819D01*
X199072381Y-125039819D02*
X198977143Y-125087438D01*
X198977143Y-125087438D02*
X198929524Y-125135057D01*
X198929524Y-125135057D02*
X198834286Y-125277914D01*
X198834286Y-125277914D02*
X198786667Y-125468390D01*
X198786667Y-125468390D02*
X198786667Y-125849342D01*
X198786667Y-125849342D02*
X198834286Y-125944580D01*
X198834286Y-125944580D02*
X198881905Y-125992200D01*
X198881905Y-125992200D02*
X198977143Y-126039819D01*
X198977143Y-126039819D02*
X199167619Y-126039819D01*
X199167619Y-126039819D02*
X199262857Y-125992200D01*
X199262857Y-125992200D02*
X199310476Y-125944580D01*
X199310476Y-125944580D02*
X199358095Y-125849342D01*
X199358095Y-125849342D02*
X199358095Y-125611247D01*
X199358095Y-125611247D02*
X199310476Y-125516009D01*
X199310476Y-125516009D02*
X199262857Y-125468390D01*
X199262857Y-125468390D02*
X199167619Y-125420771D01*
X199167619Y-125420771D02*
X198977143Y-125420771D01*
X198977143Y-125420771D02*
X198881905Y-125468390D01*
X198881905Y-125468390D02*
X198834286Y-125516009D01*
X198834286Y-125516009D02*
X198786667Y-125611247D01*
X161358095Y-107992200D02*
X161500952Y-108039819D01*
X161500952Y-108039819D02*
X161739047Y-108039819D01*
X161739047Y-108039819D02*
X161834285Y-107992200D01*
X161834285Y-107992200D02*
X161881904Y-107944580D01*
X161881904Y-107944580D02*
X161929523Y-107849342D01*
X161929523Y-107849342D02*
X161929523Y-107754104D01*
X161929523Y-107754104D02*
X161881904Y-107658866D01*
X161881904Y-107658866D02*
X161834285Y-107611247D01*
X161834285Y-107611247D02*
X161739047Y-107563628D01*
X161739047Y-107563628D02*
X161548571Y-107516009D01*
X161548571Y-107516009D02*
X161453333Y-107468390D01*
X161453333Y-107468390D02*
X161405714Y-107420771D01*
X161405714Y-107420771D02*
X161358095Y-107325533D01*
X161358095Y-107325533D02*
X161358095Y-107230295D01*
X161358095Y-107230295D02*
X161405714Y-107135057D01*
X161405714Y-107135057D02*
X161453333Y-107087438D01*
X161453333Y-107087438D02*
X161548571Y-107039819D01*
X161548571Y-107039819D02*
X161786666Y-107039819D01*
X161786666Y-107039819D02*
X161929523Y-107087438D01*
X162786666Y-107039819D02*
X162596190Y-107039819D01*
X162596190Y-107039819D02*
X162500952Y-107087438D01*
X162500952Y-107087438D02*
X162453333Y-107135057D01*
X162453333Y-107135057D02*
X162358095Y-107277914D01*
X162358095Y-107277914D02*
X162310476Y-107468390D01*
X162310476Y-107468390D02*
X162310476Y-107849342D01*
X162310476Y-107849342D02*
X162358095Y-107944580D01*
X162358095Y-107944580D02*
X162405714Y-107992200D01*
X162405714Y-107992200D02*
X162500952Y-108039819D01*
X162500952Y-108039819D02*
X162691428Y-108039819D01*
X162691428Y-108039819D02*
X162786666Y-107992200D01*
X162786666Y-107992200D02*
X162834285Y-107944580D01*
X162834285Y-107944580D02*
X162881904Y-107849342D01*
X162881904Y-107849342D02*
X162881904Y-107611247D01*
X162881904Y-107611247D02*
X162834285Y-107516009D01*
X162834285Y-107516009D02*
X162786666Y-107468390D01*
X162786666Y-107468390D02*
X162691428Y-107420771D01*
X162691428Y-107420771D02*
X162500952Y-107420771D01*
X162500952Y-107420771D02*
X162405714Y-107468390D01*
X162405714Y-107468390D02*
X162358095Y-107516009D01*
X162358095Y-107516009D02*
X162310476Y-107611247D01*
X214881905Y-130992200D02*
X215024762Y-131039819D01*
X215024762Y-131039819D02*
X215262857Y-131039819D01*
X215262857Y-131039819D02*
X215358095Y-130992200D01*
X215358095Y-130992200D02*
X215405714Y-130944580D01*
X215405714Y-130944580D02*
X215453333Y-130849342D01*
X215453333Y-130849342D02*
X215453333Y-130754104D01*
X215453333Y-130754104D02*
X215405714Y-130658866D01*
X215405714Y-130658866D02*
X215358095Y-130611247D01*
X215358095Y-130611247D02*
X215262857Y-130563628D01*
X215262857Y-130563628D02*
X215072381Y-130516009D01*
X215072381Y-130516009D02*
X214977143Y-130468390D01*
X214977143Y-130468390D02*
X214929524Y-130420771D01*
X214929524Y-130420771D02*
X214881905Y-130325533D01*
X214881905Y-130325533D02*
X214881905Y-130230295D01*
X214881905Y-130230295D02*
X214929524Y-130135057D01*
X214929524Y-130135057D02*
X214977143Y-130087438D01*
X214977143Y-130087438D02*
X215072381Y-130039819D01*
X215072381Y-130039819D02*
X215310476Y-130039819D01*
X215310476Y-130039819D02*
X215453333Y-130087438D01*
X215834286Y-130135057D02*
X215881905Y-130087438D01*
X215881905Y-130087438D02*
X215977143Y-130039819D01*
X215977143Y-130039819D02*
X216215238Y-130039819D01*
X216215238Y-130039819D02*
X216310476Y-130087438D01*
X216310476Y-130087438D02*
X216358095Y-130135057D01*
X216358095Y-130135057D02*
X216405714Y-130230295D01*
X216405714Y-130230295D02*
X216405714Y-130325533D01*
X216405714Y-130325533D02*
X216358095Y-130468390D01*
X216358095Y-130468390D02*
X215786667Y-131039819D01*
X215786667Y-131039819D02*
X216405714Y-131039819D01*
X217024762Y-130039819D02*
X217120000Y-130039819D01*
X217120000Y-130039819D02*
X217215238Y-130087438D01*
X217215238Y-130087438D02*
X217262857Y-130135057D01*
X217262857Y-130135057D02*
X217310476Y-130230295D01*
X217310476Y-130230295D02*
X217358095Y-130420771D01*
X217358095Y-130420771D02*
X217358095Y-130658866D01*
X217358095Y-130658866D02*
X217310476Y-130849342D01*
X217310476Y-130849342D02*
X217262857Y-130944580D01*
X217262857Y-130944580D02*
X217215238Y-130992200D01*
X217215238Y-130992200D02*
X217120000Y-131039819D01*
X217120000Y-131039819D02*
X217024762Y-131039819D01*
X217024762Y-131039819D02*
X216929524Y-130992200D01*
X216929524Y-130992200D02*
X216881905Y-130944580D01*
X216881905Y-130944580D02*
X216834286Y-130849342D01*
X216834286Y-130849342D02*
X216786667Y-130658866D01*
X216786667Y-130658866D02*
X216786667Y-130420771D01*
X216786667Y-130420771D02*
X216834286Y-130230295D01*
X216834286Y-130230295D02*
X216881905Y-130135057D01*
X216881905Y-130135057D02*
X216929524Y-130087438D01*
X216929524Y-130087438D02*
X217024762Y-130039819D01*
X207881905Y-152992200D02*
X208024762Y-153039819D01*
X208024762Y-153039819D02*
X208262857Y-153039819D01*
X208262857Y-153039819D02*
X208358095Y-152992200D01*
X208358095Y-152992200D02*
X208405714Y-152944580D01*
X208405714Y-152944580D02*
X208453333Y-152849342D01*
X208453333Y-152849342D02*
X208453333Y-152754104D01*
X208453333Y-152754104D02*
X208405714Y-152658866D01*
X208405714Y-152658866D02*
X208358095Y-152611247D01*
X208358095Y-152611247D02*
X208262857Y-152563628D01*
X208262857Y-152563628D02*
X208072381Y-152516009D01*
X208072381Y-152516009D02*
X207977143Y-152468390D01*
X207977143Y-152468390D02*
X207929524Y-152420771D01*
X207929524Y-152420771D02*
X207881905Y-152325533D01*
X207881905Y-152325533D02*
X207881905Y-152230295D01*
X207881905Y-152230295D02*
X207929524Y-152135057D01*
X207929524Y-152135057D02*
X207977143Y-152087438D01*
X207977143Y-152087438D02*
X208072381Y-152039819D01*
X208072381Y-152039819D02*
X208310476Y-152039819D01*
X208310476Y-152039819D02*
X208453333Y-152087438D01*
X208834286Y-152135057D02*
X208881905Y-152087438D01*
X208881905Y-152087438D02*
X208977143Y-152039819D01*
X208977143Y-152039819D02*
X209215238Y-152039819D01*
X209215238Y-152039819D02*
X209310476Y-152087438D01*
X209310476Y-152087438D02*
X209358095Y-152135057D01*
X209358095Y-152135057D02*
X209405714Y-152230295D01*
X209405714Y-152230295D02*
X209405714Y-152325533D01*
X209405714Y-152325533D02*
X209358095Y-152468390D01*
X209358095Y-152468390D02*
X208786667Y-153039819D01*
X208786667Y-153039819D02*
X209405714Y-153039819D01*
X210310476Y-152039819D02*
X209834286Y-152039819D01*
X209834286Y-152039819D02*
X209786667Y-152516009D01*
X209786667Y-152516009D02*
X209834286Y-152468390D01*
X209834286Y-152468390D02*
X209929524Y-152420771D01*
X209929524Y-152420771D02*
X210167619Y-152420771D01*
X210167619Y-152420771D02*
X210262857Y-152468390D01*
X210262857Y-152468390D02*
X210310476Y-152516009D01*
X210310476Y-152516009D02*
X210358095Y-152611247D01*
X210358095Y-152611247D02*
X210358095Y-152849342D01*
X210358095Y-152849342D02*
X210310476Y-152944580D01*
X210310476Y-152944580D02*
X210262857Y-152992200D01*
X210262857Y-152992200D02*
X210167619Y-153039819D01*
X210167619Y-153039819D02*
X209929524Y-153039819D01*
X209929524Y-153039819D02*
X209834286Y-152992200D01*
X209834286Y-152992200D02*
X209786667Y-152944580D01*
X214881905Y-113992200D02*
X215024762Y-114039819D01*
X215024762Y-114039819D02*
X215262857Y-114039819D01*
X215262857Y-114039819D02*
X215358095Y-113992200D01*
X215358095Y-113992200D02*
X215405714Y-113944580D01*
X215405714Y-113944580D02*
X215453333Y-113849342D01*
X215453333Y-113849342D02*
X215453333Y-113754104D01*
X215453333Y-113754104D02*
X215405714Y-113658866D01*
X215405714Y-113658866D02*
X215358095Y-113611247D01*
X215358095Y-113611247D02*
X215262857Y-113563628D01*
X215262857Y-113563628D02*
X215072381Y-113516009D01*
X215072381Y-113516009D02*
X214977143Y-113468390D01*
X214977143Y-113468390D02*
X214929524Y-113420771D01*
X214929524Y-113420771D02*
X214881905Y-113325533D01*
X214881905Y-113325533D02*
X214881905Y-113230295D01*
X214881905Y-113230295D02*
X214929524Y-113135057D01*
X214929524Y-113135057D02*
X214977143Y-113087438D01*
X214977143Y-113087438D02*
X215072381Y-113039819D01*
X215072381Y-113039819D02*
X215310476Y-113039819D01*
X215310476Y-113039819D02*
X215453333Y-113087438D01*
X216405714Y-114039819D02*
X215834286Y-114039819D01*
X216120000Y-114039819D02*
X216120000Y-113039819D01*
X216120000Y-113039819D02*
X216024762Y-113182676D01*
X216024762Y-113182676D02*
X215929524Y-113277914D01*
X215929524Y-113277914D02*
X215834286Y-113325533D01*
X216881905Y-114039819D02*
X217072381Y-114039819D01*
X217072381Y-114039819D02*
X217167619Y-113992200D01*
X217167619Y-113992200D02*
X217215238Y-113944580D01*
X217215238Y-113944580D02*
X217310476Y-113801723D01*
X217310476Y-113801723D02*
X217358095Y-113611247D01*
X217358095Y-113611247D02*
X217358095Y-113230295D01*
X217358095Y-113230295D02*
X217310476Y-113135057D01*
X217310476Y-113135057D02*
X217262857Y-113087438D01*
X217262857Y-113087438D02*
X217167619Y-113039819D01*
X217167619Y-113039819D02*
X216977143Y-113039819D01*
X216977143Y-113039819D02*
X216881905Y-113087438D01*
X216881905Y-113087438D02*
X216834286Y-113135057D01*
X216834286Y-113135057D02*
X216786667Y-113230295D01*
X216786667Y-113230295D02*
X216786667Y-113468390D01*
X216786667Y-113468390D02*
X216834286Y-113563628D01*
X216834286Y-113563628D02*
X216881905Y-113611247D01*
X216881905Y-113611247D02*
X216977143Y-113658866D01*
X216977143Y-113658866D02*
X217167619Y-113658866D01*
X217167619Y-113658866D02*
X217262857Y-113611247D01*
X217262857Y-113611247D02*
X217310476Y-113563628D01*
X217310476Y-113563628D02*
X217358095Y-113468390D01*
X225881905Y-152992200D02*
X226024762Y-153039819D01*
X226024762Y-153039819D02*
X226262857Y-153039819D01*
X226262857Y-153039819D02*
X226358095Y-152992200D01*
X226358095Y-152992200D02*
X226405714Y-152944580D01*
X226405714Y-152944580D02*
X226453333Y-152849342D01*
X226453333Y-152849342D02*
X226453333Y-152754104D01*
X226453333Y-152754104D02*
X226405714Y-152658866D01*
X226405714Y-152658866D02*
X226358095Y-152611247D01*
X226358095Y-152611247D02*
X226262857Y-152563628D01*
X226262857Y-152563628D02*
X226072381Y-152516009D01*
X226072381Y-152516009D02*
X225977143Y-152468390D01*
X225977143Y-152468390D02*
X225929524Y-152420771D01*
X225929524Y-152420771D02*
X225881905Y-152325533D01*
X225881905Y-152325533D02*
X225881905Y-152230295D01*
X225881905Y-152230295D02*
X225929524Y-152135057D01*
X225929524Y-152135057D02*
X225977143Y-152087438D01*
X225977143Y-152087438D02*
X226072381Y-152039819D01*
X226072381Y-152039819D02*
X226310476Y-152039819D01*
X226310476Y-152039819D02*
X226453333Y-152087438D01*
X226834286Y-152135057D02*
X226881905Y-152087438D01*
X226881905Y-152087438D02*
X226977143Y-152039819D01*
X226977143Y-152039819D02*
X227215238Y-152039819D01*
X227215238Y-152039819D02*
X227310476Y-152087438D01*
X227310476Y-152087438D02*
X227358095Y-152135057D01*
X227358095Y-152135057D02*
X227405714Y-152230295D01*
X227405714Y-152230295D02*
X227405714Y-152325533D01*
X227405714Y-152325533D02*
X227358095Y-152468390D01*
X227358095Y-152468390D02*
X226786667Y-153039819D01*
X226786667Y-153039819D02*
X227405714Y-153039819D01*
X228262857Y-152039819D02*
X228072381Y-152039819D01*
X228072381Y-152039819D02*
X227977143Y-152087438D01*
X227977143Y-152087438D02*
X227929524Y-152135057D01*
X227929524Y-152135057D02*
X227834286Y-152277914D01*
X227834286Y-152277914D02*
X227786667Y-152468390D01*
X227786667Y-152468390D02*
X227786667Y-152849342D01*
X227786667Y-152849342D02*
X227834286Y-152944580D01*
X227834286Y-152944580D02*
X227881905Y-152992200D01*
X227881905Y-152992200D02*
X227977143Y-153039819D01*
X227977143Y-153039819D02*
X228167619Y-153039819D01*
X228167619Y-153039819D02*
X228262857Y-152992200D01*
X228262857Y-152992200D02*
X228310476Y-152944580D01*
X228310476Y-152944580D02*
X228358095Y-152849342D01*
X228358095Y-152849342D02*
X228358095Y-152611247D01*
X228358095Y-152611247D02*
X228310476Y-152516009D01*
X228310476Y-152516009D02*
X228262857Y-152468390D01*
X228262857Y-152468390D02*
X228167619Y-152420771D01*
X228167619Y-152420771D02*
X227977143Y-152420771D01*
X227977143Y-152420771D02*
X227881905Y-152468390D01*
X227881905Y-152468390D02*
X227834286Y-152516009D01*
X227834286Y-152516009D02*
X227786667Y-152611247D01*
X243881905Y-152992200D02*
X244024762Y-153039819D01*
X244024762Y-153039819D02*
X244262857Y-153039819D01*
X244262857Y-153039819D02*
X244358095Y-152992200D01*
X244358095Y-152992200D02*
X244405714Y-152944580D01*
X244405714Y-152944580D02*
X244453333Y-152849342D01*
X244453333Y-152849342D02*
X244453333Y-152754104D01*
X244453333Y-152754104D02*
X244405714Y-152658866D01*
X244405714Y-152658866D02*
X244358095Y-152611247D01*
X244358095Y-152611247D02*
X244262857Y-152563628D01*
X244262857Y-152563628D02*
X244072381Y-152516009D01*
X244072381Y-152516009D02*
X243977143Y-152468390D01*
X243977143Y-152468390D02*
X243929524Y-152420771D01*
X243929524Y-152420771D02*
X243881905Y-152325533D01*
X243881905Y-152325533D02*
X243881905Y-152230295D01*
X243881905Y-152230295D02*
X243929524Y-152135057D01*
X243929524Y-152135057D02*
X243977143Y-152087438D01*
X243977143Y-152087438D02*
X244072381Y-152039819D01*
X244072381Y-152039819D02*
X244310476Y-152039819D01*
X244310476Y-152039819D02*
X244453333Y-152087438D01*
X244834286Y-152135057D02*
X244881905Y-152087438D01*
X244881905Y-152087438D02*
X244977143Y-152039819D01*
X244977143Y-152039819D02*
X245215238Y-152039819D01*
X245215238Y-152039819D02*
X245310476Y-152087438D01*
X245310476Y-152087438D02*
X245358095Y-152135057D01*
X245358095Y-152135057D02*
X245405714Y-152230295D01*
X245405714Y-152230295D02*
X245405714Y-152325533D01*
X245405714Y-152325533D02*
X245358095Y-152468390D01*
X245358095Y-152468390D02*
X244786667Y-153039819D01*
X244786667Y-153039819D02*
X245405714Y-153039819D01*
X245739048Y-152039819D02*
X246405714Y-152039819D01*
X246405714Y-152039819D02*
X245977143Y-153039819D01*
X214881905Y-79992200D02*
X215024762Y-80039819D01*
X215024762Y-80039819D02*
X215262857Y-80039819D01*
X215262857Y-80039819D02*
X215358095Y-79992200D01*
X215358095Y-79992200D02*
X215405714Y-79944580D01*
X215405714Y-79944580D02*
X215453333Y-79849342D01*
X215453333Y-79849342D02*
X215453333Y-79754104D01*
X215453333Y-79754104D02*
X215405714Y-79658866D01*
X215405714Y-79658866D02*
X215358095Y-79611247D01*
X215358095Y-79611247D02*
X215262857Y-79563628D01*
X215262857Y-79563628D02*
X215072381Y-79516009D01*
X215072381Y-79516009D02*
X214977143Y-79468390D01*
X214977143Y-79468390D02*
X214929524Y-79420771D01*
X214929524Y-79420771D02*
X214881905Y-79325533D01*
X214881905Y-79325533D02*
X214881905Y-79230295D01*
X214881905Y-79230295D02*
X214929524Y-79135057D01*
X214929524Y-79135057D02*
X214977143Y-79087438D01*
X214977143Y-79087438D02*
X215072381Y-79039819D01*
X215072381Y-79039819D02*
X215310476Y-79039819D01*
X215310476Y-79039819D02*
X215453333Y-79087438D01*
X216405714Y-80039819D02*
X215834286Y-80039819D01*
X216120000Y-80039819D02*
X216120000Y-79039819D01*
X216120000Y-79039819D02*
X216024762Y-79182676D01*
X216024762Y-79182676D02*
X215929524Y-79277914D01*
X215929524Y-79277914D02*
X215834286Y-79325533D01*
X216739048Y-79039819D02*
X217405714Y-79039819D01*
X217405714Y-79039819D02*
X216977143Y-80039819D01*
X214881905Y-96992200D02*
X215024762Y-97039819D01*
X215024762Y-97039819D02*
X215262857Y-97039819D01*
X215262857Y-97039819D02*
X215358095Y-96992200D01*
X215358095Y-96992200D02*
X215405714Y-96944580D01*
X215405714Y-96944580D02*
X215453333Y-96849342D01*
X215453333Y-96849342D02*
X215453333Y-96754104D01*
X215453333Y-96754104D02*
X215405714Y-96658866D01*
X215405714Y-96658866D02*
X215358095Y-96611247D01*
X215358095Y-96611247D02*
X215262857Y-96563628D01*
X215262857Y-96563628D02*
X215072381Y-96516009D01*
X215072381Y-96516009D02*
X214977143Y-96468390D01*
X214977143Y-96468390D02*
X214929524Y-96420771D01*
X214929524Y-96420771D02*
X214881905Y-96325533D01*
X214881905Y-96325533D02*
X214881905Y-96230295D01*
X214881905Y-96230295D02*
X214929524Y-96135057D01*
X214929524Y-96135057D02*
X214977143Y-96087438D01*
X214977143Y-96087438D02*
X215072381Y-96039819D01*
X215072381Y-96039819D02*
X215310476Y-96039819D01*
X215310476Y-96039819D02*
X215453333Y-96087438D01*
X216405714Y-97039819D02*
X215834286Y-97039819D01*
X216120000Y-97039819D02*
X216120000Y-96039819D01*
X216120000Y-96039819D02*
X216024762Y-96182676D01*
X216024762Y-96182676D02*
X215929524Y-96277914D01*
X215929524Y-96277914D02*
X215834286Y-96325533D01*
X216977143Y-96468390D02*
X216881905Y-96420771D01*
X216881905Y-96420771D02*
X216834286Y-96373152D01*
X216834286Y-96373152D02*
X216786667Y-96277914D01*
X216786667Y-96277914D02*
X216786667Y-96230295D01*
X216786667Y-96230295D02*
X216834286Y-96135057D01*
X216834286Y-96135057D02*
X216881905Y-96087438D01*
X216881905Y-96087438D02*
X216977143Y-96039819D01*
X216977143Y-96039819D02*
X217167619Y-96039819D01*
X217167619Y-96039819D02*
X217262857Y-96087438D01*
X217262857Y-96087438D02*
X217310476Y-96135057D01*
X217310476Y-96135057D02*
X217358095Y-96230295D01*
X217358095Y-96230295D02*
X217358095Y-96277914D01*
X217358095Y-96277914D02*
X217310476Y-96373152D01*
X217310476Y-96373152D02*
X217262857Y-96420771D01*
X217262857Y-96420771D02*
X217167619Y-96468390D01*
X217167619Y-96468390D02*
X216977143Y-96468390D01*
X216977143Y-96468390D02*
X216881905Y-96516009D01*
X216881905Y-96516009D02*
X216834286Y-96563628D01*
X216834286Y-96563628D02*
X216786667Y-96658866D01*
X216786667Y-96658866D02*
X216786667Y-96849342D01*
X216786667Y-96849342D02*
X216834286Y-96944580D01*
X216834286Y-96944580D02*
X216881905Y-96992200D01*
X216881905Y-96992200D02*
X216977143Y-97039819D01*
X216977143Y-97039819D02*
X217167619Y-97039819D01*
X217167619Y-97039819D02*
X217262857Y-96992200D01*
X217262857Y-96992200D02*
X217310476Y-96944580D01*
X217310476Y-96944580D02*
X217358095Y-96849342D01*
X217358095Y-96849342D02*
X217358095Y-96658866D01*
X217358095Y-96658866D02*
X217310476Y-96563628D01*
X217310476Y-96563628D02*
X217262857Y-96516009D01*
X217262857Y-96516009D02*
X217167619Y-96468390D01*
X196881905Y-91992200D02*
X197024762Y-92039819D01*
X197024762Y-92039819D02*
X197262857Y-92039819D01*
X197262857Y-92039819D02*
X197358095Y-91992200D01*
X197358095Y-91992200D02*
X197405714Y-91944580D01*
X197405714Y-91944580D02*
X197453333Y-91849342D01*
X197453333Y-91849342D02*
X197453333Y-91754104D01*
X197453333Y-91754104D02*
X197405714Y-91658866D01*
X197405714Y-91658866D02*
X197358095Y-91611247D01*
X197358095Y-91611247D02*
X197262857Y-91563628D01*
X197262857Y-91563628D02*
X197072381Y-91516009D01*
X197072381Y-91516009D02*
X196977143Y-91468390D01*
X196977143Y-91468390D02*
X196929524Y-91420771D01*
X196929524Y-91420771D02*
X196881905Y-91325533D01*
X196881905Y-91325533D02*
X196881905Y-91230295D01*
X196881905Y-91230295D02*
X196929524Y-91135057D01*
X196929524Y-91135057D02*
X196977143Y-91087438D01*
X196977143Y-91087438D02*
X197072381Y-91039819D01*
X197072381Y-91039819D02*
X197310476Y-91039819D01*
X197310476Y-91039819D02*
X197453333Y-91087438D01*
X198405714Y-92039819D02*
X197834286Y-92039819D01*
X198120000Y-92039819D02*
X198120000Y-91039819D01*
X198120000Y-91039819D02*
X198024762Y-91182676D01*
X198024762Y-91182676D02*
X197929524Y-91277914D01*
X197929524Y-91277914D02*
X197834286Y-91325533D01*
X199262857Y-91373152D02*
X199262857Y-92039819D01*
X199024762Y-90992200D02*
X198786667Y-91706485D01*
X198786667Y-91706485D02*
X199405714Y-91706485D01*
X252881905Y-135992200D02*
X253024762Y-136039819D01*
X253024762Y-136039819D02*
X253262857Y-136039819D01*
X253262857Y-136039819D02*
X253358095Y-135992200D01*
X253358095Y-135992200D02*
X253405714Y-135944580D01*
X253405714Y-135944580D02*
X253453333Y-135849342D01*
X253453333Y-135849342D02*
X253453333Y-135754104D01*
X253453333Y-135754104D02*
X253405714Y-135658866D01*
X253405714Y-135658866D02*
X253358095Y-135611247D01*
X253358095Y-135611247D02*
X253262857Y-135563628D01*
X253262857Y-135563628D02*
X253072381Y-135516009D01*
X253072381Y-135516009D02*
X252977143Y-135468390D01*
X252977143Y-135468390D02*
X252929524Y-135420771D01*
X252929524Y-135420771D02*
X252881905Y-135325533D01*
X252881905Y-135325533D02*
X252881905Y-135230295D01*
X252881905Y-135230295D02*
X252929524Y-135135057D01*
X252929524Y-135135057D02*
X252977143Y-135087438D01*
X252977143Y-135087438D02*
X253072381Y-135039819D01*
X253072381Y-135039819D02*
X253310476Y-135039819D01*
X253310476Y-135039819D02*
X253453333Y-135087438D01*
X253834286Y-135135057D02*
X253881905Y-135087438D01*
X253881905Y-135087438D02*
X253977143Y-135039819D01*
X253977143Y-135039819D02*
X254215238Y-135039819D01*
X254215238Y-135039819D02*
X254310476Y-135087438D01*
X254310476Y-135087438D02*
X254358095Y-135135057D01*
X254358095Y-135135057D02*
X254405714Y-135230295D01*
X254405714Y-135230295D02*
X254405714Y-135325533D01*
X254405714Y-135325533D02*
X254358095Y-135468390D01*
X254358095Y-135468390D02*
X253786667Y-136039819D01*
X253786667Y-136039819D02*
X254405714Y-136039819D01*
X254977143Y-135468390D02*
X254881905Y-135420771D01*
X254881905Y-135420771D02*
X254834286Y-135373152D01*
X254834286Y-135373152D02*
X254786667Y-135277914D01*
X254786667Y-135277914D02*
X254786667Y-135230295D01*
X254786667Y-135230295D02*
X254834286Y-135135057D01*
X254834286Y-135135057D02*
X254881905Y-135087438D01*
X254881905Y-135087438D02*
X254977143Y-135039819D01*
X254977143Y-135039819D02*
X255167619Y-135039819D01*
X255167619Y-135039819D02*
X255262857Y-135087438D01*
X255262857Y-135087438D02*
X255310476Y-135135057D01*
X255310476Y-135135057D02*
X255358095Y-135230295D01*
X255358095Y-135230295D02*
X255358095Y-135277914D01*
X255358095Y-135277914D02*
X255310476Y-135373152D01*
X255310476Y-135373152D02*
X255262857Y-135420771D01*
X255262857Y-135420771D02*
X255167619Y-135468390D01*
X255167619Y-135468390D02*
X254977143Y-135468390D01*
X254977143Y-135468390D02*
X254881905Y-135516009D01*
X254881905Y-135516009D02*
X254834286Y-135563628D01*
X254834286Y-135563628D02*
X254786667Y-135658866D01*
X254786667Y-135658866D02*
X254786667Y-135849342D01*
X254786667Y-135849342D02*
X254834286Y-135944580D01*
X254834286Y-135944580D02*
X254881905Y-135992200D01*
X254881905Y-135992200D02*
X254977143Y-136039819D01*
X254977143Y-136039819D02*
X255167619Y-136039819D01*
X255167619Y-136039819D02*
X255262857Y-135992200D01*
X255262857Y-135992200D02*
X255310476Y-135944580D01*
X255310476Y-135944580D02*
X255358095Y-135849342D01*
X255358095Y-135849342D02*
X255358095Y-135658866D01*
X255358095Y-135658866D02*
X255310476Y-135563628D01*
X255310476Y-135563628D02*
X255262857Y-135516009D01*
X255262857Y-135516009D02*
X255167619Y-135468390D01*
X161358095Y-124992200D02*
X161500952Y-125039819D01*
X161500952Y-125039819D02*
X161739047Y-125039819D01*
X161739047Y-125039819D02*
X161834285Y-124992200D01*
X161834285Y-124992200D02*
X161881904Y-124944580D01*
X161881904Y-124944580D02*
X161929523Y-124849342D01*
X161929523Y-124849342D02*
X161929523Y-124754104D01*
X161929523Y-124754104D02*
X161881904Y-124658866D01*
X161881904Y-124658866D02*
X161834285Y-124611247D01*
X161834285Y-124611247D02*
X161739047Y-124563628D01*
X161739047Y-124563628D02*
X161548571Y-124516009D01*
X161548571Y-124516009D02*
X161453333Y-124468390D01*
X161453333Y-124468390D02*
X161405714Y-124420771D01*
X161405714Y-124420771D02*
X161358095Y-124325533D01*
X161358095Y-124325533D02*
X161358095Y-124230295D01*
X161358095Y-124230295D02*
X161405714Y-124135057D01*
X161405714Y-124135057D02*
X161453333Y-124087438D01*
X161453333Y-124087438D02*
X161548571Y-124039819D01*
X161548571Y-124039819D02*
X161786666Y-124039819D01*
X161786666Y-124039819D02*
X161929523Y-124087438D01*
X162262857Y-124039819D02*
X162929523Y-124039819D01*
X162929523Y-124039819D02*
X162500952Y-125039819D01*
X252166666Y-100004819D02*
X252166666Y-100719104D01*
X252166666Y-100719104D02*
X252119047Y-100861961D01*
X252119047Y-100861961D02*
X252023809Y-100957200D01*
X252023809Y-100957200D02*
X251880952Y-101004819D01*
X251880952Y-101004819D02*
X251785714Y-101004819D01*
X252595238Y-100100057D02*
X252642857Y-100052438D01*
X252642857Y-100052438D02*
X252738095Y-100004819D01*
X252738095Y-100004819D02*
X252976190Y-100004819D01*
X252976190Y-100004819D02*
X253071428Y-100052438D01*
X253071428Y-100052438D02*
X253119047Y-100100057D01*
X253119047Y-100100057D02*
X253166666Y-100195295D01*
X253166666Y-100195295D02*
X253166666Y-100290533D01*
X253166666Y-100290533D02*
X253119047Y-100433390D01*
X253119047Y-100433390D02*
X252547619Y-101004819D01*
X252547619Y-101004819D02*
X253166666Y-101004819D01*
X196881905Y-74992200D02*
X197024762Y-75039819D01*
X197024762Y-75039819D02*
X197262857Y-75039819D01*
X197262857Y-75039819D02*
X197358095Y-74992200D01*
X197358095Y-74992200D02*
X197405714Y-74944580D01*
X197405714Y-74944580D02*
X197453333Y-74849342D01*
X197453333Y-74849342D02*
X197453333Y-74754104D01*
X197453333Y-74754104D02*
X197405714Y-74658866D01*
X197405714Y-74658866D02*
X197358095Y-74611247D01*
X197358095Y-74611247D02*
X197262857Y-74563628D01*
X197262857Y-74563628D02*
X197072381Y-74516009D01*
X197072381Y-74516009D02*
X196977143Y-74468390D01*
X196977143Y-74468390D02*
X196929524Y-74420771D01*
X196929524Y-74420771D02*
X196881905Y-74325533D01*
X196881905Y-74325533D02*
X196881905Y-74230295D01*
X196881905Y-74230295D02*
X196929524Y-74135057D01*
X196929524Y-74135057D02*
X196977143Y-74087438D01*
X196977143Y-74087438D02*
X197072381Y-74039819D01*
X197072381Y-74039819D02*
X197310476Y-74039819D01*
X197310476Y-74039819D02*
X197453333Y-74087438D01*
X198405714Y-75039819D02*
X197834286Y-75039819D01*
X198120000Y-75039819D02*
X198120000Y-74039819D01*
X198120000Y-74039819D02*
X198024762Y-74182676D01*
X198024762Y-74182676D02*
X197929524Y-74277914D01*
X197929524Y-74277914D02*
X197834286Y-74325533D01*
X198739048Y-74039819D02*
X199358095Y-74039819D01*
X199358095Y-74039819D02*
X199024762Y-74420771D01*
X199024762Y-74420771D02*
X199167619Y-74420771D01*
X199167619Y-74420771D02*
X199262857Y-74468390D01*
X199262857Y-74468390D02*
X199310476Y-74516009D01*
X199310476Y-74516009D02*
X199358095Y-74611247D01*
X199358095Y-74611247D02*
X199358095Y-74849342D01*
X199358095Y-74849342D02*
X199310476Y-74944580D01*
X199310476Y-74944580D02*
X199262857Y-74992200D01*
X199262857Y-74992200D02*
X199167619Y-75039819D01*
X199167619Y-75039819D02*
X198881905Y-75039819D01*
X198881905Y-75039819D02*
X198786667Y-74992200D01*
X198786667Y-74992200D02*
X198739048Y-74944580D01*
X232881905Y-116992200D02*
X233024762Y-117039819D01*
X233024762Y-117039819D02*
X233262857Y-117039819D01*
X233262857Y-117039819D02*
X233358095Y-116992200D01*
X233358095Y-116992200D02*
X233405714Y-116944580D01*
X233405714Y-116944580D02*
X233453333Y-116849342D01*
X233453333Y-116849342D02*
X233453333Y-116754104D01*
X233453333Y-116754104D02*
X233405714Y-116658866D01*
X233405714Y-116658866D02*
X233358095Y-116611247D01*
X233358095Y-116611247D02*
X233262857Y-116563628D01*
X233262857Y-116563628D02*
X233072381Y-116516009D01*
X233072381Y-116516009D02*
X232977143Y-116468390D01*
X232977143Y-116468390D02*
X232929524Y-116420771D01*
X232929524Y-116420771D02*
X232881905Y-116325533D01*
X232881905Y-116325533D02*
X232881905Y-116230295D01*
X232881905Y-116230295D02*
X232929524Y-116135057D01*
X232929524Y-116135057D02*
X232977143Y-116087438D01*
X232977143Y-116087438D02*
X233072381Y-116039819D01*
X233072381Y-116039819D02*
X233310476Y-116039819D01*
X233310476Y-116039819D02*
X233453333Y-116087438D01*
X233834286Y-116135057D02*
X233881905Y-116087438D01*
X233881905Y-116087438D02*
X233977143Y-116039819D01*
X233977143Y-116039819D02*
X234215238Y-116039819D01*
X234215238Y-116039819D02*
X234310476Y-116087438D01*
X234310476Y-116087438D02*
X234358095Y-116135057D01*
X234358095Y-116135057D02*
X234405714Y-116230295D01*
X234405714Y-116230295D02*
X234405714Y-116325533D01*
X234405714Y-116325533D02*
X234358095Y-116468390D01*
X234358095Y-116468390D02*
X233786667Y-117039819D01*
X233786667Y-117039819D02*
X234405714Y-117039819D01*
X234739048Y-116039819D02*
X235358095Y-116039819D01*
X235358095Y-116039819D02*
X235024762Y-116420771D01*
X235024762Y-116420771D02*
X235167619Y-116420771D01*
X235167619Y-116420771D02*
X235262857Y-116468390D01*
X235262857Y-116468390D02*
X235310476Y-116516009D01*
X235310476Y-116516009D02*
X235358095Y-116611247D01*
X235358095Y-116611247D02*
X235358095Y-116849342D01*
X235358095Y-116849342D02*
X235310476Y-116944580D01*
X235310476Y-116944580D02*
X235262857Y-116992200D01*
X235262857Y-116992200D02*
X235167619Y-117039819D01*
X235167619Y-117039819D02*
X234881905Y-117039819D01*
X234881905Y-117039819D02*
X234786667Y-116992200D01*
X234786667Y-116992200D02*
X234739048Y-116944580D01*
X232881905Y-82992200D02*
X233024762Y-83039819D01*
X233024762Y-83039819D02*
X233262857Y-83039819D01*
X233262857Y-83039819D02*
X233358095Y-82992200D01*
X233358095Y-82992200D02*
X233405714Y-82944580D01*
X233405714Y-82944580D02*
X233453333Y-82849342D01*
X233453333Y-82849342D02*
X233453333Y-82754104D01*
X233453333Y-82754104D02*
X233405714Y-82658866D01*
X233405714Y-82658866D02*
X233358095Y-82611247D01*
X233358095Y-82611247D02*
X233262857Y-82563628D01*
X233262857Y-82563628D02*
X233072381Y-82516009D01*
X233072381Y-82516009D02*
X232977143Y-82468390D01*
X232977143Y-82468390D02*
X232929524Y-82420771D01*
X232929524Y-82420771D02*
X232881905Y-82325533D01*
X232881905Y-82325533D02*
X232881905Y-82230295D01*
X232881905Y-82230295D02*
X232929524Y-82135057D01*
X232929524Y-82135057D02*
X232977143Y-82087438D01*
X232977143Y-82087438D02*
X233072381Y-82039819D01*
X233072381Y-82039819D02*
X233310476Y-82039819D01*
X233310476Y-82039819D02*
X233453333Y-82087438D01*
X233834286Y-82135057D02*
X233881905Y-82087438D01*
X233881905Y-82087438D02*
X233977143Y-82039819D01*
X233977143Y-82039819D02*
X234215238Y-82039819D01*
X234215238Y-82039819D02*
X234310476Y-82087438D01*
X234310476Y-82087438D02*
X234358095Y-82135057D01*
X234358095Y-82135057D02*
X234405714Y-82230295D01*
X234405714Y-82230295D02*
X234405714Y-82325533D01*
X234405714Y-82325533D02*
X234358095Y-82468390D01*
X234358095Y-82468390D02*
X233786667Y-83039819D01*
X233786667Y-83039819D02*
X234405714Y-83039819D01*
X235358095Y-83039819D02*
X234786667Y-83039819D01*
X235072381Y-83039819D02*
X235072381Y-82039819D01*
X235072381Y-82039819D02*
X234977143Y-82182676D01*
X234977143Y-82182676D02*
X234881905Y-82277914D01*
X234881905Y-82277914D02*
X234786667Y-82325533D01*
X232881905Y-99992200D02*
X233024762Y-100039819D01*
X233024762Y-100039819D02*
X233262857Y-100039819D01*
X233262857Y-100039819D02*
X233358095Y-99992200D01*
X233358095Y-99992200D02*
X233405714Y-99944580D01*
X233405714Y-99944580D02*
X233453333Y-99849342D01*
X233453333Y-99849342D02*
X233453333Y-99754104D01*
X233453333Y-99754104D02*
X233405714Y-99658866D01*
X233405714Y-99658866D02*
X233358095Y-99611247D01*
X233358095Y-99611247D02*
X233262857Y-99563628D01*
X233262857Y-99563628D02*
X233072381Y-99516009D01*
X233072381Y-99516009D02*
X232977143Y-99468390D01*
X232977143Y-99468390D02*
X232929524Y-99420771D01*
X232929524Y-99420771D02*
X232881905Y-99325533D01*
X232881905Y-99325533D02*
X232881905Y-99230295D01*
X232881905Y-99230295D02*
X232929524Y-99135057D01*
X232929524Y-99135057D02*
X232977143Y-99087438D01*
X232977143Y-99087438D02*
X233072381Y-99039819D01*
X233072381Y-99039819D02*
X233310476Y-99039819D01*
X233310476Y-99039819D02*
X233453333Y-99087438D01*
X233834286Y-99135057D02*
X233881905Y-99087438D01*
X233881905Y-99087438D02*
X233977143Y-99039819D01*
X233977143Y-99039819D02*
X234215238Y-99039819D01*
X234215238Y-99039819D02*
X234310476Y-99087438D01*
X234310476Y-99087438D02*
X234358095Y-99135057D01*
X234358095Y-99135057D02*
X234405714Y-99230295D01*
X234405714Y-99230295D02*
X234405714Y-99325533D01*
X234405714Y-99325533D02*
X234358095Y-99468390D01*
X234358095Y-99468390D02*
X233786667Y-100039819D01*
X233786667Y-100039819D02*
X234405714Y-100039819D01*
X234786667Y-99135057D02*
X234834286Y-99087438D01*
X234834286Y-99087438D02*
X234929524Y-99039819D01*
X234929524Y-99039819D02*
X235167619Y-99039819D01*
X235167619Y-99039819D02*
X235262857Y-99087438D01*
X235262857Y-99087438D02*
X235310476Y-99135057D01*
X235310476Y-99135057D02*
X235358095Y-99230295D01*
X235358095Y-99230295D02*
X235358095Y-99325533D01*
X235358095Y-99325533D02*
X235310476Y-99468390D01*
X235310476Y-99468390D02*
X234739048Y-100039819D01*
X234739048Y-100039819D02*
X235358095Y-100039819D01*
X179358095Y-78992200D02*
X179500952Y-79039819D01*
X179500952Y-79039819D02*
X179739047Y-79039819D01*
X179739047Y-79039819D02*
X179834285Y-78992200D01*
X179834285Y-78992200D02*
X179881904Y-78944580D01*
X179881904Y-78944580D02*
X179929523Y-78849342D01*
X179929523Y-78849342D02*
X179929523Y-78754104D01*
X179929523Y-78754104D02*
X179881904Y-78658866D01*
X179881904Y-78658866D02*
X179834285Y-78611247D01*
X179834285Y-78611247D02*
X179739047Y-78563628D01*
X179739047Y-78563628D02*
X179548571Y-78516009D01*
X179548571Y-78516009D02*
X179453333Y-78468390D01*
X179453333Y-78468390D02*
X179405714Y-78420771D01*
X179405714Y-78420771D02*
X179358095Y-78325533D01*
X179358095Y-78325533D02*
X179358095Y-78230295D01*
X179358095Y-78230295D02*
X179405714Y-78135057D01*
X179405714Y-78135057D02*
X179453333Y-78087438D01*
X179453333Y-78087438D02*
X179548571Y-78039819D01*
X179548571Y-78039819D02*
X179786666Y-78039819D01*
X179786666Y-78039819D02*
X179929523Y-78087438D01*
X180405714Y-79039819D02*
X180596190Y-79039819D01*
X180596190Y-79039819D02*
X180691428Y-78992200D01*
X180691428Y-78992200D02*
X180739047Y-78944580D01*
X180739047Y-78944580D02*
X180834285Y-78801723D01*
X180834285Y-78801723D02*
X180881904Y-78611247D01*
X180881904Y-78611247D02*
X180881904Y-78230295D01*
X180881904Y-78230295D02*
X180834285Y-78135057D01*
X180834285Y-78135057D02*
X180786666Y-78087438D01*
X180786666Y-78087438D02*
X180691428Y-78039819D01*
X180691428Y-78039819D02*
X180500952Y-78039819D01*
X180500952Y-78039819D02*
X180405714Y-78087438D01*
X180405714Y-78087438D02*
X180358095Y-78135057D01*
X180358095Y-78135057D02*
X180310476Y-78230295D01*
X180310476Y-78230295D02*
X180310476Y-78468390D01*
X180310476Y-78468390D02*
X180358095Y-78563628D01*
X180358095Y-78563628D02*
X180405714Y-78611247D01*
X180405714Y-78611247D02*
X180500952Y-78658866D01*
X180500952Y-78658866D02*
X180691428Y-78658866D01*
X180691428Y-78658866D02*
X180786666Y-78611247D01*
X180786666Y-78611247D02*
X180834285Y-78563628D01*
X180834285Y-78563628D02*
X180881904Y-78468390D01*
X178881905Y-112992200D02*
X179024762Y-113039819D01*
X179024762Y-113039819D02*
X179262857Y-113039819D01*
X179262857Y-113039819D02*
X179358095Y-112992200D01*
X179358095Y-112992200D02*
X179405714Y-112944580D01*
X179405714Y-112944580D02*
X179453333Y-112849342D01*
X179453333Y-112849342D02*
X179453333Y-112754104D01*
X179453333Y-112754104D02*
X179405714Y-112658866D01*
X179405714Y-112658866D02*
X179358095Y-112611247D01*
X179358095Y-112611247D02*
X179262857Y-112563628D01*
X179262857Y-112563628D02*
X179072381Y-112516009D01*
X179072381Y-112516009D02*
X178977143Y-112468390D01*
X178977143Y-112468390D02*
X178929524Y-112420771D01*
X178929524Y-112420771D02*
X178881905Y-112325533D01*
X178881905Y-112325533D02*
X178881905Y-112230295D01*
X178881905Y-112230295D02*
X178929524Y-112135057D01*
X178929524Y-112135057D02*
X178977143Y-112087438D01*
X178977143Y-112087438D02*
X179072381Y-112039819D01*
X179072381Y-112039819D02*
X179310476Y-112039819D01*
X179310476Y-112039819D02*
X179453333Y-112087438D01*
X180405714Y-113039819D02*
X179834286Y-113039819D01*
X180120000Y-113039819D02*
X180120000Y-112039819D01*
X180120000Y-112039819D02*
X180024762Y-112182676D01*
X180024762Y-112182676D02*
X179929524Y-112277914D01*
X179929524Y-112277914D02*
X179834286Y-112325533D01*
X181358095Y-113039819D02*
X180786667Y-113039819D01*
X181072381Y-113039819D02*
X181072381Y-112039819D01*
X181072381Y-112039819D02*
X180977143Y-112182676D01*
X180977143Y-112182676D02*
X180881905Y-112277914D01*
X180881905Y-112277914D02*
X180786667Y-112325533D01*
X161358095Y-141992200D02*
X161500952Y-142039819D01*
X161500952Y-142039819D02*
X161739047Y-142039819D01*
X161739047Y-142039819D02*
X161834285Y-141992200D01*
X161834285Y-141992200D02*
X161881904Y-141944580D01*
X161881904Y-141944580D02*
X161929523Y-141849342D01*
X161929523Y-141849342D02*
X161929523Y-141754104D01*
X161929523Y-141754104D02*
X161881904Y-141658866D01*
X161881904Y-141658866D02*
X161834285Y-141611247D01*
X161834285Y-141611247D02*
X161739047Y-141563628D01*
X161739047Y-141563628D02*
X161548571Y-141516009D01*
X161548571Y-141516009D02*
X161453333Y-141468390D01*
X161453333Y-141468390D02*
X161405714Y-141420771D01*
X161405714Y-141420771D02*
X161358095Y-141325533D01*
X161358095Y-141325533D02*
X161358095Y-141230295D01*
X161358095Y-141230295D02*
X161405714Y-141135057D01*
X161405714Y-141135057D02*
X161453333Y-141087438D01*
X161453333Y-141087438D02*
X161548571Y-141039819D01*
X161548571Y-141039819D02*
X161786666Y-141039819D01*
X161786666Y-141039819D02*
X161929523Y-141087438D01*
X162500952Y-141468390D02*
X162405714Y-141420771D01*
X162405714Y-141420771D02*
X162358095Y-141373152D01*
X162358095Y-141373152D02*
X162310476Y-141277914D01*
X162310476Y-141277914D02*
X162310476Y-141230295D01*
X162310476Y-141230295D02*
X162358095Y-141135057D01*
X162358095Y-141135057D02*
X162405714Y-141087438D01*
X162405714Y-141087438D02*
X162500952Y-141039819D01*
X162500952Y-141039819D02*
X162691428Y-141039819D01*
X162691428Y-141039819D02*
X162786666Y-141087438D01*
X162786666Y-141087438D02*
X162834285Y-141135057D01*
X162834285Y-141135057D02*
X162881904Y-141230295D01*
X162881904Y-141230295D02*
X162881904Y-141277914D01*
X162881904Y-141277914D02*
X162834285Y-141373152D01*
X162834285Y-141373152D02*
X162786666Y-141420771D01*
X162786666Y-141420771D02*
X162691428Y-141468390D01*
X162691428Y-141468390D02*
X162500952Y-141468390D01*
X162500952Y-141468390D02*
X162405714Y-141516009D01*
X162405714Y-141516009D02*
X162358095Y-141563628D01*
X162358095Y-141563628D02*
X162310476Y-141658866D01*
X162310476Y-141658866D02*
X162310476Y-141849342D01*
X162310476Y-141849342D02*
X162358095Y-141944580D01*
X162358095Y-141944580D02*
X162405714Y-141992200D01*
X162405714Y-141992200D02*
X162500952Y-142039819D01*
X162500952Y-142039819D02*
X162691428Y-142039819D01*
X162691428Y-142039819D02*
X162786666Y-141992200D01*
X162786666Y-141992200D02*
X162834285Y-141944580D01*
X162834285Y-141944580D02*
X162881904Y-141849342D01*
X162881904Y-141849342D02*
X162881904Y-141658866D01*
X162881904Y-141658866D02*
X162834285Y-141563628D01*
X162834285Y-141563628D02*
X162786666Y-141516009D01*
X162786666Y-141516009D02*
X162691428Y-141468390D01*
X178881905Y-129992200D02*
X179024762Y-130039819D01*
X179024762Y-130039819D02*
X179262857Y-130039819D01*
X179262857Y-130039819D02*
X179358095Y-129992200D01*
X179358095Y-129992200D02*
X179405714Y-129944580D01*
X179405714Y-129944580D02*
X179453333Y-129849342D01*
X179453333Y-129849342D02*
X179453333Y-129754104D01*
X179453333Y-129754104D02*
X179405714Y-129658866D01*
X179405714Y-129658866D02*
X179358095Y-129611247D01*
X179358095Y-129611247D02*
X179262857Y-129563628D01*
X179262857Y-129563628D02*
X179072381Y-129516009D01*
X179072381Y-129516009D02*
X178977143Y-129468390D01*
X178977143Y-129468390D02*
X178929524Y-129420771D01*
X178929524Y-129420771D02*
X178881905Y-129325533D01*
X178881905Y-129325533D02*
X178881905Y-129230295D01*
X178881905Y-129230295D02*
X178929524Y-129135057D01*
X178929524Y-129135057D02*
X178977143Y-129087438D01*
X178977143Y-129087438D02*
X179072381Y-129039819D01*
X179072381Y-129039819D02*
X179310476Y-129039819D01*
X179310476Y-129039819D02*
X179453333Y-129087438D01*
X180405714Y-130039819D02*
X179834286Y-130039819D01*
X180120000Y-130039819D02*
X180120000Y-129039819D01*
X180120000Y-129039819D02*
X180024762Y-129182676D01*
X180024762Y-129182676D02*
X179929524Y-129277914D01*
X179929524Y-129277914D02*
X179834286Y-129325533D01*
X180786667Y-129135057D02*
X180834286Y-129087438D01*
X180834286Y-129087438D02*
X180929524Y-129039819D01*
X180929524Y-129039819D02*
X181167619Y-129039819D01*
X181167619Y-129039819D02*
X181262857Y-129087438D01*
X181262857Y-129087438D02*
X181310476Y-129135057D01*
X181310476Y-129135057D02*
X181358095Y-129230295D01*
X181358095Y-129230295D02*
X181358095Y-129325533D01*
X181358095Y-129325533D02*
X181310476Y-129468390D01*
X181310476Y-129468390D02*
X180739048Y-130039819D01*
X180739048Y-130039819D02*
X181358095Y-130039819D01*
X143358095Y-141992200D02*
X143500952Y-142039819D01*
X143500952Y-142039819D02*
X143739047Y-142039819D01*
X143739047Y-142039819D02*
X143834285Y-141992200D01*
X143834285Y-141992200D02*
X143881904Y-141944580D01*
X143881904Y-141944580D02*
X143929523Y-141849342D01*
X143929523Y-141849342D02*
X143929523Y-141754104D01*
X143929523Y-141754104D02*
X143881904Y-141658866D01*
X143881904Y-141658866D02*
X143834285Y-141611247D01*
X143834285Y-141611247D02*
X143739047Y-141563628D01*
X143739047Y-141563628D02*
X143548571Y-141516009D01*
X143548571Y-141516009D02*
X143453333Y-141468390D01*
X143453333Y-141468390D02*
X143405714Y-141420771D01*
X143405714Y-141420771D02*
X143358095Y-141325533D01*
X143358095Y-141325533D02*
X143358095Y-141230295D01*
X143358095Y-141230295D02*
X143405714Y-141135057D01*
X143405714Y-141135057D02*
X143453333Y-141087438D01*
X143453333Y-141087438D02*
X143548571Y-141039819D01*
X143548571Y-141039819D02*
X143786666Y-141039819D01*
X143786666Y-141039819D02*
X143929523Y-141087438D01*
X144786666Y-141373152D02*
X144786666Y-142039819D01*
X144548571Y-140992200D02*
X144310476Y-141706485D01*
X144310476Y-141706485D02*
X144929523Y-141706485D01*
X143358095Y-90992200D02*
X143500952Y-91039819D01*
X143500952Y-91039819D02*
X143739047Y-91039819D01*
X143739047Y-91039819D02*
X143834285Y-90992200D01*
X143834285Y-90992200D02*
X143881904Y-90944580D01*
X143881904Y-90944580D02*
X143929523Y-90849342D01*
X143929523Y-90849342D02*
X143929523Y-90754104D01*
X143929523Y-90754104D02*
X143881904Y-90658866D01*
X143881904Y-90658866D02*
X143834285Y-90611247D01*
X143834285Y-90611247D02*
X143739047Y-90563628D01*
X143739047Y-90563628D02*
X143548571Y-90516009D01*
X143548571Y-90516009D02*
X143453333Y-90468390D01*
X143453333Y-90468390D02*
X143405714Y-90420771D01*
X143405714Y-90420771D02*
X143358095Y-90325533D01*
X143358095Y-90325533D02*
X143358095Y-90230295D01*
X143358095Y-90230295D02*
X143405714Y-90135057D01*
X143405714Y-90135057D02*
X143453333Y-90087438D01*
X143453333Y-90087438D02*
X143548571Y-90039819D01*
X143548571Y-90039819D02*
X143786666Y-90039819D01*
X143786666Y-90039819D02*
X143929523Y-90087438D01*
X144881904Y-91039819D02*
X144310476Y-91039819D01*
X144596190Y-91039819D02*
X144596190Y-90039819D01*
X144596190Y-90039819D02*
X144500952Y-90182676D01*
X144500952Y-90182676D02*
X144405714Y-90277914D01*
X144405714Y-90277914D02*
X144310476Y-90325533D01*
X227120000Y-135840000D02*
X227120000Y-134840000D01*
X227120000Y-148840000D02*
X227120000Y-147840000D01*
X227120000Y-148840000D02*
X228120000Y-148840000D01*
X228120000Y-134840000D02*
X227120000Y-134840000D01*
X240120000Y-148840000D02*
X241120000Y-148840000D01*
X241120000Y-134840000D02*
X240120000Y-134840000D01*
X241120000Y-134840000D02*
X241120000Y-135840000D01*
X241120000Y-147840000D02*
X241120000Y-148840000D01*
X173120000Y-97840000D02*
X173120000Y-96840000D01*
X173120000Y-110840000D02*
X173120000Y-109840000D01*
X173120000Y-110840000D02*
X174120000Y-110840000D01*
X174120000Y-96840000D02*
X173120000Y-96840000D01*
X186120000Y-110840000D02*
X187120000Y-110840000D01*
X187120000Y-96840000D02*
X186120000Y-96840000D01*
X187120000Y-96840000D02*
X187120000Y-97840000D01*
X187120000Y-109840000D02*
X187120000Y-110840000D01*
D11*
X276830000Y-119350000D02*
X277620000Y-119350000D01*
X278630000Y-118750000D02*
X278630000Y-113050000D01*
X275780000Y-117500000D02*
X275780000Y-115800000D01*
X275780000Y-114500000D02*
X275780000Y-114300000D01*
X277620000Y-112450000D02*
X276830000Y-112450000D01*
D10*
X155120000Y-92840000D02*
X155120000Y-91840000D01*
X155120000Y-105840000D02*
X155120000Y-104840000D01*
X155120000Y-105840000D02*
X156120000Y-105840000D01*
X156120000Y-91840000D02*
X155120000Y-91840000D01*
X168120000Y-105840000D02*
X169120000Y-105840000D01*
X169120000Y-91840000D02*
X168120000Y-91840000D01*
X169120000Y-91840000D02*
X169120000Y-92840000D01*
X169120000Y-104840000D02*
X169120000Y-105840000D01*
X256120000Y-154840000D02*
X256120000Y-153840000D01*
X256120000Y-167840000D02*
X256120000Y-166840000D01*
X256120000Y-167840000D02*
X257120000Y-167840000D01*
X257120000Y-153840000D02*
X256120000Y-153840000D01*
X269120000Y-167840000D02*
X270120000Y-167840000D01*
X270120000Y-153840000D02*
X269120000Y-153840000D01*
X270120000Y-153840000D02*
X270120000Y-154840000D01*
X270120000Y-166840000D02*
X270120000Y-167840000D01*
X137120000Y-109840000D02*
X137120000Y-108840000D01*
X137120000Y-122840000D02*
X137120000Y-121840000D01*
X137120000Y-122840000D02*
X138120000Y-122840000D01*
X138120000Y-108840000D02*
X137120000Y-108840000D01*
X150120000Y-122840000D02*
X151120000Y-122840000D01*
X151120000Y-108840000D02*
X150120000Y-108840000D01*
X151120000Y-108840000D02*
X151120000Y-109840000D01*
X151120000Y-121840000D02*
X151120000Y-122840000D01*
X137120000Y-126840000D02*
X137120000Y-125840000D01*
X137120000Y-139840000D02*
X137120000Y-138840000D01*
X137120000Y-139840000D02*
X138120000Y-139840000D01*
X138120000Y-125840000D02*
X137120000Y-125840000D01*
X150120000Y-139840000D02*
X151120000Y-139840000D01*
X151120000Y-125840000D02*
X150120000Y-125840000D01*
X151120000Y-125840000D02*
X151120000Y-126840000D01*
X151120000Y-138840000D02*
X151120000Y-139840000D01*
X191120000Y-110840000D02*
X191120000Y-109840000D01*
X191120000Y-123840000D02*
X191120000Y-122840000D01*
X191120000Y-123840000D02*
X192120000Y-123840000D01*
X192120000Y-109840000D02*
X191120000Y-109840000D01*
X204120000Y-123840000D02*
X205120000Y-123840000D01*
X205120000Y-109840000D02*
X204120000Y-109840000D01*
X205120000Y-109840000D02*
X205120000Y-110840000D01*
X205120000Y-122840000D02*
X205120000Y-123840000D01*
D11*
X246120000Y-94905000D02*
X245485000Y-94905000D01*
X246120000Y-94270000D02*
X246120000Y-94905000D01*
D10*
X191120000Y-127840000D02*
X191120000Y-126840000D01*
X191120000Y-140840000D02*
X191120000Y-139840000D01*
X191120000Y-140840000D02*
X192120000Y-140840000D01*
X192120000Y-126840000D02*
X191120000Y-126840000D01*
X204120000Y-140840000D02*
X205120000Y-140840000D01*
X205120000Y-126840000D02*
X204120000Y-126840000D01*
X205120000Y-126840000D02*
X205120000Y-127840000D01*
X205120000Y-139840000D02*
X205120000Y-140840000D01*
X155120000Y-109840000D02*
X155120000Y-108840000D01*
X155120000Y-122840000D02*
X155120000Y-121840000D01*
X155120000Y-122840000D02*
X156120000Y-122840000D01*
X156120000Y-108840000D02*
X155120000Y-108840000D01*
X168120000Y-122840000D02*
X169120000Y-122840000D01*
X169120000Y-108840000D02*
X168120000Y-108840000D01*
X169120000Y-108840000D02*
X169120000Y-109840000D01*
X169120000Y-121840000D02*
X169120000Y-122840000D01*
D11*
X271050000Y-130825000D02*
X271050000Y-124525000D01*
X271300000Y-130825000D02*
X271050000Y-130825000D01*
X275800000Y-130825000D02*
X273200000Y-130825000D01*
X277950000Y-130825000D02*
X277700000Y-130825000D01*
X271050000Y-124525000D02*
X271300000Y-124525000D01*
X273200000Y-124525000D02*
X275800000Y-124525000D01*
X277700000Y-124525000D02*
X277950000Y-124525000D01*
X277950000Y-124525000D02*
X277950000Y-130825000D01*
D10*
X209120000Y-132840000D02*
X209120000Y-131840000D01*
X209120000Y-145840000D02*
X209120000Y-144840000D01*
X209120000Y-145840000D02*
X210120000Y-145840000D01*
X210120000Y-131840000D02*
X209120000Y-131840000D01*
X222120000Y-145840000D02*
X223120000Y-145840000D01*
X223120000Y-131840000D02*
X222120000Y-131840000D01*
X223120000Y-131840000D02*
X223120000Y-132840000D01*
X223120000Y-144840000D02*
X223120000Y-145840000D01*
X202120000Y-154840000D02*
X202120000Y-153840000D01*
X202120000Y-167840000D02*
X202120000Y-166840000D01*
X202120000Y-167840000D02*
X203120000Y-167840000D01*
X203120000Y-153840000D02*
X202120000Y-153840000D01*
X215120000Y-167840000D02*
X216120000Y-167840000D01*
X216120000Y-153840000D02*
X215120000Y-153840000D01*
X216120000Y-153840000D02*
X216120000Y-154840000D01*
X216120000Y-166840000D02*
X216120000Y-167840000D01*
X209120000Y-115840000D02*
X209120000Y-114840000D01*
X209120000Y-128840000D02*
X209120000Y-127840000D01*
X209120000Y-128840000D02*
X210120000Y-128840000D01*
X210120000Y-114840000D02*
X209120000Y-114840000D01*
X222120000Y-128840000D02*
X223120000Y-128840000D01*
X223120000Y-114840000D02*
X222120000Y-114840000D01*
X223120000Y-114840000D02*
X223120000Y-115840000D01*
X223120000Y-127840000D02*
X223120000Y-128840000D01*
X220120000Y-154840000D02*
X220120000Y-153840000D01*
X220120000Y-167840000D02*
X220120000Y-166840000D01*
X220120000Y-167840000D02*
X221120000Y-167840000D01*
X221120000Y-153840000D02*
X220120000Y-153840000D01*
X233120000Y-167840000D02*
X234120000Y-167840000D01*
X234120000Y-153840000D02*
X233120000Y-153840000D01*
X234120000Y-153840000D02*
X234120000Y-154840000D01*
X234120000Y-166840000D02*
X234120000Y-167840000D01*
D11*
X274865000Y-89065000D02*
X274865000Y-90535000D01*
X274865000Y-90535000D02*
X277150000Y-90535000D01*
X277150000Y-89065000D02*
X274865000Y-89065000D01*
D10*
X238120000Y-154840000D02*
X238120000Y-153840000D01*
X238120000Y-167840000D02*
X238120000Y-166840000D01*
X238120000Y-167840000D02*
X239120000Y-167840000D01*
X239120000Y-153840000D02*
X238120000Y-153840000D01*
X251120000Y-167840000D02*
X252120000Y-167840000D01*
X252120000Y-153840000D02*
X251120000Y-153840000D01*
X252120000Y-153840000D02*
X252120000Y-154840000D01*
X252120000Y-166840000D02*
X252120000Y-167840000D01*
X209120000Y-81840000D02*
X209120000Y-80840000D01*
X209120000Y-94840000D02*
X209120000Y-93840000D01*
X209120000Y-94840000D02*
X210120000Y-94840000D01*
X210120000Y-80840000D02*
X209120000Y-80840000D01*
X222120000Y-94840000D02*
X223120000Y-94840000D01*
X223120000Y-80840000D02*
X222120000Y-80840000D01*
X223120000Y-80840000D02*
X223120000Y-81840000D01*
X223120000Y-93840000D02*
X223120000Y-94840000D01*
X209120000Y-98840000D02*
X209120000Y-97840000D01*
X209120000Y-111840000D02*
X209120000Y-110840000D01*
X209120000Y-111840000D02*
X210120000Y-111840000D01*
X210120000Y-97840000D02*
X209120000Y-97840000D01*
X222120000Y-111840000D02*
X223120000Y-111840000D01*
X223120000Y-97840000D02*
X222120000Y-97840000D01*
X223120000Y-97840000D02*
X223120000Y-98840000D01*
X223120000Y-110840000D02*
X223120000Y-111840000D01*
X191120000Y-93840000D02*
X191120000Y-92840000D01*
X191120000Y-106840000D02*
X191120000Y-105840000D01*
X191120000Y-106840000D02*
X192120000Y-106840000D01*
X192120000Y-92840000D02*
X191120000Y-92840000D01*
X204120000Y-106840000D02*
X205120000Y-106840000D01*
X205120000Y-92840000D02*
X204120000Y-92840000D01*
X205120000Y-92840000D02*
X205120000Y-93840000D01*
X205120000Y-105840000D02*
X205120000Y-106840000D01*
X247120000Y-137840000D02*
X247120000Y-136840000D01*
X247120000Y-150840000D02*
X247120000Y-149840000D01*
X247120000Y-150840000D02*
X248120000Y-150840000D01*
X248120000Y-136840000D02*
X247120000Y-136840000D01*
X260120000Y-150840000D02*
X261120000Y-150840000D01*
X261120000Y-136840000D02*
X260120000Y-136840000D01*
X261120000Y-136840000D02*
X261120000Y-137840000D01*
X261120000Y-149840000D02*
X261120000Y-150840000D01*
X155120000Y-126840000D02*
X155120000Y-125840000D01*
X155120000Y-139840000D02*
X155120000Y-138840000D01*
X155120000Y-139840000D02*
X156120000Y-139840000D01*
X156120000Y-125840000D02*
X155120000Y-125840000D01*
X168120000Y-139840000D02*
X169120000Y-139840000D01*
X169120000Y-125840000D02*
X168120000Y-125840000D01*
X169120000Y-125840000D02*
X169120000Y-126840000D01*
X169120000Y-138840000D02*
X169120000Y-139840000D01*
D11*
X255560000Y-99460000D02*
X255560000Y-91640000D01*
X255560000Y-97860000D02*
X254640000Y-97860000D01*
X255560000Y-91640000D02*
X249440000Y-91640000D01*
X254800000Y-95500000D02*
X254800000Y-93900000D01*
X254800000Y-93900000D02*
X253800000Y-93900000D01*
X254640000Y-99460000D02*
X255560000Y-99460000D01*
X254640000Y-97860000D02*
X254640000Y-99460000D01*
X254360000Y-97860000D02*
X254640000Y-97860000D01*
X254360000Y-97860000D02*
X254360000Y-99075000D01*
X254300000Y-93900000D02*
X254300000Y-91640000D01*
X253800000Y-95500000D02*
X254800000Y-95500000D01*
X253800000Y-93900000D02*
X253800000Y-95500000D01*
X253800000Y-93900000D02*
X253800000Y-91640000D01*
X253000000Y-96000000D02*
X252000000Y-96000000D01*
X253000000Y-91640000D02*
X253000000Y-96000000D01*
X252000000Y-96000000D02*
X252000000Y-91640000D01*
X251200000Y-95500000D02*
X250200000Y-95500000D01*
X251200000Y-93900000D02*
X251200000Y-95500000D01*
X250360000Y-99460000D02*
X250360000Y-97860000D01*
X250360000Y-97860000D02*
X250640000Y-97860000D01*
X250200000Y-95500000D02*
X250200000Y-93900000D01*
X250200000Y-93900000D02*
X251200000Y-93900000D01*
X249440000Y-99460000D02*
X250360000Y-99460000D01*
X249440000Y-97860000D02*
X250360000Y-97860000D01*
X249440000Y-91640000D02*
X249440000Y-99460000D01*
D10*
X191120000Y-76840000D02*
X191120000Y-75840000D01*
X191120000Y-89840000D02*
X191120000Y-88840000D01*
X191120000Y-89840000D02*
X192120000Y-89840000D01*
X192120000Y-75840000D02*
X191120000Y-75840000D01*
X204120000Y-89840000D02*
X205120000Y-89840000D01*
X205120000Y-75840000D02*
X204120000Y-75840000D01*
X205120000Y-75840000D02*
X205120000Y-76840000D01*
X205120000Y-88840000D02*
X205120000Y-89840000D01*
X227120000Y-118840000D02*
X227120000Y-117840000D01*
X227120000Y-131840000D02*
X227120000Y-130840000D01*
X227120000Y-131840000D02*
X228120000Y-131840000D01*
X228120000Y-117840000D02*
X227120000Y-117840000D01*
X240120000Y-131840000D02*
X241120000Y-131840000D01*
X241120000Y-117840000D02*
X240120000Y-117840000D01*
X241120000Y-117840000D02*
X241120000Y-118840000D01*
X241120000Y-130840000D02*
X241120000Y-131840000D01*
X227120000Y-84840000D02*
X227120000Y-83840000D01*
X227120000Y-97840000D02*
X227120000Y-96840000D01*
X227120000Y-97840000D02*
X228120000Y-97840000D01*
X228120000Y-83840000D02*
X227120000Y-83840000D01*
X240120000Y-97840000D02*
X241120000Y-97840000D01*
X241120000Y-83840000D02*
X240120000Y-83840000D01*
X241120000Y-83840000D02*
X241120000Y-84840000D01*
X241120000Y-96840000D02*
X241120000Y-97840000D01*
X227120000Y-101840000D02*
X227120000Y-100840000D01*
X227120000Y-114840000D02*
X227120000Y-113840000D01*
X227120000Y-114840000D02*
X228120000Y-114840000D01*
X228120000Y-100840000D02*
X227120000Y-100840000D01*
X240120000Y-114840000D02*
X241120000Y-114840000D01*
X241120000Y-100840000D02*
X240120000Y-100840000D01*
X241120000Y-100840000D02*
X241120000Y-101840000D01*
X241120000Y-113840000D02*
X241120000Y-114840000D01*
X173120000Y-80840000D02*
X173120000Y-79840000D01*
X173120000Y-93840000D02*
X173120000Y-92840000D01*
X173120000Y-93840000D02*
X174120000Y-93840000D01*
X174120000Y-79840000D02*
X173120000Y-79840000D01*
X186120000Y-93840000D02*
X187120000Y-93840000D01*
X187120000Y-79840000D02*
X186120000Y-79840000D01*
X187120000Y-79840000D02*
X187120000Y-80840000D01*
X187120000Y-92840000D02*
X187120000Y-93840000D01*
X173120000Y-114840000D02*
X173120000Y-113840000D01*
X173120000Y-127840000D02*
X173120000Y-126840000D01*
X173120000Y-127840000D02*
X174120000Y-127840000D01*
X174120000Y-113840000D02*
X173120000Y-113840000D01*
X186120000Y-127840000D02*
X187120000Y-127840000D01*
X187120000Y-113840000D02*
X186120000Y-113840000D01*
X187120000Y-113840000D02*
X187120000Y-114840000D01*
X187120000Y-126840000D02*
X187120000Y-127840000D01*
X155120000Y-143840000D02*
X155120000Y-142840000D01*
X155120000Y-156840000D02*
X155120000Y-155840000D01*
X155120000Y-156840000D02*
X156120000Y-156840000D01*
X156120000Y-142840000D02*
X155120000Y-142840000D01*
X168120000Y-156840000D02*
X169120000Y-156840000D01*
X169120000Y-142840000D02*
X168120000Y-142840000D01*
X169120000Y-142840000D02*
X169120000Y-143840000D01*
X169120000Y-155840000D02*
X169120000Y-156840000D01*
D11*
X274865000Y-87165000D02*
X274865000Y-88635000D01*
X274865000Y-88635000D02*
X277150000Y-88635000D01*
X277150000Y-87165000D02*
X274865000Y-87165000D01*
D10*
X173120000Y-131840000D02*
X173120000Y-130840000D01*
X173120000Y-144840000D02*
X173120000Y-143840000D01*
X173120000Y-144840000D02*
X174120000Y-144840000D01*
X174120000Y-130840000D02*
X173120000Y-130840000D01*
X186120000Y-144840000D02*
X187120000Y-144840000D01*
X187120000Y-130840000D02*
X186120000Y-130840000D01*
X187120000Y-130840000D02*
X187120000Y-131840000D01*
X187120000Y-143840000D02*
X187120000Y-144840000D01*
X137120000Y-143840000D02*
X137120000Y-142840000D01*
X137120000Y-156840000D02*
X137120000Y-155840000D01*
X137120000Y-156840000D02*
X138120000Y-156840000D01*
X138120000Y-142840000D02*
X137120000Y-142840000D01*
X150120000Y-156840000D02*
X151120000Y-156840000D01*
X151120000Y-142840000D02*
X150120000Y-142840000D01*
X151120000Y-142840000D02*
X151120000Y-143840000D01*
X151120000Y-155840000D02*
X151120000Y-156840000D01*
X137120000Y-92840000D02*
X137120000Y-91840000D01*
X137120000Y-105840000D02*
X137120000Y-104840000D01*
X137120000Y-105840000D02*
X138120000Y-105840000D01*
X138120000Y-91840000D02*
X137120000Y-91840000D01*
X150120000Y-105840000D02*
X151120000Y-105840000D01*
X151120000Y-91840000D02*
X150120000Y-91840000D01*
X151120000Y-91840000D02*
X151120000Y-92840000D01*
X151120000Y-104840000D02*
X151120000Y-105840000D01*
%LPC*%
D12*
X273585000Y-96375000D03*
D13*
X277610000Y-96380000D03*
X277610000Y-107620000D03*
D12*
X273585000Y-107625000D03*
D14*
X267600000Y-146600000D03*
X168500000Y-87200000D03*
X186100000Y-153900000D03*
D15*
X228620000Y-141840000D03*
D16*
X234120000Y-135890000D03*
D17*
X234120000Y-141840000D03*
D16*
X239120000Y-138090000D03*
D15*
X239620000Y-141840000D03*
D18*
X234120000Y-147740000D03*
X229120000Y-145640000D03*
D15*
X174620000Y-103840000D03*
D16*
X180120000Y-97890000D03*
D17*
X180120000Y-103840000D03*
D16*
X185120000Y-100090000D03*
D15*
X185620000Y-103840000D03*
D18*
X180120000Y-109740000D03*
X175120000Y-107640000D03*
D19*
X276120000Y-119550000D03*
X278330000Y-119550000D03*
D20*
X277230000Y-117400000D03*
X277230000Y-114400000D03*
D19*
X276120000Y-112250000D03*
X278330000Y-112250000D03*
D21*
X275470000Y-118150000D03*
X275470000Y-115150000D03*
X275470000Y-113650000D03*
D15*
X156620000Y-98840000D03*
D16*
X162120000Y-92890000D03*
D17*
X162120000Y-98840000D03*
D16*
X167120000Y-95090000D03*
D15*
X167620000Y-98840000D03*
D18*
X162120000Y-104740000D03*
X157120000Y-102640000D03*
D15*
X257620000Y-160840000D03*
D16*
X263120000Y-154890000D03*
D17*
X263120000Y-160840000D03*
D16*
X268120000Y-157090000D03*
D15*
X268620000Y-160840000D03*
D18*
X263120000Y-166740000D03*
X258120000Y-164640000D03*
D15*
X138620000Y-115840000D03*
D16*
X144120000Y-109890000D03*
D17*
X144120000Y-115840000D03*
D16*
X149120000Y-112090000D03*
D15*
X149620000Y-115840000D03*
D18*
X144120000Y-121740000D03*
X139120000Y-119640000D03*
D15*
X138620000Y-132840000D03*
D16*
X144120000Y-126890000D03*
D17*
X144120000Y-132840000D03*
D16*
X149120000Y-129090000D03*
D15*
X149620000Y-132840000D03*
D18*
X144120000Y-138740000D03*
X139120000Y-136640000D03*
D15*
X192620000Y-116840000D03*
D16*
X198120000Y-110890000D03*
D17*
X198120000Y-116840000D03*
D16*
X203120000Y-113090000D03*
D15*
X203620000Y-116840000D03*
D18*
X198120000Y-122740000D03*
X193120000Y-120640000D03*
D22*
X244850000Y-95540000D03*
X243834000Y-90460000D03*
X245866000Y-90460000D03*
D23*
X245485000Y-94270000D03*
X244215000Y-94270000D03*
X245485000Y-93000000D03*
X244215000Y-93000000D03*
X245485000Y-91730000D03*
X244215000Y-91730000D03*
D15*
X192620000Y-133840000D03*
D16*
X198120000Y-127890000D03*
D17*
X198120000Y-133840000D03*
D16*
X203120000Y-130090000D03*
D15*
X203620000Y-133840000D03*
D18*
X198120000Y-139740000D03*
X193120000Y-137640000D03*
D15*
X156620000Y-115840000D03*
D16*
X162120000Y-109890000D03*
D17*
X162120000Y-115840000D03*
D16*
X167120000Y-112090000D03*
D15*
X167620000Y-115840000D03*
D18*
X162120000Y-121740000D03*
X157120000Y-119640000D03*
D24*
X272250000Y-131650000D03*
X272250000Y-123700000D03*
X276750000Y-131650000D03*
X276750000Y-123700000D03*
D15*
X210620000Y-138840000D03*
D16*
X216120000Y-132890000D03*
D17*
X216120000Y-138840000D03*
D16*
X221120000Y-135090000D03*
D15*
X221620000Y-138840000D03*
D18*
X216120000Y-144740000D03*
X211120000Y-142640000D03*
D15*
X203620000Y-160840000D03*
D16*
X209120000Y-154890000D03*
D17*
X209120000Y-160840000D03*
D16*
X214120000Y-157090000D03*
D15*
X214620000Y-160840000D03*
D18*
X209120000Y-166740000D03*
X204120000Y-164640000D03*
D15*
X210620000Y-121840000D03*
D16*
X216120000Y-115890000D03*
D17*
X216120000Y-121840000D03*
D16*
X221120000Y-118090000D03*
D15*
X221620000Y-121840000D03*
D18*
X216120000Y-127740000D03*
X211120000Y-125640000D03*
D15*
X221620000Y-160840000D03*
D16*
X227120000Y-154890000D03*
D17*
X227120000Y-160840000D03*
D16*
X232120000Y-157090000D03*
D15*
X232620000Y-160840000D03*
D18*
X227120000Y-166740000D03*
X222120000Y-164640000D03*
D25*
X275562500Y-89800000D03*
X277137500Y-89800000D03*
D15*
X239620000Y-160840000D03*
D16*
X245120000Y-154890000D03*
D17*
X245120000Y-160840000D03*
D16*
X250120000Y-157090000D03*
D15*
X250620000Y-160840000D03*
D18*
X245120000Y-166740000D03*
X240120000Y-164640000D03*
D15*
X210620000Y-87840000D03*
D16*
X216120000Y-81890000D03*
D17*
X216120000Y-87840000D03*
D16*
X221120000Y-84090000D03*
D15*
X221620000Y-87840000D03*
D18*
X216120000Y-93740000D03*
X211120000Y-91640000D03*
D15*
X210620000Y-104840000D03*
D16*
X216120000Y-98890000D03*
D17*
X216120000Y-104840000D03*
D16*
X221120000Y-101090000D03*
D15*
X221620000Y-104840000D03*
D18*
X216120000Y-110740000D03*
X211120000Y-108640000D03*
D15*
X192620000Y-99840000D03*
D16*
X198120000Y-93890000D03*
D17*
X198120000Y-99840000D03*
D16*
X203120000Y-96090000D03*
D15*
X203620000Y-99840000D03*
D18*
X198120000Y-105740000D03*
X193120000Y-103640000D03*
D15*
X248620000Y-143840000D03*
D16*
X254120000Y-137890000D03*
D17*
X254120000Y-143840000D03*
D16*
X259120000Y-140090000D03*
D15*
X259620000Y-143840000D03*
D18*
X254120000Y-149740000D03*
X249120000Y-147640000D03*
D15*
X156620000Y-132840000D03*
D16*
X162120000Y-126890000D03*
D17*
X162120000Y-132840000D03*
D16*
X167120000Y-129090000D03*
D15*
X167620000Y-132840000D03*
D18*
X162120000Y-138740000D03*
X157120000Y-136640000D03*
D26*
X253500000Y-98000000D03*
D27*
X251500000Y-98000000D03*
D15*
X192620000Y-82840000D03*
D16*
X198120000Y-76890000D03*
D17*
X198120000Y-82840000D03*
D16*
X203120000Y-79090000D03*
D15*
X203620000Y-82840000D03*
D18*
X198120000Y-88740000D03*
X193120000Y-86640000D03*
D15*
X228620000Y-124840000D03*
D16*
X234120000Y-118890000D03*
D17*
X234120000Y-124840000D03*
D16*
X239120000Y-121090000D03*
D15*
X239620000Y-124840000D03*
D18*
X234120000Y-130740000D03*
X229120000Y-128640000D03*
D15*
X228620000Y-90840000D03*
D16*
X234120000Y-84890000D03*
D17*
X234120000Y-90840000D03*
D16*
X239120000Y-87090000D03*
D15*
X239620000Y-90840000D03*
D18*
X234120000Y-96740000D03*
X229120000Y-94640000D03*
D15*
X228620000Y-107840000D03*
D16*
X234120000Y-101890000D03*
D17*
X234120000Y-107840000D03*
D16*
X239120000Y-104090000D03*
D15*
X239620000Y-107840000D03*
D18*
X234120000Y-113740000D03*
X229120000Y-111640000D03*
D15*
X174620000Y-86840000D03*
D16*
X180120000Y-80890000D03*
D17*
X180120000Y-86840000D03*
D16*
X185120000Y-83090000D03*
D15*
X185620000Y-86840000D03*
D18*
X180120000Y-92740000D03*
X175120000Y-90640000D03*
D15*
X174620000Y-120840000D03*
D16*
X180120000Y-114890000D03*
D17*
X180120000Y-120840000D03*
D16*
X185120000Y-117090000D03*
D15*
X185620000Y-120840000D03*
D18*
X180120000Y-126740000D03*
X175120000Y-124640000D03*
D15*
X156620000Y-149840000D03*
D16*
X162120000Y-143890000D03*
D17*
X162120000Y-149840000D03*
D16*
X167120000Y-146090000D03*
D15*
X167620000Y-149840000D03*
D18*
X162120000Y-155740000D03*
X157120000Y-153640000D03*
D25*
X275562500Y-87900000D03*
X277137500Y-87900000D03*
D15*
X174620000Y-137840000D03*
D16*
X180120000Y-131890000D03*
D17*
X180120000Y-137840000D03*
D16*
X185120000Y-134090000D03*
D15*
X185620000Y-137840000D03*
D18*
X180120000Y-143740000D03*
X175120000Y-141640000D03*
D15*
X138620000Y-149840000D03*
D16*
X144120000Y-143890000D03*
D17*
X144120000Y-149840000D03*
D16*
X149120000Y-146090000D03*
D15*
X149620000Y-149840000D03*
D18*
X144120000Y-155740000D03*
X139120000Y-153640000D03*
D15*
X138620000Y-98840000D03*
D16*
X144120000Y-92890000D03*
D17*
X144120000Y-98840000D03*
D16*
X149120000Y-95090000D03*
D15*
X149620000Y-98840000D03*
D18*
X144120000Y-104740000D03*
X139120000Y-102640000D03*
%LPD*%
M02*
