G04 #@! TF.GenerationSoftware,KiCad,Pcbnew,7.0.9*
G04 #@! TF.CreationDate,2024-01-11T22:18:44+01:00*
G04 #@! TF.ProjectId,keyboard,6b657962-6f61-4726-942e-6b696361645f,v1.0.0*
G04 #@! TF.SameCoordinates,Original*
G04 #@! TF.FileFunction,Profile,NP*
%FSLAX46Y46*%
G04 Gerber Fmt 4.6, Leading zero omitted, Abs format (unit mm)*
G04 Created by KiCad (PCBNEW 7.0.9) date 2024-01-11 22:18:44*
%MOMM*%
%LPD*%
G01*
G04 APERTURE LIST*
G04 #@! TA.AperFunction,Profile*
%ADD10C,0.200000*%
G04 #@! TD*
%ADD11C,0.200000*%
G04 APERTURE END LIST*
D10*
X185424851Y-74438151D02*
X184586657Y-75267558D01*
X274132097Y-165982430D02*
X274132097Y-143211728D01*
D11*
X274132097Y-143211728D02*
X274141078Y-142849521D01*
X274167847Y-142489772D01*
X274212157Y-142133081D01*
X274273758Y-141780045D01*
X274352404Y-141431264D01*
X274447845Y-141087335D01*
X274559835Y-140748858D01*
X274688126Y-140416432D01*
X274832468Y-140090654D01*
X274992615Y-139772124D01*
X275168318Y-139461441D01*
X275359329Y-139159202D01*
X275565401Y-138866007D01*
X275786285Y-138582454D01*
X276021734Y-138309142D01*
X276271500Y-138046670D01*
D10*
X263050000Y-82000000D02*
X263050000Y-77570776D01*
X263050000Y-82000000D02*
X249050000Y-82000000D01*
D11*
X133150000Y-154960372D02*
X133157055Y-155239058D01*
X133177977Y-155514086D01*
X133212425Y-155785116D01*
X133260058Y-156051806D01*
X133320536Y-156313817D01*
X133393519Y-156570808D01*
X133478667Y-156822439D01*
X133575639Y-157068371D01*
X133684096Y-157308262D01*
X133803697Y-157541772D01*
X133934101Y-157768562D01*
X134074969Y-157988290D01*
X134225961Y-158200618D01*
X134386735Y-158405203D01*
X134556952Y-158601707D01*
X134736272Y-158789789D01*
X134924354Y-158969109D01*
X135120858Y-159139326D01*
X135325443Y-159300100D01*
X135537771Y-159451091D01*
X135757499Y-159591959D01*
X135984289Y-159722364D01*
X136217800Y-159841964D01*
X136457691Y-159950421D01*
X136703622Y-160047393D01*
X136955254Y-160132541D01*
X137212245Y-160205524D01*
X137474256Y-160266002D01*
X137740946Y-160313635D01*
X138011976Y-160348082D01*
X138287004Y-160369004D01*
X138565691Y-160376060D01*
D10*
X276271500Y-138046670D02*
X277035795Y-137282898D01*
D11*
X138630286Y-88619197D02*
X138348258Y-88626342D01*
X138069934Y-88647520D01*
X137795657Y-88682387D01*
X137525772Y-88730597D01*
X137260622Y-88791807D01*
X137000553Y-88865672D01*
X136745909Y-88951848D01*
X136497034Y-89049990D01*
X136254272Y-89159755D01*
X136017968Y-89280797D01*
X135788466Y-89412773D01*
X135566110Y-89555338D01*
X135351245Y-89708147D01*
X135144214Y-89870856D01*
X134945364Y-90043122D01*
X134755037Y-90224599D01*
X134573578Y-90414943D01*
X134401331Y-90613810D01*
X134238641Y-90820856D01*
X134085852Y-91035735D01*
X133943308Y-91258105D01*
X133811354Y-91487619D01*
X133690334Y-91723935D01*
X133580592Y-91966707D01*
X133482473Y-92215592D01*
X133396321Y-92470244D01*
X133322481Y-92730320D01*
X133261296Y-92995475D01*
X133213111Y-93265365D01*
X133178270Y-93539645D01*
X133157118Y-93817971D01*
X133150000Y-94100000D01*
D10*
X138565691Y-160376060D02*
X163647364Y-160375536D01*
D11*
X172257691Y-76637499D02*
X171895268Y-76646418D01*
X171535274Y-76673023D01*
X171178298Y-76717069D01*
X170824934Y-76778313D01*
X170475774Y-76856511D01*
X170131409Y-76951421D01*
X169792432Y-77062797D01*
X169459435Y-77190398D01*
X169133010Y-77333980D01*
X168813748Y-77493298D01*
X168502243Y-77668110D01*
X168199086Y-77858172D01*
X167904868Y-78063241D01*
X167620183Y-78283073D01*
X167345623Y-78517424D01*
X167081779Y-78766052D01*
X194849593Y-169135216D02*
X195247790Y-169273503D01*
X195647264Y-169407491D01*
X196047982Y-169537176D01*
X196449906Y-169662549D01*
X196853003Y-169783607D01*
X197257238Y-169900342D01*
X197662575Y-170012749D01*
X198068979Y-170120822D01*
X198476416Y-170224554D01*
X198884850Y-170323939D01*
X199294247Y-170418973D01*
X199704571Y-170509648D01*
X200115787Y-170595958D01*
X200527861Y-170677898D01*
X200940757Y-170755462D01*
X201354440Y-170828643D01*
X201768876Y-170897436D01*
X202184029Y-170961835D01*
X202599865Y-171021833D01*
X203016348Y-171077425D01*
X203433443Y-171128604D01*
X203851115Y-171175365D01*
X204269330Y-171217702D01*
X204688052Y-171255608D01*
X205107247Y-171289078D01*
X205526878Y-171318105D01*
X205946912Y-171342684D01*
X206367313Y-171362809D01*
X206788047Y-171378473D01*
X207209077Y-171389670D01*
X207630370Y-171396396D01*
X208051891Y-171398643D01*
X159279155Y-86490645D02*
X159015310Y-86739272D01*
X158740750Y-86973623D01*
X158456065Y-87193455D01*
X158161848Y-87398523D01*
X157858691Y-87588585D01*
X157547185Y-87763397D01*
X157227924Y-87922716D01*
X156901499Y-88066297D01*
X156568501Y-88193898D01*
X156229524Y-88305275D01*
X155885160Y-88400184D01*
X155536000Y-88478383D01*
X155182636Y-88539627D01*
X154825660Y-88583673D01*
X154465666Y-88610277D01*
X154103244Y-88619197D01*
D10*
X206146578Y-72643428D02*
X189787883Y-72643428D01*
D11*
X268716398Y-171398129D02*
X268995082Y-171391067D01*
X269270108Y-171370140D01*
X269541135Y-171335687D01*
X269807823Y-171288050D01*
X270069832Y-171227568D01*
X270326821Y-171154581D01*
X270578450Y-171069431D01*
X270824379Y-170972456D01*
X271064268Y-170863997D01*
X271297777Y-170744395D01*
X271524565Y-170613989D01*
X271744292Y-170473121D01*
X271956618Y-170322129D01*
X272161202Y-170161355D01*
X272357705Y-169991138D01*
X272545787Y-169811819D01*
X272725106Y-169623737D01*
X272895323Y-169427234D01*
X273056097Y-169222650D01*
X273207089Y-169010324D01*
X273347957Y-168790597D01*
X273478363Y-168563809D01*
X273597965Y-168330300D01*
X273706424Y-168090411D01*
X273803399Y-167844482D01*
X273888549Y-167592853D01*
X273961536Y-167335864D01*
X274022018Y-167073855D01*
X274069655Y-166807167D01*
X274104108Y-166536140D01*
X274125035Y-166261114D01*
X274132097Y-165982430D01*
X277588891Y-79157079D02*
X277394270Y-78971873D01*
X277191611Y-78797284D01*
X276981358Y-78633495D01*
X276763954Y-78480691D01*
X276539844Y-78339056D01*
X276309471Y-78208772D01*
X276073280Y-78090025D01*
X275831714Y-77982999D01*
X275585218Y-77887876D01*
X275334235Y-77804841D01*
X275079209Y-77734078D01*
X274820585Y-77675770D01*
X274558807Y-77630102D01*
X274294318Y-77597258D01*
X274027563Y-77577421D01*
X273758985Y-77570776D01*
D10*
X279175199Y-97400000D02*
X279175199Y-82986982D01*
X181256624Y-76637499D02*
X172257691Y-76637499D01*
X154103244Y-88619197D02*
X138630286Y-88619197D01*
D11*
X229031490Y-77570776D02*
X228795684Y-77570772D01*
X228559878Y-77570769D01*
X228324072Y-77570766D01*
X228088266Y-77570764D01*
X227852460Y-77570762D01*
X227616654Y-77570761D01*
X227380848Y-77570760D01*
X227145042Y-77570760D01*
X226909236Y-77570760D01*
X226673430Y-77570761D01*
X226437624Y-77570762D01*
X226201818Y-77570764D01*
X225966012Y-77570766D01*
X225730206Y-77570769D01*
X225494400Y-77570772D01*
X225258594Y-77570776D01*
D10*
X273180000Y-106690000D02*
X273180000Y-97400000D01*
D11*
X277035795Y-137282898D02*
X277285582Y-137020400D01*
X277521051Y-136747061D01*
X277741952Y-136463479D01*
X277948038Y-136170254D01*
X278139061Y-135867984D01*
X278314772Y-135557268D01*
X278474924Y-135238704D01*
X278619269Y-134912893D01*
X278747558Y-134580431D01*
X278859544Y-134241919D01*
X278954978Y-133897955D01*
X279033613Y-133549138D01*
X279095201Y-133196066D01*
X279139493Y-132839339D01*
X279166241Y-132479556D01*
X279175199Y-132117315D01*
X189787883Y-72643428D02*
X189482366Y-72650966D01*
X189178898Y-72673413D01*
X188877976Y-72710565D01*
X188580099Y-72762214D01*
X188285768Y-72828157D01*
X187995481Y-72908188D01*
X187709737Y-73002101D01*
X187429035Y-73109691D01*
X187153875Y-73230753D01*
X186884756Y-73365082D01*
X186622177Y-73512472D01*
X186366637Y-73672717D01*
X186118635Y-73845613D01*
X185878670Y-74030954D01*
X185647243Y-74228535D01*
X185424851Y-74438151D01*
D10*
X273758985Y-77570776D02*
X263050000Y-77570776D01*
X249050000Y-77570000D02*
X229031490Y-77570776D01*
X273180000Y-106690000D02*
X279175199Y-106690000D01*
X279175199Y-132117315D02*
X279175199Y-106690000D01*
X225258594Y-77570776D02*
X217240476Y-77571293D01*
D11*
X211335923Y-74758027D02*
X211070346Y-74510888D01*
X210794213Y-74277971D01*
X210508105Y-74059511D01*
X210212608Y-73855748D01*
X209908303Y-73666918D01*
X209595775Y-73493260D01*
X209275607Y-73335012D01*
X208948383Y-73192410D01*
X208614686Y-73065694D01*
X208275099Y-72955100D01*
X207930206Y-72860866D01*
X207580592Y-72783231D01*
X207226838Y-72722432D01*
X206869528Y-72678706D01*
X206509247Y-72652292D01*
X206146578Y-72643428D01*
D10*
X208051891Y-171398643D02*
X268716398Y-171398129D01*
X249050000Y-82000000D02*
X249050000Y-77570000D01*
X133150000Y-94100000D02*
X133150000Y-154960372D01*
X273180000Y-97400000D02*
X279175199Y-97400000D01*
X212051131Y-75456693D02*
X211335923Y-74758027D01*
X176087431Y-162507708D02*
X194849593Y-169135216D01*
D11*
X279175199Y-82986982D02*
X279168552Y-82718404D01*
X279148715Y-82451648D01*
X279115870Y-82187159D01*
X279070202Y-81925381D01*
X279011894Y-81666757D01*
X278941131Y-81411732D01*
X278858096Y-81160749D01*
X278762973Y-80914253D01*
X278655945Y-80672688D01*
X278537198Y-80436496D01*
X278406915Y-80206124D01*
X278265279Y-79982014D01*
X278112475Y-79764610D01*
X277948686Y-79554357D01*
X277774097Y-79351699D01*
X277588891Y-79157079D01*
X163647364Y-160375536D02*
X164044545Y-160377631D01*
X164441512Y-160383948D01*
X164838232Y-160394478D01*
X165234673Y-160409217D01*
X165630800Y-160428159D01*
X166026582Y-160451299D01*
X166421985Y-160478631D01*
X166816976Y-160510148D01*
X167211522Y-160545846D01*
X167605590Y-160585719D01*
X167999148Y-160629761D01*
X168392161Y-160677967D01*
X168784598Y-160730330D01*
X169176425Y-160786846D01*
X169567610Y-160847508D01*
X169958118Y-160912311D01*
X170347918Y-160981250D01*
X170736976Y-161054317D01*
X171125259Y-161131509D01*
X171512735Y-161212819D01*
X171899370Y-161298242D01*
X172285131Y-161387772D01*
X172669985Y-161481403D01*
X173053900Y-161579129D01*
X173436842Y-161680946D01*
X173818779Y-161786847D01*
X174199676Y-161896827D01*
X174579502Y-162010879D01*
X174958224Y-162128999D01*
X175335808Y-162251181D01*
X175712221Y-162377419D01*
X176087431Y-162507708D01*
X217240476Y-77571293D02*
X216877804Y-77562434D01*
X216517521Y-77536026D01*
X216160210Y-77492305D01*
X215806455Y-77431509D01*
X215456839Y-77353876D01*
X215111945Y-77259645D01*
X214772357Y-77149052D01*
X214438659Y-77022335D01*
X214111434Y-76879733D01*
X213791266Y-76721483D01*
X213478739Y-76547823D01*
X213174435Y-76358990D01*
X212878939Y-76155223D01*
X212592834Y-75936759D01*
X212316703Y-75703837D01*
X212051131Y-75456693D01*
X184586657Y-75267558D02*
X184416929Y-75427564D01*
X184240303Y-75578384D01*
X184057159Y-75719861D01*
X183867880Y-75851838D01*
X183672845Y-75974158D01*
X183472437Y-76086665D01*
X183267035Y-76189202D01*
X183057022Y-76281611D01*
X182842778Y-76363737D01*
X182624684Y-76435422D01*
X182403122Y-76496509D01*
X182178473Y-76546843D01*
X181951117Y-76586265D01*
X181721436Y-76614620D01*
X181489811Y-76631750D01*
X181256624Y-76637499D01*
D10*
X167081779Y-78766052D02*
X159279155Y-86490645D01*
M02*
