G04 #@! TF.GenerationSoftware,KiCad,Pcbnew,7.0.9*
G04 #@! TF.CreationDate,2024-01-11T22:18:44+01:00*
G04 #@! TF.ProjectId,keyboard,6b657962-6f61-4726-942e-6b696361645f,v1.0.0*
G04 #@! TF.SameCoordinates,Original*
G04 #@! TF.FileFunction,Soldermask,Bot*
G04 #@! TF.FilePolarity,Negative*
%FSLAX46Y46*%
G04 Gerber Fmt 4.6, Leading zero omitted, Abs format (unit mm)*
G04 Created by KiCad (PCBNEW 7.0.9) date 2024-01-11 22:18:44*
%MOMM*%
%LPD*%
G01*
G04 APERTURE LIST*
G04 Aperture macros list*
%AMRoundRect*
0 Rectangle with rounded corners*
0 $1 Rounding radius*
0 $2 $3 $4 $5 $6 $7 $8 $9 X,Y pos of 4 corners*
0 Add a 4 corners polygon primitive as box body*
4,1,4,$2,$3,$4,$5,$6,$7,$8,$9,$2,$3,0*
0 Add four circle primitives for the rounded corners*
1,1,$1+$1,$2,$3*
1,1,$1+$1,$4,$5*
1,1,$1+$1,$6,$7*
1,1,$1+$1,$8,$9*
0 Add four rect primitives between the rounded corners*
20,1,$1+$1,$2,$3,$4,$5,0*
20,1,$1+$1,$4,$5,$6,$7,0*
20,1,$1+$1,$6,$7,$8,$9,0*
20,1,$1+$1,$8,$9,$2,$3,0*%
G04 Aperture macros list end*
%ADD10R,1.100000X0.600000*%
%ADD11R,1.100000X0.300000*%
%ADD12O,1.800000X1.000000*%
%ADD13O,2.200000X1.000000*%
%ADD14C,2.200000*%
%ADD15C,1.701800*%
%ADD16C,3.000000*%
%ADD17C,3.429000*%
%ADD18R,2.600000X2.600000*%
%ADD19C,2.032000*%
%ADD20C,0.900000*%
%ADD21C,0.990600*%
%ADD22RoundRect,0.250000X0.350000X0.625000X-0.350000X0.625000X-0.350000X-0.625000X0.350000X-0.625000X0*%
%ADD23O,1.200000X1.750000*%
%ADD24RoundRect,0.218750X-0.256250X0.218750X-0.256250X-0.218750X0.256250X-0.218750X0.256250X0.218750X0*%
%ADD25RoundRect,0.200000X-0.275000X0.200000X-0.275000X-0.200000X0.275000X-0.200000X0.275000X0.200000X0*%
%ADD26RoundRect,0.225000X-0.250000X0.225000X-0.250000X-0.225000X0.250000X-0.225000X0.250000X0.225000X0*%
%ADD27RoundRect,0.200000X0.275000X-0.200000X0.275000X0.200000X-0.275000X0.200000X-0.275000X-0.200000X0*%
%ADD28RoundRect,0.150000X-0.512500X-0.150000X0.512500X-0.150000X0.512500X0.150000X-0.512500X0.150000X0*%
%ADD29RoundRect,0.200000X0.200000X0.275000X-0.200000X0.275000X-0.200000X-0.275000X0.200000X-0.275000X0*%
%ADD30RoundRect,0.062500X-0.375000X-0.062500X0.375000X-0.062500X0.375000X0.062500X-0.375000X0.062500X0*%
%ADD31RoundRect,0.062500X-0.062500X-0.375000X0.062500X-0.375000X0.062500X0.375000X-0.062500X0.375000X0*%
%ADD32R,1.600000X1.600000*%
%ADD33R,1.800000X1.000000*%
%ADD34RoundRect,0.150000X-0.587500X-0.150000X0.587500X-0.150000X0.587500X0.150000X-0.587500X0.150000X0*%
%ADD35RoundRect,0.218750X-0.218750X-0.256250X0.218750X-0.256250X0.218750X0.256250X-0.218750X0.256250X0*%
%ADD36R,1.498600X0.698500*%
%ADD37C,0.599440*%
%ADD38R,1.498600X1.498600*%
%ADD39R,0.599440X0.599440*%
%ADD40RoundRect,0.225000X0.250000X-0.225000X0.250000X0.225000X-0.250000X0.225000X-0.250000X-0.225000X0*%
%ADD41RoundRect,0.218750X0.218750X0.256250X-0.218750X0.256250X-0.218750X-0.256250X0.218750X-0.256250X0*%
%ADD42RoundRect,0.200000X-0.200000X-0.275000X0.200000X-0.275000X0.200000X0.275000X-0.200000X0.275000X0*%
%ADD43RoundRect,0.225000X-0.225000X-0.250000X0.225000X-0.250000X0.225000X0.250000X-0.225000X0.250000X0*%
%ADD44RoundRect,0.112500X-0.112500X0.187500X-0.112500X-0.187500X0.112500X-0.187500X0.112500X0.187500X0*%
G04 APERTURE END LIST*
D10*
X272260000Y-98800000D03*
X272260000Y-99600000D03*
D11*
X272260000Y-100750000D03*
X272260000Y-101750000D03*
X272260000Y-102250000D03*
X272260000Y-103250000D03*
D10*
X272255000Y-104400000D03*
X272260000Y-105200000D03*
X272260000Y-105200000D03*
X272255000Y-104400000D03*
D11*
X272260000Y-103750000D03*
X272260000Y-102750000D03*
X272260000Y-101250000D03*
X272260000Y-100250000D03*
D10*
X272260000Y-99600000D03*
X272260000Y-98800000D03*
D12*
X273585000Y-96375000D03*
D13*
X277610000Y-96380000D03*
X277610000Y-107620000D03*
D12*
X273585000Y-107625000D03*
D14*
X267600000Y-146600000D03*
X168500000Y-87200000D03*
X186100000Y-153900000D03*
D15*
X228620000Y-141840000D03*
D16*
X234120000Y-135890000D03*
D17*
X234120000Y-141840000D03*
D16*
X239120000Y-138090000D03*
D15*
X239620000Y-141840000D03*
D18*
X230845000Y-135890000D03*
D19*
X234120000Y-147740000D03*
X229120000Y-145640000D03*
D18*
X242395000Y-138090000D03*
D15*
X174620000Y-103840000D03*
D16*
X180120000Y-97890000D03*
D17*
X180120000Y-103840000D03*
D16*
X185120000Y-100090000D03*
D15*
X185620000Y-103840000D03*
D18*
X176845000Y-97890000D03*
D19*
X180120000Y-109740000D03*
X175120000Y-107640000D03*
D18*
X188395000Y-100090000D03*
D20*
X277230000Y-117400000D03*
X277230000Y-114400000D03*
D15*
X156620000Y-98840000D03*
D16*
X162120000Y-92890000D03*
D17*
X162120000Y-98840000D03*
D16*
X167120000Y-95090000D03*
D15*
X167620000Y-98840000D03*
D18*
X158845000Y-92890000D03*
D19*
X162120000Y-104740000D03*
X157120000Y-102640000D03*
D18*
X170395000Y-95090000D03*
D15*
X257620000Y-160840000D03*
D16*
X263120000Y-154890000D03*
D17*
X263120000Y-160840000D03*
D16*
X268120000Y-157090000D03*
D15*
X268620000Y-160840000D03*
D18*
X259845000Y-154890000D03*
D19*
X263120000Y-166740000D03*
X258120000Y-164640000D03*
D18*
X271395000Y-157090000D03*
D15*
X138620000Y-115840000D03*
D16*
X144120000Y-109890000D03*
D17*
X144120000Y-115840000D03*
D16*
X149120000Y-112090000D03*
D15*
X149620000Y-115840000D03*
D18*
X140845000Y-109890000D03*
D19*
X144120000Y-121740000D03*
X139120000Y-119640000D03*
D18*
X152395000Y-112090000D03*
D15*
X138620000Y-132840000D03*
D16*
X144120000Y-126890000D03*
D17*
X144120000Y-132840000D03*
D16*
X149120000Y-129090000D03*
D15*
X149620000Y-132840000D03*
D18*
X140845000Y-126890000D03*
D19*
X144120000Y-138740000D03*
X139120000Y-136640000D03*
D18*
X152395000Y-129090000D03*
D15*
X192620000Y-116840000D03*
D16*
X198120000Y-110890000D03*
D17*
X198120000Y-116840000D03*
D16*
X203120000Y-113090000D03*
D15*
X203620000Y-116840000D03*
D18*
X194845000Y-110890000D03*
D19*
X198120000Y-122740000D03*
X193120000Y-120640000D03*
D18*
X206395000Y-113090000D03*
D21*
X244850000Y-95540000D03*
X243834000Y-90460000D03*
X245866000Y-90460000D03*
D15*
X192620000Y-133840000D03*
D16*
X198120000Y-127890000D03*
D17*
X198120000Y-133840000D03*
D16*
X203120000Y-130090000D03*
D15*
X203620000Y-133840000D03*
D18*
X194845000Y-127890000D03*
D19*
X198120000Y-139740000D03*
X193120000Y-137640000D03*
D18*
X206395000Y-130090000D03*
D15*
X156620000Y-115840000D03*
D16*
X162120000Y-109890000D03*
D17*
X162120000Y-115840000D03*
D16*
X167120000Y-112090000D03*
D15*
X167620000Y-115840000D03*
D18*
X158845000Y-109890000D03*
D19*
X162120000Y-121740000D03*
X157120000Y-119640000D03*
D18*
X170395000Y-112090000D03*
D15*
X210620000Y-138840000D03*
D16*
X216120000Y-132890000D03*
D17*
X216120000Y-138840000D03*
D16*
X221120000Y-135090000D03*
D15*
X221620000Y-138840000D03*
D18*
X212845000Y-132890000D03*
D19*
X216120000Y-144740000D03*
X211120000Y-142640000D03*
D18*
X224395000Y-135090000D03*
D15*
X203620000Y-160840000D03*
D16*
X209120000Y-154890000D03*
D17*
X209120000Y-160840000D03*
D16*
X214120000Y-157090000D03*
D15*
X214620000Y-160840000D03*
D18*
X205845000Y-154890000D03*
D19*
X209120000Y-166740000D03*
X204120000Y-164640000D03*
D18*
X217395000Y-157090000D03*
D15*
X210620000Y-121840000D03*
D16*
X216120000Y-115890000D03*
D17*
X216120000Y-121840000D03*
D16*
X221120000Y-118090000D03*
D15*
X221620000Y-121840000D03*
D18*
X212845000Y-115890000D03*
D19*
X216120000Y-127740000D03*
X211120000Y-125640000D03*
D18*
X224395000Y-118090000D03*
D15*
X221620000Y-160840000D03*
D16*
X227120000Y-154890000D03*
D17*
X227120000Y-160840000D03*
D16*
X232120000Y-157090000D03*
D15*
X232620000Y-160840000D03*
D18*
X223845000Y-154890000D03*
D19*
X227120000Y-166740000D03*
X222120000Y-164640000D03*
D18*
X235395000Y-157090000D03*
D15*
X239620000Y-160840000D03*
D16*
X245120000Y-154890000D03*
D17*
X245120000Y-160840000D03*
D16*
X250120000Y-157090000D03*
D15*
X250620000Y-160840000D03*
D18*
X241845000Y-154890000D03*
D19*
X245120000Y-166740000D03*
X240120000Y-164640000D03*
D18*
X253395000Y-157090000D03*
D15*
X210620000Y-87840000D03*
D16*
X216120000Y-81890000D03*
D17*
X216120000Y-87840000D03*
D16*
X221120000Y-84090000D03*
D15*
X221620000Y-87840000D03*
D18*
X212845000Y-81890000D03*
D19*
X216120000Y-93740000D03*
X211120000Y-91640000D03*
D18*
X224395000Y-84090000D03*
D15*
X210620000Y-104840000D03*
D16*
X216120000Y-98890000D03*
D17*
X216120000Y-104840000D03*
D16*
X221120000Y-101090000D03*
D15*
X221620000Y-104840000D03*
D18*
X212845000Y-98890000D03*
D19*
X216120000Y-110740000D03*
X211120000Y-108640000D03*
D18*
X224395000Y-101090000D03*
D15*
X192620000Y-99840000D03*
D16*
X198120000Y-93890000D03*
D17*
X198120000Y-99840000D03*
D16*
X203120000Y-96090000D03*
D15*
X203620000Y-99840000D03*
D18*
X194845000Y-93890000D03*
D19*
X198120000Y-105740000D03*
X193120000Y-103640000D03*
D18*
X206395000Y-96090000D03*
D15*
X248620000Y-143840000D03*
D16*
X254120000Y-137890000D03*
D17*
X254120000Y-143840000D03*
D16*
X259120000Y-140090000D03*
D15*
X259620000Y-143840000D03*
D18*
X250845000Y-137890000D03*
D19*
X254120000Y-149740000D03*
X249120000Y-147640000D03*
D18*
X262395000Y-140090000D03*
D15*
X156620000Y-132840000D03*
D16*
X162120000Y-126890000D03*
D17*
X162120000Y-132840000D03*
D16*
X167120000Y-129090000D03*
D15*
X167620000Y-132840000D03*
D18*
X158845000Y-126890000D03*
D19*
X162120000Y-138740000D03*
X157120000Y-136640000D03*
D18*
X170395000Y-129090000D03*
D22*
X253500000Y-98000000D03*
D23*
X251500000Y-98000000D03*
D15*
X192620000Y-82840000D03*
D16*
X198120000Y-76890000D03*
D17*
X198120000Y-82840000D03*
D16*
X203120000Y-79090000D03*
D15*
X203620000Y-82840000D03*
D18*
X194845000Y-76890000D03*
D19*
X198120000Y-88740000D03*
X193120000Y-86640000D03*
D18*
X206395000Y-79090000D03*
D15*
X228620000Y-124840000D03*
D16*
X234120000Y-118890000D03*
D17*
X234120000Y-124840000D03*
D16*
X239120000Y-121090000D03*
D15*
X239620000Y-124840000D03*
D18*
X230845000Y-118890000D03*
D19*
X234120000Y-130740000D03*
X229120000Y-128640000D03*
D18*
X242395000Y-121090000D03*
D15*
X228620000Y-90840000D03*
D16*
X234120000Y-84890000D03*
D17*
X234120000Y-90840000D03*
D16*
X239120000Y-87090000D03*
D15*
X239620000Y-90840000D03*
D18*
X230845000Y-84890000D03*
D19*
X234120000Y-96740000D03*
X229120000Y-94640000D03*
D18*
X242395000Y-87090000D03*
D15*
X228620000Y-107840000D03*
D16*
X234120000Y-101890000D03*
D17*
X234120000Y-107840000D03*
D16*
X239120000Y-104090000D03*
D15*
X239620000Y-107840000D03*
D18*
X230845000Y-101890000D03*
D19*
X234120000Y-113740000D03*
X229120000Y-111640000D03*
D18*
X242395000Y-104090000D03*
D15*
X174620000Y-86840000D03*
D16*
X180120000Y-80890000D03*
D17*
X180120000Y-86840000D03*
D16*
X185120000Y-83090000D03*
D15*
X185620000Y-86840000D03*
D18*
X176845000Y-80890000D03*
D19*
X180120000Y-92740000D03*
X175120000Y-90640000D03*
D18*
X188395000Y-83090000D03*
D15*
X174620000Y-120840000D03*
D16*
X180120000Y-114890000D03*
D17*
X180120000Y-120840000D03*
D16*
X185120000Y-117090000D03*
D15*
X185620000Y-120840000D03*
D18*
X176845000Y-114890000D03*
D19*
X180120000Y-126740000D03*
X175120000Y-124640000D03*
D18*
X188395000Y-117090000D03*
D15*
X156620000Y-149840000D03*
D16*
X162120000Y-143890000D03*
D17*
X162120000Y-149840000D03*
D16*
X167120000Y-146090000D03*
D15*
X167620000Y-149840000D03*
D18*
X158845000Y-143890000D03*
D19*
X162120000Y-155740000D03*
X157120000Y-153640000D03*
D18*
X170395000Y-146090000D03*
D15*
X174620000Y-137840000D03*
D16*
X180120000Y-131890000D03*
D17*
X180120000Y-137840000D03*
D16*
X185120000Y-134090000D03*
D15*
X185620000Y-137840000D03*
D18*
X176845000Y-131890000D03*
D19*
X180120000Y-143740000D03*
X175120000Y-141640000D03*
D18*
X188395000Y-134090000D03*
D15*
X138620000Y-149840000D03*
D16*
X144120000Y-143890000D03*
D17*
X144120000Y-149840000D03*
D16*
X149120000Y-146090000D03*
D15*
X149620000Y-149840000D03*
D18*
X140845000Y-143890000D03*
D19*
X144120000Y-155740000D03*
X139120000Y-153640000D03*
D18*
X152395000Y-146090000D03*
D15*
X138620000Y-98840000D03*
D16*
X144120000Y-92890000D03*
D17*
X144120000Y-98840000D03*
D16*
X149120000Y-95090000D03*
D15*
X149620000Y-98840000D03*
D18*
X140845000Y-92890000D03*
D19*
X144120000Y-104740000D03*
X139120000Y-102640000D03*
D18*
X152395000Y-95090000D03*
D24*
X266262500Y-107537500D03*
X266262500Y-109112500D03*
D25*
X270275000Y-96100000D03*
X270275000Y-97750000D03*
D26*
X255912500Y-107112500D03*
X255912500Y-108662500D03*
D27*
X269262500Y-109150000D03*
X269262500Y-107500000D03*
D25*
X252250000Y-109200000D03*
X252250000Y-110850000D03*
D28*
X267212500Y-101256974D03*
X267212500Y-100306974D03*
X267212500Y-99356974D03*
X269487500Y-99356974D03*
X269487500Y-100306974D03*
X269487500Y-101256974D03*
D29*
X277175000Y-86300000D03*
X275525000Y-86300000D03*
D27*
X266050000Y-106150000D03*
X266050000Y-104500000D03*
D29*
X274500000Y-119750000D03*
X272850000Y-119750000D03*
D30*
X249962500Y-106587500D03*
X249962500Y-106087500D03*
X249962500Y-105587500D03*
X249962500Y-105087500D03*
D31*
X250650000Y-104400000D03*
X251150000Y-104400000D03*
X251650000Y-104400000D03*
X252150000Y-104400000D03*
D30*
X252837500Y-105087500D03*
X252837500Y-105587500D03*
X252837500Y-106087500D03*
X252837500Y-106587500D03*
D31*
X252150000Y-107275000D03*
X251650000Y-107275000D03*
X251150000Y-107275000D03*
X250650000Y-107275000D03*
D32*
X251400000Y-105837500D03*
D25*
X269175000Y-117325000D03*
X269175000Y-118975000D03*
D33*
X265560000Y-88860000D03*
X265560000Y-86360000D03*
D34*
X269437500Y-115700000D03*
X269437500Y-113800000D03*
X271312500Y-114750000D03*
D35*
X267512500Y-106075000D03*
X269087500Y-106075000D03*
D36*
X263048400Y-84799300D03*
X263048400Y-85899120D03*
X263048400Y-86998940D03*
X263048400Y-88098760D03*
X263048400Y-89198580D03*
X263048400Y-90298400D03*
X263048400Y-91398220D03*
X263048400Y-92498040D03*
X249050460Y-92498040D03*
X249050460Y-91398220D03*
X249050460Y-90298400D03*
X249050460Y-89198580D03*
X249050460Y-88098760D03*
X249050460Y-86998940D03*
X249050460Y-85899120D03*
X249050460Y-84799300D03*
D37*
X258298600Y-85599400D03*
X258298600Y-86798280D03*
X258298600Y-87999700D03*
X258298600Y-89198580D03*
X258298600Y-90400000D03*
X258298600Y-91598880D03*
X258298600Y-92800300D03*
X256800000Y-85599400D03*
X256800000Y-86798280D03*
X256800000Y-87999700D03*
X256800000Y-89198580D03*
X256800000Y-90400000D03*
X256800000Y-91598880D03*
X256800000Y-92800300D03*
X255298860Y-85599400D03*
X255298860Y-86798280D03*
X255298860Y-87999700D03*
X255298860Y-89198580D03*
X255298860Y-90400000D03*
X255298860Y-91598880D03*
X255298860Y-92800300D03*
X253800260Y-85599400D03*
X253800260Y-86798280D03*
X253800260Y-87999700D03*
X253800260Y-89198580D03*
X253800260Y-90400000D03*
X253800260Y-91598880D03*
X253800260Y-92800300D03*
X252299120Y-85599400D03*
X252299120Y-86798280D03*
X252299120Y-87999700D03*
X252299120Y-89198580D03*
X252299120Y-90400000D03*
X252299120Y-91598880D03*
X252299120Y-92800300D03*
D38*
X259418740Y-83597880D03*
X257170840Y-83597880D03*
X254920400Y-83597880D03*
X252669960Y-83597880D03*
D37*
X250800520Y-90400000D03*
X250800520Y-91598880D03*
D39*
X250800520Y-92800300D03*
D37*
X259799740Y-85599400D03*
X259799740Y-86798280D03*
X259799740Y-87999700D03*
X259799740Y-89198580D03*
X259799740Y-90400000D03*
X259799740Y-91598880D03*
X259799740Y-92800300D03*
D25*
X250000000Y-108750000D03*
X250000000Y-110400000D03*
D40*
X267520000Y-89975000D03*
X267520000Y-88425000D03*
D25*
X270825000Y-117300000D03*
X270825000Y-118950000D03*
D26*
X267520000Y-85365000D03*
X267520000Y-86915000D03*
D41*
X269087500Y-104575000D03*
X267512500Y-104575000D03*
D42*
X275425000Y-91500000D03*
X277075000Y-91500000D03*
D43*
X266100000Y-113750000D03*
X267650000Y-113750000D03*
D44*
X264512500Y-107575000D03*
X264512500Y-109675000D03*
D25*
X254362500Y-107062500D03*
X254362500Y-108712500D03*
X248262500Y-107412500D03*
X248262500Y-109062500D03*
D26*
X267762500Y-107550000D03*
X267762500Y-109100000D03*
D40*
X248262500Y-105862500D03*
X248262500Y-104312500D03*
M02*
