G04 #@! TF.GenerationSoftware,KiCad,Pcbnew,7.0.9*
G04 #@! TF.CreationDate,2024-01-11T22:18:43+01:00*
G04 #@! TF.ProjectId,keyboard,6b657962-6f61-4726-942e-6b696361645f,v1.0.0*
G04 #@! TF.SameCoordinates,Original*
G04 #@! TF.FileFunction,Legend,Bot*
G04 #@! TF.FilePolarity,Positive*
%FSLAX46Y46*%
G04 Gerber Fmt 4.6, Leading zero omitted, Abs format (unit mm)*
G04 Created by KiCad (PCBNEW 7.0.9) date 2024-01-11 22:18:43*
%MOMM*%
%LPD*%
G01*
G04 APERTURE LIST*
G04 Aperture macros list*
%AMRoundRect*
0 Rectangle with rounded corners*
0 $1 Rounding radius*
0 $2 $3 $4 $5 $6 $7 $8 $9 X,Y pos of 4 corners*
0 Add a 4 corners polygon primitive as box body*
4,1,4,$2,$3,$4,$5,$6,$7,$8,$9,$2,$3,0*
0 Add four circle primitives for the rounded corners*
1,1,$1+$1,$2,$3*
1,1,$1+$1,$4,$5*
1,1,$1+$1,$6,$7*
1,1,$1+$1,$8,$9*
0 Add four rect primitives between the rounded corners*
20,1,$1+$1,$2,$3,$4,$5,0*
20,1,$1+$1,$4,$5,$6,$7,0*
20,1,$1+$1,$6,$7,$8,$9,0*
20,1,$1+$1,$8,$9,$2,$3,0*%
G04 Aperture macros list end*
%ADD10C,0.150000*%
%ADD11C,0.101600*%
%ADD12C,0.100000*%
%ADD13C,0.120000*%
%ADD14C,0.127000*%
%ADD15R,1.100000X0.600000*%
%ADD16R,1.100000X0.300000*%
%ADD17O,1.800000X1.000000*%
%ADD18O,2.200000X1.000000*%
%ADD19C,2.200000*%
%ADD20C,1.701800*%
%ADD21C,3.000000*%
%ADD22C,3.429000*%
%ADD23R,2.600000X2.600000*%
%ADD24C,2.032000*%
%ADD25C,0.900000*%
%ADD26C,0.990600*%
%ADD27RoundRect,0.250000X0.350000X0.625000X-0.350000X0.625000X-0.350000X-0.625000X0.350000X-0.625000X0*%
%ADD28O,1.200000X1.750000*%
%ADD29RoundRect,0.218750X-0.256250X0.218750X-0.256250X-0.218750X0.256250X-0.218750X0.256250X0.218750X0*%
%ADD30RoundRect,0.200000X-0.275000X0.200000X-0.275000X-0.200000X0.275000X-0.200000X0.275000X0.200000X0*%
%ADD31RoundRect,0.225000X-0.250000X0.225000X-0.250000X-0.225000X0.250000X-0.225000X0.250000X0.225000X0*%
%ADD32RoundRect,0.200000X0.275000X-0.200000X0.275000X0.200000X-0.275000X0.200000X-0.275000X-0.200000X0*%
%ADD33RoundRect,0.150000X-0.512500X-0.150000X0.512500X-0.150000X0.512500X0.150000X-0.512500X0.150000X0*%
%ADD34RoundRect,0.200000X0.200000X0.275000X-0.200000X0.275000X-0.200000X-0.275000X0.200000X-0.275000X0*%
%ADD35RoundRect,0.062500X-0.375000X-0.062500X0.375000X-0.062500X0.375000X0.062500X-0.375000X0.062500X0*%
%ADD36RoundRect,0.062500X-0.062500X-0.375000X0.062500X-0.375000X0.062500X0.375000X-0.062500X0.375000X0*%
%ADD37R,1.600000X1.600000*%
%ADD38R,1.800000X1.000000*%
%ADD39RoundRect,0.150000X-0.587500X-0.150000X0.587500X-0.150000X0.587500X0.150000X-0.587500X0.150000X0*%
%ADD40RoundRect,0.218750X-0.218750X-0.256250X0.218750X-0.256250X0.218750X0.256250X-0.218750X0.256250X0*%
%ADD41R,1.498600X0.698500*%
%ADD42C,0.599440*%
%ADD43R,1.498600X1.498600*%
%ADD44R,0.599440X0.599440*%
%ADD45RoundRect,0.225000X0.250000X-0.225000X0.250000X0.225000X-0.250000X0.225000X-0.250000X-0.225000X0*%
%ADD46RoundRect,0.218750X0.218750X0.256250X-0.218750X0.256250X-0.218750X-0.256250X0.218750X-0.256250X0*%
%ADD47RoundRect,0.200000X-0.200000X-0.275000X0.200000X-0.275000X0.200000X0.275000X-0.200000X0.275000X0*%
%ADD48RoundRect,0.225000X-0.225000X-0.250000X0.225000X-0.250000X0.225000X0.250000X-0.225000X0.250000X0*%
%ADD49RoundRect,0.112500X-0.112500X0.187500X-0.112500X-0.187500X0.112500X-0.187500X0.112500X0.187500X0*%
G04 APERTURE END LIST*
D10*
X275943333Y-108049819D02*
X275943333Y-108764104D01*
X275943333Y-108764104D02*
X275990952Y-108906961D01*
X275990952Y-108906961D02*
X276086190Y-109002200D01*
X276086190Y-109002200D02*
X276229047Y-109049819D01*
X276229047Y-109049819D02*
X276324285Y-109049819D01*
X274943333Y-109049819D02*
X275514761Y-109049819D01*
X275229047Y-109049819D02*
X275229047Y-108049819D01*
X275229047Y-108049819D02*
X275324285Y-108192676D01*
X275324285Y-108192676D02*
X275419523Y-108287914D01*
X275419523Y-108287914D02*
X275514761Y-108335533D01*
X239803094Y-134627200D02*
X239660237Y-134674819D01*
X239660237Y-134674819D02*
X239422142Y-134674819D01*
X239422142Y-134674819D02*
X239326904Y-134627200D01*
X239326904Y-134627200D02*
X239279285Y-134579580D01*
X239279285Y-134579580D02*
X239231666Y-134484342D01*
X239231666Y-134484342D02*
X239231666Y-134389104D01*
X239231666Y-134389104D02*
X239279285Y-134293866D01*
X239279285Y-134293866D02*
X239326904Y-134246247D01*
X239326904Y-134246247D02*
X239422142Y-134198628D01*
X239422142Y-134198628D02*
X239612618Y-134151009D01*
X239612618Y-134151009D02*
X239707856Y-134103390D01*
X239707856Y-134103390D02*
X239755475Y-134055771D01*
X239755475Y-134055771D02*
X239803094Y-133960533D01*
X239803094Y-133960533D02*
X239803094Y-133865295D01*
X239803094Y-133865295D02*
X239755475Y-133770057D01*
X239755475Y-133770057D02*
X239707856Y-133722438D01*
X239707856Y-133722438D02*
X239612618Y-133674819D01*
X239612618Y-133674819D02*
X239374523Y-133674819D01*
X239374523Y-133674819D02*
X239231666Y-133722438D01*
X238850713Y-133770057D02*
X238803094Y-133722438D01*
X238803094Y-133722438D02*
X238707856Y-133674819D01*
X238707856Y-133674819D02*
X238469761Y-133674819D01*
X238469761Y-133674819D02*
X238374523Y-133722438D01*
X238374523Y-133722438D02*
X238326904Y-133770057D01*
X238326904Y-133770057D02*
X238279285Y-133865295D01*
X238279285Y-133865295D02*
X238279285Y-133960533D01*
X238279285Y-133960533D02*
X238326904Y-134103390D01*
X238326904Y-134103390D02*
X238898332Y-134674819D01*
X238898332Y-134674819D02*
X238279285Y-134674819D01*
X237422142Y-134008152D02*
X237422142Y-134674819D01*
X237660237Y-133627200D02*
X237898332Y-134341485D01*
X237898332Y-134341485D02*
X237279285Y-134341485D01*
X185803094Y-96627200D02*
X185660237Y-96674819D01*
X185660237Y-96674819D02*
X185422142Y-96674819D01*
X185422142Y-96674819D02*
X185326904Y-96627200D01*
X185326904Y-96627200D02*
X185279285Y-96579580D01*
X185279285Y-96579580D02*
X185231666Y-96484342D01*
X185231666Y-96484342D02*
X185231666Y-96389104D01*
X185231666Y-96389104D02*
X185279285Y-96293866D01*
X185279285Y-96293866D02*
X185326904Y-96246247D01*
X185326904Y-96246247D02*
X185422142Y-96198628D01*
X185422142Y-96198628D02*
X185612618Y-96151009D01*
X185612618Y-96151009D02*
X185707856Y-96103390D01*
X185707856Y-96103390D02*
X185755475Y-96055771D01*
X185755475Y-96055771D02*
X185803094Y-95960533D01*
X185803094Y-95960533D02*
X185803094Y-95865295D01*
X185803094Y-95865295D02*
X185755475Y-95770057D01*
X185755475Y-95770057D02*
X185707856Y-95722438D01*
X185707856Y-95722438D02*
X185612618Y-95674819D01*
X185612618Y-95674819D02*
X185374523Y-95674819D01*
X185374523Y-95674819D02*
X185231666Y-95722438D01*
X184279285Y-96674819D02*
X184850713Y-96674819D01*
X184564999Y-96674819D02*
X184564999Y-95674819D01*
X184564999Y-95674819D02*
X184660237Y-95817676D01*
X184660237Y-95817676D02*
X184755475Y-95912914D01*
X184755475Y-95912914D02*
X184850713Y-95960533D01*
X183660237Y-95674819D02*
X183564999Y-95674819D01*
X183564999Y-95674819D02*
X183469761Y-95722438D01*
X183469761Y-95722438D02*
X183422142Y-95770057D01*
X183422142Y-95770057D02*
X183374523Y-95865295D01*
X183374523Y-95865295D02*
X183326904Y-96055771D01*
X183326904Y-96055771D02*
X183326904Y-96293866D01*
X183326904Y-96293866D02*
X183374523Y-96484342D01*
X183374523Y-96484342D02*
X183422142Y-96579580D01*
X183422142Y-96579580D02*
X183469761Y-96627200D01*
X183469761Y-96627200D02*
X183564999Y-96674819D01*
X183564999Y-96674819D02*
X183660237Y-96674819D01*
X183660237Y-96674819D02*
X183755475Y-96627200D01*
X183755475Y-96627200D02*
X183803094Y-96579580D01*
X183803094Y-96579580D02*
X183850713Y-96484342D01*
X183850713Y-96484342D02*
X183898332Y-96293866D01*
X183898332Y-96293866D02*
X183898332Y-96055771D01*
X183898332Y-96055771D02*
X183850713Y-95865295D01*
X183850713Y-95865295D02*
X183803094Y-95770057D01*
X183803094Y-95770057D02*
X183755475Y-95722438D01*
X183755475Y-95722438D02*
X183660237Y-95674819D01*
X167326904Y-91627200D02*
X167184047Y-91674819D01*
X167184047Y-91674819D02*
X166945952Y-91674819D01*
X166945952Y-91674819D02*
X166850714Y-91627200D01*
X166850714Y-91627200D02*
X166803095Y-91579580D01*
X166803095Y-91579580D02*
X166755476Y-91484342D01*
X166755476Y-91484342D02*
X166755476Y-91389104D01*
X166755476Y-91389104D02*
X166803095Y-91293866D01*
X166803095Y-91293866D02*
X166850714Y-91246247D01*
X166850714Y-91246247D02*
X166945952Y-91198628D01*
X166945952Y-91198628D02*
X167136428Y-91151009D01*
X167136428Y-91151009D02*
X167231666Y-91103390D01*
X167231666Y-91103390D02*
X167279285Y-91055771D01*
X167279285Y-91055771D02*
X167326904Y-90960533D01*
X167326904Y-90960533D02*
X167326904Y-90865295D01*
X167326904Y-90865295D02*
X167279285Y-90770057D01*
X167279285Y-90770057D02*
X167231666Y-90722438D01*
X167231666Y-90722438D02*
X167136428Y-90674819D01*
X167136428Y-90674819D02*
X166898333Y-90674819D01*
X166898333Y-90674819D02*
X166755476Y-90722438D01*
X165850714Y-90674819D02*
X166326904Y-90674819D01*
X166326904Y-90674819D02*
X166374523Y-91151009D01*
X166374523Y-91151009D02*
X166326904Y-91103390D01*
X166326904Y-91103390D02*
X166231666Y-91055771D01*
X166231666Y-91055771D02*
X165993571Y-91055771D01*
X165993571Y-91055771D02*
X165898333Y-91103390D01*
X165898333Y-91103390D02*
X165850714Y-91151009D01*
X165850714Y-91151009D02*
X165803095Y-91246247D01*
X165803095Y-91246247D02*
X165803095Y-91484342D01*
X165803095Y-91484342D02*
X165850714Y-91579580D01*
X165850714Y-91579580D02*
X165898333Y-91627200D01*
X165898333Y-91627200D02*
X165993571Y-91674819D01*
X165993571Y-91674819D02*
X166231666Y-91674819D01*
X166231666Y-91674819D02*
X166326904Y-91627200D01*
X166326904Y-91627200D02*
X166374523Y-91579580D01*
X268803094Y-153627200D02*
X268660237Y-153674819D01*
X268660237Y-153674819D02*
X268422142Y-153674819D01*
X268422142Y-153674819D02*
X268326904Y-153627200D01*
X268326904Y-153627200D02*
X268279285Y-153579580D01*
X268279285Y-153579580D02*
X268231666Y-153484342D01*
X268231666Y-153484342D02*
X268231666Y-153389104D01*
X268231666Y-153389104D02*
X268279285Y-153293866D01*
X268279285Y-153293866D02*
X268326904Y-153246247D01*
X268326904Y-153246247D02*
X268422142Y-153198628D01*
X268422142Y-153198628D02*
X268612618Y-153151009D01*
X268612618Y-153151009D02*
X268707856Y-153103390D01*
X268707856Y-153103390D02*
X268755475Y-153055771D01*
X268755475Y-153055771D02*
X268803094Y-152960533D01*
X268803094Y-152960533D02*
X268803094Y-152865295D01*
X268803094Y-152865295D02*
X268755475Y-152770057D01*
X268755475Y-152770057D02*
X268707856Y-152722438D01*
X268707856Y-152722438D02*
X268612618Y-152674819D01*
X268612618Y-152674819D02*
X268374523Y-152674819D01*
X268374523Y-152674819D02*
X268231666Y-152722438D01*
X267850713Y-152770057D02*
X267803094Y-152722438D01*
X267803094Y-152722438D02*
X267707856Y-152674819D01*
X267707856Y-152674819D02*
X267469761Y-152674819D01*
X267469761Y-152674819D02*
X267374523Y-152722438D01*
X267374523Y-152722438D02*
X267326904Y-152770057D01*
X267326904Y-152770057D02*
X267279285Y-152865295D01*
X267279285Y-152865295D02*
X267279285Y-152960533D01*
X267279285Y-152960533D02*
X267326904Y-153103390D01*
X267326904Y-153103390D02*
X267898332Y-153674819D01*
X267898332Y-153674819D02*
X267279285Y-153674819D01*
X266803094Y-153674819D02*
X266612618Y-153674819D01*
X266612618Y-153674819D02*
X266517380Y-153627200D01*
X266517380Y-153627200D02*
X266469761Y-153579580D01*
X266469761Y-153579580D02*
X266374523Y-153436723D01*
X266374523Y-153436723D02*
X266326904Y-153246247D01*
X266326904Y-153246247D02*
X266326904Y-152865295D01*
X266326904Y-152865295D02*
X266374523Y-152770057D01*
X266374523Y-152770057D02*
X266422142Y-152722438D01*
X266422142Y-152722438D02*
X266517380Y-152674819D01*
X266517380Y-152674819D02*
X266707856Y-152674819D01*
X266707856Y-152674819D02*
X266803094Y-152722438D01*
X266803094Y-152722438D02*
X266850713Y-152770057D01*
X266850713Y-152770057D02*
X266898332Y-152865295D01*
X266898332Y-152865295D02*
X266898332Y-153103390D01*
X266898332Y-153103390D02*
X266850713Y-153198628D01*
X266850713Y-153198628D02*
X266803094Y-153246247D01*
X266803094Y-153246247D02*
X266707856Y-153293866D01*
X266707856Y-153293866D02*
X266517380Y-153293866D01*
X266517380Y-153293866D02*
X266422142Y-153246247D01*
X266422142Y-153246247D02*
X266374523Y-153198628D01*
X266374523Y-153198628D02*
X266326904Y-153103390D01*
X149326904Y-108627200D02*
X149184047Y-108674819D01*
X149184047Y-108674819D02*
X148945952Y-108674819D01*
X148945952Y-108674819D02*
X148850714Y-108627200D01*
X148850714Y-108627200D02*
X148803095Y-108579580D01*
X148803095Y-108579580D02*
X148755476Y-108484342D01*
X148755476Y-108484342D02*
X148755476Y-108389104D01*
X148755476Y-108389104D02*
X148803095Y-108293866D01*
X148803095Y-108293866D02*
X148850714Y-108246247D01*
X148850714Y-108246247D02*
X148945952Y-108198628D01*
X148945952Y-108198628D02*
X149136428Y-108151009D01*
X149136428Y-108151009D02*
X149231666Y-108103390D01*
X149231666Y-108103390D02*
X149279285Y-108055771D01*
X149279285Y-108055771D02*
X149326904Y-107960533D01*
X149326904Y-107960533D02*
X149326904Y-107865295D01*
X149326904Y-107865295D02*
X149279285Y-107770057D01*
X149279285Y-107770057D02*
X149231666Y-107722438D01*
X149231666Y-107722438D02*
X149136428Y-107674819D01*
X149136428Y-107674819D02*
X148898333Y-107674819D01*
X148898333Y-107674819D02*
X148755476Y-107722438D01*
X148374523Y-107770057D02*
X148326904Y-107722438D01*
X148326904Y-107722438D02*
X148231666Y-107674819D01*
X148231666Y-107674819D02*
X147993571Y-107674819D01*
X147993571Y-107674819D02*
X147898333Y-107722438D01*
X147898333Y-107722438D02*
X147850714Y-107770057D01*
X147850714Y-107770057D02*
X147803095Y-107865295D01*
X147803095Y-107865295D02*
X147803095Y-107960533D01*
X147803095Y-107960533D02*
X147850714Y-108103390D01*
X147850714Y-108103390D02*
X148422142Y-108674819D01*
X148422142Y-108674819D02*
X147803095Y-108674819D01*
X149326904Y-125627200D02*
X149184047Y-125674819D01*
X149184047Y-125674819D02*
X148945952Y-125674819D01*
X148945952Y-125674819D02*
X148850714Y-125627200D01*
X148850714Y-125627200D02*
X148803095Y-125579580D01*
X148803095Y-125579580D02*
X148755476Y-125484342D01*
X148755476Y-125484342D02*
X148755476Y-125389104D01*
X148755476Y-125389104D02*
X148803095Y-125293866D01*
X148803095Y-125293866D02*
X148850714Y-125246247D01*
X148850714Y-125246247D02*
X148945952Y-125198628D01*
X148945952Y-125198628D02*
X149136428Y-125151009D01*
X149136428Y-125151009D02*
X149231666Y-125103390D01*
X149231666Y-125103390D02*
X149279285Y-125055771D01*
X149279285Y-125055771D02*
X149326904Y-124960533D01*
X149326904Y-124960533D02*
X149326904Y-124865295D01*
X149326904Y-124865295D02*
X149279285Y-124770057D01*
X149279285Y-124770057D02*
X149231666Y-124722438D01*
X149231666Y-124722438D02*
X149136428Y-124674819D01*
X149136428Y-124674819D02*
X148898333Y-124674819D01*
X148898333Y-124674819D02*
X148755476Y-124722438D01*
X148422142Y-124674819D02*
X147803095Y-124674819D01*
X147803095Y-124674819D02*
X148136428Y-125055771D01*
X148136428Y-125055771D02*
X147993571Y-125055771D01*
X147993571Y-125055771D02*
X147898333Y-125103390D01*
X147898333Y-125103390D02*
X147850714Y-125151009D01*
X147850714Y-125151009D02*
X147803095Y-125246247D01*
X147803095Y-125246247D02*
X147803095Y-125484342D01*
X147803095Y-125484342D02*
X147850714Y-125579580D01*
X147850714Y-125579580D02*
X147898333Y-125627200D01*
X147898333Y-125627200D02*
X147993571Y-125674819D01*
X147993571Y-125674819D02*
X148279285Y-125674819D01*
X148279285Y-125674819D02*
X148374523Y-125627200D01*
X148374523Y-125627200D02*
X148422142Y-125579580D01*
X203803094Y-109627200D02*
X203660237Y-109674819D01*
X203660237Y-109674819D02*
X203422142Y-109674819D01*
X203422142Y-109674819D02*
X203326904Y-109627200D01*
X203326904Y-109627200D02*
X203279285Y-109579580D01*
X203279285Y-109579580D02*
X203231666Y-109484342D01*
X203231666Y-109484342D02*
X203231666Y-109389104D01*
X203231666Y-109389104D02*
X203279285Y-109293866D01*
X203279285Y-109293866D02*
X203326904Y-109246247D01*
X203326904Y-109246247D02*
X203422142Y-109198628D01*
X203422142Y-109198628D02*
X203612618Y-109151009D01*
X203612618Y-109151009D02*
X203707856Y-109103390D01*
X203707856Y-109103390D02*
X203755475Y-109055771D01*
X203755475Y-109055771D02*
X203803094Y-108960533D01*
X203803094Y-108960533D02*
X203803094Y-108865295D01*
X203803094Y-108865295D02*
X203755475Y-108770057D01*
X203755475Y-108770057D02*
X203707856Y-108722438D01*
X203707856Y-108722438D02*
X203612618Y-108674819D01*
X203612618Y-108674819D02*
X203374523Y-108674819D01*
X203374523Y-108674819D02*
X203231666Y-108722438D01*
X202279285Y-109674819D02*
X202850713Y-109674819D01*
X202564999Y-109674819D02*
X202564999Y-108674819D01*
X202564999Y-108674819D02*
X202660237Y-108817676D01*
X202660237Y-108817676D02*
X202755475Y-108912914D01*
X202755475Y-108912914D02*
X202850713Y-108960533D01*
X201374523Y-108674819D02*
X201850713Y-108674819D01*
X201850713Y-108674819D02*
X201898332Y-109151009D01*
X201898332Y-109151009D02*
X201850713Y-109103390D01*
X201850713Y-109103390D02*
X201755475Y-109055771D01*
X201755475Y-109055771D02*
X201517380Y-109055771D01*
X201517380Y-109055771D02*
X201422142Y-109103390D01*
X201422142Y-109103390D02*
X201374523Y-109151009D01*
X201374523Y-109151009D02*
X201326904Y-109246247D01*
X201326904Y-109246247D02*
X201326904Y-109484342D01*
X201326904Y-109484342D02*
X201374523Y-109579580D01*
X201374523Y-109579580D02*
X201422142Y-109627200D01*
X201422142Y-109627200D02*
X201517380Y-109674819D01*
X201517380Y-109674819D02*
X201755475Y-109674819D01*
X201755475Y-109674819D02*
X201850713Y-109627200D01*
X201850713Y-109627200D02*
X201898332Y-109579580D01*
X203803094Y-126627200D02*
X203660237Y-126674819D01*
X203660237Y-126674819D02*
X203422142Y-126674819D01*
X203422142Y-126674819D02*
X203326904Y-126627200D01*
X203326904Y-126627200D02*
X203279285Y-126579580D01*
X203279285Y-126579580D02*
X203231666Y-126484342D01*
X203231666Y-126484342D02*
X203231666Y-126389104D01*
X203231666Y-126389104D02*
X203279285Y-126293866D01*
X203279285Y-126293866D02*
X203326904Y-126246247D01*
X203326904Y-126246247D02*
X203422142Y-126198628D01*
X203422142Y-126198628D02*
X203612618Y-126151009D01*
X203612618Y-126151009D02*
X203707856Y-126103390D01*
X203707856Y-126103390D02*
X203755475Y-126055771D01*
X203755475Y-126055771D02*
X203803094Y-125960533D01*
X203803094Y-125960533D02*
X203803094Y-125865295D01*
X203803094Y-125865295D02*
X203755475Y-125770057D01*
X203755475Y-125770057D02*
X203707856Y-125722438D01*
X203707856Y-125722438D02*
X203612618Y-125674819D01*
X203612618Y-125674819D02*
X203374523Y-125674819D01*
X203374523Y-125674819D02*
X203231666Y-125722438D01*
X202279285Y-126674819D02*
X202850713Y-126674819D01*
X202564999Y-126674819D02*
X202564999Y-125674819D01*
X202564999Y-125674819D02*
X202660237Y-125817676D01*
X202660237Y-125817676D02*
X202755475Y-125912914D01*
X202755475Y-125912914D02*
X202850713Y-125960533D01*
X201422142Y-125674819D02*
X201612618Y-125674819D01*
X201612618Y-125674819D02*
X201707856Y-125722438D01*
X201707856Y-125722438D02*
X201755475Y-125770057D01*
X201755475Y-125770057D02*
X201850713Y-125912914D01*
X201850713Y-125912914D02*
X201898332Y-126103390D01*
X201898332Y-126103390D02*
X201898332Y-126484342D01*
X201898332Y-126484342D02*
X201850713Y-126579580D01*
X201850713Y-126579580D02*
X201803094Y-126627200D01*
X201803094Y-126627200D02*
X201707856Y-126674819D01*
X201707856Y-126674819D02*
X201517380Y-126674819D01*
X201517380Y-126674819D02*
X201422142Y-126627200D01*
X201422142Y-126627200D02*
X201374523Y-126579580D01*
X201374523Y-126579580D02*
X201326904Y-126484342D01*
X201326904Y-126484342D02*
X201326904Y-126246247D01*
X201326904Y-126246247D02*
X201374523Y-126151009D01*
X201374523Y-126151009D02*
X201422142Y-126103390D01*
X201422142Y-126103390D02*
X201517380Y-126055771D01*
X201517380Y-126055771D02*
X201707856Y-126055771D01*
X201707856Y-126055771D02*
X201803094Y-126103390D01*
X201803094Y-126103390D02*
X201850713Y-126151009D01*
X201850713Y-126151009D02*
X201898332Y-126246247D01*
X167326904Y-108627200D02*
X167184047Y-108674819D01*
X167184047Y-108674819D02*
X166945952Y-108674819D01*
X166945952Y-108674819D02*
X166850714Y-108627200D01*
X166850714Y-108627200D02*
X166803095Y-108579580D01*
X166803095Y-108579580D02*
X166755476Y-108484342D01*
X166755476Y-108484342D02*
X166755476Y-108389104D01*
X166755476Y-108389104D02*
X166803095Y-108293866D01*
X166803095Y-108293866D02*
X166850714Y-108246247D01*
X166850714Y-108246247D02*
X166945952Y-108198628D01*
X166945952Y-108198628D02*
X167136428Y-108151009D01*
X167136428Y-108151009D02*
X167231666Y-108103390D01*
X167231666Y-108103390D02*
X167279285Y-108055771D01*
X167279285Y-108055771D02*
X167326904Y-107960533D01*
X167326904Y-107960533D02*
X167326904Y-107865295D01*
X167326904Y-107865295D02*
X167279285Y-107770057D01*
X167279285Y-107770057D02*
X167231666Y-107722438D01*
X167231666Y-107722438D02*
X167136428Y-107674819D01*
X167136428Y-107674819D02*
X166898333Y-107674819D01*
X166898333Y-107674819D02*
X166755476Y-107722438D01*
X165898333Y-107674819D02*
X166088809Y-107674819D01*
X166088809Y-107674819D02*
X166184047Y-107722438D01*
X166184047Y-107722438D02*
X166231666Y-107770057D01*
X166231666Y-107770057D02*
X166326904Y-107912914D01*
X166326904Y-107912914D02*
X166374523Y-108103390D01*
X166374523Y-108103390D02*
X166374523Y-108484342D01*
X166374523Y-108484342D02*
X166326904Y-108579580D01*
X166326904Y-108579580D02*
X166279285Y-108627200D01*
X166279285Y-108627200D02*
X166184047Y-108674819D01*
X166184047Y-108674819D02*
X165993571Y-108674819D01*
X165993571Y-108674819D02*
X165898333Y-108627200D01*
X165898333Y-108627200D02*
X165850714Y-108579580D01*
X165850714Y-108579580D02*
X165803095Y-108484342D01*
X165803095Y-108484342D02*
X165803095Y-108246247D01*
X165803095Y-108246247D02*
X165850714Y-108151009D01*
X165850714Y-108151009D02*
X165898333Y-108103390D01*
X165898333Y-108103390D02*
X165993571Y-108055771D01*
X165993571Y-108055771D02*
X166184047Y-108055771D01*
X166184047Y-108055771D02*
X166279285Y-108103390D01*
X166279285Y-108103390D02*
X166326904Y-108151009D01*
X166326904Y-108151009D02*
X166374523Y-108246247D01*
X221803094Y-131627200D02*
X221660237Y-131674819D01*
X221660237Y-131674819D02*
X221422142Y-131674819D01*
X221422142Y-131674819D02*
X221326904Y-131627200D01*
X221326904Y-131627200D02*
X221279285Y-131579580D01*
X221279285Y-131579580D02*
X221231666Y-131484342D01*
X221231666Y-131484342D02*
X221231666Y-131389104D01*
X221231666Y-131389104D02*
X221279285Y-131293866D01*
X221279285Y-131293866D02*
X221326904Y-131246247D01*
X221326904Y-131246247D02*
X221422142Y-131198628D01*
X221422142Y-131198628D02*
X221612618Y-131151009D01*
X221612618Y-131151009D02*
X221707856Y-131103390D01*
X221707856Y-131103390D02*
X221755475Y-131055771D01*
X221755475Y-131055771D02*
X221803094Y-130960533D01*
X221803094Y-130960533D02*
X221803094Y-130865295D01*
X221803094Y-130865295D02*
X221755475Y-130770057D01*
X221755475Y-130770057D02*
X221707856Y-130722438D01*
X221707856Y-130722438D02*
X221612618Y-130674819D01*
X221612618Y-130674819D02*
X221374523Y-130674819D01*
X221374523Y-130674819D02*
X221231666Y-130722438D01*
X220850713Y-130770057D02*
X220803094Y-130722438D01*
X220803094Y-130722438D02*
X220707856Y-130674819D01*
X220707856Y-130674819D02*
X220469761Y-130674819D01*
X220469761Y-130674819D02*
X220374523Y-130722438D01*
X220374523Y-130722438D02*
X220326904Y-130770057D01*
X220326904Y-130770057D02*
X220279285Y-130865295D01*
X220279285Y-130865295D02*
X220279285Y-130960533D01*
X220279285Y-130960533D02*
X220326904Y-131103390D01*
X220326904Y-131103390D02*
X220898332Y-131674819D01*
X220898332Y-131674819D02*
X220279285Y-131674819D01*
X219660237Y-130674819D02*
X219564999Y-130674819D01*
X219564999Y-130674819D02*
X219469761Y-130722438D01*
X219469761Y-130722438D02*
X219422142Y-130770057D01*
X219422142Y-130770057D02*
X219374523Y-130865295D01*
X219374523Y-130865295D02*
X219326904Y-131055771D01*
X219326904Y-131055771D02*
X219326904Y-131293866D01*
X219326904Y-131293866D02*
X219374523Y-131484342D01*
X219374523Y-131484342D02*
X219422142Y-131579580D01*
X219422142Y-131579580D02*
X219469761Y-131627200D01*
X219469761Y-131627200D02*
X219564999Y-131674819D01*
X219564999Y-131674819D02*
X219660237Y-131674819D01*
X219660237Y-131674819D02*
X219755475Y-131627200D01*
X219755475Y-131627200D02*
X219803094Y-131579580D01*
X219803094Y-131579580D02*
X219850713Y-131484342D01*
X219850713Y-131484342D02*
X219898332Y-131293866D01*
X219898332Y-131293866D02*
X219898332Y-131055771D01*
X219898332Y-131055771D02*
X219850713Y-130865295D01*
X219850713Y-130865295D02*
X219803094Y-130770057D01*
X219803094Y-130770057D02*
X219755475Y-130722438D01*
X219755475Y-130722438D02*
X219660237Y-130674819D01*
X214803094Y-153627200D02*
X214660237Y-153674819D01*
X214660237Y-153674819D02*
X214422142Y-153674819D01*
X214422142Y-153674819D02*
X214326904Y-153627200D01*
X214326904Y-153627200D02*
X214279285Y-153579580D01*
X214279285Y-153579580D02*
X214231666Y-153484342D01*
X214231666Y-153484342D02*
X214231666Y-153389104D01*
X214231666Y-153389104D02*
X214279285Y-153293866D01*
X214279285Y-153293866D02*
X214326904Y-153246247D01*
X214326904Y-153246247D02*
X214422142Y-153198628D01*
X214422142Y-153198628D02*
X214612618Y-153151009D01*
X214612618Y-153151009D02*
X214707856Y-153103390D01*
X214707856Y-153103390D02*
X214755475Y-153055771D01*
X214755475Y-153055771D02*
X214803094Y-152960533D01*
X214803094Y-152960533D02*
X214803094Y-152865295D01*
X214803094Y-152865295D02*
X214755475Y-152770057D01*
X214755475Y-152770057D02*
X214707856Y-152722438D01*
X214707856Y-152722438D02*
X214612618Y-152674819D01*
X214612618Y-152674819D02*
X214374523Y-152674819D01*
X214374523Y-152674819D02*
X214231666Y-152722438D01*
X213850713Y-152770057D02*
X213803094Y-152722438D01*
X213803094Y-152722438D02*
X213707856Y-152674819D01*
X213707856Y-152674819D02*
X213469761Y-152674819D01*
X213469761Y-152674819D02*
X213374523Y-152722438D01*
X213374523Y-152722438D02*
X213326904Y-152770057D01*
X213326904Y-152770057D02*
X213279285Y-152865295D01*
X213279285Y-152865295D02*
X213279285Y-152960533D01*
X213279285Y-152960533D02*
X213326904Y-153103390D01*
X213326904Y-153103390D02*
X213898332Y-153674819D01*
X213898332Y-153674819D02*
X213279285Y-153674819D01*
X212374523Y-152674819D02*
X212850713Y-152674819D01*
X212850713Y-152674819D02*
X212898332Y-153151009D01*
X212898332Y-153151009D02*
X212850713Y-153103390D01*
X212850713Y-153103390D02*
X212755475Y-153055771D01*
X212755475Y-153055771D02*
X212517380Y-153055771D01*
X212517380Y-153055771D02*
X212422142Y-153103390D01*
X212422142Y-153103390D02*
X212374523Y-153151009D01*
X212374523Y-153151009D02*
X212326904Y-153246247D01*
X212326904Y-153246247D02*
X212326904Y-153484342D01*
X212326904Y-153484342D02*
X212374523Y-153579580D01*
X212374523Y-153579580D02*
X212422142Y-153627200D01*
X212422142Y-153627200D02*
X212517380Y-153674819D01*
X212517380Y-153674819D02*
X212755475Y-153674819D01*
X212755475Y-153674819D02*
X212850713Y-153627200D01*
X212850713Y-153627200D02*
X212898332Y-153579580D01*
X221803094Y-114627200D02*
X221660237Y-114674819D01*
X221660237Y-114674819D02*
X221422142Y-114674819D01*
X221422142Y-114674819D02*
X221326904Y-114627200D01*
X221326904Y-114627200D02*
X221279285Y-114579580D01*
X221279285Y-114579580D02*
X221231666Y-114484342D01*
X221231666Y-114484342D02*
X221231666Y-114389104D01*
X221231666Y-114389104D02*
X221279285Y-114293866D01*
X221279285Y-114293866D02*
X221326904Y-114246247D01*
X221326904Y-114246247D02*
X221422142Y-114198628D01*
X221422142Y-114198628D02*
X221612618Y-114151009D01*
X221612618Y-114151009D02*
X221707856Y-114103390D01*
X221707856Y-114103390D02*
X221755475Y-114055771D01*
X221755475Y-114055771D02*
X221803094Y-113960533D01*
X221803094Y-113960533D02*
X221803094Y-113865295D01*
X221803094Y-113865295D02*
X221755475Y-113770057D01*
X221755475Y-113770057D02*
X221707856Y-113722438D01*
X221707856Y-113722438D02*
X221612618Y-113674819D01*
X221612618Y-113674819D02*
X221374523Y-113674819D01*
X221374523Y-113674819D02*
X221231666Y-113722438D01*
X220279285Y-114674819D02*
X220850713Y-114674819D01*
X220564999Y-114674819D02*
X220564999Y-113674819D01*
X220564999Y-113674819D02*
X220660237Y-113817676D01*
X220660237Y-113817676D02*
X220755475Y-113912914D01*
X220755475Y-113912914D02*
X220850713Y-113960533D01*
X219803094Y-114674819D02*
X219612618Y-114674819D01*
X219612618Y-114674819D02*
X219517380Y-114627200D01*
X219517380Y-114627200D02*
X219469761Y-114579580D01*
X219469761Y-114579580D02*
X219374523Y-114436723D01*
X219374523Y-114436723D02*
X219326904Y-114246247D01*
X219326904Y-114246247D02*
X219326904Y-113865295D01*
X219326904Y-113865295D02*
X219374523Y-113770057D01*
X219374523Y-113770057D02*
X219422142Y-113722438D01*
X219422142Y-113722438D02*
X219517380Y-113674819D01*
X219517380Y-113674819D02*
X219707856Y-113674819D01*
X219707856Y-113674819D02*
X219803094Y-113722438D01*
X219803094Y-113722438D02*
X219850713Y-113770057D01*
X219850713Y-113770057D02*
X219898332Y-113865295D01*
X219898332Y-113865295D02*
X219898332Y-114103390D01*
X219898332Y-114103390D02*
X219850713Y-114198628D01*
X219850713Y-114198628D02*
X219803094Y-114246247D01*
X219803094Y-114246247D02*
X219707856Y-114293866D01*
X219707856Y-114293866D02*
X219517380Y-114293866D01*
X219517380Y-114293866D02*
X219422142Y-114246247D01*
X219422142Y-114246247D02*
X219374523Y-114198628D01*
X219374523Y-114198628D02*
X219326904Y-114103390D01*
X232803094Y-153627200D02*
X232660237Y-153674819D01*
X232660237Y-153674819D02*
X232422142Y-153674819D01*
X232422142Y-153674819D02*
X232326904Y-153627200D01*
X232326904Y-153627200D02*
X232279285Y-153579580D01*
X232279285Y-153579580D02*
X232231666Y-153484342D01*
X232231666Y-153484342D02*
X232231666Y-153389104D01*
X232231666Y-153389104D02*
X232279285Y-153293866D01*
X232279285Y-153293866D02*
X232326904Y-153246247D01*
X232326904Y-153246247D02*
X232422142Y-153198628D01*
X232422142Y-153198628D02*
X232612618Y-153151009D01*
X232612618Y-153151009D02*
X232707856Y-153103390D01*
X232707856Y-153103390D02*
X232755475Y-153055771D01*
X232755475Y-153055771D02*
X232803094Y-152960533D01*
X232803094Y-152960533D02*
X232803094Y-152865295D01*
X232803094Y-152865295D02*
X232755475Y-152770057D01*
X232755475Y-152770057D02*
X232707856Y-152722438D01*
X232707856Y-152722438D02*
X232612618Y-152674819D01*
X232612618Y-152674819D02*
X232374523Y-152674819D01*
X232374523Y-152674819D02*
X232231666Y-152722438D01*
X231850713Y-152770057D02*
X231803094Y-152722438D01*
X231803094Y-152722438D02*
X231707856Y-152674819D01*
X231707856Y-152674819D02*
X231469761Y-152674819D01*
X231469761Y-152674819D02*
X231374523Y-152722438D01*
X231374523Y-152722438D02*
X231326904Y-152770057D01*
X231326904Y-152770057D02*
X231279285Y-152865295D01*
X231279285Y-152865295D02*
X231279285Y-152960533D01*
X231279285Y-152960533D02*
X231326904Y-153103390D01*
X231326904Y-153103390D02*
X231898332Y-153674819D01*
X231898332Y-153674819D02*
X231279285Y-153674819D01*
X230422142Y-152674819D02*
X230612618Y-152674819D01*
X230612618Y-152674819D02*
X230707856Y-152722438D01*
X230707856Y-152722438D02*
X230755475Y-152770057D01*
X230755475Y-152770057D02*
X230850713Y-152912914D01*
X230850713Y-152912914D02*
X230898332Y-153103390D01*
X230898332Y-153103390D02*
X230898332Y-153484342D01*
X230898332Y-153484342D02*
X230850713Y-153579580D01*
X230850713Y-153579580D02*
X230803094Y-153627200D01*
X230803094Y-153627200D02*
X230707856Y-153674819D01*
X230707856Y-153674819D02*
X230517380Y-153674819D01*
X230517380Y-153674819D02*
X230422142Y-153627200D01*
X230422142Y-153627200D02*
X230374523Y-153579580D01*
X230374523Y-153579580D02*
X230326904Y-153484342D01*
X230326904Y-153484342D02*
X230326904Y-153246247D01*
X230326904Y-153246247D02*
X230374523Y-153151009D01*
X230374523Y-153151009D02*
X230422142Y-153103390D01*
X230422142Y-153103390D02*
X230517380Y-153055771D01*
X230517380Y-153055771D02*
X230707856Y-153055771D01*
X230707856Y-153055771D02*
X230803094Y-153103390D01*
X230803094Y-153103390D02*
X230850713Y-153151009D01*
X230850713Y-153151009D02*
X230898332Y-153246247D01*
X250803094Y-153627200D02*
X250660237Y-153674819D01*
X250660237Y-153674819D02*
X250422142Y-153674819D01*
X250422142Y-153674819D02*
X250326904Y-153627200D01*
X250326904Y-153627200D02*
X250279285Y-153579580D01*
X250279285Y-153579580D02*
X250231666Y-153484342D01*
X250231666Y-153484342D02*
X250231666Y-153389104D01*
X250231666Y-153389104D02*
X250279285Y-153293866D01*
X250279285Y-153293866D02*
X250326904Y-153246247D01*
X250326904Y-153246247D02*
X250422142Y-153198628D01*
X250422142Y-153198628D02*
X250612618Y-153151009D01*
X250612618Y-153151009D02*
X250707856Y-153103390D01*
X250707856Y-153103390D02*
X250755475Y-153055771D01*
X250755475Y-153055771D02*
X250803094Y-152960533D01*
X250803094Y-152960533D02*
X250803094Y-152865295D01*
X250803094Y-152865295D02*
X250755475Y-152770057D01*
X250755475Y-152770057D02*
X250707856Y-152722438D01*
X250707856Y-152722438D02*
X250612618Y-152674819D01*
X250612618Y-152674819D02*
X250374523Y-152674819D01*
X250374523Y-152674819D02*
X250231666Y-152722438D01*
X249850713Y-152770057D02*
X249803094Y-152722438D01*
X249803094Y-152722438D02*
X249707856Y-152674819D01*
X249707856Y-152674819D02*
X249469761Y-152674819D01*
X249469761Y-152674819D02*
X249374523Y-152722438D01*
X249374523Y-152722438D02*
X249326904Y-152770057D01*
X249326904Y-152770057D02*
X249279285Y-152865295D01*
X249279285Y-152865295D02*
X249279285Y-152960533D01*
X249279285Y-152960533D02*
X249326904Y-153103390D01*
X249326904Y-153103390D02*
X249898332Y-153674819D01*
X249898332Y-153674819D02*
X249279285Y-153674819D01*
X248945951Y-152674819D02*
X248279285Y-152674819D01*
X248279285Y-152674819D02*
X248707856Y-153674819D01*
X221803094Y-80627200D02*
X221660237Y-80674819D01*
X221660237Y-80674819D02*
X221422142Y-80674819D01*
X221422142Y-80674819D02*
X221326904Y-80627200D01*
X221326904Y-80627200D02*
X221279285Y-80579580D01*
X221279285Y-80579580D02*
X221231666Y-80484342D01*
X221231666Y-80484342D02*
X221231666Y-80389104D01*
X221231666Y-80389104D02*
X221279285Y-80293866D01*
X221279285Y-80293866D02*
X221326904Y-80246247D01*
X221326904Y-80246247D02*
X221422142Y-80198628D01*
X221422142Y-80198628D02*
X221612618Y-80151009D01*
X221612618Y-80151009D02*
X221707856Y-80103390D01*
X221707856Y-80103390D02*
X221755475Y-80055771D01*
X221755475Y-80055771D02*
X221803094Y-79960533D01*
X221803094Y-79960533D02*
X221803094Y-79865295D01*
X221803094Y-79865295D02*
X221755475Y-79770057D01*
X221755475Y-79770057D02*
X221707856Y-79722438D01*
X221707856Y-79722438D02*
X221612618Y-79674819D01*
X221612618Y-79674819D02*
X221374523Y-79674819D01*
X221374523Y-79674819D02*
X221231666Y-79722438D01*
X220279285Y-80674819D02*
X220850713Y-80674819D01*
X220564999Y-80674819D02*
X220564999Y-79674819D01*
X220564999Y-79674819D02*
X220660237Y-79817676D01*
X220660237Y-79817676D02*
X220755475Y-79912914D01*
X220755475Y-79912914D02*
X220850713Y-79960533D01*
X219945951Y-79674819D02*
X219279285Y-79674819D01*
X219279285Y-79674819D02*
X219707856Y-80674819D01*
X221803094Y-97627200D02*
X221660237Y-97674819D01*
X221660237Y-97674819D02*
X221422142Y-97674819D01*
X221422142Y-97674819D02*
X221326904Y-97627200D01*
X221326904Y-97627200D02*
X221279285Y-97579580D01*
X221279285Y-97579580D02*
X221231666Y-97484342D01*
X221231666Y-97484342D02*
X221231666Y-97389104D01*
X221231666Y-97389104D02*
X221279285Y-97293866D01*
X221279285Y-97293866D02*
X221326904Y-97246247D01*
X221326904Y-97246247D02*
X221422142Y-97198628D01*
X221422142Y-97198628D02*
X221612618Y-97151009D01*
X221612618Y-97151009D02*
X221707856Y-97103390D01*
X221707856Y-97103390D02*
X221755475Y-97055771D01*
X221755475Y-97055771D02*
X221803094Y-96960533D01*
X221803094Y-96960533D02*
X221803094Y-96865295D01*
X221803094Y-96865295D02*
X221755475Y-96770057D01*
X221755475Y-96770057D02*
X221707856Y-96722438D01*
X221707856Y-96722438D02*
X221612618Y-96674819D01*
X221612618Y-96674819D02*
X221374523Y-96674819D01*
X221374523Y-96674819D02*
X221231666Y-96722438D01*
X220279285Y-97674819D02*
X220850713Y-97674819D01*
X220564999Y-97674819D02*
X220564999Y-96674819D01*
X220564999Y-96674819D02*
X220660237Y-96817676D01*
X220660237Y-96817676D02*
X220755475Y-96912914D01*
X220755475Y-96912914D02*
X220850713Y-96960533D01*
X219707856Y-97103390D02*
X219803094Y-97055771D01*
X219803094Y-97055771D02*
X219850713Y-97008152D01*
X219850713Y-97008152D02*
X219898332Y-96912914D01*
X219898332Y-96912914D02*
X219898332Y-96865295D01*
X219898332Y-96865295D02*
X219850713Y-96770057D01*
X219850713Y-96770057D02*
X219803094Y-96722438D01*
X219803094Y-96722438D02*
X219707856Y-96674819D01*
X219707856Y-96674819D02*
X219517380Y-96674819D01*
X219517380Y-96674819D02*
X219422142Y-96722438D01*
X219422142Y-96722438D02*
X219374523Y-96770057D01*
X219374523Y-96770057D02*
X219326904Y-96865295D01*
X219326904Y-96865295D02*
X219326904Y-96912914D01*
X219326904Y-96912914D02*
X219374523Y-97008152D01*
X219374523Y-97008152D02*
X219422142Y-97055771D01*
X219422142Y-97055771D02*
X219517380Y-97103390D01*
X219517380Y-97103390D02*
X219707856Y-97103390D01*
X219707856Y-97103390D02*
X219803094Y-97151009D01*
X219803094Y-97151009D02*
X219850713Y-97198628D01*
X219850713Y-97198628D02*
X219898332Y-97293866D01*
X219898332Y-97293866D02*
X219898332Y-97484342D01*
X219898332Y-97484342D02*
X219850713Y-97579580D01*
X219850713Y-97579580D02*
X219803094Y-97627200D01*
X219803094Y-97627200D02*
X219707856Y-97674819D01*
X219707856Y-97674819D02*
X219517380Y-97674819D01*
X219517380Y-97674819D02*
X219422142Y-97627200D01*
X219422142Y-97627200D02*
X219374523Y-97579580D01*
X219374523Y-97579580D02*
X219326904Y-97484342D01*
X219326904Y-97484342D02*
X219326904Y-97293866D01*
X219326904Y-97293866D02*
X219374523Y-97198628D01*
X219374523Y-97198628D02*
X219422142Y-97151009D01*
X219422142Y-97151009D02*
X219517380Y-97103390D01*
X203803094Y-92627200D02*
X203660237Y-92674819D01*
X203660237Y-92674819D02*
X203422142Y-92674819D01*
X203422142Y-92674819D02*
X203326904Y-92627200D01*
X203326904Y-92627200D02*
X203279285Y-92579580D01*
X203279285Y-92579580D02*
X203231666Y-92484342D01*
X203231666Y-92484342D02*
X203231666Y-92389104D01*
X203231666Y-92389104D02*
X203279285Y-92293866D01*
X203279285Y-92293866D02*
X203326904Y-92246247D01*
X203326904Y-92246247D02*
X203422142Y-92198628D01*
X203422142Y-92198628D02*
X203612618Y-92151009D01*
X203612618Y-92151009D02*
X203707856Y-92103390D01*
X203707856Y-92103390D02*
X203755475Y-92055771D01*
X203755475Y-92055771D02*
X203803094Y-91960533D01*
X203803094Y-91960533D02*
X203803094Y-91865295D01*
X203803094Y-91865295D02*
X203755475Y-91770057D01*
X203755475Y-91770057D02*
X203707856Y-91722438D01*
X203707856Y-91722438D02*
X203612618Y-91674819D01*
X203612618Y-91674819D02*
X203374523Y-91674819D01*
X203374523Y-91674819D02*
X203231666Y-91722438D01*
X202279285Y-92674819D02*
X202850713Y-92674819D01*
X202564999Y-92674819D02*
X202564999Y-91674819D01*
X202564999Y-91674819D02*
X202660237Y-91817676D01*
X202660237Y-91817676D02*
X202755475Y-91912914D01*
X202755475Y-91912914D02*
X202850713Y-91960533D01*
X201422142Y-92008152D02*
X201422142Y-92674819D01*
X201660237Y-91627200D02*
X201898332Y-92341485D01*
X201898332Y-92341485D02*
X201279285Y-92341485D01*
X259803094Y-136627200D02*
X259660237Y-136674819D01*
X259660237Y-136674819D02*
X259422142Y-136674819D01*
X259422142Y-136674819D02*
X259326904Y-136627200D01*
X259326904Y-136627200D02*
X259279285Y-136579580D01*
X259279285Y-136579580D02*
X259231666Y-136484342D01*
X259231666Y-136484342D02*
X259231666Y-136389104D01*
X259231666Y-136389104D02*
X259279285Y-136293866D01*
X259279285Y-136293866D02*
X259326904Y-136246247D01*
X259326904Y-136246247D02*
X259422142Y-136198628D01*
X259422142Y-136198628D02*
X259612618Y-136151009D01*
X259612618Y-136151009D02*
X259707856Y-136103390D01*
X259707856Y-136103390D02*
X259755475Y-136055771D01*
X259755475Y-136055771D02*
X259803094Y-135960533D01*
X259803094Y-135960533D02*
X259803094Y-135865295D01*
X259803094Y-135865295D02*
X259755475Y-135770057D01*
X259755475Y-135770057D02*
X259707856Y-135722438D01*
X259707856Y-135722438D02*
X259612618Y-135674819D01*
X259612618Y-135674819D02*
X259374523Y-135674819D01*
X259374523Y-135674819D02*
X259231666Y-135722438D01*
X258850713Y-135770057D02*
X258803094Y-135722438D01*
X258803094Y-135722438D02*
X258707856Y-135674819D01*
X258707856Y-135674819D02*
X258469761Y-135674819D01*
X258469761Y-135674819D02*
X258374523Y-135722438D01*
X258374523Y-135722438D02*
X258326904Y-135770057D01*
X258326904Y-135770057D02*
X258279285Y-135865295D01*
X258279285Y-135865295D02*
X258279285Y-135960533D01*
X258279285Y-135960533D02*
X258326904Y-136103390D01*
X258326904Y-136103390D02*
X258898332Y-136674819D01*
X258898332Y-136674819D02*
X258279285Y-136674819D01*
X257707856Y-136103390D02*
X257803094Y-136055771D01*
X257803094Y-136055771D02*
X257850713Y-136008152D01*
X257850713Y-136008152D02*
X257898332Y-135912914D01*
X257898332Y-135912914D02*
X257898332Y-135865295D01*
X257898332Y-135865295D02*
X257850713Y-135770057D01*
X257850713Y-135770057D02*
X257803094Y-135722438D01*
X257803094Y-135722438D02*
X257707856Y-135674819D01*
X257707856Y-135674819D02*
X257517380Y-135674819D01*
X257517380Y-135674819D02*
X257422142Y-135722438D01*
X257422142Y-135722438D02*
X257374523Y-135770057D01*
X257374523Y-135770057D02*
X257326904Y-135865295D01*
X257326904Y-135865295D02*
X257326904Y-135912914D01*
X257326904Y-135912914D02*
X257374523Y-136008152D01*
X257374523Y-136008152D02*
X257422142Y-136055771D01*
X257422142Y-136055771D02*
X257517380Y-136103390D01*
X257517380Y-136103390D02*
X257707856Y-136103390D01*
X257707856Y-136103390D02*
X257803094Y-136151009D01*
X257803094Y-136151009D02*
X257850713Y-136198628D01*
X257850713Y-136198628D02*
X257898332Y-136293866D01*
X257898332Y-136293866D02*
X257898332Y-136484342D01*
X257898332Y-136484342D02*
X257850713Y-136579580D01*
X257850713Y-136579580D02*
X257803094Y-136627200D01*
X257803094Y-136627200D02*
X257707856Y-136674819D01*
X257707856Y-136674819D02*
X257517380Y-136674819D01*
X257517380Y-136674819D02*
X257422142Y-136627200D01*
X257422142Y-136627200D02*
X257374523Y-136579580D01*
X257374523Y-136579580D02*
X257326904Y-136484342D01*
X257326904Y-136484342D02*
X257326904Y-136293866D01*
X257326904Y-136293866D02*
X257374523Y-136198628D01*
X257374523Y-136198628D02*
X257422142Y-136151009D01*
X257422142Y-136151009D02*
X257517380Y-136103390D01*
X167326904Y-125627200D02*
X167184047Y-125674819D01*
X167184047Y-125674819D02*
X166945952Y-125674819D01*
X166945952Y-125674819D02*
X166850714Y-125627200D01*
X166850714Y-125627200D02*
X166803095Y-125579580D01*
X166803095Y-125579580D02*
X166755476Y-125484342D01*
X166755476Y-125484342D02*
X166755476Y-125389104D01*
X166755476Y-125389104D02*
X166803095Y-125293866D01*
X166803095Y-125293866D02*
X166850714Y-125246247D01*
X166850714Y-125246247D02*
X166945952Y-125198628D01*
X166945952Y-125198628D02*
X167136428Y-125151009D01*
X167136428Y-125151009D02*
X167231666Y-125103390D01*
X167231666Y-125103390D02*
X167279285Y-125055771D01*
X167279285Y-125055771D02*
X167326904Y-124960533D01*
X167326904Y-124960533D02*
X167326904Y-124865295D01*
X167326904Y-124865295D02*
X167279285Y-124770057D01*
X167279285Y-124770057D02*
X167231666Y-124722438D01*
X167231666Y-124722438D02*
X167136428Y-124674819D01*
X167136428Y-124674819D02*
X166898333Y-124674819D01*
X166898333Y-124674819D02*
X166755476Y-124722438D01*
X166422142Y-124674819D02*
X165755476Y-124674819D01*
X165755476Y-124674819D02*
X166184047Y-125674819D01*
X203803094Y-75627200D02*
X203660237Y-75674819D01*
X203660237Y-75674819D02*
X203422142Y-75674819D01*
X203422142Y-75674819D02*
X203326904Y-75627200D01*
X203326904Y-75627200D02*
X203279285Y-75579580D01*
X203279285Y-75579580D02*
X203231666Y-75484342D01*
X203231666Y-75484342D02*
X203231666Y-75389104D01*
X203231666Y-75389104D02*
X203279285Y-75293866D01*
X203279285Y-75293866D02*
X203326904Y-75246247D01*
X203326904Y-75246247D02*
X203422142Y-75198628D01*
X203422142Y-75198628D02*
X203612618Y-75151009D01*
X203612618Y-75151009D02*
X203707856Y-75103390D01*
X203707856Y-75103390D02*
X203755475Y-75055771D01*
X203755475Y-75055771D02*
X203803094Y-74960533D01*
X203803094Y-74960533D02*
X203803094Y-74865295D01*
X203803094Y-74865295D02*
X203755475Y-74770057D01*
X203755475Y-74770057D02*
X203707856Y-74722438D01*
X203707856Y-74722438D02*
X203612618Y-74674819D01*
X203612618Y-74674819D02*
X203374523Y-74674819D01*
X203374523Y-74674819D02*
X203231666Y-74722438D01*
X202279285Y-75674819D02*
X202850713Y-75674819D01*
X202564999Y-75674819D02*
X202564999Y-74674819D01*
X202564999Y-74674819D02*
X202660237Y-74817676D01*
X202660237Y-74817676D02*
X202755475Y-74912914D01*
X202755475Y-74912914D02*
X202850713Y-74960533D01*
X201945951Y-74674819D02*
X201326904Y-74674819D01*
X201326904Y-74674819D02*
X201660237Y-75055771D01*
X201660237Y-75055771D02*
X201517380Y-75055771D01*
X201517380Y-75055771D02*
X201422142Y-75103390D01*
X201422142Y-75103390D02*
X201374523Y-75151009D01*
X201374523Y-75151009D02*
X201326904Y-75246247D01*
X201326904Y-75246247D02*
X201326904Y-75484342D01*
X201326904Y-75484342D02*
X201374523Y-75579580D01*
X201374523Y-75579580D02*
X201422142Y-75627200D01*
X201422142Y-75627200D02*
X201517380Y-75674819D01*
X201517380Y-75674819D02*
X201803094Y-75674819D01*
X201803094Y-75674819D02*
X201898332Y-75627200D01*
X201898332Y-75627200D02*
X201945951Y-75579580D01*
X239803094Y-117627200D02*
X239660237Y-117674819D01*
X239660237Y-117674819D02*
X239422142Y-117674819D01*
X239422142Y-117674819D02*
X239326904Y-117627200D01*
X239326904Y-117627200D02*
X239279285Y-117579580D01*
X239279285Y-117579580D02*
X239231666Y-117484342D01*
X239231666Y-117484342D02*
X239231666Y-117389104D01*
X239231666Y-117389104D02*
X239279285Y-117293866D01*
X239279285Y-117293866D02*
X239326904Y-117246247D01*
X239326904Y-117246247D02*
X239422142Y-117198628D01*
X239422142Y-117198628D02*
X239612618Y-117151009D01*
X239612618Y-117151009D02*
X239707856Y-117103390D01*
X239707856Y-117103390D02*
X239755475Y-117055771D01*
X239755475Y-117055771D02*
X239803094Y-116960533D01*
X239803094Y-116960533D02*
X239803094Y-116865295D01*
X239803094Y-116865295D02*
X239755475Y-116770057D01*
X239755475Y-116770057D02*
X239707856Y-116722438D01*
X239707856Y-116722438D02*
X239612618Y-116674819D01*
X239612618Y-116674819D02*
X239374523Y-116674819D01*
X239374523Y-116674819D02*
X239231666Y-116722438D01*
X238850713Y-116770057D02*
X238803094Y-116722438D01*
X238803094Y-116722438D02*
X238707856Y-116674819D01*
X238707856Y-116674819D02*
X238469761Y-116674819D01*
X238469761Y-116674819D02*
X238374523Y-116722438D01*
X238374523Y-116722438D02*
X238326904Y-116770057D01*
X238326904Y-116770057D02*
X238279285Y-116865295D01*
X238279285Y-116865295D02*
X238279285Y-116960533D01*
X238279285Y-116960533D02*
X238326904Y-117103390D01*
X238326904Y-117103390D02*
X238898332Y-117674819D01*
X238898332Y-117674819D02*
X238279285Y-117674819D01*
X237945951Y-116674819D02*
X237326904Y-116674819D01*
X237326904Y-116674819D02*
X237660237Y-117055771D01*
X237660237Y-117055771D02*
X237517380Y-117055771D01*
X237517380Y-117055771D02*
X237422142Y-117103390D01*
X237422142Y-117103390D02*
X237374523Y-117151009D01*
X237374523Y-117151009D02*
X237326904Y-117246247D01*
X237326904Y-117246247D02*
X237326904Y-117484342D01*
X237326904Y-117484342D02*
X237374523Y-117579580D01*
X237374523Y-117579580D02*
X237422142Y-117627200D01*
X237422142Y-117627200D02*
X237517380Y-117674819D01*
X237517380Y-117674819D02*
X237803094Y-117674819D01*
X237803094Y-117674819D02*
X237898332Y-117627200D01*
X237898332Y-117627200D02*
X237945951Y-117579580D01*
X239803094Y-83627200D02*
X239660237Y-83674819D01*
X239660237Y-83674819D02*
X239422142Y-83674819D01*
X239422142Y-83674819D02*
X239326904Y-83627200D01*
X239326904Y-83627200D02*
X239279285Y-83579580D01*
X239279285Y-83579580D02*
X239231666Y-83484342D01*
X239231666Y-83484342D02*
X239231666Y-83389104D01*
X239231666Y-83389104D02*
X239279285Y-83293866D01*
X239279285Y-83293866D02*
X239326904Y-83246247D01*
X239326904Y-83246247D02*
X239422142Y-83198628D01*
X239422142Y-83198628D02*
X239612618Y-83151009D01*
X239612618Y-83151009D02*
X239707856Y-83103390D01*
X239707856Y-83103390D02*
X239755475Y-83055771D01*
X239755475Y-83055771D02*
X239803094Y-82960533D01*
X239803094Y-82960533D02*
X239803094Y-82865295D01*
X239803094Y-82865295D02*
X239755475Y-82770057D01*
X239755475Y-82770057D02*
X239707856Y-82722438D01*
X239707856Y-82722438D02*
X239612618Y-82674819D01*
X239612618Y-82674819D02*
X239374523Y-82674819D01*
X239374523Y-82674819D02*
X239231666Y-82722438D01*
X238850713Y-82770057D02*
X238803094Y-82722438D01*
X238803094Y-82722438D02*
X238707856Y-82674819D01*
X238707856Y-82674819D02*
X238469761Y-82674819D01*
X238469761Y-82674819D02*
X238374523Y-82722438D01*
X238374523Y-82722438D02*
X238326904Y-82770057D01*
X238326904Y-82770057D02*
X238279285Y-82865295D01*
X238279285Y-82865295D02*
X238279285Y-82960533D01*
X238279285Y-82960533D02*
X238326904Y-83103390D01*
X238326904Y-83103390D02*
X238898332Y-83674819D01*
X238898332Y-83674819D02*
X238279285Y-83674819D01*
X237326904Y-83674819D02*
X237898332Y-83674819D01*
X237612618Y-83674819D02*
X237612618Y-82674819D01*
X237612618Y-82674819D02*
X237707856Y-82817676D01*
X237707856Y-82817676D02*
X237803094Y-82912914D01*
X237803094Y-82912914D02*
X237898332Y-82960533D01*
X239803094Y-100627200D02*
X239660237Y-100674819D01*
X239660237Y-100674819D02*
X239422142Y-100674819D01*
X239422142Y-100674819D02*
X239326904Y-100627200D01*
X239326904Y-100627200D02*
X239279285Y-100579580D01*
X239279285Y-100579580D02*
X239231666Y-100484342D01*
X239231666Y-100484342D02*
X239231666Y-100389104D01*
X239231666Y-100389104D02*
X239279285Y-100293866D01*
X239279285Y-100293866D02*
X239326904Y-100246247D01*
X239326904Y-100246247D02*
X239422142Y-100198628D01*
X239422142Y-100198628D02*
X239612618Y-100151009D01*
X239612618Y-100151009D02*
X239707856Y-100103390D01*
X239707856Y-100103390D02*
X239755475Y-100055771D01*
X239755475Y-100055771D02*
X239803094Y-99960533D01*
X239803094Y-99960533D02*
X239803094Y-99865295D01*
X239803094Y-99865295D02*
X239755475Y-99770057D01*
X239755475Y-99770057D02*
X239707856Y-99722438D01*
X239707856Y-99722438D02*
X239612618Y-99674819D01*
X239612618Y-99674819D02*
X239374523Y-99674819D01*
X239374523Y-99674819D02*
X239231666Y-99722438D01*
X238850713Y-99770057D02*
X238803094Y-99722438D01*
X238803094Y-99722438D02*
X238707856Y-99674819D01*
X238707856Y-99674819D02*
X238469761Y-99674819D01*
X238469761Y-99674819D02*
X238374523Y-99722438D01*
X238374523Y-99722438D02*
X238326904Y-99770057D01*
X238326904Y-99770057D02*
X238279285Y-99865295D01*
X238279285Y-99865295D02*
X238279285Y-99960533D01*
X238279285Y-99960533D02*
X238326904Y-100103390D01*
X238326904Y-100103390D02*
X238898332Y-100674819D01*
X238898332Y-100674819D02*
X238279285Y-100674819D01*
X237898332Y-99770057D02*
X237850713Y-99722438D01*
X237850713Y-99722438D02*
X237755475Y-99674819D01*
X237755475Y-99674819D02*
X237517380Y-99674819D01*
X237517380Y-99674819D02*
X237422142Y-99722438D01*
X237422142Y-99722438D02*
X237374523Y-99770057D01*
X237374523Y-99770057D02*
X237326904Y-99865295D01*
X237326904Y-99865295D02*
X237326904Y-99960533D01*
X237326904Y-99960533D02*
X237374523Y-100103390D01*
X237374523Y-100103390D02*
X237945951Y-100674819D01*
X237945951Y-100674819D02*
X237326904Y-100674819D01*
X185326904Y-79627200D02*
X185184047Y-79674819D01*
X185184047Y-79674819D02*
X184945952Y-79674819D01*
X184945952Y-79674819D02*
X184850714Y-79627200D01*
X184850714Y-79627200D02*
X184803095Y-79579580D01*
X184803095Y-79579580D02*
X184755476Y-79484342D01*
X184755476Y-79484342D02*
X184755476Y-79389104D01*
X184755476Y-79389104D02*
X184803095Y-79293866D01*
X184803095Y-79293866D02*
X184850714Y-79246247D01*
X184850714Y-79246247D02*
X184945952Y-79198628D01*
X184945952Y-79198628D02*
X185136428Y-79151009D01*
X185136428Y-79151009D02*
X185231666Y-79103390D01*
X185231666Y-79103390D02*
X185279285Y-79055771D01*
X185279285Y-79055771D02*
X185326904Y-78960533D01*
X185326904Y-78960533D02*
X185326904Y-78865295D01*
X185326904Y-78865295D02*
X185279285Y-78770057D01*
X185279285Y-78770057D02*
X185231666Y-78722438D01*
X185231666Y-78722438D02*
X185136428Y-78674819D01*
X185136428Y-78674819D02*
X184898333Y-78674819D01*
X184898333Y-78674819D02*
X184755476Y-78722438D01*
X184279285Y-79674819D02*
X184088809Y-79674819D01*
X184088809Y-79674819D02*
X183993571Y-79627200D01*
X183993571Y-79627200D02*
X183945952Y-79579580D01*
X183945952Y-79579580D02*
X183850714Y-79436723D01*
X183850714Y-79436723D02*
X183803095Y-79246247D01*
X183803095Y-79246247D02*
X183803095Y-78865295D01*
X183803095Y-78865295D02*
X183850714Y-78770057D01*
X183850714Y-78770057D02*
X183898333Y-78722438D01*
X183898333Y-78722438D02*
X183993571Y-78674819D01*
X183993571Y-78674819D02*
X184184047Y-78674819D01*
X184184047Y-78674819D02*
X184279285Y-78722438D01*
X184279285Y-78722438D02*
X184326904Y-78770057D01*
X184326904Y-78770057D02*
X184374523Y-78865295D01*
X184374523Y-78865295D02*
X184374523Y-79103390D01*
X184374523Y-79103390D02*
X184326904Y-79198628D01*
X184326904Y-79198628D02*
X184279285Y-79246247D01*
X184279285Y-79246247D02*
X184184047Y-79293866D01*
X184184047Y-79293866D02*
X183993571Y-79293866D01*
X183993571Y-79293866D02*
X183898333Y-79246247D01*
X183898333Y-79246247D02*
X183850714Y-79198628D01*
X183850714Y-79198628D02*
X183803095Y-79103390D01*
X185803094Y-113627200D02*
X185660237Y-113674819D01*
X185660237Y-113674819D02*
X185422142Y-113674819D01*
X185422142Y-113674819D02*
X185326904Y-113627200D01*
X185326904Y-113627200D02*
X185279285Y-113579580D01*
X185279285Y-113579580D02*
X185231666Y-113484342D01*
X185231666Y-113484342D02*
X185231666Y-113389104D01*
X185231666Y-113389104D02*
X185279285Y-113293866D01*
X185279285Y-113293866D02*
X185326904Y-113246247D01*
X185326904Y-113246247D02*
X185422142Y-113198628D01*
X185422142Y-113198628D02*
X185612618Y-113151009D01*
X185612618Y-113151009D02*
X185707856Y-113103390D01*
X185707856Y-113103390D02*
X185755475Y-113055771D01*
X185755475Y-113055771D02*
X185803094Y-112960533D01*
X185803094Y-112960533D02*
X185803094Y-112865295D01*
X185803094Y-112865295D02*
X185755475Y-112770057D01*
X185755475Y-112770057D02*
X185707856Y-112722438D01*
X185707856Y-112722438D02*
X185612618Y-112674819D01*
X185612618Y-112674819D02*
X185374523Y-112674819D01*
X185374523Y-112674819D02*
X185231666Y-112722438D01*
X184279285Y-113674819D02*
X184850713Y-113674819D01*
X184564999Y-113674819D02*
X184564999Y-112674819D01*
X184564999Y-112674819D02*
X184660237Y-112817676D01*
X184660237Y-112817676D02*
X184755475Y-112912914D01*
X184755475Y-112912914D02*
X184850713Y-112960533D01*
X183326904Y-113674819D02*
X183898332Y-113674819D01*
X183612618Y-113674819D02*
X183612618Y-112674819D01*
X183612618Y-112674819D02*
X183707856Y-112817676D01*
X183707856Y-112817676D02*
X183803094Y-112912914D01*
X183803094Y-112912914D02*
X183898332Y-112960533D01*
X167326904Y-142627200D02*
X167184047Y-142674819D01*
X167184047Y-142674819D02*
X166945952Y-142674819D01*
X166945952Y-142674819D02*
X166850714Y-142627200D01*
X166850714Y-142627200D02*
X166803095Y-142579580D01*
X166803095Y-142579580D02*
X166755476Y-142484342D01*
X166755476Y-142484342D02*
X166755476Y-142389104D01*
X166755476Y-142389104D02*
X166803095Y-142293866D01*
X166803095Y-142293866D02*
X166850714Y-142246247D01*
X166850714Y-142246247D02*
X166945952Y-142198628D01*
X166945952Y-142198628D02*
X167136428Y-142151009D01*
X167136428Y-142151009D02*
X167231666Y-142103390D01*
X167231666Y-142103390D02*
X167279285Y-142055771D01*
X167279285Y-142055771D02*
X167326904Y-141960533D01*
X167326904Y-141960533D02*
X167326904Y-141865295D01*
X167326904Y-141865295D02*
X167279285Y-141770057D01*
X167279285Y-141770057D02*
X167231666Y-141722438D01*
X167231666Y-141722438D02*
X167136428Y-141674819D01*
X167136428Y-141674819D02*
X166898333Y-141674819D01*
X166898333Y-141674819D02*
X166755476Y-141722438D01*
X166184047Y-142103390D02*
X166279285Y-142055771D01*
X166279285Y-142055771D02*
X166326904Y-142008152D01*
X166326904Y-142008152D02*
X166374523Y-141912914D01*
X166374523Y-141912914D02*
X166374523Y-141865295D01*
X166374523Y-141865295D02*
X166326904Y-141770057D01*
X166326904Y-141770057D02*
X166279285Y-141722438D01*
X166279285Y-141722438D02*
X166184047Y-141674819D01*
X166184047Y-141674819D02*
X165993571Y-141674819D01*
X165993571Y-141674819D02*
X165898333Y-141722438D01*
X165898333Y-141722438D02*
X165850714Y-141770057D01*
X165850714Y-141770057D02*
X165803095Y-141865295D01*
X165803095Y-141865295D02*
X165803095Y-141912914D01*
X165803095Y-141912914D02*
X165850714Y-142008152D01*
X165850714Y-142008152D02*
X165898333Y-142055771D01*
X165898333Y-142055771D02*
X165993571Y-142103390D01*
X165993571Y-142103390D02*
X166184047Y-142103390D01*
X166184047Y-142103390D02*
X166279285Y-142151009D01*
X166279285Y-142151009D02*
X166326904Y-142198628D01*
X166326904Y-142198628D02*
X166374523Y-142293866D01*
X166374523Y-142293866D02*
X166374523Y-142484342D01*
X166374523Y-142484342D02*
X166326904Y-142579580D01*
X166326904Y-142579580D02*
X166279285Y-142627200D01*
X166279285Y-142627200D02*
X166184047Y-142674819D01*
X166184047Y-142674819D02*
X165993571Y-142674819D01*
X165993571Y-142674819D02*
X165898333Y-142627200D01*
X165898333Y-142627200D02*
X165850714Y-142579580D01*
X165850714Y-142579580D02*
X165803095Y-142484342D01*
X165803095Y-142484342D02*
X165803095Y-142293866D01*
X165803095Y-142293866D02*
X165850714Y-142198628D01*
X165850714Y-142198628D02*
X165898333Y-142151009D01*
X165898333Y-142151009D02*
X165993571Y-142103390D01*
X185803094Y-130627200D02*
X185660237Y-130674819D01*
X185660237Y-130674819D02*
X185422142Y-130674819D01*
X185422142Y-130674819D02*
X185326904Y-130627200D01*
X185326904Y-130627200D02*
X185279285Y-130579580D01*
X185279285Y-130579580D02*
X185231666Y-130484342D01*
X185231666Y-130484342D02*
X185231666Y-130389104D01*
X185231666Y-130389104D02*
X185279285Y-130293866D01*
X185279285Y-130293866D02*
X185326904Y-130246247D01*
X185326904Y-130246247D02*
X185422142Y-130198628D01*
X185422142Y-130198628D02*
X185612618Y-130151009D01*
X185612618Y-130151009D02*
X185707856Y-130103390D01*
X185707856Y-130103390D02*
X185755475Y-130055771D01*
X185755475Y-130055771D02*
X185803094Y-129960533D01*
X185803094Y-129960533D02*
X185803094Y-129865295D01*
X185803094Y-129865295D02*
X185755475Y-129770057D01*
X185755475Y-129770057D02*
X185707856Y-129722438D01*
X185707856Y-129722438D02*
X185612618Y-129674819D01*
X185612618Y-129674819D02*
X185374523Y-129674819D01*
X185374523Y-129674819D02*
X185231666Y-129722438D01*
X184279285Y-130674819D02*
X184850713Y-130674819D01*
X184564999Y-130674819D02*
X184564999Y-129674819D01*
X184564999Y-129674819D02*
X184660237Y-129817676D01*
X184660237Y-129817676D02*
X184755475Y-129912914D01*
X184755475Y-129912914D02*
X184850713Y-129960533D01*
X183898332Y-129770057D02*
X183850713Y-129722438D01*
X183850713Y-129722438D02*
X183755475Y-129674819D01*
X183755475Y-129674819D02*
X183517380Y-129674819D01*
X183517380Y-129674819D02*
X183422142Y-129722438D01*
X183422142Y-129722438D02*
X183374523Y-129770057D01*
X183374523Y-129770057D02*
X183326904Y-129865295D01*
X183326904Y-129865295D02*
X183326904Y-129960533D01*
X183326904Y-129960533D02*
X183374523Y-130103390D01*
X183374523Y-130103390D02*
X183945951Y-130674819D01*
X183945951Y-130674819D02*
X183326904Y-130674819D01*
X149326904Y-142627200D02*
X149184047Y-142674819D01*
X149184047Y-142674819D02*
X148945952Y-142674819D01*
X148945952Y-142674819D02*
X148850714Y-142627200D01*
X148850714Y-142627200D02*
X148803095Y-142579580D01*
X148803095Y-142579580D02*
X148755476Y-142484342D01*
X148755476Y-142484342D02*
X148755476Y-142389104D01*
X148755476Y-142389104D02*
X148803095Y-142293866D01*
X148803095Y-142293866D02*
X148850714Y-142246247D01*
X148850714Y-142246247D02*
X148945952Y-142198628D01*
X148945952Y-142198628D02*
X149136428Y-142151009D01*
X149136428Y-142151009D02*
X149231666Y-142103390D01*
X149231666Y-142103390D02*
X149279285Y-142055771D01*
X149279285Y-142055771D02*
X149326904Y-141960533D01*
X149326904Y-141960533D02*
X149326904Y-141865295D01*
X149326904Y-141865295D02*
X149279285Y-141770057D01*
X149279285Y-141770057D02*
X149231666Y-141722438D01*
X149231666Y-141722438D02*
X149136428Y-141674819D01*
X149136428Y-141674819D02*
X148898333Y-141674819D01*
X148898333Y-141674819D02*
X148755476Y-141722438D01*
X147898333Y-142008152D02*
X147898333Y-142674819D01*
X148136428Y-141627200D02*
X148374523Y-142341485D01*
X148374523Y-142341485D02*
X147755476Y-142341485D01*
X149326904Y-91627200D02*
X149184047Y-91674819D01*
X149184047Y-91674819D02*
X148945952Y-91674819D01*
X148945952Y-91674819D02*
X148850714Y-91627200D01*
X148850714Y-91627200D02*
X148803095Y-91579580D01*
X148803095Y-91579580D02*
X148755476Y-91484342D01*
X148755476Y-91484342D02*
X148755476Y-91389104D01*
X148755476Y-91389104D02*
X148803095Y-91293866D01*
X148803095Y-91293866D02*
X148850714Y-91246247D01*
X148850714Y-91246247D02*
X148945952Y-91198628D01*
X148945952Y-91198628D02*
X149136428Y-91151009D01*
X149136428Y-91151009D02*
X149231666Y-91103390D01*
X149231666Y-91103390D02*
X149279285Y-91055771D01*
X149279285Y-91055771D02*
X149326904Y-90960533D01*
X149326904Y-90960533D02*
X149326904Y-90865295D01*
X149326904Y-90865295D02*
X149279285Y-90770057D01*
X149279285Y-90770057D02*
X149231666Y-90722438D01*
X149231666Y-90722438D02*
X149136428Y-90674819D01*
X149136428Y-90674819D02*
X148898333Y-90674819D01*
X148898333Y-90674819D02*
X148755476Y-90722438D01*
X147803095Y-91674819D02*
X148374523Y-91674819D01*
X148088809Y-91674819D02*
X148088809Y-90674819D01*
X148088809Y-90674819D02*
X148184047Y-90817676D01*
X148184047Y-90817676D02*
X148279285Y-90912914D01*
X148279285Y-90912914D02*
X148374523Y-90960533D01*
X263217319Y-108158333D02*
X263217319Y-107682143D01*
X263217319Y-107682143D02*
X262217319Y-107682143D01*
X263217319Y-109015476D02*
X263217319Y-108444048D01*
X263217319Y-108729762D02*
X262217319Y-108729762D01*
X262217319Y-108729762D02*
X262360176Y-108634524D01*
X262360176Y-108634524D02*
X262455414Y-108539286D01*
X262455414Y-108539286D02*
X262503033Y-108444048D01*
X269229819Y-96058333D02*
X268753628Y-95725000D01*
X269229819Y-95486905D02*
X268229819Y-95486905D01*
X268229819Y-95486905D02*
X268229819Y-95867857D01*
X268229819Y-95867857D02*
X268277438Y-95963095D01*
X268277438Y-95963095D02*
X268325057Y-96010714D01*
X268325057Y-96010714D02*
X268420295Y-96058333D01*
X268420295Y-96058333D02*
X268563152Y-96058333D01*
X268563152Y-96058333D02*
X268658390Y-96010714D01*
X268658390Y-96010714D02*
X268706009Y-95963095D01*
X268706009Y-95963095D02*
X268753628Y-95867857D01*
X268753628Y-95867857D02*
X268753628Y-95486905D01*
X268229819Y-96391667D02*
X268229819Y-97010714D01*
X268229819Y-97010714D02*
X268610771Y-96677381D01*
X268610771Y-96677381D02*
X268610771Y-96820238D01*
X268610771Y-96820238D02*
X268658390Y-96915476D01*
X268658390Y-96915476D02*
X268706009Y-96963095D01*
X268706009Y-96963095D02*
X268801247Y-97010714D01*
X268801247Y-97010714D02*
X269039342Y-97010714D01*
X269039342Y-97010714D02*
X269134580Y-96963095D01*
X269134580Y-96963095D02*
X269182200Y-96915476D01*
X269182200Y-96915476D02*
X269229819Y-96820238D01*
X269229819Y-96820238D02*
X269229819Y-96534524D01*
X269229819Y-96534524D02*
X269182200Y-96439286D01*
X269182200Y-96439286D02*
X269134580Y-96391667D01*
X256666666Y-110722080D02*
X256714285Y-110769700D01*
X256714285Y-110769700D02*
X256857142Y-110817319D01*
X256857142Y-110817319D02*
X256952380Y-110817319D01*
X256952380Y-110817319D02*
X257095237Y-110769700D01*
X257095237Y-110769700D02*
X257190475Y-110674461D01*
X257190475Y-110674461D02*
X257238094Y-110579223D01*
X257238094Y-110579223D02*
X257285713Y-110388747D01*
X257285713Y-110388747D02*
X257285713Y-110245890D01*
X257285713Y-110245890D02*
X257238094Y-110055414D01*
X257238094Y-110055414D02*
X257190475Y-109960176D01*
X257190475Y-109960176D02*
X257095237Y-109864938D01*
X257095237Y-109864938D02*
X256952380Y-109817319D01*
X256952380Y-109817319D02*
X256857142Y-109817319D01*
X256857142Y-109817319D02*
X256714285Y-109864938D01*
X256714285Y-109864938D02*
X256666666Y-109912557D01*
X255809523Y-110150652D02*
X255809523Y-110817319D01*
X256047618Y-109769700D02*
X256285713Y-110483985D01*
X256285713Y-110483985D02*
X255666666Y-110483985D01*
X269867319Y-110558333D02*
X269391128Y-110225000D01*
X269867319Y-109986905D02*
X268867319Y-109986905D01*
X268867319Y-109986905D02*
X268867319Y-110367857D01*
X268867319Y-110367857D02*
X268914938Y-110463095D01*
X268914938Y-110463095D02*
X268962557Y-110510714D01*
X268962557Y-110510714D02*
X269057795Y-110558333D01*
X269057795Y-110558333D02*
X269200652Y-110558333D01*
X269200652Y-110558333D02*
X269295890Y-110510714D01*
X269295890Y-110510714D02*
X269343509Y-110463095D01*
X269343509Y-110463095D02*
X269391128Y-110367857D01*
X269391128Y-110367857D02*
X269391128Y-109986905D01*
X269867319Y-111510714D02*
X269867319Y-110939286D01*
X269867319Y-111225000D02*
X268867319Y-111225000D01*
X268867319Y-111225000D02*
X269010176Y-111129762D01*
X269010176Y-111129762D02*
X269105414Y-111034524D01*
X269105414Y-111034524D02*
X269153033Y-110939286D01*
X252466666Y-112929819D02*
X252799999Y-112453628D01*
X253038094Y-112929819D02*
X253038094Y-111929819D01*
X253038094Y-111929819D02*
X252657142Y-111929819D01*
X252657142Y-111929819D02*
X252561904Y-111977438D01*
X252561904Y-111977438D02*
X252514285Y-112025057D01*
X252514285Y-112025057D02*
X252466666Y-112120295D01*
X252466666Y-112120295D02*
X252466666Y-112263152D01*
X252466666Y-112263152D02*
X252514285Y-112358390D01*
X252514285Y-112358390D02*
X252561904Y-112406009D01*
X252561904Y-112406009D02*
X252657142Y-112453628D01*
X252657142Y-112453628D02*
X253038094Y-112453628D01*
X251609523Y-112263152D02*
X251609523Y-112929819D01*
X251847618Y-111882200D02*
X252085713Y-112596485D01*
X252085713Y-112596485D02*
X251466666Y-112596485D01*
X269111904Y-97361793D02*
X269111904Y-98171316D01*
X269111904Y-98171316D02*
X269064285Y-98266554D01*
X269064285Y-98266554D02*
X269016666Y-98314174D01*
X269016666Y-98314174D02*
X268921428Y-98361793D01*
X268921428Y-98361793D02*
X268730952Y-98361793D01*
X268730952Y-98361793D02*
X268635714Y-98314174D01*
X268635714Y-98314174D02*
X268588095Y-98266554D01*
X268588095Y-98266554D02*
X268540476Y-98171316D01*
X268540476Y-98171316D02*
X268540476Y-97361793D01*
X267540476Y-98361793D02*
X268111904Y-98361793D01*
X267826190Y-98361793D02*
X267826190Y-97361793D01*
X267826190Y-97361793D02*
X267921428Y-97504650D01*
X267921428Y-97504650D02*
X268016666Y-97599888D01*
X268016666Y-97599888D02*
X268111904Y-97647507D01*
X276516666Y-85324819D02*
X276849999Y-84848628D01*
X277088094Y-85324819D02*
X277088094Y-84324819D01*
X277088094Y-84324819D02*
X276707142Y-84324819D01*
X276707142Y-84324819D02*
X276611904Y-84372438D01*
X276611904Y-84372438D02*
X276564285Y-84420057D01*
X276564285Y-84420057D02*
X276516666Y-84515295D01*
X276516666Y-84515295D02*
X276516666Y-84658152D01*
X276516666Y-84658152D02*
X276564285Y-84753390D01*
X276564285Y-84753390D02*
X276611904Y-84801009D01*
X276611904Y-84801009D02*
X276707142Y-84848628D01*
X276707142Y-84848628D02*
X277088094Y-84848628D01*
X275945237Y-84753390D02*
X276040475Y-84705771D01*
X276040475Y-84705771D02*
X276088094Y-84658152D01*
X276088094Y-84658152D02*
X276135713Y-84562914D01*
X276135713Y-84562914D02*
X276135713Y-84515295D01*
X276135713Y-84515295D02*
X276088094Y-84420057D01*
X276088094Y-84420057D02*
X276040475Y-84372438D01*
X276040475Y-84372438D02*
X275945237Y-84324819D01*
X275945237Y-84324819D02*
X275754761Y-84324819D01*
X275754761Y-84324819D02*
X275659523Y-84372438D01*
X275659523Y-84372438D02*
X275611904Y-84420057D01*
X275611904Y-84420057D02*
X275564285Y-84515295D01*
X275564285Y-84515295D02*
X275564285Y-84562914D01*
X275564285Y-84562914D02*
X275611904Y-84658152D01*
X275611904Y-84658152D02*
X275659523Y-84705771D01*
X275659523Y-84705771D02*
X275754761Y-84753390D01*
X275754761Y-84753390D02*
X275945237Y-84753390D01*
X275945237Y-84753390D02*
X276040475Y-84801009D01*
X276040475Y-84801009D02*
X276088094Y-84848628D01*
X276088094Y-84848628D02*
X276135713Y-84943866D01*
X276135713Y-84943866D02*
X276135713Y-85134342D01*
X276135713Y-85134342D02*
X276088094Y-85229580D01*
X276088094Y-85229580D02*
X276040475Y-85277200D01*
X276040475Y-85277200D02*
X275945237Y-85324819D01*
X275945237Y-85324819D02*
X275754761Y-85324819D01*
X275754761Y-85324819D02*
X275659523Y-85277200D01*
X275659523Y-85277200D02*
X275611904Y-85229580D01*
X275611904Y-85229580D02*
X275564285Y-85134342D01*
X275564285Y-85134342D02*
X275564285Y-84943866D01*
X275564285Y-84943866D02*
X275611904Y-84848628D01*
X275611904Y-84848628D02*
X275659523Y-84801009D01*
X275659523Y-84801009D02*
X275754761Y-84753390D01*
X265104819Y-105158333D02*
X264628628Y-104825000D01*
X265104819Y-104586905D02*
X264104819Y-104586905D01*
X264104819Y-104586905D02*
X264104819Y-104967857D01*
X264104819Y-104967857D02*
X264152438Y-105063095D01*
X264152438Y-105063095D02*
X264200057Y-105110714D01*
X264200057Y-105110714D02*
X264295295Y-105158333D01*
X264295295Y-105158333D02*
X264438152Y-105158333D01*
X264438152Y-105158333D02*
X264533390Y-105110714D01*
X264533390Y-105110714D02*
X264581009Y-105063095D01*
X264581009Y-105063095D02*
X264628628Y-104967857D01*
X264628628Y-104967857D02*
X264628628Y-104586905D01*
X264200057Y-105539286D02*
X264152438Y-105586905D01*
X264152438Y-105586905D02*
X264104819Y-105682143D01*
X264104819Y-105682143D02*
X264104819Y-105920238D01*
X264104819Y-105920238D02*
X264152438Y-106015476D01*
X264152438Y-106015476D02*
X264200057Y-106063095D01*
X264200057Y-106063095D02*
X264295295Y-106110714D01*
X264295295Y-106110714D02*
X264390533Y-106110714D01*
X264390533Y-106110714D02*
X264533390Y-106063095D01*
X264533390Y-106063095D02*
X265104819Y-105491667D01*
X265104819Y-105491667D02*
X265104819Y-106110714D01*
X274217857Y-121904819D02*
X274551190Y-121428628D01*
X274789285Y-121904819D02*
X274789285Y-120904819D01*
X274789285Y-120904819D02*
X274408333Y-120904819D01*
X274408333Y-120904819D02*
X274313095Y-120952438D01*
X274313095Y-120952438D02*
X274265476Y-121000057D01*
X274265476Y-121000057D02*
X274217857Y-121095295D01*
X274217857Y-121095295D02*
X274217857Y-121238152D01*
X274217857Y-121238152D02*
X274265476Y-121333390D01*
X274265476Y-121333390D02*
X274313095Y-121381009D01*
X274313095Y-121381009D02*
X274408333Y-121428628D01*
X274408333Y-121428628D02*
X274789285Y-121428628D01*
X273265476Y-121904819D02*
X273836904Y-121904819D01*
X273551190Y-121904819D02*
X273551190Y-120904819D01*
X273551190Y-120904819D02*
X273646428Y-121047676D01*
X273646428Y-121047676D02*
X273741666Y-121142914D01*
X273741666Y-121142914D02*
X273836904Y-121190533D01*
X272313095Y-121904819D02*
X272884523Y-121904819D01*
X272598809Y-121904819D02*
X272598809Y-120904819D01*
X272598809Y-120904819D02*
X272694047Y-121047676D01*
X272694047Y-121047676D02*
X272789285Y-121142914D01*
X272789285Y-121142914D02*
X272884523Y-121190533D01*
X252511904Y-101954819D02*
X252511904Y-102764342D01*
X252511904Y-102764342D02*
X252464285Y-102859580D01*
X252464285Y-102859580D02*
X252416666Y-102907200D01*
X252416666Y-102907200D02*
X252321428Y-102954819D01*
X252321428Y-102954819D02*
X252130952Y-102954819D01*
X252130952Y-102954819D02*
X252035714Y-102907200D01*
X252035714Y-102907200D02*
X251988095Y-102859580D01*
X251988095Y-102859580D02*
X251940476Y-102764342D01*
X251940476Y-102764342D02*
X251940476Y-101954819D01*
X251511904Y-102050057D02*
X251464285Y-102002438D01*
X251464285Y-102002438D02*
X251369047Y-101954819D01*
X251369047Y-101954819D02*
X251130952Y-101954819D01*
X251130952Y-101954819D02*
X251035714Y-102002438D01*
X251035714Y-102002438D02*
X250988095Y-102050057D01*
X250988095Y-102050057D02*
X250940476Y-102145295D01*
X250940476Y-102145295D02*
X250940476Y-102240533D01*
X250940476Y-102240533D02*
X250988095Y-102383390D01*
X250988095Y-102383390D02*
X251559523Y-102954819D01*
X251559523Y-102954819D02*
X250940476Y-102954819D01*
X269629819Y-120407142D02*
X269153628Y-120073809D01*
X269629819Y-119835714D02*
X268629819Y-119835714D01*
X268629819Y-119835714D02*
X268629819Y-120216666D01*
X268629819Y-120216666D02*
X268677438Y-120311904D01*
X268677438Y-120311904D02*
X268725057Y-120359523D01*
X268725057Y-120359523D02*
X268820295Y-120407142D01*
X268820295Y-120407142D02*
X268963152Y-120407142D01*
X268963152Y-120407142D02*
X269058390Y-120359523D01*
X269058390Y-120359523D02*
X269106009Y-120311904D01*
X269106009Y-120311904D02*
X269153628Y-120216666D01*
X269153628Y-120216666D02*
X269153628Y-119835714D01*
X269629819Y-121359523D02*
X269629819Y-120788095D01*
X269629819Y-121073809D02*
X268629819Y-121073809D01*
X268629819Y-121073809D02*
X268772676Y-120978571D01*
X268772676Y-120978571D02*
X268867914Y-120883333D01*
X268867914Y-120883333D02*
X268915533Y-120788095D01*
X268629819Y-121978571D02*
X268629819Y-122073809D01*
X268629819Y-122073809D02*
X268677438Y-122169047D01*
X268677438Y-122169047D02*
X268725057Y-122216666D01*
X268725057Y-122216666D02*
X268820295Y-122264285D01*
X268820295Y-122264285D02*
X269010771Y-122311904D01*
X269010771Y-122311904D02*
X269248866Y-122311904D01*
X269248866Y-122311904D02*
X269439342Y-122264285D01*
X269439342Y-122264285D02*
X269534580Y-122216666D01*
X269534580Y-122216666D02*
X269582200Y-122169047D01*
X269582200Y-122169047D02*
X269629819Y-122073809D01*
X269629819Y-122073809D02*
X269629819Y-121978571D01*
X269629819Y-121978571D02*
X269582200Y-121883333D01*
X269582200Y-121883333D02*
X269534580Y-121835714D01*
X269534580Y-121835714D02*
X269439342Y-121788095D01*
X269439342Y-121788095D02*
X269248866Y-121740476D01*
X269248866Y-121740476D02*
X269010771Y-121740476D01*
X269010771Y-121740476D02*
X268820295Y-121788095D01*
X268820295Y-121788095D02*
X268725057Y-121835714D01*
X268725057Y-121835714D02*
X268677438Y-121883333D01*
X268677438Y-121883333D02*
X268629819Y-121978571D01*
X265890951Y-87591342D02*
X265890951Y-87972295D01*
X266157618Y-87172295D02*
X265890951Y-87591342D01*
X265890951Y-87591342D02*
X265624285Y-87172295D01*
X264938571Y-87972295D02*
X265395714Y-87972295D01*
X265167142Y-87972295D02*
X265167142Y-87172295D01*
X265167142Y-87172295D02*
X265243333Y-87286580D01*
X265243333Y-87286580D02*
X265319523Y-87362771D01*
X265319523Y-87362771D02*
X265395714Y-87400866D01*
X270495238Y-112950057D02*
X270590476Y-112902438D01*
X270590476Y-112902438D02*
X270685714Y-112807200D01*
X270685714Y-112807200D02*
X270828571Y-112664342D01*
X270828571Y-112664342D02*
X270923809Y-112616723D01*
X270923809Y-112616723D02*
X271019047Y-112616723D01*
X270971428Y-112854819D02*
X271066666Y-112807200D01*
X271066666Y-112807200D02*
X271161904Y-112711961D01*
X271161904Y-112711961D02*
X271209523Y-112521485D01*
X271209523Y-112521485D02*
X271209523Y-112188152D01*
X271209523Y-112188152D02*
X271161904Y-111997676D01*
X271161904Y-111997676D02*
X271066666Y-111902438D01*
X271066666Y-111902438D02*
X270971428Y-111854819D01*
X270971428Y-111854819D02*
X270780952Y-111854819D01*
X270780952Y-111854819D02*
X270685714Y-111902438D01*
X270685714Y-111902438D02*
X270590476Y-111997676D01*
X270590476Y-111997676D02*
X270542857Y-112188152D01*
X270542857Y-112188152D02*
X270542857Y-112521485D01*
X270542857Y-112521485D02*
X270590476Y-112711961D01*
X270590476Y-112711961D02*
X270685714Y-112807200D01*
X270685714Y-112807200D02*
X270780952Y-112854819D01*
X270780952Y-112854819D02*
X270971428Y-112854819D01*
X269590476Y-112854819D02*
X270161904Y-112854819D01*
X269876190Y-112854819D02*
X269876190Y-111854819D01*
X269876190Y-111854819D02*
X269971428Y-111997676D01*
X269971428Y-111997676D02*
X270066666Y-112092914D01*
X270066666Y-112092914D02*
X270161904Y-112140533D01*
X270958333Y-106256009D02*
X271291666Y-106256009D01*
X271291666Y-106779819D02*
X271291666Y-105779819D01*
X271291666Y-105779819D02*
X270815476Y-105779819D01*
X269910714Y-106779819D02*
X270482142Y-106779819D01*
X270196428Y-106779819D02*
X270196428Y-105779819D01*
X270196428Y-105779819D02*
X270291666Y-105922676D01*
X270291666Y-105922676D02*
X270386904Y-106017914D01*
X270386904Y-106017914D02*
X270482142Y-106065533D01*
X247661142Y-81673231D02*
X247661142Y-82906945D01*
X247661142Y-82906945D02*
X247588571Y-83052088D01*
X247588571Y-83052088D02*
X247516000Y-83124660D01*
X247516000Y-83124660D02*
X247370857Y-83197231D01*
X247370857Y-83197231D02*
X247080571Y-83197231D01*
X247080571Y-83197231D02*
X246935428Y-83124660D01*
X246935428Y-83124660D02*
X246862857Y-83052088D01*
X246862857Y-83052088D02*
X246790285Y-82906945D01*
X246790285Y-82906945D02*
X246790285Y-81673231D01*
X246209714Y-81673231D02*
X245266286Y-81673231D01*
X245266286Y-81673231D02*
X245774286Y-82253802D01*
X245774286Y-82253802D02*
X245556571Y-82253802D01*
X245556571Y-82253802D02*
X245411429Y-82326374D01*
X245411429Y-82326374D02*
X245338857Y-82398945D01*
X245338857Y-82398945D02*
X245266286Y-82544088D01*
X245266286Y-82544088D02*
X245266286Y-82906945D01*
X245266286Y-82906945D02*
X245338857Y-83052088D01*
X245338857Y-83052088D02*
X245411429Y-83124660D01*
X245411429Y-83124660D02*
X245556571Y-83197231D01*
X245556571Y-83197231D02*
X245992000Y-83197231D01*
X245992000Y-83197231D02*
X246137143Y-83124660D01*
X246137143Y-83124660D02*
X246209714Y-83052088D01*
D11*
X258255780Y-80314864D02*
X258074352Y-80375340D01*
X258074352Y-80375340D02*
X258013875Y-80435816D01*
X258013875Y-80435816D02*
X257953399Y-80556768D01*
X257953399Y-80556768D02*
X257953399Y-80738197D01*
X257953399Y-80738197D02*
X258013875Y-80859149D01*
X258013875Y-80859149D02*
X258074352Y-80919626D01*
X258074352Y-80919626D02*
X258195304Y-80980102D01*
X258195304Y-80980102D02*
X258679114Y-80980102D01*
X258679114Y-80980102D02*
X258679114Y-79710102D01*
X258679114Y-79710102D02*
X258255780Y-79710102D01*
X258255780Y-79710102D02*
X258134828Y-79770578D01*
X258134828Y-79770578D02*
X258074352Y-79831054D01*
X258074352Y-79831054D02*
X258013875Y-79952006D01*
X258013875Y-79952006D02*
X258013875Y-80072959D01*
X258013875Y-80072959D02*
X258074352Y-80193911D01*
X258074352Y-80193911D02*
X258134828Y-80254387D01*
X258134828Y-80254387D02*
X258255780Y-80314864D01*
X258255780Y-80314864D02*
X258679114Y-80314864D01*
X257590542Y-79710102D02*
X256864828Y-79710102D01*
X257227685Y-80980102D02*
X257227685Y-79710102D01*
X256260066Y-80254387D02*
X256381018Y-80193911D01*
X256381018Y-80193911D02*
X256441495Y-80133435D01*
X256441495Y-80133435D02*
X256501971Y-80012483D01*
X256501971Y-80012483D02*
X256501971Y-79952006D01*
X256501971Y-79952006D02*
X256441495Y-79831054D01*
X256441495Y-79831054D02*
X256381018Y-79770578D01*
X256381018Y-79770578D02*
X256260066Y-79710102D01*
X256260066Y-79710102D02*
X256018161Y-79710102D01*
X256018161Y-79710102D02*
X255897209Y-79770578D01*
X255897209Y-79770578D02*
X255836733Y-79831054D01*
X255836733Y-79831054D02*
X255776256Y-79952006D01*
X255776256Y-79952006D02*
X255776256Y-80012483D01*
X255776256Y-80012483D02*
X255836733Y-80133435D01*
X255836733Y-80133435D02*
X255897209Y-80193911D01*
X255897209Y-80193911D02*
X256018161Y-80254387D01*
X256018161Y-80254387D02*
X256260066Y-80254387D01*
X256260066Y-80254387D02*
X256381018Y-80314864D01*
X256381018Y-80314864D02*
X256441495Y-80375340D01*
X256441495Y-80375340D02*
X256501971Y-80496292D01*
X256501971Y-80496292D02*
X256501971Y-80738197D01*
X256501971Y-80738197D02*
X256441495Y-80859149D01*
X256441495Y-80859149D02*
X256381018Y-80919626D01*
X256381018Y-80919626D02*
X256260066Y-80980102D01*
X256260066Y-80980102D02*
X256018161Y-80980102D01*
X256018161Y-80980102D02*
X255897209Y-80919626D01*
X255897209Y-80919626D02*
X255836733Y-80859149D01*
X255836733Y-80859149D02*
X255776256Y-80738197D01*
X255776256Y-80738197D02*
X255776256Y-80496292D01*
X255776256Y-80496292D02*
X255836733Y-80375340D01*
X255836733Y-80375340D02*
X255897209Y-80314864D01*
X255897209Y-80314864D02*
X256018161Y-80254387D01*
X254687685Y-80133435D02*
X254687685Y-80980102D01*
X254990066Y-79649626D02*
X255292447Y-80556768D01*
X255292447Y-80556768D02*
X254506256Y-80556768D01*
X253780542Y-79710102D02*
X253659589Y-79710102D01*
X253659589Y-79710102D02*
X253538637Y-79770578D01*
X253538637Y-79770578D02*
X253478161Y-79831054D01*
X253478161Y-79831054D02*
X253417685Y-79952006D01*
X253417685Y-79952006D02*
X253357208Y-80193911D01*
X253357208Y-80193911D02*
X253357208Y-80496292D01*
X253357208Y-80496292D02*
X253417685Y-80738197D01*
X253417685Y-80738197D02*
X253478161Y-80859149D01*
X253478161Y-80859149D02*
X253538637Y-80919626D01*
X253538637Y-80919626D02*
X253659589Y-80980102D01*
X253659589Y-80980102D02*
X253780542Y-80980102D01*
X253780542Y-80980102D02*
X253901494Y-80919626D01*
X253901494Y-80919626D02*
X253961970Y-80859149D01*
X253961970Y-80859149D02*
X254022447Y-80738197D01*
X254022447Y-80738197D02*
X254082923Y-80496292D01*
X254082923Y-80496292D02*
X254082923Y-80193911D01*
X254082923Y-80193911D02*
X254022447Y-79952006D01*
X254022447Y-79952006D02*
X253961970Y-79831054D01*
X253961970Y-79831054D02*
X253901494Y-79770578D01*
X253901494Y-79770578D02*
X253780542Y-79710102D01*
D10*
X250166666Y-112479819D02*
X250499999Y-112003628D01*
X250738094Y-112479819D02*
X250738094Y-111479819D01*
X250738094Y-111479819D02*
X250357142Y-111479819D01*
X250357142Y-111479819D02*
X250261904Y-111527438D01*
X250261904Y-111527438D02*
X250214285Y-111575057D01*
X250214285Y-111575057D02*
X250166666Y-111670295D01*
X250166666Y-111670295D02*
X250166666Y-111813152D01*
X250166666Y-111813152D02*
X250214285Y-111908390D01*
X250214285Y-111908390D02*
X250261904Y-111956009D01*
X250261904Y-111956009D02*
X250357142Y-112003628D01*
X250357142Y-112003628D02*
X250738094Y-112003628D01*
X249309523Y-111479819D02*
X249499999Y-111479819D01*
X249499999Y-111479819D02*
X249595237Y-111527438D01*
X249595237Y-111527438D02*
X249642856Y-111575057D01*
X249642856Y-111575057D02*
X249738094Y-111717914D01*
X249738094Y-111717914D02*
X249785713Y-111908390D01*
X249785713Y-111908390D02*
X249785713Y-112289342D01*
X249785713Y-112289342D02*
X249738094Y-112384580D01*
X249738094Y-112384580D02*
X249690475Y-112432200D01*
X249690475Y-112432200D02*
X249595237Y-112479819D01*
X249595237Y-112479819D02*
X249404761Y-112479819D01*
X249404761Y-112479819D02*
X249309523Y-112432200D01*
X249309523Y-112432200D02*
X249261904Y-112384580D01*
X249261904Y-112384580D02*
X249214285Y-112289342D01*
X249214285Y-112289342D02*
X249214285Y-112051247D01*
X249214285Y-112051247D02*
X249261904Y-111956009D01*
X249261904Y-111956009D02*
X249309523Y-111908390D01*
X249309523Y-111908390D02*
X249404761Y-111860771D01*
X249404761Y-111860771D02*
X249595237Y-111860771D01*
X249595237Y-111860771D02*
X249690475Y-111908390D01*
X249690475Y-111908390D02*
X249738094Y-111956009D01*
X249738094Y-111956009D02*
X249785713Y-112051247D01*
X269339580Y-89063333D02*
X269387200Y-89015714D01*
X269387200Y-89015714D02*
X269434819Y-88872857D01*
X269434819Y-88872857D02*
X269434819Y-88777619D01*
X269434819Y-88777619D02*
X269387200Y-88634762D01*
X269387200Y-88634762D02*
X269291961Y-88539524D01*
X269291961Y-88539524D02*
X269196723Y-88491905D01*
X269196723Y-88491905D02*
X269006247Y-88444286D01*
X269006247Y-88444286D02*
X268863390Y-88444286D01*
X268863390Y-88444286D02*
X268672914Y-88491905D01*
X268672914Y-88491905D02*
X268577676Y-88539524D01*
X268577676Y-88539524D02*
X268482438Y-88634762D01*
X268482438Y-88634762D02*
X268434819Y-88777619D01*
X268434819Y-88777619D02*
X268434819Y-88872857D01*
X268434819Y-88872857D02*
X268482438Y-89015714D01*
X268482438Y-89015714D02*
X268530057Y-89063333D01*
X268434819Y-89920476D02*
X268434819Y-89730000D01*
X268434819Y-89730000D02*
X268482438Y-89634762D01*
X268482438Y-89634762D02*
X268530057Y-89587143D01*
X268530057Y-89587143D02*
X268672914Y-89491905D01*
X268672914Y-89491905D02*
X268863390Y-89444286D01*
X268863390Y-89444286D02*
X269244342Y-89444286D01*
X269244342Y-89444286D02*
X269339580Y-89491905D01*
X269339580Y-89491905D02*
X269387200Y-89539524D01*
X269387200Y-89539524D02*
X269434819Y-89634762D01*
X269434819Y-89634762D02*
X269434819Y-89825238D01*
X269434819Y-89825238D02*
X269387200Y-89920476D01*
X269387200Y-89920476D02*
X269339580Y-89968095D01*
X269339580Y-89968095D02*
X269244342Y-90015714D01*
X269244342Y-90015714D02*
X269006247Y-90015714D01*
X269006247Y-90015714D02*
X268911009Y-89968095D01*
X268911009Y-89968095D02*
X268863390Y-89920476D01*
X268863390Y-89920476D02*
X268815771Y-89825238D01*
X268815771Y-89825238D02*
X268815771Y-89634762D01*
X268815771Y-89634762D02*
X268863390Y-89539524D01*
X268863390Y-89539524D02*
X268911009Y-89491905D01*
X268911009Y-89491905D02*
X269006247Y-89444286D01*
X271279819Y-120383333D02*
X270803628Y-120050000D01*
X271279819Y-119811905D02*
X270279819Y-119811905D01*
X270279819Y-119811905D02*
X270279819Y-120192857D01*
X270279819Y-120192857D02*
X270327438Y-120288095D01*
X270327438Y-120288095D02*
X270375057Y-120335714D01*
X270375057Y-120335714D02*
X270470295Y-120383333D01*
X270470295Y-120383333D02*
X270613152Y-120383333D01*
X270613152Y-120383333D02*
X270708390Y-120335714D01*
X270708390Y-120335714D02*
X270756009Y-120288095D01*
X270756009Y-120288095D02*
X270803628Y-120192857D01*
X270803628Y-120192857D02*
X270803628Y-119811905D01*
X271279819Y-120859524D02*
X271279819Y-121050000D01*
X271279819Y-121050000D02*
X271232200Y-121145238D01*
X271232200Y-121145238D02*
X271184580Y-121192857D01*
X271184580Y-121192857D02*
X271041723Y-121288095D01*
X271041723Y-121288095D02*
X270851247Y-121335714D01*
X270851247Y-121335714D02*
X270470295Y-121335714D01*
X270470295Y-121335714D02*
X270375057Y-121288095D01*
X270375057Y-121288095D02*
X270327438Y-121240476D01*
X270327438Y-121240476D02*
X270279819Y-121145238D01*
X270279819Y-121145238D02*
X270279819Y-120954762D01*
X270279819Y-120954762D02*
X270327438Y-120859524D01*
X270327438Y-120859524D02*
X270375057Y-120811905D01*
X270375057Y-120811905D02*
X270470295Y-120764286D01*
X270470295Y-120764286D02*
X270708390Y-120764286D01*
X270708390Y-120764286D02*
X270803628Y-120811905D01*
X270803628Y-120811905D02*
X270851247Y-120859524D01*
X270851247Y-120859524D02*
X270898866Y-120954762D01*
X270898866Y-120954762D02*
X270898866Y-121145238D01*
X270898866Y-121145238D02*
X270851247Y-121240476D01*
X270851247Y-121240476D02*
X270803628Y-121288095D01*
X270803628Y-121288095D02*
X270708390Y-121335714D01*
X269319580Y-85973333D02*
X269367200Y-85925714D01*
X269367200Y-85925714D02*
X269414819Y-85782857D01*
X269414819Y-85782857D02*
X269414819Y-85687619D01*
X269414819Y-85687619D02*
X269367200Y-85544762D01*
X269367200Y-85544762D02*
X269271961Y-85449524D01*
X269271961Y-85449524D02*
X269176723Y-85401905D01*
X269176723Y-85401905D02*
X268986247Y-85354286D01*
X268986247Y-85354286D02*
X268843390Y-85354286D01*
X268843390Y-85354286D02*
X268652914Y-85401905D01*
X268652914Y-85401905D02*
X268557676Y-85449524D01*
X268557676Y-85449524D02*
X268462438Y-85544762D01*
X268462438Y-85544762D02*
X268414819Y-85687619D01*
X268414819Y-85687619D02*
X268414819Y-85782857D01*
X268414819Y-85782857D02*
X268462438Y-85925714D01*
X268462438Y-85925714D02*
X268510057Y-85973333D01*
X268414819Y-86878095D02*
X268414819Y-86401905D01*
X268414819Y-86401905D02*
X268891009Y-86354286D01*
X268891009Y-86354286D02*
X268843390Y-86401905D01*
X268843390Y-86401905D02*
X268795771Y-86497143D01*
X268795771Y-86497143D02*
X268795771Y-86735238D01*
X268795771Y-86735238D02*
X268843390Y-86830476D01*
X268843390Y-86830476D02*
X268891009Y-86878095D01*
X268891009Y-86878095D02*
X268986247Y-86925714D01*
X268986247Y-86925714D02*
X269224342Y-86925714D01*
X269224342Y-86925714D02*
X269319580Y-86878095D01*
X269319580Y-86878095D02*
X269367200Y-86830476D01*
X269367200Y-86830476D02*
X269414819Y-86735238D01*
X269414819Y-86735238D02*
X269414819Y-86497143D01*
X269414819Y-86497143D02*
X269367200Y-86401905D01*
X269367200Y-86401905D02*
X269319580Y-86354286D01*
X270967319Y-104658333D02*
X270967319Y-104182143D01*
X270967319Y-104182143D02*
X269967319Y-104182143D01*
X270062557Y-104944048D02*
X270014938Y-104991667D01*
X270014938Y-104991667D02*
X269967319Y-105086905D01*
X269967319Y-105086905D02*
X269967319Y-105325000D01*
X269967319Y-105325000D02*
X270014938Y-105420238D01*
X270014938Y-105420238D02*
X270062557Y-105467857D01*
X270062557Y-105467857D02*
X270157795Y-105515476D01*
X270157795Y-105515476D02*
X270253033Y-105515476D01*
X270253033Y-105515476D02*
X270395890Y-105467857D01*
X270395890Y-105467857D02*
X270967319Y-104896429D01*
X270967319Y-104896429D02*
X270967319Y-105515476D01*
X277042857Y-93554819D02*
X277376190Y-93078628D01*
X277614285Y-93554819D02*
X277614285Y-92554819D01*
X277614285Y-92554819D02*
X277233333Y-92554819D01*
X277233333Y-92554819D02*
X277138095Y-92602438D01*
X277138095Y-92602438D02*
X277090476Y-92650057D01*
X277090476Y-92650057D02*
X277042857Y-92745295D01*
X277042857Y-92745295D02*
X277042857Y-92888152D01*
X277042857Y-92888152D02*
X277090476Y-92983390D01*
X277090476Y-92983390D02*
X277138095Y-93031009D01*
X277138095Y-93031009D02*
X277233333Y-93078628D01*
X277233333Y-93078628D02*
X277614285Y-93078628D01*
X276090476Y-93554819D02*
X276661904Y-93554819D01*
X276376190Y-93554819D02*
X276376190Y-92554819D01*
X276376190Y-92554819D02*
X276471428Y-92697676D01*
X276471428Y-92697676D02*
X276566666Y-92792914D01*
X276566666Y-92792914D02*
X276661904Y-92840533D01*
X275709523Y-92650057D02*
X275661904Y-92602438D01*
X275661904Y-92602438D02*
X275566666Y-92554819D01*
X275566666Y-92554819D02*
X275328571Y-92554819D01*
X275328571Y-92554819D02*
X275233333Y-92602438D01*
X275233333Y-92602438D02*
X275185714Y-92650057D01*
X275185714Y-92650057D02*
X275138095Y-92745295D01*
X275138095Y-92745295D02*
X275138095Y-92840533D01*
X275138095Y-92840533D02*
X275185714Y-92983390D01*
X275185714Y-92983390D02*
X275757142Y-93554819D01*
X275757142Y-93554819D02*
X275138095Y-93554819D01*
X264441666Y-114109580D02*
X264489285Y-114157200D01*
X264489285Y-114157200D02*
X264632142Y-114204819D01*
X264632142Y-114204819D02*
X264727380Y-114204819D01*
X264727380Y-114204819D02*
X264870237Y-114157200D01*
X264870237Y-114157200D02*
X264965475Y-114061961D01*
X264965475Y-114061961D02*
X265013094Y-113966723D01*
X265013094Y-113966723D02*
X265060713Y-113776247D01*
X265060713Y-113776247D02*
X265060713Y-113633390D01*
X265060713Y-113633390D02*
X265013094Y-113442914D01*
X265013094Y-113442914D02*
X264965475Y-113347676D01*
X264965475Y-113347676D02*
X264870237Y-113252438D01*
X264870237Y-113252438D02*
X264727380Y-113204819D01*
X264727380Y-113204819D02*
X264632142Y-113204819D01*
X264632142Y-113204819D02*
X264489285Y-113252438D01*
X264489285Y-113252438D02*
X264441666Y-113300057D01*
X264060713Y-113300057D02*
X264013094Y-113252438D01*
X264013094Y-113252438D02*
X263917856Y-113204819D01*
X263917856Y-113204819D02*
X263679761Y-113204819D01*
X263679761Y-113204819D02*
X263584523Y-113252438D01*
X263584523Y-113252438D02*
X263536904Y-113300057D01*
X263536904Y-113300057D02*
X263489285Y-113395295D01*
X263489285Y-113395295D02*
X263489285Y-113490533D01*
X263489285Y-113490533D02*
X263536904Y-113633390D01*
X263536904Y-113633390D02*
X264108332Y-114204819D01*
X264108332Y-114204819D02*
X263489285Y-114204819D01*
X266717319Y-110086905D02*
X265717319Y-110086905D01*
X265717319Y-110086905D02*
X265717319Y-110325000D01*
X265717319Y-110325000D02*
X265764938Y-110467857D01*
X265764938Y-110467857D02*
X265860176Y-110563095D01*
X265860176Y-110563095D02*
X265955414Y-110610714D01*
X265955414Y-110610714D02*
X266145890Y-110658333D01*
X266145890Y-110658333D02*
X266288747Y-110658333D01*
X266288747Y-110658333D02*
X266479223Y-110610714D01*
X266479223Y-110610714D02*
X266574461Y-110563095D01*
X266574461Y-110563095D02*
X266669700Y-110467857D01*
X266669700Y-110467857D02*
X266717319Y-110325000D01*
X266717319Y-110325000D02*
X266717319Y-110086905D01*
X266717319Y-111610714D02*
X266717319Y-111039286D01*
X266717319Y-111325000D02*
X265717319Y-111325000D01*
X265717319Y-111325000D02*
X265860176Y-111229762D01*
X265860176Y-111229762D02*
X265955414Y-111134524D01*
X265955414Y-111134524D02*
X266003033Y-111039286D01*
X254529166Y-110742319D02*
X254862499Y-110266128D01*
X255100594Y-110742319D02*
X255100594Y-109742319D01*
X255100594Y-109742319D02*
X254719642Y-109742319D01*
X254719642Y-109742319D02*
X254624404Y-109789938D01*
X254624404Y-109789938D02*
X254576785Y-109837557D01*
X254576785Y-109837557D02*
X254529166Y-109932795D01*
X254529166Y-109932795D02*
X254529166Y-110075652D01*
X254529166Y-110075652D02*
X254576785Y-110170890D01*
X254576785Y-110170890D02*
X254624404Y-110218509D01*
X254624404Y-110218509D02*
X254719642Y-110266128D01*
X254719642Y-110266128D02*
X255100594Y-110266128D01*
X253624404Y-109742319D02*
X254100594Y-109742319D01*
X254100594Y-109742319D02*
X254148213Y-110218509D01*
X254148213Y-110218509D02*
X254100594Y-110170890D01*
X254100594Y-110170890D02*
X254005356Y-110123271D01*
X254005356Y-110123271D02*
X253767261Y-110123271D01*
X253767261Y-110123271D02*
X253672023Y-110170890D01*
X253672023Y-110170890D02*
X253624404Y-110218509D01*
X253624404Y-110218509D02*
X253576785Y-110313747D01*
X253576785Y-110313747D02*
X253576785Y-110551842D01*
X253576785Y-110551842D02*
X253624404Y-110647080D01*
X253624404Y-110647080D02*
X253672023Y-110694700D01*
X253672023Y-110694700D02*
X253767261Y-110742319D01*
X253767261Y-110742319D02*
X254005356Y-110742319D01*
X254005356Y-110742319D02*
X254100594Y-110694700D01*
X254100594Y-110694700D02*
X254148213Y-110647080D01*
X246776666Y-108334819D02*
X247109999Y-107858628D01*
X247348094Y-108334819D02*
X247348094Y-107334819D01*
X247348094Y-107334819D02*
X246967142Y-107334819D01*
X246967142Y-107334819D02*
X246871904Y-107382438D01*
X246871904Y-107382438D02*
X246824285Y-107430057D01*
X246824285Y-107430057D02*
X246776666Y-107525295D01*
X246776666Y-107525295D02*
X246776666Y-107668152D01*
X246776666Y-107668152D02*
X246824285Y-107763390D01*
X246824285Y-107763390D02*
X246871904Y-107811009D01*
X246871904Y-107811009D02*
X246967142Y-107858628D01*
X246967142Y-107858628D02*
X247348094Y-107858628D01*
X246443332Y-107334819D02*
X245776666Y-107334819D01*
X245776666Y-107334819D02*
X246205237Y-108334819D01*
X268122080Y-110533333D02*
X268169700Y-110485714D01*
X268169700Y-110485714D02*
X268217319Y-110342857D01*
X268217319Y-110342857D02*
X268217319Y-110247619D01*
X268217319Y-110247619D02*
X268169700Y-110104762D01*
X268169700Y-110104762D02*
X268074461Y-110009524D01*
X268074461Y-110009524D02*
X267979223Y-109961905D01*
X267979223Y-109961905D02*
X267788747Y-109914286D01*
X267788747Y-109914286D02*
X267645890Y-109914286D01*
X267645890Y-109914286D02*
X267455414Y-109961905D01*
X267455414Y-109961905D02*
X267360176Y-110009524D01*
X267360176Y-110009524D02*
X267264938Y-110104762D01*
X267264938Y-110104762D02*
X267217319Y-110247619D01*
X267217319Y-110247619D02*
X267217319Y-110342857D01*
X267217319Y-110342857D02*
X267264938Y-110485714D01*
X267264938Y-110485714D02*
X267312557Y-110533333D01*
X268217319Y-111485714D02*
X268217319Y-110914286D01*
X268217319Y-111200000D02*
X267217319Y-111200000D01*
X267217319Y-111200000D02*
X267360176Y-111104762D01*
X267360176Y-111104762D02*
X267455414Y-111009524D01*
X267455414Y-111009524D02*
X267503033Y-110914286D01*
X248429166Y-102847080D02*
X248476785Y-102894700D01*
X248476785Y-102894700D02*
X248619642Y-102942319D01*
X248619642Y-102942319D02*
X248714880Y-102942319D01*
X248714880Y-102942319D02*
X248857737Y-102894700D01*
X248857737Y-102894700D02*
X248952975Y-102799461D01*
X248952975Y-102799461D02*
X249000594Y-102704223D01*
X249000594Y-102704223D02*
X249048213Y-102513747D01*
X249048213Y-102513747D02*
X249048213Y-102370890D01*
X249048213Y-102370890D02*
X249000594Y-102180414D01*
X249000594Y-102180414D02*
X248952975Y-102085176D01*
X248952975Y-102085176D02*
X248857737Y-101989938D01*
X248857737Y-101989938D02*
X248714880Y-101942319D01*
X248714880Y-101942319D02*
X248619642Y-101942319D01*
X248619642Y-101942319D02*
X248476785Y-101989938D01*
X248476785Y-101989938D02*
X248429166Y-102037557D01*
X248095832Y-101942319D02*
X247476785Y-101942319D01*
X247476785Y-101942319D02*
X247810118Y-102323271D01*
X247810118Y-102323271D02*
X247667261Y-102323271D01*
X247667261Y-102323271D02*
X247572023Y-102370890D01*
X247572023Y-102370890D02*
X247524404Y-102418509D01*
X247524404Y-102418509D02*
X247476785Y-102513747D01*
X247476785Y-102513747D02*
X247476785Y-102751842D01*
X247476785Y-102751842D02*
X247524404Y-102847080D01*
X247524404Y-102847080D02*
X247572023Y-102894700D01*
X247572023Y-102894700D02*
X247667261Y-102942319D01*
X247667261Y-102942319D02*
X247952975Y-102942319D01*
X247952975Y-102942319D02*
X248048213Y-102894700D01*
X248048213Y-102894700D02*
X248095832Y-102847080D01*
D12*
X272610000Y-97100000D02*
X273260000Y-97100000D01*
D13*
X274760000Y-97100000D02*
X276360000Y-97100000D01*
X278410000Y-97100000D02*
X279085000Y-97100000D01*
D12*
X272610000Y-98150000D02*
X272610000Y-97100000D01*
X272660000Y-105825000D02*
X272660000Y-106875000D01*
X272660000Y-106900000D02*
X273310000Y-106900000D01*
D13*
X274760000Y-106900000D02*
X276310000Y-106900000D01*
X278410000Y-106900000D02*
X279085000Y-106900000D01*
D10*
X232120000Y-134140000D02*
X232620000Y-133640000D01*
X232120000Y-137640000D02*
X232620000Y-138140000D01*
X232620000Y-133640000D02*
X235620000Y-133640000D01*
X232620000Y-138140000D02*
X235120000Y-138140000D01*
X235620000Y-133640000D02*
X236120000Y-134140000D01*
X236120000Y-135140000D02*
X236120000Y-134140000D01*
X236620000Y-139640000D02*
X236620000Y-140340000D01*
X236620000Y-140340000D02*
X241120000Y-140340000D01*
X241120000Y-135640000D02*
X236620000Y-135640000D01*
X241120000Y-136240000D02*
X241120000Y-135640000D01*
X241120000Y-140340000D02*
X241120000Y-139840000D01*
X236620000Y-139640000D02*
G75*
G03*
X235120000Y-138140000I-1500000J0D01*
G01*
X236120000Y-135140000D02*
G75*
G03*
X236620000Y-135640000I500000J0D01*
G01*
X178120000Y-96140000D02*
X178620000Y-95640000D01*
X178120000Y-99640000D02*
X178620000Y-100140000D01*
X178620000Y-95640000D02*
X181620000Y-95640000D01*
X178620000Y-100140000D02*
X181120000Y-100140000D01*
X181620000Y-95640000D02*
X182120000Y-96140000D01*
X182120000Y-97140000D02*
X182120000Y-96140000D01*
X182620000Y-101640000D02*
X182620000Y-102340000D01*
X182620000Y-102340000D02*
X187120000Y-102340000D01*
X187120000Y-97640000D02*
X182620000Y-97640000D01*
X187120000Y-98240000D02*
X187120000Y-97640000D01*
X187120000Y-102340000D02*
X187120000Y-101840000D01*
X182620000Y-101640000D02*
G75*
G03*
X181120000Y-100140000I-1500000J0D01*
G01*
X182120000Y-97140000D02*
G75*
G03*
X182620000Y-97640000I500000J0D01*
G01*
X160120000Y-91140000D02*
X160620000Y-90640000D01*
X160120000Y-94640000D02*
X160620000Y-95140000D01*
X160620000Y-90640000D02*
X163620000Y-90640000D01*
X160620000Y-95140000D02*
X163120000Y-95140000D01*
X163620000Y-90640000D02*
X164120000Y-91140000D01*
X164120000Y-92140000D02*
X164120000Y-91140000D01*
X164620000Y-96640000D02*
X164620000Y-97340000D01*
X164620000Y-97340000D02*
X169120000Y-97340000D01*
X169120000Y-92640000D02*
X164620000Y-92640000D01*
X169120000Y-93240000D02*
X169120000Y-92640000D01*
X169120000Y-97340000D02*
X169120000Y-96840000D01*
X164620000Y-96640000D02*
G75*
G03*
X163120000Y-95140000I-1500000J0D01*
G01*
X164120000Y-92140000D02*
G75*
G03*
X164620000Y-92640000I500000J0D01*
G01*
X261120000Y-153140000D02*
X261620000Y-152640000D01*
X261120000Y-156640000D02*
X261620000Y-157140000D01*
X261620000Y-152640000D02*
X264620000Y-152640000D01*
X261620000Y-157140000D02*
X264120000Y-157140000D01*
X264620000Y-152640000D02*
X265120000Y-153140000D01*
X265120000Y-154140000D02*
X265120000Y-153140000D01*
X265620000Y-158640000D02*
X265620000Y-159340000D01*
X265620000Y-159340000D02*
X270120000Y-159340000D01*
X270120000Y-154640000D02*
X265620000Y-154640000D01*
X270120000Y-155240000D02*
X270120000Y-154640000D01*
X270120000Y-159340000D02*
X270120000Y-158840000D01*
X265620000Y-158640000D02*
G75*
G03*
X264120000Y-157140000I-1500000J0D01*
G01*
X265120000Y-154140000D02*
G75*
G03*
X265620000Y-154640000I500000J0D01*
G01*
X142120000Y-108140000D02*
X142620000Y-107640000D01*
X142120000Y-111640000D02*
X142620000Y-112140000D01*
X142620000Y-107640000D02*
X145620000Y-107640000D01*
X142620000Y-112140000D02*
X145120000Y-112140000D01*
X145620000Y-107640000D02*
X146120000Y-108140000D01*
X146120000Y-109140000D02*
X146120000Y-108140000D01*
X146620000Y-113640000D02*
X146620000Y-114340000D01*
X146620000Y-114340000D02*
X151120000Y-114340000D01*
X151120000Y-109640000D02*
X146620000Y-109640000D01*
X151120000Y-110240000D02*
X151120000Y-109640000D01*
X151120000Y-114340000D02*
X151120000Y-113840000D01*
X146620000Y-113640000D02*
G75*
G03*
X145120000Y-112140000I-1500000J0D01*
G01*
X146120000Y-109140000D02*
G75*
G03*
X146620000Y-109640000I500000J0D01*
G01*
X142120000Y-125140000D02*
X142620000Y-124640000D01*
X142120000Y-128640000D02*
X142620000Y-129140000D01*
X142620000Y-124640000D02*
X145620000Y-124640000D01*
X142620000Y-129140000D02*
X145120000Y-129140000D01*
X145620000Y-124640000D02*
X146120000Y-125140000D01*
X146120000Y-126140000D02*
X146120000Y-125140000D01*
X146620000Y-130640000D02*
X146620000Y-131340000D01*
X146620000Y-131340000D02*
X151120000Y-131340000D01*
X151120000Y-126640000D02*
X146620000Y-126640000D01*
X151120000Y-127240000D02*
X151120000Y-126640000D01*
X151120000Y-131340000D02*
X151120000Y-130840000D01*
X146620000Y-130640000D02*
G75*
G03*
X145120000Y-129140000I-1500000J0D01*
G01*
X146120000Y-126140000D02*
G75*
G03*
X146620000Y-126640000I500000J0D01*
G01*
X196120000Y-109140000D02*
X196620000Y-108640000D01*
X196120000Y-112640000D02*
X196620000Y-113140000D01*
X196620000Y-108640000D02*
X199620000Y-108640000D01*
X196620000Y-113140000D02*
X199120000Y-113140000D01*
X199620000Y-108640000D02*
X200120000Y-109140000D01*
X200120000Y-110140000D02*
X200120000Y-109140000D01*
X200620000Y-114640000D02*
X200620000Y-115340000D01*
X200620000Y-115340000D02*
X205120000Y-115340000D01*
X205120000Y-110640000D02*
X200620000Y-110640000D01*
X205120000Y-111240000D02*
X205120000Y-110640000D01*
X205120000Y-115340000D02*
X205120000Y-114840000D01*
X200620000Y-114640000D02*
G75*
G03*
X199120000Y-113140000I-1500000J0D01*
G01*
X200120000Y-110140000D02*
G75*
G03*
X200620000Y-110640000I500000J0D01*
G01*
X196120000Y-126140000D02*
X196620000Y-125640000D01*
X196120000Y-129640000D02*
X196620000Y-130140000D01*
X196620000Y-125640000D02*
X199620000Y-125640000D01*
X196620000Y-130140000D02*
X199120000Y-130140000D01*
X199620000Y-125640000D02*
X200120000Y-126140000D01*
X200120000Y-127140000D02*
X200120000Y-126140000D01*
X200620000Y-131640000D02*
X200620000Y-132340000D01*
X200620000Y-132340000D02*
X205120000Y-132340000D01*
X205120000Y-127640000D02*
X200620000Y-127640000D01*
X205120000Y-128240000D02*
X205120000Y-127640000D01*
X205120000Y-132340000D02*
X205120000Y-131840000D01*
X200620000Y-131640000D02*
G75*
G03*
X199120000Y-130140000I-1500000J0D01*
G01*
X200120000Y-127140000D02*
G75*
G03*
X200620000Y-127640000I500000J0D01*
G01*
X160120000Y-108140000D02*
X160620000Y-107640000D01*
X160120000Y-111640000D02*
X160620000Y-112140000D01*
X160620000Y-107640000D02*
X163620000Y-107640000D01*
X160620000Y-112140000D02*
X163120000Y-112140000D01*
X163620000Y-107640000D02*
X164120000Y-108140000D01*
X164120000Y-109140000D02*
X164120000Y-108140000D01*
X164620000Y-113640000D02*
X164620000Y-114340000D01*
X164620000Y-114340000D02*
X169120000Y-114340000D01*
X169120000Y-109640000D02*
X164620000Y-109640000D01*
X169120000Y-110240000D02*
X169120000Y-109640000D01*
X169120000Y-114340000D02*
X169120000Y-113840000D01*
X164620000Y-113640000D02*
G75*
G03*
X163120000Y-112140000I-1500000J0D01*
G01*
X164120000Y-109140000D02*
G75*
G03*
X164620000Y-109640000I500000J0D01*
G01*
X214120000Y-131140000D02*
X214620000Y-130640000D01*
X214120000Y-134640000D02*
X214620000Y-135140000D01*
X214620000Y-130640000D02*
X217620000Y-130640000D01*
X214620000Y-135140000D02*
X217120000Y-135140000D01*
X217620000Y-130640000D02*
X218120000Y-131140000D01*
X218120000Y-132140000D02*
X218120000Y-131140000D01*
X218620000Y-136640000D02*
X218620000Y-137340000D01*
X218620000Y-137340000D02*
X223120000Y-137340000D01*
X223120000Y-132640000D02*
X218620000Y-132640000D01*
X223120000Y-133240000D02*
X223120000Y-132640000D01*
X223120000Y-137340000D02*
X223120000Y-136840000D01*
X218620000Y-136640000D02*
G75*
G03*
X217120000Y-135140000I-1500000J0D01*
G01*
X218120000Y-132140000D02*
G75*
G03*
X218620000Y-132640000I500000J0D01*
G01*
X207120000Y-153140000D02*
X207620000Y-152640000D01*
X207120000Y-156640000D02*
X207620000Y-157140000D01*
X207620000Y-152640000D02*
X210620000Y-152640000D01*
X207620000Y-157140000D02*
X210120000Y-157140000D01*
X210620000Y-152640000D02*
X211120000Y-153140000D01*
X211120000Y-154140000D02*
X211120000Y-153140000D01*
X211620000Y-158640000D02*
X211620000Y-159340000D01*
X211620000Y-159340000D02*
X216120000Y-159340000D01*
X216120000Y-154640000D02*
X211620000Y-154640000D01*
X216120000Y-155240000D02*
X216120000Y-154640000D01*
X216120000Y-159340000D02*
X216120000Y-158840000D01*
X211620000Y-158640000D02*
G75*
G03*
X210120000Y-157140000I-1500000J0D01*
G01*
X211120000Y-154140000D02*
G75*
G03*
X211620000Y-154640000I500000J0D01*
G01*
X214120000Y-114140000D02*
X214620000Y-113640000D01*
X214120000Y-117640000D02*
X214620000Y-118140000D01*
X214620000Y-113640000D02*
X217620000Y-113640000D01*
X214620000Y-118140000D02*
X217120000Y-118140000D01*
X217620000Y-113640000D02*
X218120000Y-114140000D01*
X218120000Y-115140000D02*
X218120000Y-114140000D01*
X218620000Y-119640000D02*
X218620000Y-120340000D01*
X218620000Y-120340000D02*
X223120000Y-120340000D01*
X223120000Y-115640000D02*
X218620000Y-115640000D01*
X223120000Y-116240000D02*
X223120000Y-115640000D01*
X223120000Y-120340000D02*
X223120000Y-119840000D01*
X218620000Y-119640000D02*
G75*
G03*
X217120000Y-118140000I-1500000J0D01*
G01*
X218120000Y-115140000D02*
G75*
G03*
X218620000Y-115640000I500000J0D01*
G01*
X225120000Y-153140000D02*
X225620000Y-152640000D01*
X225120000Y-156640000D02*
X225620000Y-157140000D01*
X225620000Y-152640000D02*
X228620000Y-152640000D01*
X225620000Y-157140000D02*
X228120000Y-157140000D01*
X228620000Y-152640000D02*
X229120000Y-153140000D01*
X229120000Y-154140000D02*
X229120000Y-153140000D01*
X229620000Y-158640000D02*
X229620000Y-159340000D01*
X229620000Y-159340000D02*
X234120000Y-159340000D01*
X234120000Y-154640000D02*
X229620000Y-154640000D01*
X234120000Y-155240000D02*
X234120000Y-154640000D01*
X234120000Y-159340000D02*
X234120000Y-158840000D01*
X229620000Y-158640000D02*
G75*
G03*
X228120000Y-157140000I-1500000J0D01*
G01*
X229120000Y-154140000D02*
G75*
G03*
X229620000Y-154640000I500000J0D01*
G01*
X243120000Y-153140000D02*
X243620000Y-152640000D01*
X243120000Y-156640000D02*
X243620000Y-157140000D01*
X243620000Y-152640000D02*
X246620000Y-152640000D01*
X243620000Y-157140000D02*
X246120000Y-157140000D01*
X246620000Y-152640000D02*
X247120000Y-153140000D01*
X247120000Y-154140000D02*
X247120000Y-153140000D01*
X247620000Y-158640000D02*
X247620000Y-159340000D01*
X247620000Y-159340000D02*
X252120000Y-159340000D01*
X252120000Y-154640000D02*
X247620000Y-154640000D01*
X252120000Y-155240000D02*
X252120000Y-154640000D01*
X252120000Y-159340000D02*
X252120000Y-158840000D01*
X247620000Y-158640000D02*
G75*
G03*
X246120000Y-157140000I-1500000J0D01*
G01*
X247120000Y-154140000D02*
G75*
G03*
X247620000Y-154640000I500000J0D01*
G01*
X214120000Y-80140000D02*
X214620000Y-79640000D01*
X214120000Y-83640000D02*
X214620000Y-84140000D01*
X214620000Y-79640000D02*
X217620000Y-79640000D01*
X214620000Y-84140000D02*
X217120000Y-84140000D01*
X217620000Y-79640000D02*
X218120000Y-80140000D01*
X218120000Y-81140000D02*
X218120000Y-80140000D01*
X218620000Y-85640000D02*
X218620000Y-86340000D01*
X218620000Y-86340000D02*
X223120000Y-86340000D01*
X223120000Y-81640000D02*
X218620000Y-81640000D01*
X223120000Y-82240000D02*
X223120000Y-81640000D01*
X223120000Y-86340000D02*
X223120000Y-85840000D01*
X218620000Y-85640000D02*
G75*
G03*
X217120000Y-84140000I-1500000J0D01*
G01*
X218120000Y-81140000D02*
G75*
G03*
X218620000Y-81640000I500000J0D01*
G01*
X214120000Y-97140000D02*
X214620000Y-96640000D01*
X214120000Y-100640000D02*
X214620000Y-101140000D01*
X214620000Y-96640000D02*
X217620000Y-96640000D01*
X214620000Y-101140000D02*
X217120000Y-101140000D01*
X217620000Y-96640000D02*
X218120000Y-97140000D01*
X218120000Y-98140000D02*
X218120000Y-97140000D01*
X218620000Y-102640000D02*
X218620000Y-103340000D01*
X218620000Y-103340000D02*
X223120000Y-103340000D01*
X223120000Y-98640000D02*
X218620000Y-98640000D01*
X223120000Y-99240000D02*
X223120000Y-98640000D01*
X223120000Y-103340000D02*
X223120000Y-102840000D01*
X218620000Y-102640000D02*
G75*
G03*
X217120000Y-101140000I-1500000J0D01*
G01*
X218120000Y-98140000D02*
G75*
G03*
X218620000Y-98640000I500000J0D01*
G01*
X196120000Y-92140000D02*
X196620000Y-91640000D01*
X196120000Y-95640000D02*
X196620000Y-96140000D01*
X196620000Y-91640000D02*
X199620000Y-91640000D01*
X196620000Y-96140000D02*
X199120000Y-96140000D01*
X199620000Y-91640000D02*
X200120000Y-92140000D01*
X200120000Y-93140000D02*
X200120000Y-92140000D01*
X200620000Y-97640000D02*
X200620000Y-98340000D01*
X200620000Y-98340000D02*
X205120000Y-98340000D01*
X205120000Y-93640000D02*
X200620000Y-93640000D01*
X205120000Y-94240000D02*
X205120000Y-93640000D01*
X205120000Y-98340000D02*
X205120000Y-97840000D01*
X200620000Y-97640000D02*
G75*
G03*
X199120000Y-96140000I-1500000J0D01*
G01*
X200120000Y-93140000D02*
G75*
G03*
X200620000Y-93640000I500000J0D01*
G01*
X252120000Y-136140000D02*
X252620000Y-135640000D01*
X252120000Y-139640000D02*
X252620000Y-140140000D01*
X252620000Y-135640000D02*
X255620000Y-135640000D01*
X252620000Y-140140000D02*
X255120000Y-140140000D01*
X255620000Y-135640000D02*
X256120000Y-136140000D01*
X256120000Y-137140000D02*
X256120000Y-136140000D01*
X256620000Y-141640000D02*
X256620000Y-142340000D01*
X256620000Y-142340000D02*
X261120000Y-142340000D01*
X261120000Y-137640000D02*
X256620000Y-137640000D01*
X261120000Y-138240000D02*
X261120000Y-137640000D01*
X261120000Y-142340000D02*
X261120000Y-141840000D01*
X256620000Y-141640000D02*
G75*
G03*
X255120000Y-140140000I-1500000J0D01*
G01*
X256120000Y-137140000D02*
G75*
G03*
X256620000Y-137640000I500000J0D01*
G01*
X160120000Y-125140000D02*
X160620000Y-124640000D01*
X160120000Y-128640000D02*
X160620000Y-129140000D01*
X160620000Y-124640000D02*
X163620000Y-124640000D01*
X160620000Y-129140000D02*
X163120000Y-129140000D01*
X163620000Y-124640000D02*
X164120000Y-125140000D01*
X164120000Y-126140000D02*
X164120000Y-125140000D01*
X164620000Y-130640000D02*
X164620000Y-131340000D01*
X164620000Y-131340000D02*
X169120000Y-131340000D01*
X169120000Y-126640000D02*
X164620000Y-126640000D01*
X169120000Y-127240000D02*
X169120000Y-126640000D01*
X169120000Y-131340000D02*
X169120000Y-130840000D01*
X164620000Y-130640000D02*
G75*
G03*
X163120000Y-129140000I-1500000J0D01*
G01*
X164120000Y-126140000D02*
G75*
G03*
X164620000Y-126640000I500000J0D01*
G01*
X196120000Y-75140000D02*
X196620000Y-74640000D01*
X196120000Y-78640000D02*
X196620000Y-79140000D01*
X196620000Y-74640000D02*
X199620000Y-74640000D01*
X196620000Y-79140000D02*
X199120000Y-79140000D01*
X199620000Y-74640000D02*
X200120000Y-75140000D01*
X200120000Y-76140000D02*
X200120000Y-75140000D01*
X200620000Y-80640000D02*
X200620000Y-81340000D01*
X200620000Y-81340000D02*
X205120000Y-81340000D01*
X205120000Y-76640000D02*
X200620000Y-76640000D01*
X205120000Y-77240000D02*
X205120000Y-76640000D01*
X205120000Y-81340000D02*
X205120000Y-80840000D01*
X200620000Y-80640000D02*
G75*
G03*
X199120000Y-79140000I-1500000J0D01*
G01*
X200120000Y-76140000D02*
G75*
G03*
X200620000Y-76640000I500000J0D01*
G01*
X232120000Y-117140000D02*
X232620000Y-116640000D01*
X232120000Y-120640000D02*
X232620000Y-121140000D01*
X232620000Y-116640000D02*
X235620000Y-116640000D01*
X232620000Y-121140000D02*
X235120000Y-121140000D01*
X235620000Y-116640000D02*
X236120000Y-117140000D01*
X236120000Y-118140000D02*
X236120000Y-117140000D01*
X236620000Y-122640000D02*
X236620000Y-123340000D01*
X236620000Y-123340000D02*
X241120000Y-123340000D01*
X241120000Y-118640000D02*
X236620000Y-118640000D01*
X241120000Y-119240000D02*
X241120000Y-118640000D01*
X241120000Y-123340000D02*
X241120000Y-122840000D01*
X236620000Y-122640000D02*
G75*
G03*
X235120000Y-121140000I-1500000J0D01*
G01*
X236120000Y-118140000D02*
G75*
G03*
X236620000Y-118640000I500000J0D01*
G01*
X232120000Y-83140000D02*
X232620000Y-82640000D01*
X232120000Y-86640000D02*
X232620000Y-87140000D01*
X232620000Y-82640000D02*
X235620000Y-82640000D01*
X232620000Y-87140000D02*
X235120000Y-87140000D01*
X235620000Y-82640000D02*
X236120000Y-83140000D01*
X236120000Y-84140000D02*
X236120000Y-83140000D01*
X236620000Y-88640000D02*
X236620000Y-89340000D01*
X236620000Y-89340000D02*
X241120000Y-89340000D01*
X241120000Y-84640000D02*
X236620000Y-84640000D01*
X241120000Y-85240000D02*
X241120000Y-84640000D01*
X241120000Y-89340000D02*
X241120000Y-88840000D01*
X236620000Y-88640000D02*
G75*
G03*
X235120000Y-87140000I-1500000J0D01*
G01*
X236120000Y-84140000D02*
G75*
G03*
X236620000Y-84640000I500000J0D01*
G01*
X232120000Y-100140000D02*
X232620000Y-99640000D01*
X232120000Y-103640000D02*
X232620000Y-104140000D01*
X232620000Y-99640000D02*
X235620000Y-99640000D01*
X232620000Y-104140000D02*
X235120000Y-104140000D01*
X235620000Y-99640000D02*
X236120000Y-100140000D01*
X236120000Y-101140000D02*
X236120000Y-100140000D01*
X236620000Y-105640000D02*
X236620000Y-106340000D01*
X236620000Y-106340000D02*
X241120000Y-106340000D01*
X241120000Y-101640000D02*
X236620000Y-101640000D01*
X241120000Y-102240000D02*
X241120000Y-101640000D01*
X241120000Y-106340000D02*
X241120000Y-105840000D01*
X236620000Y-105640000D02*
G75*
G03*
X235120000Y-104140000I-1500000J0D01*
G01*
X236120000Y-101140000D02*
G75*
G03*
X236620000Y-101640000I500000J0D01*
G01*
X178120000Y-79140000D02*
X178620000Y-78640000D01*
X178120000Y-82640000D02*
X178620000Y-83140000D01*
X178620000Y-78640000D02*
X181620000Y-78640000D01*
X178620000Y-83140000D02*
X181120000Y-83140000D01*
X181620000Y-78640000D02*
X182120000Y-79140000D01*
X182120000Y-80140000D02*
X182120000Y-79140000D01*
X182620000Y-84640000D02*
X182620000Y-85340000D01*
X182620000Y-85340000D02*
X187120000Y-85340000D01*
X187120000Y-80640000D02*
X182620000Y-80640000D01*
X187120000Y-81240000D02*
X187120000Y-80640000D01*
X187120000Y-85340000D02*
X187120000Y-84840000D01*
X182620000Y-84640000D02*
G75*
G03*
X181120000Y-83140000I-1500000J0D01*
G01*
X182120000Y-80140000D02*
G75*
G03*
X182620000Y-80640000I500000J0D01*
G01*
X178120000Y-113140000D02*
X178620000Y-112640000D01*
X178120000Y-116640000D02*
X178620000Y-117140000D01*
X178620000Y-112640000D02*
X181620000Y-112640000D01*
X178620000Y-117140000D02*
X181120000Y-117140000D01*
X181620000Y-112640000D02*
X182120000Y-113140000D01*
X182120000Y-114140000D02*
X182120000Y-113140000D01*
X182620000Y-118640000D02*
X182620000Y-119340000D01*
X182620000Y-119340000D02*
X187120000Y-119340000D01*
X187120000Y-114640000D02*
X182620000Y-114640000D01*
X187120000Y-115240000D02*
X187120000Y-114640000D01*
X187120000Y-119340000D02*
X187120000Y-118840000D01*
X182620000Y-118640000D02*
G75*
G03*
X181120000Y-117140000I-1500000J0D01*
G01*
X182120000Y-114140000D02*
G75*
G03*
X182620000Y-114640000I500000J0D01*
G01*
X160120000Y-142140000D02*
X160620000Y-141640000D01*
X160120000Y-145640000D02*
X160620000Y-146140000D01*
X160620000Y-141640000D02*
X163620000Y-141640000D01*
X160620000Y-146140000D02*
X163120000Y-146140000D01*
X163620000Y-141640000D02*
X164120000Y-142140000D01*
X164120000Y-143140000D02*
X164120000Y-142140000D01*
X164620000Y-147640000D02*
X164620000Y-148340000D01*
X164620000Y-148340000D02*
X169120000Y-148340000D01*
X169120000Y-143640000D02*
X164620000Y-143640000D01*
X169120000Y-144240000D02*
X169120000Y-143640000D01*
X169120000Y-148340000D02*
X169120000Y-147840000D01*
X164620000Y-147640000D02*
G75*
G03*
X163120000Y-146140000I-1500000J0D01*
G01*
X164120000Y-143140000D02*
G75*
G03*
X164620000Y-143640000I500000J0D01*
G01*
X178120000Y-130140000D02*
X178620000Y-129640000D01*
X178120000Y-133640000D02*
X178620000Y-134140000D01*
X178620000Y-129640000D02*
X181620000Y-129640000D01*
X178620000Y-134140000D02*
X181120000Y-134140000D01*
X181620000Y-129640000D02*
X182120000Y-130140000D01*
X182120000Y-131140000D02*
X182120000Y-130140000D01*
X182620000Y-135640000D02*
X182620000Y-136340000D01*
X182620000Y-136340000D02*
X187120000Y-136340000D01*
X187120000Y-131640000D02*
X182620000Y-131640000D01*
X187120000Y-132240000D02*
X187120000Y-131640000D01*
X187120000Y-136340000D02*
X187120000Y-135840000D01*
X182620000Y-135640000D02*
G75*
G03*
X181120000Y-134140000I-1500000J0D01*
G01*
X182120000Y-131140000D02*
G75*
G03*
X182620000Y-131640000I500000J0D01*
G01*
X142120000Y-142140000D02*
X142620000Y-141640000D01*
X142120000Y-145640000D02*
X142620000Y-146140000D01*
X142620000Y-141640000D02*
X145620000Y-141640000D01*
X142620000Y-146140000D02*
X145120000Y-146140000D01*
X145620000Y-141640000D02*
X146120000Y-142140000D01*
X146120000Y-143140000D02*
X146120000Y-142140000D01*
X146620000Y-147640000D02*
X146620000Y-148340000D01*
X146620000Y-148340000D02*
X151120000Y-148340000D01*
X151120000Y-143640000D02*
X146620000Y-143640000D01*
X151120000Y-144240000D02*
X151120000Y-143640000D01*
X151120000Y-148340000D02*
X151120000Y-147840000D01*
X146620000Y-147640000D02*
G75*
G03*
X145120000Y-146140000I-1500000J0D01*
G01*
X146120000Y-143140000D02*
G75*
G03*
X146620000Y-143640000I500000J0D01*
G01*
X142120000Y-91140000D02*
X142620000Y-90640000D01*
X142120000Y-94640000D02*
X142620000Y-95140000D01*
X142620000Y-90640000D02*
X145620000Y-90640000D01*
X142620000Y-95140000D02*
X145120000Y-95140000D01*
X145620000Y-90640000D02*
X146120000Y-91140000D01*
X146120000Y-92140000D02*
X146120000Y-91140000D01*
X146620000Y-96640000D02*
X146620000Y-97340000D01*
X146620000Y-97340000D02*
X151120000Y-97340000D01*
X151120000Y-92640000D02*
X146620000Y-92640000D01*
X151120000Y-93240000D02*
X151120000Y-92640000D01*
X151120000Y-97340000D02*
X151120000Y-96840000D01*
X146620000Y-96640000D02*
G75*
G03*
X145120000Y-95140000I-1500000J0D01*
G01*
X146120000Y-92140000D02*
G75*
G03*
X146620000Y-92640000I500000J0D01*
G01*
D13*
X266772500Y-108162221D02*
X266772500Y-108487779D01*
X265752500Y-108162221D02*
X265752500Y-108487779D01*
X270797500Y-96687742D02*
X270797500Y-97162258D01*
X269752500Y-96687742D02*
X269752500Y-97162258D01*
X256422500Y-107746920D02*
X256422500Y-108028080D01*
X255402500Y-107746920D02*
X255402500Y-108028080D01*
X268740000Y-108562258D02*
X268740000Y-108087742D01*
X269785000Y-108562258D02*
X269785000Y-108087742D01*
X252772500Y-109787742D02*
X252772500Y-110262258D01*
X251727500Y-109787742D02*
X251727500Y-110262258D01*
X268350000Y-98746974D02*
X267550000Y-98746974D01*
X268350000Y-98746974D02*
X269150000Y-98746974D01*
X268350000Y-101866974D02*
X266550000Y-101866974D01*
X268350000Y-101866974D02*
X269150000Y-101866974D01*
X276587258Y-86822500D02*
X276112742Y-86822500D01*
X276587258Y-85777500D02*
X276112742Y-85777500D01*
X265527500Y-105562258D02*
X265527500Y-105087742D01*
X266572500Y-105562258D02*
X266572500Y-105087742D01*
X273912258Y-120272500D02*
X273437742Y-120272500D01*
X273912258Y-119227500D02*
X273437742Y-119227500D01*
X249790000Y-104227500D02*
X249790000Y-104702500D01*
X250265000Y-104227500D02*
X249790000Y-104227500D01*
X250265000Y-107447500D02*
X249790000Y-107447500D01*
X252535000Y-104227500D02*
X253010000Y-104227500D01*
X252535000Y-107447500D02*
X253010000Y-107447500D01*
X253010000Y-104227500D02*
X253010000Y-104702500D01*
X253010000Y-107447500D02*
X253010000Y-106972500D01*
X269697500Y-117912742D02*
X269697500Y-118387258D01*
X268652500Y-117912742D02*
X268652500Y-118387258D01*
X266435000Y-86935000D02*
X266435000Y-88285000D01*
X264685000Y-86935000D02*
X264685000Y-88285000D01*
X270375000Y-113190000D02*
X269725000Y-113190000D01*
X270375000Y-113190000D02*
X271025000Y-113190000D01*
X270375000Y-116310000D02*
X268700000Y-116310000D01*
X270375000Y-116310000D02*
X271025000Y-116310000D01*
X268137221Y-105565000D02*
X268462779Y-105565000D01*
X268137221Y-106585000D02*
X268462779Y-106585000D01*
D12*
X263845960Y-93597860D02*
X263048400Y-93597860D01*
X263053480Y-93595320D02*
X263053480Y-93077160D01*
X263048400Y-94509720D02*
X263048400Y-93747720D01*
X263048400Y-93747720D02*
X263048400Y-93597860D01*
X263048400Y-93597860D02*
X263048400Y-93597860D01*
D14*
X263048400Y-93597860D02*
X263048400Y-83999200D01*
D12*
X263048400Y-93597860D02*
X250450000Y-93597860D01*
X263048400Y-93448000D02*
X263048400Y-93597860D01*
X263048400Y-93343860D02*
X263048400Y-93448000D01*
X263048400Y-83999200D02*
X263045860Y-77598400D01*
D14*
X263045860Y-77598400D02*
X249047920Y-77598400D01*
D12*
X250450000Y-93597860D02*
X263048400Y-93597860D01*
X250450000Y-93597860D02*
X250450000Y-93597860D01*
X249053000Y-77600940D02*
X249053000Y-83874740D01*
D14*
X249050460Y-93597860D02*
X263048400Y-93597860D01*
X249050460Y-77598400D02*
X249050460Y-93597860D01*
D12*
X249047920Y-93008580D02*
X249047920Y-93590240D01*
X249047920Y-77598400D02*
X249050460Y-77598400D01*
X263048400Y-93448000D02*
G75*
G03*
X263048400Y-93747720I0J-149860D01*
G01*
X263048400Y-93747720D02*
G75*
G03*
X263048400Y-93448000I0J149860D01*
G01*
D13*
X250522500Y-109337742D02*
X250522500Y-109812258D01*
X249477500Y-109337742D02*
X249477500Y-109812258D01*
X267010000Y-89340580D02*
X267010000Y-89059420D01*
X268030000Y-89340580D02*
X268030000Y-89059420D01*
X271347500Y-117887742D02*
X271347500Y-118362258D01*
X270302500Y-117887742D02*
X270302500Y-118362258D01*
X268030000Y-85999420D02*
X268030000Y-86280580D01*
X267010000Y-85999420D02*
X267010000Y-86280580D01*
X268462779Y-105085000D02*
X268137221Y-105085000D01*
X268462779Y-104065000D02*
X268137221Y-104065000D01*
X276012742Y-90977500D02*
X276487258Y-90977500D01*
X276012742Y-92022500D02*
X276487258Y-92022500D01*
X266734420Y-113240000D02*
X267015580Y-113240000D01*
X266734420Y-114260000D02*
X267015580Y-114260000D01*
X265362500Y-107015000D02*
X265362500Y-109675000D01*
X263662500Y-107015000D02*
X265362500Y-107015000D01*
X263662500Y-107015000D02*
X263662500Y-109675000D01*
X254885000Y-107650242D02*
X254885000Y-108124758D01*
X253840000Y-107650242D02*
X253840000Y-108124758D01*
X248785000Y-108000242D02*
X248785000Y-108474758D01*
X247740000Y-108000242D02*
X247740000Y-108474758D01*
X268272500Y-108184420D02*
X268272500Y-108465580D01*
X267252500Y-108184420D02*
X267252500Y-108465580D01*
X247752500Y-105228080D02*
X247752500Y-104946920D01*
X248772500Y-105228080D02*
X248772500Y-104946920D01*
%LPC*%
D15*
X272260000Y-98800000D03*
X272260000Y-99600000D03*
D16*
X272260000Y-100750000D03*
X272260000Y-101750000D03*
X272260000Y-102250000D03*
X272260000Y-103250000D03*
D15*
X272255000Y-104400000D03*
X272260000Y-105200000D03*
X272260000Y-105200000D03*
X272255000Y-104400000D03*
D16*
X272260000Y-103750000D03*
X272260000Y-102750000D03*
X272260000Y-101250000D03*
X272260000Y-100250000D03*
D15*
X272260000Y-99600000D03*
X272260000Y-98800000D03*
D17*
X273585000Y-96375000D03*
D18*
X277610000Y-96380000D03*
X277610000Y-107620000D03*
D17*
X273585000Y-107625000D03*
D19*
X267600000Y-146600000D03*
X168500000Y-87200000D03*
X186100000Y-153900000D03*
D20*
X228620000Y-141840000D03*
D21*
X234120000Y-135890000D03*
D22*
X234120000Y-141840000D03*
D21*
X239120000Y-138090000D03*
D20*
X239620000Y-141840000D03*
D23*
X230845000Y-135890000D03*
D24*
X234120000Y-147740000D03*
X229120000Y-145640000D03*
D23*
X242395000Y-138090000D03*
D20*
X174620000Y-103840000D03*
D21*
X180120000Y-97890000D03*
D22*
X180120000Y-103840000D03*
D21*
X185120000Y-100090000D03*
D20*
X185620000Y-103840000D03*
D23*
X176845000Y-97890000D03*
D24*
X180120000Y-109740000D03*
X175120000Y-107640000D03*
D23*
X188395000Y-100090000D03*
D25*
X277230000Y-117400000D03*
X277230000Y-114400000D03*
D20*
X156620000Y-98840000D03*
D21*
X162120000Y-92890000D03*
D22*
X162120000Y-98840000D03*
D21*
X167120000Y-95090000D03*
D20*
X167620000Y-98840000D03*
D23*
X158845000Y-92890000D03*
D24*
X162120000Y-104740000D03*
X157120000Y-102640000D03*
D23*
X170395000Y-95090000D03*
D20*
X257620000Y-160840000D03*
D21*
X263120000Y-154890000D03*
D22*
X263120000Y-160840000D03*
D21*
X268120000Y-157090000D03*
D20*
X268620000Y-160840000D03*
D23*
X259845000Y-154890000D03*
D24*
X263120000Y-166740000D03*
X258120000Y-164640000D03*
D23*
X271395000Y-157090000D03*
D20*
X138620000Y-115840000D03*
D21*
X144120000Y-109890000D03*
D22*
X144120000Y-115840000D03*
D21*
X149120000Y-112090000D03*
D20*
X149620000Y-115840000D03*
D23*
X140845000Y-109890000D03*
D24*
X144120000Y-121740000D03*
X139120000Y-119640000D03*
D23*
X152395000Y-112090000D03*
D20*
X138620000Y-132840000D03*
D21*
X144120000Y-126890000D03*
D22*
X144120000Y-132840000D03*
D21*
X149120000Y-129090000D03*
D20*
X149620000Y-132840000D03*
D23*
X140845000Y-126890000D03*
D24*
X144120000Y-138740000D03*
X139120000Y-136640000D03*
D23*
X152395000Y-129090000D03*
D20*
X192620000Y-116840000D03*
D21*
X198120000Y-110890000D03*
D22*
X198120000Y-116840000D03*
D21*
X203120000Y-113090000D03*
D20*
X203620000Y-116840000D03*
D23*
X194845000Y-110890000D03*
D24*
X198120000Y-122740000D03*
X193120000Y-120640000D03*
D23*
X206395000Y-113090000D03*
D26*
X244850000Y-95540000D03*
X243834000Y-90460000D03*
X245866000Y-90460000D03*
D20*
X192620000Y-133840000D03*
D21*
X198120000Y-127890000D03*
D22*
X198120000Y-133840000D03*
D21*
X203120000Y-130090000D03*
D20*
X203620000Y-133840000D03*
D23*
X194845000Y-127890000D03*
D24*
X198120000Y-139740000D03*
X193120000Y-137640000D03*
D23*
X206395000Y-130090000D03*
D20*
X156620000Y-115840000D03*
D21*
X162120000Y-109890000D03*
D22*
X162120000Y-115840000D03*
D21*
X167120000Y-112090000D03*
D20*
X167620000Y-115840000D03*
D23*
X158845000Y-109890000D03*
D24*
X162120000Y-121740000D03*
X157120000Y-119640000D03*
D23*
X170395000Y-112090000D03*
D20*
X210620000Y-138840000D03*
D21*
X216120000Y-132890000D03*
D22*
X216120000Y-138840000D03*
D21*
X221120000Y-135090000D03*
D20*
X221620000Y-138840000D03*
D23*
X212845000Y-132890000D03*
D24*
X216120000Y-144740000D03*
X211120000Y-142640000D03*
D23*
X224395000Y-135090000D03*
D20*
X203620000Y-160840000D03*
D21*
X209120000Y-154890000D03*
D22*
X209120000Y-160840000D03*
D21*
X214120000Y-157090000D03*
D20*
X214620000Y-160840000D03*
D23*
X205845000Y-154890000D03*
D24*
X209120000Y-166740000D03*
X204120000Y-164640000D03*
D23*
X217395000Y-157090000D03*
D20*
X210620000Y-121840000D03*
D21*
X216120000Y-115890000D03*
D22*
X216120000Y-121840000D03*
D21*
X221120000Y-118090000D03*
D20*
X221620000Y-121840000D03*
D23*
X212845000Y-115890000D03*
D24*
X216120000Y-127740000D03*
X211120000Y-125640000D03*
D23*
X224395000Y-118090000D03*
D20*
X221620000Y-160840000D03*
D21*
X227120000Y-154890000D03*
D22*
X227120000Y-160840000D03*
D21*
X232120000Y-157090000D03*
D20*
X232620000Y-160840000D03*
D23*
X223845000Y-154890000D03*
D24*
X227120000Y-166740000D03*
X222120000Y-164640000D03*
D23*
X235395000Y-157090000D03*
D20*
X239620000Y-160840000D03*
D21*
X245120000Y-154890000D03*
D22*
X245120000Y-160840000D03*
D21*
X250120000Y-157090000D03*
D20*
X250620000Y-160840000D03*
D23*
X241845000Y-154890000D03*
D24*
X245120000Y-166740000D03*
X240120000Y-164640000D03*
D23*
X253395000Y-157090000D03*
D20*
X210620000Y-87840000D03*
D21*
X216120000Y-81890000D03*
D22*
X216120000Y-87840000D03*
D21*
X221120000Y-84090000D03*
D20*
X221620000Y-87840000D03*
D23*
X212845000Y-81890000D03*
D24*
X216120000Y-93740000D03*
X211120000Y-91640000D03*
D23*
X224395000Y-84090000D03*
D20*
X210620000Y-104840000D03*
D21*
X216120000Y-98890000D03*
D22*
X216120000Y-104840000D03*
D21*
X221120000Y-101090000D03*
D20*
X221620000Y-104840000D03*
D23*
X212845000Y-98890000D03*
D24*
X216120000Y-110740000D03*
X211120000Y-108640000D03*
D23*
X224395000Y-101090000D03*
D20*
X192620000Y-99840000D03*
D21*
X198120000Y-93890000D03*
D22*
X198120000Y-99840000D03*
D21*
X203120000Y-96090000D03*
D20*
X203620000Y-99840000D03*
D23*
X194845000Y-93890000D03*
D24*
X198120000Y-105740000D03*
X193120000Y-103640000D03*
D23*
X206395000Y-96090000D03*
D20*
X248620000Y-143840000D03*
D21*
X254120000Y-137890000D03*
D22*
X254120000Y-143840000D03*
D21*
X259120000Y-140090000D03*
D20*
X259620000Y-143840000D03*
D23*
X250845000Y-137890000D03*
D24*
X254120000Y-149740000D03*
X249120000Y-147640000D03*
D23*
X262395000Y-140090000D03*
D20*
X156620000Y-132840000D03*
D21*
X162120000Y-126890000D03*
D22*
X162120000Y-132840000D03*
D21*
X167120000Y-129090000D03*
D20*
X167620000Y-132840000D03*
D23*
X158845000Y-126890000D03*
D24*
X162120000Y-138740000D03*
X157120000Y-136640000D03*
D23*
X170395000Y-129090000D03*
D27*
X253500000Y-98000000D03*
D28*
X251500000Y-98000000D03*
D20*
X192620000Y-82840000D03*
D21*
X198120000Y-76890000D03*
D22*
X198120000Y-82840000D03*
D21*
X203120000Y-79090000D03*
D20*
X203620000Y-82840000D03*
D23*
X194845000Y-76890000D03*
D24*
X198120000Y-88740000D03*
X193120000Y-86640000D03*
D23*
X206395000Y-79090000D03*
D20*
X228620000Y-124840000D03*
D21*
X234120000Y-118890000D03*
D22*
X234120000Y-124840000D03*
D21*
X239120000Y-121090000D03*
D20*
X239620000Y-124840000D03*
D23*
X230845000Y-118890000D03*
D24*
X234120000Y-130740000D03*
X229120000Y-128640000D03*
D23*
X242395000Y-121090000D03*
D20*
X228620000Y-90840000D03*
D21*
X234120000Y-84890000D03*
D22*
X234120000Y-90840000D03*
D21*
X239120000Y-87090000D03*
D20*
X239620000Y-90840000D03*
D23*
X230845000Y-84890000D03*
D24*
X234120000Y-96740000D03*
X229120000Y-94640000D03*
D23*
X242395000Y-87090000D03*
D20*
X228620000Y-107840000D03*
D21*
X234120000Y-101890000D03*
D22*
X234120000Y-107840000D03*
D21*
X239120000Y-104090000D03*
D20*
X239620000Y-107840000D03*
D23*
X230845000Y-101890000D03*
D24*
X234120000Y-113740000D03*
X229120000Y-111640000D03*
D23*
X242395000Y-104090000D03*
D20*
X174620000Y-86840000D03*
D21*
X180120000Y-80890000D03*
D22*
X180120000Y-86840000D03*
D21*
X185120000Y-83090000D03*
D20*
X185620000Y-86840000D03*
D23*
X176845000Y-80890000D03*
D24*
X180120000Y-92740000D03*
X175120000Y-90640000D03*
D23*
X188395000Y-83090000D03*
D20*
X174620000Y-120840000D03*
D21*
X180120000Y-114890000D03*
D22*
X180120000Y-120840000D03*
D21*
X185120000Y-117090000D03*
D20*
X185620000Y-120840000D03*
D23*
X176845000Y-114890000D03*
D24*
X180120000Y-126740000D03*
X175120000Y-124640000D03*
D23*
X188395000Y-117090000D03*
D20*
X156620000Y-149840000D03*
D21*
X162120000Y-143890000D03*
D22*
X162120000Y-149840000D03*
D21*
X167120000Y-146090000D03*
D20*
X167620000Y-149840000D03*
D23*
X158845000Y-143890000D03*
D24*
X162120000Y-155740000D03*
X157120000Y-153640000D03*
D23*
X170395000Y-146090000D03*
D20*
X174620000Y-137840000D03*
D21*
X180120000Y-131890000D03*
D22*
X180120000Y-137840000D03*
D21*
X185120000Y-134090000D03*
D20*
X185620000Y-137840000D03*
D23*
X176845000Y-131890000D03*
D24*
X180120000Y-143740000D03*
X175120000Y-141640000D03*
D23*
X188395000Y-134090000D03*
D20*
X138620000Y-149840000D03*
D21*
X144120000Y-143890000D03*
D22*
X144120000Y-149840000D03*
D21*
X149120000Y-146090000D03*
D20*
X149620000Y-149840000D03*
D23*
X140845000Y-143890000D03*
D24*
X144120000Y-155740000D03*
X139120000Y-153640000D03*
D23*
X152395000Y-146090000D03*
D20*
X138620000Y-98840000D03*
D21*
X144120000Y-92890000D03*
D22*
X144120000Y-98840000D03*
D21*
X149120000Y-95090000D03*
D20*
X149620000Y-98840000D03*
D23*
X140845000Y-92890000D03*
D24*
X144120000Y-104740000D03*
X139120000Y-102640000D03*
D23*
X152395000Y-95090000D03*
D29*
X266262500Y-107537500D03*
X266262500Y-109112500D03*
D30*
X270275000Y-96100000D03*
X270275000Y-97750000D03*
D31*
X255912500Y-107112500D03*
X255912500Y-108662500D03*
D32*
X269262500Y-109150000D03*
X269262500Y-107500000D03*
D30*
X252250000Y-109200000D03*
X252250000Y-110850000D03*
D33*
X267212500Y-101256974D03*
X267212500Y-100306974D03*
X267212500Y-99356974D03*
X269487500Y-99356974D03*
X269487500Y-100306974D03*
X269487500Y-101256974D03*
D34*
X277175000Y-86300000D03*
X275525000Y-86300000D03*
D32*
X266050000Y-106150000D03*
X266050000Y-104500000D03*
D34*
X274500000Y-119750000D03*
X272850000Y-119750000D03*
D35*
X249962500Y-106587500D03*
X249962500Y-106087500D03*
X249962500Y-105587500D03*
X249962500Y-105087500D03*
D36*
X250650000Y-104400000D03*
X251150000Y-104400000D03*
X251650000Y-104400000D03*
X252150000Y-104400000D03*
D35*
X252837500Y-105087500D03*
X252837500Y-105587500D03*
X252837500Y-106087500D03*
X252837500Y-106587500D03*
D36*
X252150000Y-107275000D03*
X251650000Y-107275000D03*
X251150000Y-107275000D03*
X250650000Y-107275000D03*
D37*
X251400000Y-105837500D03*
D30*
X269175000Y-117325000D03*
X269175000Y-118975000D03*
D38*
X265560000Y-88860000D03*
X265560000Y-86360000D03*
D39*
X269437500Y-115700000D03*
X269437500Y-113800000D03*
X271312500Y-114750000D03*
D40*
X267512500Y-106075000D03*
X269087500Y-106075000D03*
D41*
X263048400Y-84799300D03*
X263048400Y-85899120D03*
X263048400Y-86998940D03*
X263048400Y-88098760D03*
X263048400Y-89198580D03*
X263048400Y-90298400D03*
X263048400Y-91398220D03*
X263048400Y-92498040D03*
X249050460Y-92498040D03*
X249050460Y-91398220D03*
X249050460Y-90298400D03*
X249050460Y-89198580D03*
X249050460Y-88098760D03*
X249050460Y-86998940D03*
X249050460Y-85899120D03*
X249050460Y-84799300D03*
D42*
X258298600Y-85599400D03*
X258298600Y-86798280D03*
X258298600Y-87999700D03*
X258298600Y-89198580D03*
X258298600Y-90400000D03*
X258298600Y-91598880D03*
X258298600Y-92800300D03*
X256800000Y-85599400D03*
X256800000Y-86798280D03*
X256800000Y-87999700D03*
X256800000Y-89198580D03*
X256800000Y-90400000D03*
X256800000Y-91598880D03*
X256800000Y-92800300D03*
X255298860Y-85599400D03*
X255298860Y-86798280D03*
X255298860Y-87999700D03*
X255298860Y-89198580D03*
X255298860Y-90400000D03*
X255298860Y-91598880D03*
X255298860Y-92800300D03*
X253800260Y-85599400D03*
X253800260Y-86798280D03*
X253800260Y-87999700D03*
X253800260Y-89198580D03*
X253800260Y-90400000D03*
X253800260Y-91598880D03*
X253800260Y-92800300D03*
X252299120Y-85599400D03*
X252299120Y-86798280D03*
X252299120Y-87999700D03*
X252299120Y-89198580D03*
X252299120Y-90400000D03*
X252299120Y-91598880D03*
X252299120Y-92800300D03*
D43*
X259418740Y-83597880D03*
X257170840Y-83597880D03*
X254920400Y-83597880D03*
X252669960Y-83597880D03*
D42*
X250800520Y-90400000D03*
X250800520Y-91598880D03*
D44*
X250800520Y-92800300D03*
D42*
X259799740Y-85599400D03*
X259799740Y-86798280D03*
X259799740Y-87999700D03*
X259799740Y-89198580D03*
X259799740Y-90400000D03*
X259799740Y-91598880D03*
X259799740Y-92800300D03*
D30*
X250000000Y-108750000D03*
X250000000Y-110400000D03*
D45*
X267520000Y-89975000D03*
X267520000Y-88425000D03*
D30*
X270825000Y-117300000D03*
X270825000Y-118950000D03*
D31*
X267520000Y-85365000D03*
X267520000Y-86915000D03*
D46*
X269087500Y-104575000D03*
X267512500Y-104575000D03*
D47*
X275425000Y-91500000D03*
X277075000Y-91500000D03*
D48*
X266100000Y-113750000D03*
X267650000Y-113750000D03*
D49*
X264512500Y-107575000D03*
X264512500Y-109675000D03*
D30*
X254362500Y-107062500D03*
X254362500Y-108712500D03*
X248262500Y-107412500D03*
X248262500Y-109062500D03*
D31*
X267762500Y-107550000D03*
X267762500Y-109100000D03*
D45*
X248262500Y-105862500D03*
X248262500Y-104312500D03*
%LPD*%
M02*
