G04 #@! TF.GenerationSoftware,KiCad,Pcbnew,7.0.9*
G04 #@! TF.CreationDate,2024-01-11T22:18:44+01:00*
G04 #@! TF.ProjectId,keyboard,6b657962-6f61-4726-942e-6b696361645f,v1.0.0*
G04 #@! TF.SameCoordinates,Original*
G04 #@! TF.FileFunction,Soldermask,Top*
G04 #@! TF.FilePolarity,Negative*
%FSLAX46Y46*%
G04 Gerber Fmt 4.6, Leading zero omitted, Abs format (unit mm)*
G04 Created by KiCad (PCBNEW 7.0.9) date 2024-01-11 22:18:44*
%MOMM*%
%LPD*%
G01*
G04 APERTURE LIST*
G04 Aperture macros list*
%AMRoundRect*
0 Rectangle with rounded corners*
0 $1 Rounding radius*
0 $2 $3 $4 $5 $6 $7 $8 $9 X,Y pos of 4 corners*
0 Add a 4 corners polygon primitive as box body*
4,1,4,$2,$3,$4,$5,$6,$7,$8,$9,$2,$3,0*
0 Add four circle primitives for the rounded corners*
1,1,$1+$1,$2,$3*
1,1,$1+$1,$4,$5*
1,1,$1+$1,$6,$7*
1,1,$1+$1,$8,$9*
0 Add four rect primitives between the rounded corners*
20,1,$1+$1,$2,$3,$4,$5,0*
20,1,$1+$1,$4,$5,$6,$7,0*
20,1,$1+$1,$6,$7,$8,$9,0*
20,1,$1+$1,$8,$9,$2,$3,0*%
G04 Aperture macros list end*
%ADD10O,1.800000X1.000000*%
%ADD11O,2.200000X1.000000*%
%ADD12C,2.200000*%
%ADD13C,1.701800*%
%ADD14C,3.000000*%
%ADD15C,3.429000*%
%ADD16C,2.032000*%
%ADD17R,0.800000X1.000000*%
%ADD18C,0.900000*%
%ADD19R,1.500000X0.700000*%
%ADD20C,0.990600*%
%ADD21C,0.787400*%
%ADD22R,1.300000X1.550000*%
%ADD23RoundRect,0.218750X-0.218750X-0.256250X0.218750X-0.256250X0.218750X0.256250X-0.218750X0.256250X0*%
%ADD24RoundRect,0.250000X0.350000X0.625000X-0.350000X0.625000X-0.350000X-0.625000X0.350000X-0.625000X0*%
%ADD25O,1.200000X1.750000*%
G04 APERTURE END LIST*
D10*
X273585000Y-96375000D03*
D11*
X277610000Y-96380000D03*
X277610000Y-107620000D03*
D10*
X273585000Y-107625000D03*
D12*
X267600000Y-146600000D03*
X168500000Y-87200000D03*
X186100000Y-153900000D03*
D13*
X228620000Y-141840000D03*
D14*
X234120000Y-135890000D03*
D15*
X234120000Y-141840000D03*
D14*
X239120000Y-138090000D03*
D13*
X239620000Y-141840000D03*
D16*
X234120000Y-147740000D03*
X229120000Y-145640000D03*
D13*
X174620000Y-103840000D03*
D14*
X180120000Y-97890000D03*
D15*
X180120000Y-103840000D03*
D14*
X185120000Y-100090000D03*
D13*
X185620000Y-103840000D03*
D16*
X180120000Y-109740000D03*
X175120000Y-107640000D03*
D17*
X276120000Y-119550000D03*
X278330000Y-119550000D03*
D18*
X277230000Y-117400000D03*
X277230000Y-114400000D03*
D17*
X276120000Y-112250000D03*
X278330000Y-112250000D03*
D19*
X275470000Y-118150000D03*
X275470000Y-115150000D03*
X275470000Y-113650000D03*
D13*
X156620000Y-98840000D03*
D14*
X162120000Y-92890000D03*
D15*
X162120000Y-98840000D03*
D14*
X167120000Y-95090000D03*
D13*
X167620000Y-98840000D03*
D16*
X162120000Y-104740000D03*
X157120000Y-102640000D03*
D13*
X257620000Y-160840000D03*
D14*
X263120000Y-154890000D03*
D15*
X263120000Y-160840000D03*
D14*
X268120000Y-157090000D03*
D13*
X268620000Y-160840000D03*
D16*
X263120000Y-166740000D03*
X258120000Y-164640000D03*
D13*
X138620000Y-115840000D03*
D14*
X144120000Y-109890000D03*
D15*
X144120000Y-115840000D03*
D14*
X149120000Y-112090000D03*
D13*
X149620000Y-115840000D03*
D16*
X144120000Y-121740000D03*
X139120000Y-119640000D03*
D13*
X138620000Y-132840000D03*
D14*
X144120000Y-126890000D03*
D15*
X144120000Y-132840000D03*
D14*
X149120000Y-129090000D03*
D13*
X149620000Y-132840000D03*
D16*
X144120000Y-138740000D03*
X139120000Y-136640000D03*
D13*
X192620000Y-116840000D03*
D14*
X198120000Y-110890000D03*
D15*
X198120000Y-116840000D03*
D14*
X203120000Y-113090000D03*
D13*
X203620000Y-116840000D03*
D16*
X198120000Y-122740000D03*
X193120000Y-120640000D03*
D20*
X244850000Y-95540000D03*
X243834000Y-90460000D03*
X245866000Y-90460000D03*
D21*
X245485000Y-94270000D03*
X244215000Y-94270000D03*
X245485000Y-93000000D03*
X244215000Y-93000000D03*
X245485000Y-91730000D03*
X244215000Y-91730000D03*
D13*
X192620000Y-133840000D03*
D14*
X198120000Y-127890000D03*
D15*
X198120000Y-133840000D03*
D14*
X203120000Y-130090000D03*
D13*
X203620000Y-133840000D03*
D16*
X198120000Y-139740000D03*
X193120000Y-137640000D03*
D13*
X156620000Y-115840000D03*
D14*
X162120000Y-109890000D03*
D15*
X162120000Y-115840000D03*
D14*
X167120000Y-112090000D03*
D13*
X167620000Y-115840000D03*
D16*
X162120000Y-121740000D03*
X157120000Y-119640000D03*
D22*
X272250000Y-131650000D03*
X272250000Y-123700000D03*
X276750000Y-131650000D03*
X276750000Y-123700000D03*
D13*
X210620000Y-138840000D03*
D14*
X216120000Y-132890000D03*
D15*
X216120000Y-138840000D03*
D14*
X221120000Y-135090000D03*
D13*
X221620000Y-138840000D03*
D16*
X216120000Y-144740000D03*
X211120000Y-142640000D03*
D13*
X203620000Y-160840000D03*
D14*
X209120000Y-154890000D03*
D15*
X209120000Y-160840000D03*
D14*
X214120000Y-157090000D03*
D13*
X214620000Y-160840000D03*
D16*
X209120000Y-166740000D03*
X204120000Y-164640000D03*
D13*
X210620000Y-121840000D03*
D14*
X216120000Y-115890000D03*
D15*
X216120000Y-121840000D03*
D14*
X221120000Y-118090000D03*
D13*
X221620000Y-121840000D03*
D16*
X216120000Y-127740000D03*
X211120000Y-125640000D03*
D13*
X221620000Y-160840000D03*
D14*
X227120000Y-154890000D03*
D15*
X227120000Y-160840000D03*
D14*
X232120000Y-157090000D03*
D13*
X232620000Y-160840000D03*
D16*
X227120000Y-166740000D03*
X222120000Y-164640000D03*
D23*
X275562500Y-89800000D03*
X277137500Y-89800000D03*
D13*
X239620000Y-160840000D03*
D14*
X245120000Y-154890000D03*
D15*
X245120000Y-160840000D03*
D14*
X250120000Y-157090000D03*
D13*
X250620000Y-160840000D03*
D16*
X245120000Y-166740000D03*
X240120000Y-164640000D03*
D13*
X210620000Y-87840000D03*
D14*
X216120000Y-81890000D03*
D15*
X216120000Y-87840000D03*
D14*
X221120000Y-84090000D03*
D13*
X221620000Y-87840000D03*
D16*
X216120000Y-93740000D03*
X211120000Y-91640000D03*
D13*
X210620000Y-104840000D03*
D14*
X216120000Y-98890000D03*
D15*
X216120000Y-104840000D03*
D14*
X221120000Y-101090000D03*
D13*
X221620000Y-104840000D03*
D16*
X216120000Y-110740000D03*
X211120000Y-108640000D03*
D13*
X192620000Y-99840000D03*
D14*
X198120000Y-93890000D03*
D15*
X198120000Y-99840000D03*
D14*
X203120000Y-96090000D03*
D13*
X203620000Y-99840000D03*
D16*
X198120000Y-105740000D03*
X193120000Y-103640000D03*
D13*
X248620000Y-143840000D03*
D14*
X254120000Y-137890000D03*
D15*
X254120000Y-143840000D03*
D14*
X259120000Y-140090000D03*
D13*
X259620000Y-143840000D03*
D16*
X254120000Y-149740000D03*
X249120000Y-147640000D03*
D13*
X156620000Y-132840000D03*
D14*
X162120000Y-126890000D03*
D15*
X162120000Y-132840000D03*
D14*
X167120000Y-129090000D03*
D13*
X167620000Y-132840000D03*
D16*
X162120000Y-138740000D03*
X157120000Y-136640000D03*
D24*
X253500000Y-98000000D03*
D25*
X251500000Y-98000000D03*
D13*
X192620000Y-82840000D03*
D14*
X198120000Y-76890000D03*
D15*
X198120000Y-82840000D03*
D14*
X203120000Y-79090000D03*
D13*
X203620000Y-82840000D03*
D16*
X198120000Y-88740000D03*
X193120000Y-86640000D03*
D13*
X228620000Y-124840000D03*
D14*
X234120000Y-118890000D03*
D15*
X234120000Y-124840000D03*
D14*
X239120000Y-121090000D03*
D13*
X239620000Y-124840000D03*
D16*
X234120000Y-130740000D03*
X229120000Y-128640000D03*
D13*
X228620000Y-90840000D03*
D14*
X234120000Y-84890000D03*
D15*
X234120000Y-90840000D03*
D14*
X239120000Y-87090000D03*
D13*
X239620000Y-90840000D03*
D16*
X234120000Y-96740000D03*
X229120000Y-94640000D03*
D13*
X228620000Y-107840000D03*
D14*
X234120000Y-101890000D03*
D15*
X234120000Y-107840000D03*
D14*
X239120000Y-104090000D03*
D13*
X239620000Y-107840000D03*
D16*
X234120000Y-113740000D03*
X229120000Y-111640000D03*
D13*
X174620000Y-86840000D03*
D14*
X180120000Y-80890000D03*
D15*
X180120000Y-86840000D03*
D14*
X185120000Y-83090000D03*
D13*
X185620000Y-86840000D03*
D16*
X180120000Y-92740000D03*
X175120000Y-90640000D03*
D13*
X174620000Y-120840000D03*
D14*
X180120000Y-114890000D03*
D15*
X180120000Y-120840000D03*
D14*
X185120000Y-117090000D03*
D13*
X185620000Y-120840000D03*
D16*
X180120000Y-126740000D03*
X175120000Y-124640000D03*
D13*
X156620000Y-149840000D03*
D14*
X162120000Y-143890000D03*
D15*
X162120000Y-149840000D03*
D14*
X167120000Y-146090000D03*
D13*
X167620000Y-149840000D03*
D16*
X162120000Y-155740000D03*
X157120000Y-153640000D03*
D23*
X275562500Y-87900000D03*
X277137500Y-87900000D03*
D13*
X174620000Y-137840000D03*
D14*
X180120000Y-131890000D03*
D15*
X180120000Y-137840000D03*
D14*
X185120000Y-134090000D03*
D13*
X185620000Y-137840000D03*
D16*
X180120000Y-143740000D03*
X175120000Y-141640000D03*
D13*
X138620000Y-149840000D03*
D14*
X144120000Y-143890000D03*
D15*
X144120000Y-149840000D03*
D14*
X149120000Y-146090000D03*
D13*
X149620000Y-149840000D03*
D16*
X144120000Y-155740000D03*
X139120000Y-153640000D03*
D13*
X138620000Y-98840000D03*
D14*
X144120000Y-92890000D03*
D15*
X144120000Y-98840000D03*
D14*
X149120000Y-95090000D03*
D13*
X149620000Y-98840000D03*
D16*
X144120000Y-104740000D03*
X139120000Y-102640000D03*
M02*
